0
SECTION
2
HEADER
9
$INSUNITS
70
4
9
$ACADVER
1
AC1014
9
$HANDSEED
5
FFFF
0
ENDSEC
0
SECTION
2
TABLES
0
TABLE
2
VPORT
5
8
100
AcDbSymbolTable
0
ENDTAB
0
TABLE
2
LTYPE
5
5
100
AcDbSymbolTable
0
LTYPE
5
14
100
AcDbSymbolTableRecord
100
AcDbLinetypeTableRecord
2
BYBLOCK
70
0
0
LTYPE
5
15
100
AcDbSymbolTableRecord
100
AcDbLinetypeTableRecord
2
BYLAYER
70
0
0
ENDTAB
0
TABLE
2
LAYER
5
2
100
AcDbSymbolTable
70
2
0
LAYER
5
50
100
AcDbSymbolTableRecord
100
AcDbLayerTableRecord
2
0
70
0
6
CONTINUOUS
0
ENDTAB
0
TABLE
2
STYLE
5
3
100
AcDbSymbolTable
70
1
0
STYLE
5
11
100
AcDbSymbolTableRecord
100
AcDbTextStyleTableRecord
2
STANDARD
70
0
0
ENDTAB
0
TABLE
2
VIEW
5
6
100
AcDbSymbolTable
70
0
0
ENDTAB
0
TABLE
2
UCS
5
7
100
AcDbSymbolTable
70
0
0
ENDTAB
0
TABLE
2
APPID
5
9
100
AcDbSymbolTable
70
2
0
APPID
5
12
100
AcDbSymbolTableRecord
100
AcDbRegAppTableRecord
2
ACAD
70
0
0
ENDTAB
0
TABLE
2
DIMSTYLE
5
A
100
AcDbSymbolTable
70
1
0
ENDTAB
0
TABLE
2
BLOCK_RECORD
5
1
100
AcDbSymbolTable
70
1
0
BLOCK_RECORD
5
1F
100
AcDbSymbolTableRecord
100
AcDbBlockTableRecord
2
*MODEL_SPACE
0
BLOCK_RECORD
5
1B
100
AcDbSymbolTableRecord
100
AcDbBlockTableRecord
2
*PAPER_SPACE
0
ENDTAB
0
ENDSEC
0
SECTION
2
BLOCKS
0
BLOCK
5
20
100
AcDbEntity
100
AcDbBlockBegin
2
*MODEL_SPACE
0
ENDBLK
5
21
100
AcDbEntity
100
AcDbBlockEnd
0
BLOCK
5
1C
100
AcDbEntity
100
AcDbBlockBegin
2
*PAPER_SPACE
0
ENDBLK
5
1D
100
AcDbEntity
100
AcDbBlockEnd
0
ENDSEC
0
SECTION
2
ENTITIES
0
CIRCLE
5
100
100
AcDbEntity
8
0
100
AcDbCircle
10
-63.662250037977145
20
-65.534000347599019
30
0
40
1.7500000000000002
210
0
220
-0
230
1
0
CIRCLE
5
101
100
AcDbEntity
8
0
100
AcDbCircle
10
-177.50333621687562
20
50.376699815305422
30
0
40
1.7500000000000002
210
0
220
-0
230
1
0
CIRCLE
5
102
100
AcDbEntity
8
0
100
AcDbCircle
10
62.666773723761089
20
59.444200408984003
30
0
40
1.7500000000000002
210
0
220
-0
230
1
0
CIRCLE
5
103
100
AcDbEntity
8
0
100
AcDbCircle
10
173.62046809547621
20
-58.939104497046358
30
0
40
1.7500000000000002
210
0
220
-0
230
1
0
CIRCLE
5
104
100
AcDbEntity
8
0
100
AcDbCircle
10
173.62046809547627
20
51.138699815305415
30
0
40
1.7500000000000002
210
0
220
-0
230
1
0
CIRCLE
5
105
100
AcDbEntity
8
0
100
AcDbCircle
10
-63.690097946252976
20
58.637641565970625
30
0
40
1.7500000000000002
210
0
220
-0
230
1
0
CIRCLE
5
106
100
AcDbEntity
8
0
100
AcDbCircle
10
-177.50333621687562
20
-58.685104497046375
30
0
40
1.7500000000000002
210
0
220
-0
230
1
0
CIRCLE
5
107
100
AcDbEntity
8
0
100
AcDbCircle
10
62.859926709547615
20
-65.541538699328939
30
0
40
1.7500000000000002
210
0
220
-0
230
1
0
LWPOLYLINE
5
108
100
AcDbEntity
8
0
100
AcDbPolyline
90
48
70
1
43
0.0
10
42.651835813385205
20
-65.751514608071787
10
44.732872997102326
20
-75.53258225122751
10
38.648050745754468
20
-76.827199753461471
42
-0.058846203974490259
10
35.142565939300319
20
-77.241202340870501
10
-35.723434060699653
20
-77.24120229883647
42
-0.058644342790359107
10
-39.217142216994176
20
-76.830015725401481
10
-82.122410898009349
20
-67.766999535341597
42
0.052090285125248666
10
-86.255864534097554
20
-67.335202340870495
10
-171.10543406069974
20
-67.335202340870538
42
-0.4142135623730952
10
-186.15343406069974
20
-52.287202340870508
10
-186.15343406069971
20
43.978797659129526
42
-0.4142135623730952
10
-171.10543406069974
20
59.026797659129528
10
-93.144402632352808
20
59.026797659129528
42
0.051720162702109912
10
-89.039846172356903
20
59.452513093232724
10
-29.334012881279232
20
71.972304706015166
42
-0.051720162702107692
10
-25.229456421283327
20
72.398020140118348
10
26.320443910237763
20
72.398020140118376
42
-0.049115099075308581
10
30.221330572935958
20
72.013908680910575
10
89.764646673882766
20
60.172909118337323
42
0.049115099075311607
10
93.665533336580964
20
59.788797659129528
10
167.22256593930035
20
59.788797659129536
42
-0.41421356237309503
10
182.27056593930033
20
44.740797659129541
10
182.27056593930033
20
-52.541202340870505
42
-0.4142135623730952
10
167.22256593930035
20
-67.589202340870514
10
84.171564433060965
20
-67.5892023408705
42
0.052456994628027297
10
80.009490065626892
20
-68.027067054559126
10
61.302001416096282
20
-72.007305297863681
10
59.220964232379146
20
-62.226237654707859
10
80.837114557058442
20
-57.627147429015167
42
-0.067582024644346414
10
81.11656593930033
20
-57.589202340870507
10
167.22256593930035
20
-57.589202340870507
42
0.41421356237309503
10
172.27056593930033
20
-52.541202340870527
10
172.27056593930033
20
44.740797659129527
42
0.41421356237309609
10
167.22256593930035
20
49.788797659129528
10
90.711501401630386
20
49.788797659129528
10
1.4908629301210592
20
67.531537067908758
42
0.08905412341540199
10
-1.5924082026719333
20
67.571989740949505
10
-90.032869596427958
20
49.026797659129528
10
-171.10543406069974
20
49.026797659129528
42
0.41421356237309453
10
-176.15343406069974
20
43.97879765912954
10
-176.15343406069971
20
-52.287202340870493
42
0.41421356237309609
10
-171.10543406069974
20
-57.335202340870495
10
-83.221434060699693
20
-57.335202340870495
42
-0.067840848104338311
10
-82.940941895919451
20
-57.373435959227251
10
-36.988466528324267
20
-67.080123297002288
42
0.063409966011720165
10
-35.723434060699653
20
-67.24120229883647
10
35.142565939300319
20
-67.241202340870501
42
0.063491865222237279
10
36.409192870408816
20
-67.079710318699938
0
ENDSEC
0
SECTION
2
OBJECTS
0
DICTIONARY
5
C
100
AcDbDictionary
3
ACAD_GROUP
350
D
3
ACAD_MLINESTYLE
350
17
0
DICTIONARY
5
D
100
AcDbDictionary
0
DICTIONARY
5
1A
330
C
100
AcDbDictionary
0
DICTIONARY
5
17
100
AcDbDictionary
0
ENDSEC
0
EOF
