0
SECTION
2
HEADER
9
$INSUNITS
70
4
9
$ACADVER
1
AC1014
9
$HANDSEED
5
FFFF
0
ENDSEC
0
SECTION
2
TABLES
0
TABLE
2
VPORT
5
8
100
AcDbSymbolTable
0
ENDTAB
0
TABLE
2
LTYPE
5
5
100
AcDbSymbolTable
0
LTYPE
5
14
100
AcDbSymbolTableRecord
100
AcDbLinetypeTableRecord
2
BYBLOCK
70
0
0
LTYPE
5
15
100
AcDbSymbolTableRecord
100
AcDbLinetypeTableRecord
2
BYLAYER
70
0
0
ENDTAB
0
TABLE
2
LAYER
5
2
100
AcDbSymbolTable
70
2
0
LAYER
5
50
100
AcDbSymbolTableRecord
100
AcDbLayerTableRecord
2
0
70
0
6
CONTINUOUS
0
ENDTAB
0
TABLE
2
STYLE
5
3
100
AcDbSymbolTable
70
1
0
STYLE
5
11
100
AcDbSymbolTableRecord
100
AcDbTextStyleTableRecord
2
STANDARD
70
0
0
ENDTAB
0
TABLE
2
VIEW
5
6
100
AcDbSymbolTable
70
0
0
ENDTAB
0
TABLE
2
UCS
5
7
100
AcDbSymbolTable
70
0
0
ENDTAB
0
TABLE
2
APPID
5
9
100
AcDbSymbolTable
70
2
0
APPID
5
12
100
AcDbSymbolTableRecord
100
AcDbRegAppTableRecord
2
ACAD
70
0
0
ENDTAB
0
TABLE
2
DIMSTYLE
5
A
100
AcDbSymbolTable
70
1
0
ENDTAB
0
TABLE
2
BLOCK_RECORD
5
1
100
AcDbSymbolTable
70
1
0
BLOCK_RECORD
5
1F
100
AcDbSymbolTableRecord
100
AcDbBlockTableRecord
2
*MODEL_SPACE
0
BLOCK_RECORD
5
1B
100
AcDbSymbolTableRecord
100
AcDbBlockTableRecord
2
*PAPER_SPACE
0
ENDTAB
0
ENDSEC
0
SECTION
2
BLOCKS
0
BLOCK
5
20
100
AcDbEntity
100
AcDbBlockBegin
2
*MODEL_SPACE
0
ENDBLK
5
21
100
AcDbEntity
100
AcDbBlockEnd
0
BLOCK
5
1C
100
AcDbEntity
100
AcDbBlockBegin
2
*PAPER_SPACE
0
ENDBLK
5
1D
100
AcDbEntity
100
AcDbBlockEnd
0
ENDSEC
0
SECTION
2
ENTITIES
0
LWPOLYLINE
5
100
100
AcDbEntity
8
0
100
AcDbPolyline
90
50
70
1
43
0.0
10
-87.796360770593154
20
26.890120230046971
42
-0.47694757349082767
10
-88.77452731010203
20
25.682297659123069
10
-137.78868406069978
20
25.682297659129265
42
-0.41421356237309503
10
-138.78868406069967
20
26.682297659129404
10
-138.78868406069753
20
43.780297659126859
42
0.41421356237309503
10
-139.78868406069742
20
44.78029765912698
10
-167.34468406069738
20
44.780297659130426
42
0.41421356237310025
10
-168.34468406069755
20
43.780297659130554
10
-168.34468406069971
20
26.682297659129439
42
-0.4142135623730781
10
-169.34468406069985
20
25.682297659129567
10
-171.03468406069737
20
25.682297659129784
42
0.41421356237309892
10
-172.03468406069754
20
24.682297659129912
10
-172.03468406069985
20
6.6322976591299394
42
0.41421356237309148
10
-171.03468406069996
20
5.6322976591298097
10
-168.8616840606991
20
5.6322976591295024
42
-0.41421356237309082
10
-167.86168406069925
20
4.6322976591293958
10
-167.86168406070135
20
-12.417702340870015
42
0.41421356237308982
10
-166.86168406070149
20
-13.417702340870139
10
-164.58868406069755
20
-13.417702340870452
42
-0.41421356237309115
10
-163.58868406069772
20
-14.417702340870559
10
-163.58868406069988
20
-31.467702340869433
42
0.41421356237309115
10
-162.58868406070002
20
-32.467702340869565
10
-160.42568406069756
20
-32.467702340869842
42
-0.41421356237307944
10
-159.42568406069773
20
-33.467702340869963
10
-159.42568406069984
20
-50.517202340865552
42
0.41421356237310542
10
-158.42568406069995
20
-51.517202340865673
10
-103.69568406069976
20
-51.51720234087076
42
-0.41421356237310281
10
-102.69568406069985
20
-52.517202340870888
10
-102.69568406069986
20
-52.65720234086848
42
0.41421356237309503
10
-101.69568406069999
20
-53.657202340868587
10
-80.540140838040216
20
-53.657202340871294
42
0.052406074491576048
10
-80.332235799108688
20
-53.635351355483564
10
-5.3569283491736286
20
-37.69939069773833
42
0.41420806666555215
10
-4.5866804726271946
20
-36.513354997784766
10
-8.1300808386966352
20
-19.840871172831079
42
-0.41420273241818467
10
-7.359850776522423
20
-18.654839259482156
10
0.0034521634254571637
20
-17.089633078257435
42
0.4142135623730952
10
0.77367453812944353
20
-15.903564996946184
10
-2.979395822014252
20
1.7522520756990194
42
0.41421356237309476
10
-4.1654639033255023
20
2.5224744504030054
10
-6.8672492560868488
20
1.9481600199126041
42
-0.41421356237309576
10
-8.0533173373981004
20
2.7183823946165919
10
-11.390819552311768
20
18.419214761587707
42
-0.41421356237309631
10
-10.620597177607783
20
19.605282842898959
10
-3.2570980684664228
20
21.170530723512758
42
0.41421356237309687
10
-2.4868756937624381
20
22.356598804824017
10
-10.513420823372023
20
60.116405825412961
42
0.41421048371287517
10
-11.699478623177075
20
60.886630385584716
10
-90.441087207489318
20
44.149510680832485
42
0.41418661333014173
10
-91.211341175200644
20
42.963540696433213
0
LWPOLYLINE
5
101
100
AcDbEntity
8
0
100
AcDbPolyline
90
24
70
1
43
0.0
10
163.18431593930032
20
-16.557702340870527
42
-0.41421356237310542
10
164.18431593930038
20
-15.557702340870527
10
166.25431593930028
20
-15.557702340870524
42
0.4142135623730957
10
167.25431593930028
20
-14.557702340870522
10
167.25431593930028
20
3.4922976591279333
42
0.41421356237309503
10
166.25431593930028
20
4.4922976591279333
10
148.20431593930022
20
4.4922976591279333
42
0.41421356237309537
10
147.20431593930019
20
3.492297659127932
10
147.20431593930019
20
-13.556702340870517
42
-0.4142135623730937
10
146.20431593930019
20
-14.556702340870517
10
144.13431593930034
20
-14.556702340870519
42
0.41421356237309503
10
143.13431593930034
20
-15.556702340870519
10
143.13431593930034
20
-32.607202340870515
42
-0.4142135623730937
10
142.13431593930034
20
-33.607202340870508
10
139.97431593930034
20
-33.607202340870508
42
0.41421356237309503
10
138.97431593930034
20
-34.607202340870508
10
138.97431593930034
20
-52.657202340870498
42
0.41421356237309503
10
139.97431593930034
20
-53.657202340870498
10
158.02431593930032
20
-53.657202340870498
42
0.41421356237309503
10
159.02431593930029
20
-52.657202340870498
10
159.02431593930029
20
-35.607202340870501
42
-0.41421356237309631
10
160.02431593930029
20
-34.607202340870501
10
162.18431593930035
20
-34.607202340870501
42
0.41421356237309503
10
163.18431593930035
20
-33.607202340870501
0
LWPOLYLINE
5
102
100
AcDbEntity
8
0
100
AcDbPolyline
90
24
70
1
43
0.0
10
-29.126577345551013
20
69.972304706015166
42
-0.051720162702108025
10
-25.022020885555101
20
70.398020140118362
10
26.1235084479077
20
70.398020140118362
42
-0.049115099075308581
10
30.024395110605866
20
70.013908680910575
10
89.567711211552762
20
58.172909118337301
42
0.049115099075311607
10
93.46859787425096
20
57.788797659129528
10
167.22256593930035
20
57.788797659129528
42
-0.41421356237309387
10
180.27056593930035
20
44.740797659129541
10
180.27056593930035
20
-52.541202340870505
42
-0.41421356237309503
10
167.22256593930035
20
-65.589202340870514
10
83.961157470073942
20
-65.589202340870514
42
0.052456994628027165
10
79.799083102639884
20
-66.027067054559154
10
38.206033618873853
20
-74.876477539974573
42
-0.059318635193395822
10
35.14256594048662
20
-75.241202340870501
10
-35.723434060699653
20
-75.241202298836484
42
-0.059128968794587303
10
-38.77731212230502
20
-74.878789898722346
10
-81.913482852608496
20
-65.766999535341611
42
0.052090285125249609
10
-86.046936488696772
20
-65.335202340870495
10
-171.10543406069974
20
-65.335202340870495
42
-0.41421356237309465
10
-184.15343406069974
20
-52.287202340870508
10
-184.15343406069974
20
43.978797659129526
42
-0.41421356237309503
10
-171.10543406069974
20
57.026797659129528
10
-92.936967096624571
20
57.026797659129528
42
0.051720162702109641
10
-88.83241063662868
20
57.45251309323271
0
CIRCLE
5
103
100
AcDbEntity
8
0
100
AcDbCircle
10
-63.662250037977145
20
-65.534000347599019
30
0
40
1
210
0
220
-0
230
1
0
CIRCLE
5
104
100
AcDbEntity
8
0
100
AcDbCircle
10
-177.50333621687562
20
50.376699815305422
30
0
40
1
210
0
220
-0
230
1
0
CIRCLE
5
105
100
AcDbEntity
8
0
100
AcDbCircle
10
62.666773723761089
20
59.444200408984003
30
0
40
1
210
0
220
-0
230
1
0
CIRCLE
5
106
100
AcDbEntity
8
0
100
AcDbCircle
10
173.62046809547621
20
-58.939104497046358
30
0
40
1
210
0
220
-0
230
1
0
CIRCLE
5
107
100
AcDbEntity
8
0
100
AcDbCircle
10
173.62046809547627
20
51.138699815305415
30
0
40
1
210
0
220
-0
230
1
0
CIRCLE
5
108
100
AcDbEntity
8
0
100
AcDbCircle
10
-63.690097946252976
20
58.637641565970625
30
0
40
1
210
0
220
-0
230
1
0
CIRCLE
5
109
100
AcDbEntity
8
0
100
AcDbCircle
10
-177.50333621687562
20
-58.685104497046375
30
0
40
1
210
0
220
-0
230
1
0
CIRCLE
5
110
100
AcDbEntity
8
0
100
AcDbCircle
10
62.859926709547615
20
-65.541538699328939
30
0
40
1
210
0
220
-0
230
1
0
LWPOLYLINE
5
111
100
AcDbEntity
8
0
100
AcDbPolyline
90
54
70
1
43
0.0
10
13.695020061031686
20
-16.902830372994757
42
-0.41421356237309304
10
12.508988451071081
20
-17.673108907146037
10
5.1445662975887529
20
-16.108029274407841
42
0.41421356237309609
10
3.9585346876281418
20
-16.878307808559121
10
0.20631689689175003
20
-34.534224635260294
42
0.41420814816987456
10
0.97657734960674425
20
-35.72025240239747
10
77.472210558642004
20
-51.9785058012259
42
-0.31237440316382697
10
78.253043263805111
20
-52.806929685664471
42
0.37084840355139537
10
79.241770588309166
20
-53.657202340870512
10
97.314315939300371
20
-53.657202340870512
42
0.41421356237309503
10
98.314315939300357
20
-52.657202340870519
10
98.314315939300371
20
-52.51720234087049
42
-0.41421356237309764
10
99.314315939300357
20
-51.517202340870497
10
135.0043159393004
20
-51.517202340870497
42
0.41421356237309503
10
136.0043159393004
20
-50.517202340870497
10
136.00431593930034
20
-33.467702340870503
42
-0.41421356237309892
10
137.00431593930034
20
-32.467702340870495
10
139.15731593930042
20
-32.467702340870495
42
0.41421356237309631
10
140.15731593930039
20
-31.467702340870488
10
140.15731593930033
20
-14.417702340870527
42
-0.41421356237309698
10
141.15731593930033
20
-13.417702340870521
10
143.17181593930036
20
-13.41770234087052
42
0.4142135623730957
10
144.17181593930036
20
-12.417702340870518
10
144.1718159393003
20
4.6322986591309725
42
-0.41421356237309437
10
145.1718159393003
20
5.6322986591309752
10
147.38731593930044
20
5.6322986591309752
42
0.41421356237309631
10
148.38731593930044
20
6.6322986591309796
10
148.38731593930032
20
43.732297659129443
42
0.41421356237309503
10
147.38731593930032
20
44.732297659129436
10
119.83131593930034
20
44.732297659129436
42
0.41421356237309503
10
118.83131593930032
20
43.732297659129443
10
118.83131593930038
20
26.682297659129443
42
-0.41421356237309631
10
117.83131593930038
20
25.682297659129439
10
93.722156752935035
20
25.682297659129425
42
-0.47697557627393578
10
92.744009181724252
20
26.890209488842018
10
96.160449136805511
20
42.963284546042367
42
0.41422364464136624
10
95.390179724513615
20
44.149351103313172
10
68.435967219652852
20
49.877680081087959
42
0.34176020544514357
10
67.333345496603357
20
49.346105642444122
42
-0.34176020544512936
10
66.230723773553834
20
48.814531203800307
10
7.2560858739753877
20
61.34786443225223
42
0.41421404776058973
10
6.0700526430005493
20
60.577586242598677
10
2.3179087560286935
20
42.922017167225555
42
0.41421356237309659
10
3.0881872901799778
20
41.735985557264939
10
10.210149464532778
20
40.222433276867719
42
-0.41421356237309059
10
10.980427998684066
20
39.036401666907096
10
7.4355549714303706
20
22.356137668125591
42
0.41421356237309642
10
8.2058335055816549
20
21.170106058164979
10
15.559996562210777
20
19.607206678432476
42
-0.41421356237309437
10
16.330275096362065
20
18.421175068471868
10
12.786627360477583
20
1.7466766312088635
42
0.41421356237309503
10
13.556905894628862
20
0.56064502124825344
10
16.261841034020691
20
-0.014205090045022462
42
-0.41421356237309293
10
17.032119568171975
20
-1.2002367000056324
0
ENDSEC
0
SECTION
2
OBJECTS
0
DICTIONARY
5
C
100
AcDbDictionary
3
ACAD_GROUP
350
D
3
ACAD_MLINESTYLE
350
17
0
DICTIONARY
5
D
100
AcDbDictionary
0
DICTIONARY
5
1A
330
C
100
AcDbDictionary
0
DICTIONARY
5
17
100
AcDbDictionary
0
ENDSEC
0
EOF
