0
SECTION
2
HEADER
9
$INSUNITS
70
4
9
$ACADVER
1
AC1014
9
$HANDSEED
5
FFFF
0
ENDSEC
0
SECTION
2
TABLES
0
TABLE
2
VPORT
5
8
100
AcDbSymbolTable
0
ENDTAB
0
TABLE
2
LTYPE
5
5
100
AcDbSymbolTable
0
LTYPE
5
14
100
AcDbSymbolTableRecord
100
AcDbLinetypeTableRecord
2
BYBLOCK
70
0
0
LTYPE
5
15
100
AcDbSymbolTableRecord
100
AcDbLinetypeTableRecord
2
BYLAYER
70
0
0
ENDTAB
0
TABLE
2
LAYER
5
2
100
AcDbSymbolTable
70
2
0
LAYER
5
50
100
AcDbSymbolTableRecord
100
AcDbLayerTableRecord
2
0
70
0
6
CONTINUOUS
0
ENDTAB
0
TABLE
2
STYLE
5
3
100
AcDbSymbolTable
70
1
0
STYLE
5
11
100
AcDbSymbolTableRecord
100
AcDbTextStyleTableRecord
2
STANDARD
70
0
0
ENDTAB
0
TABLE
2
VIEW
5
6
100
AcDbSymbolTable
70
0
0
ENDTAB
0
TABLE
2
UCS
5
7
100
AcDbSymbolTable
70
0
0
ENDTAB
0
TABLE
2
APPID
5
9
100
AcDbSymbolTable
70
2
0
APPID
5
12
100
AcDbSymbolTableRecord
100
AcDbRegAppTableRecord
2
ACAD
70
0
0
ENDTAB
0
TABLE
2
DIMSTYLE
5
A
100
AcDbSymbolTable
70
1
0
ENDTAB
0
TABLE
2
BLOCK_RECORD
5
1
100
AcDbSymbolTable
70
1
0
BLOCK_RECORD
5
1F
100
AcDbSymbolTableRecord
100
AcDbBlockTableRecord
2
*MODEL_SPACE
0
BLOCK_RECORD
5
1B
100
AcDbSymbolTableRecord
100
AcDbBlockTableRecord
2
*PAPER_SPACE
0
ENDTAB
0
ENDSEC
0
SECTION
2
BLOCKS
0
BLOCK
5
20
100
AcDbEntity
100
AcDbBlockBegin
2
*MODEL_SPACE
0
ENDBLK
5
21
100
AcDbEntity
100
AcDbBlockEnd
0
BLOCK
5
1C
100
AcDbEntity
100
AcDbBlockBegin
2
*PAPER_SPACE
0
ENDBLK
5
1D
100
AcDbEntity
100
AcDbBlockEnd
0
ENDSEC
0
SECTION
2
ENTITIES
0
CIRCLE
5
100
100
AcDbEntity
8
0
100
AcDbCircle
10
-59.657007522286179
20
-54.626278372242524
30
0
40
1.5000000000000002
210
0
220
-0
230
1
0
CIRCLE
5
101
100
AcDbEntity
8
0
100
AcDbCircle
10
152.22256593930035
20
-50.0892023408705
30
0
40
1.5000000000000002
210
0
220
-0
230
1
0
CIRCLE
5
102
100
AcDbEntity
8
0
100
AcDbCircle
10
58.315538360215271
20
-54.751003072919801
30
0
40
1.5000000000000002
210
0
220
-0
230
1
0
CIRCLE
5
103
100
AcDbEntity
8
0
100
AcDbCircle
10
-156.10543406069971
20
-49.835202340870495
30
0
40
1.5000000000000002
210
0
220
-0
230
1
0
LWPOLYLINE
5
104
100
AcDbEntity
8
0
100
AcDbPolyline
90
26
70
1
43
0.0
10
165.22256593930038
20
-51.589202340870493
42
-0.41421356237309503
10
161.22256593930035
20
-55.5892023408705
10
82.909122655139782
20
-55.5892023408705
42
0.052456994628027033
10
78.747048287705724
20
-56.027067054559126
10
36.239905550271573
20
-65.070961631043986
42
0.0051466568677216466
10
35.838101074938095
20
-65.160782984272359
42
-0.0576192073252371
10
35.142565940486605
20
-65.241202340870501
10
-35.723434057118197
20
-65.241202298836484
42
-0.057385678482382366
10
-36.416205954105472
20
-65.161429226987451
42
0.005279611057181304
10
-36.828499712765399
20
-65.069781060899828
10
-80.868842625605197
20
-55.766999535341597
42
0.052090285125248936
10
-85.002296261693431
20
-55.335202340870495
10
-165.10543406069974
20
-55.335202340870481
42
-0.41421356237309503
10
-169.10543406069974
20
-51.335202340870495
10
-169.10543406069976
20
-48.335202340870502
42
-0.41421356237309503
10
-165.10543406069974
20
-44.335202340870495
10
-83.853192011989833
20
-44.335202340870488
42
-0.052090285125250012
10
-79.719738375901571
20
-44.766999535341597
10
-36.912042527125848
20
-53.809405106112102
42
0.052090284976559834
10
-32.778588902900573
20
-54.241202300583204
10
32.178450505533036
20
-54.241202339112348
42
0.052456994776722159
10
36.34052488483006
20
-53.803337625423708
10
77.589809991277932
20
-45.027067054559133
42
-0.05245699462802704
10
81.75188435871199
20
-44.5892023408705
10
161.22256593930035
20
-44.589202340870521
42
-0.41421356237309503
10
165.22256593930035
20
-48.589202340870507
0
ENDSEC
0
SECTION
2
OBJECTS
0
DICTIONARY
5
C
100
AcDbDictionary
3
ACAD_GROUP
350
D
3
ACAD_MLINESTYLE
350
17
0
DICTIONARY
5
D
100
AcDbDictionary
0
DICTIONARY
5
1A
330
C
100
AcDbDictionary
0
DICTIONARY
5
17
100
AcDbDictionary
0
ENDSEC
0
EOF
