0
SECTION
2
HEADER
9
$INSUNITS
70
4
9
$ACADVER
1
AC1014
9
$HANDSEED
5
FFFF
0
ENDSEC
0
SECTION
2
TABLES
0
TABLE
2
VPORT
5
8
100
AcDbSymbolTable
0
ENDTAB
0
TABLE
2
LTYPE
5
5
100
AcDbSymbolTable
0
LTYPE
5
14
100
AcDbSymbolTableRecord
100
AcDbLinetypeTableRecord
2
BYBLOCK
70
0
0
LTYPE
5
15
100
AcDbSymbolTableRecord
100
AcDbLinetypeTableRecord
2
BYLAYER
70
0
0
ENDTAB
0
TABLE
2
LAYER
5
2
100
AcDbSymbolTable
70
2
0
LAYER
5
50
100
AcDbSymbolTableRecord
100
AcDbLayerTableRecord
2
0
70
0
6
CONTINUOUS
0
ENDTAB
0
TABLE
2
STYLE
5
3
100
AcDbSymbolTable
70
1
0
STYLE
5
11
100
AcDbSymbolTableRecord
100
AcDbTextStyleTableRecord
2
STANDARD
70
0
0
ENDTAB
0
TABLE
2
VIEW
5
6
100
AcDbSymbolTable
70
0
0
ENDTAB
0
TABLE
2
UCS
5
7
100
AcDbSymbolTable
70
0
0
ENDTAB
0
TABLE
2
APPID
5
9
100
AcDbSymbolTable
70
2
0
APPID
5
12
100
AcDbSymbolTableRecord
100
AcDbRegAppTableRecord
2
ACAD
70
0
0
ENDTAB
0
TABLE
2
DIMSTYLE
5
A
100
AcDbSymbolTable
70
1
0
ENDTAB
0
TABLE
2
BLOCK_RECORD
5
1
100
AcDbSymbolTable
70
1
0
BLOCK_RECORD
5
1F
100
AcDbSymbolTableRecord
100
AcDbBlockTableRecord
2
*MODEL_SPACE
0
BLOCK_RECORD
5
1B
100
AcDbSymbolTableRecord
100
AcDbBlockTableRecord
2
*PAPER_SPACE
0
ENDTAB
0
ENDSEC
0
SECTION
2
BLOCKS
0
BLOCK
5
20
100
AcDbEntity
100
AcDbBlockBegin
2
*MODEL_SPACE
0
ENDBLK
5
21
100
AcDbEntity
100
AcDbBlockEnd
0
BLOCK
5
1C
100
AcDbEntity
100
AcDbBlockBegin
2
*PAPER_SPACE
0
ENDBLK
5
1D
100
AcDbEntity
100
AcDbBlockEnd
0
ENDSEC
0
SECTION
2
ENTITIES
0
CIRCLE
5
100
100
AcDbEntity
8
0
100
AcDbCircle
10
58.315538360215271
20
-54.751003072919801
30
0
40
1
210
0
220
-0
230
1
0
CIRCLE
5
101
100
AcDbEntity
8
0
100
AcDbCircle
10
-156.10543406069971
20
-49.835202340870495
30
0
40
1
210
0
220
-0
230
1
0
CIRCLE
5
102
100
AcDbEntity
8
0
100
AcDbCircle
10
-59.657007522286179
20
-54.626278372242524
30
0
40
1
210
0
220
-0
230
1
0
CIRCLE
5
103
100
AcDbEntity
8
0
100
AcDbCircle
10
152.22256593930035
20
-50.0892023408705
30
0
40
1
210
0
220
-0
230
1
0
CIRCLE
5
104
100
AcDbEntity
8
0
100
AcDbCircle
10
-63.662250037977145
20
-65.534000347599019
30
0
40
1
210
0
220
-0
230
1
0
CIRCLE
5
105
100
AcDbEntity
8
0
100
AcDbCircle
10
-177.50333621687562
20
50.376699815305422
30
0
40
1
210
0
220
-0
230
1
0
CIRCLE
5
106
100
AcDbEntity
8
0
100
AcDbCircle
10
62.666773723761089
20
59.444200408984003
30
0
40
1
210
0
220
-0
230
1
0
CIRCLE
5
107
100
AcDbEntity
8
0
100
AcDbCircle
10
173.62046809547621
20
-58.939104497046358
30
0
40
1
210
0
220
-0
230
1
0
CIRCLE
5
108
100
AcDbEntity
8
0
100
AcDbCircle
10
173.62046809547627
20
51.138699815305415
30
0
40
1
210
0
220
-0
230
1
0
CIRCLE
5
109
100
AcDbEntity
8
0
100
AcDbCircle
10
-63.690097946252976
20
58.637641565970625
30
0
40
1
210
0
220
-0
230
1
0
CIRCLE
5
110
100
AcDbEntity
8
0
100
AcDbCircle
10
-177.50333621687562
20
-58.685104497046375
30
0
40
1
210
0
220
-0
230
1
0
CIRCLE
5
111
100
AcDbEntity
8
0
100
AcDbCircle
10
62.859926709547615
20
-65.541538699328939
30
0
40
1
210
0
220
-0
230
1
0
LWPOLYLINE
5
112
100
AcDbEntity
8
0
100
AcDbPolyline
90
24
70
1
43
0.0
10
26.123508447882934
20
70.398020140118362
42
-0.049115099075291331
10
30.024395110579594
20
70.013908680910859
10
89.567711211553487
20
58.17290911833701
42
0.049115099075292205
10
93.468597874250179
20
57.788797659129514
10
167.22256593930035
20
57.788797659129543
42
-0.41421356237309387
10
180.27056593930035
20
44.740797659129527
10
180.27056593930035
20
-52.541202340870505
42
-0.41421356237309387
10
167.22256593930035
20
-65.589202340870514
10
83.961157470074028
20
-65.589202340870514
42
0.052456994628027297
10
79.799083102639955
20
-66.02706705455914
10
38.206033618872183
20
-74.876477539974971
42
-0.059318635193365402
10
35.142565940486612
20
-75.241202340870501
10
-35.723434060699653
20
-75.24120229883647
42
-0.059128968794696264
10
-38.777312122310619
20
-74.878789898720996
10
-81.913482852608695
20
-65.766999535341583
42
0.052090285125248395
10
-86.046936488696872
20
-65.335202340870495
10
-171.10543406069974
20
-65.335202340870509
42
-0.41421356237309387
10
-184.15343406069974
20
-52.287202340870493
10
-184.15343406069974
20
43.978797659129526
42
-0.41421356237309387
10
-171.10543406069974
20
57.026797659129528
10
-92.936967096624485
20
57.026797659129528
42
0.051720162702109912
10
-88.83241063662858
20
57.452513093232724
10
-29.126577345551034
20
69.972304706015152
42
-0.051720162702108025
10
-25.022020885555122
20
70.398020140118348
0
ENDSEC
0
SECTION
2
OBJECTS
0
DICTIONARY
5
C
100
AcDbDictionary
3
ACAD_GROUP
350
D
3
ACAD_MLINESTYLE
350
17
0
DICTIONARY
5
D
100
AcDbDictionary
0
DICTIONARY
5
1A
330
C
100
AcDbDictionary
0
DICTIONARY
5
17
100
AcDbDictionary
0
ENDSEC
0
EOF
