0
SECTION
2
HEADER
9
$INSUNITS
70
4
9
$ACADVER
1
AC1014
9
$HANDSEED
5
FFFF
0
ENDSEC
0
SECTION
2
TABLES
0
TABLE
2
VPORT
5
8
100
AcDbSymbolTable
0
ENDTAB
0
TABLE
2
LTYPE
5
5
100
AcDbSymbolTable
0
LTYPE
5
14
100
AcDbSymbolTableRecord
100
AcDbLinetypeTableRecord
2
BYBLOCK
70
0
0
LTYPE
5
15
100
AcDbSymbolTableRecord
100
AcDbLinetypeTableRecord
2
BYLAYER
70
0
0
ENDTAB
0
TABLE
2
LAYER
5
2
100
AcDbSymbolTable
70
2
0
LAYER
5
50
100
AcDbSymbolTableRecord
100
AcDbLayerTableRecord
2
0
70
0
6
CONTINUOUS
0
ENDTAB
0
TABLE
2
STYLE
5
3
100
AcDbSymbolTable
70
1
0
STYLE
5
11
100
AcDbSymbolTableRecord
100
AcDbTextStyleTableRecord
2
STANDARD
70
0
0
ENDTAB
0
TABLE
2
VIEW
5
6
100
AcDbSymbolTable
70
0
0
ENDTAB
0
TABLE
2
UCS
5
7
100
AcDbSymbolTable
70
0
0
ENDTAB
0
TABLE
2
APPID
5
9
100
AcDbSymbolTable
70
2
0
APPID
5
12
100
AcDbSymbolTableRecord
100
AcDbRegAppTableRecord
2
ACAD
70
0
0
ENDTAB
0
TABLE
2
DIMSTYLE
5
A
100
AcDbSymbolTable
70
1
0
ENDTAB
0
TABLE
2
BLOCK_RECORD
5
1
100
AcDbSymbolTable
70
1
0
BLOCK_RECORD
5
1F
100
AcDbSymbolTableRecord
100
AcDbBlockTableRecord
2
*MODEL_SPACE
0
BLOCK_RECORD
5
1B
100
AcDbSymbolTableRecord
100
AcDbBlockTableRecord
2
*PAPER_SPACE
0
ENDTAB
0
ENDSEC
0
SECTION
2
BLOCKS
0
BLOCK
5
20
100
AcDbEntity
100
AcDbBlockBegin
2
*MODEL_SPACE
0
ENDBLK
5
21
100
AcDbEntity
100
AcDbBlockEnd
0
BLOCK
5
1C
100
AcDbEntity
100
AcDbBlockBegin
2
*PAPER_SPACE
0
ENDBLK
5
1D
100
AcDbEntity
100
AcDbBlockEnd
0
ENDSEC
0
SECTION
2
ENTITIES
0
LWPOLYLINE
5
100
100
AcDbEntity
8
0
100
AcDbPolyline
90
8
70
1
43
0.0
10
-24.363632734005328
20
-25.356778060550965
42
-0.41420747899139027
10
-23.593684060699545
20
-24.170702340870527
10
-11.855545816203465
20
-21.675415303497179
42
-0.41435394751842353
10
-10.668946140306051
20
-22.446143859420083
10
-8.1743908155271008
20
-34.183579375058372
42
-0.42128406925469497
10
-8.9684056735848312
20
-35.374432401716462
10
-20.706276447019256
20
-37.869617506915318
42
-0.40720637178744024
10
-21.868977305871987
20
-37.094325306682656
0
LWPOLYLINE
5
101
100
AcDbEntity
8
0
100
AcDbPolyline
90
8
70
1
43
0.0
10
-70.467595751517251
20
45.302445259863191
42
-0.41421356237310014
10
-69.281536459965707
20
44.532209349947124
10
-66.786542666422477
20
32.794208030867424
42
-0.41418214024292715
10
-67.556684060699553
20
31.608297659129416
10
-79.29403729742846
20
29.11270725619417
42
-0.40771697971107257
10
-80.476070038529969
20
29.861580662252436
10
-82.974536473123436
20
41.62120934714649
42
-0.41418626264567437
10
-82.204870031847946
20
42.807258099653566
0
LWPOLYLINE
5
102
100
AcDbEntity
8
0
100
AcDbPolyline
90
8
70
1
43
0.0
10
-56.270950947768199
20
-12.668144926340064
42
-0.41428697114215957
10
-55.501859161993394
20
-11.482004122146638
10
-43.763684060699539
20
-8.986702340870556
42
-0.40775225321475056
10
-42.582185957662027
20
-9.7352045051516267
10
-40.083288127467725
20
-21.494285131053303
42
-0.41438307023994303
10
-40.852684060699538
20
-22.680702340870535
10
-52.590493739716891
20
-25.175531514999356
42
-0.41428985659864809
10
-53.776414641904104
20
-24.405559937444284
0
LWPOLYLINE
5
103
100
AcDbEntity
8
0
100
AcDbPolyline
90
8
70
1
43
0.0
10
88.519315939300881
20
21.657296659129077
42
-0.41421334407135446
10
89.519314193971141
20
22.657297659127895
10
101.51931593930037
20
22.657297659129426
42
-0.41421356237309631
10
102.51931593930037
20
21.657297659129426
10
102.51931593930036
20
9.6572976591294335
42
-0.41421356237309798
10
101.51931593930037
20
8.6572976591294371
10
89.519315939300384
20
8.6572976591294264
42
-0.41421356237309798
10
88.519315939300384
20
9.6572976591294335
0
LWPOLYLINE
5
104
100
AcDbEntity
8
0
100
AcDbPolyline
90
8
70
1
43
0.0
10
126.60931593930032
20
40.707297659129424
42
-0.41421356237309503
10
127.60931593930033
20
41.707297659129438
10
139.60931593930036
20
41.707297659129395
42
-0.41421356237307422
10
140.60931593930033
20
40.707297659129424
10
140.60931593930033
20
28.707297659129445
42
-0.41421356237310281
10
139.60931593930036
20
27.707297659129448
10
127.60931593930036
20
27.707297659129427
42
-0.41421356237309631
10
126.60931593930036
20
28.707297659129427
0
LWPOLYLINE
5
105
100
AcDbEntity
8
0
100
AcDbPolyline
90
8
70
1
43
0.0
10
38.197647512245922
20
-7.7986623611315284
42
-0.42073546661217026
10
39.388138905112548
20
-7.0064090956981309
10
51.104406214683863
20
-9.4967896492320225
42
-0.42075202640099346
10
51.89660918447278
20
-10.6875253066827
10
49.401315939300403
20
-22.424702340870528
42
-0.40786400666880235
10
48.236767402939442
20
-23.200263604435332
10
36.477404456394353
20
-20.699848963456759
42
-0.41421356237309553
10
35.7071693167142
20
-19.513790857964466
0
LWPOLYLINE
5
106
100
AcDbEntity
8
0
100
AcDbPolyline
90
8
70
1
43
0.0
10
-22.263667519156044
20
33.513352510736027
42
-0.41406675445651997
10
-21.494037297428434
20
34.69870725619414
10
-9.7554191165647293
20
37.194740445779821
42
-0.41393582320144884
10
-8.5699070813095908
20
36.424740315359458
10
-6.0746840606995898
20
24.686297659129419
42
-0.42075322236686868
10
-6.8666306339460164
20
23.495845640732181
10
-18.582734137120607
20
21.005670189967457
42
-0.41431591647507504
10
-19.768762817986822
20
21.775667617106038
0
LWPOLYLINE
5
107
100
AcDbEntity
8
0
100
AcDbPolyline
90
8
70
1
43
0.0
10
75.465517281867008
20
-15.719673184000033
42
-0.42072714976508563
10
76.656139320935893
20
-14.927407139402931
10
88.393492557664871
20
-17.42299754233812
42
-0.41404283674279535
10
89.164266660702523
20
-18.608691942452474
10
86.668463540034139
20
-30.346614031688262
42
-0.41421356237310325
10
85.482404248482624
20
-31.116849941604308
10
73.745227630118194
20
-28.621554740136723
42
-0.41415382259062461
10
72.975311500124008
20
-27.435723121587326
0
LWPOLYLINE
5
108
100
AcDbEntity
8
0
100
AcDbPolyline
90
8
70
1
43
0.0
10
-59.532123974543609
20
25.592563200629268
42
-0.41407410984901954
10
-58.761875434629545
20
26.778512656820695
10
-47.023861094887224
20
29.27300441395694
42
-0.40969566501274418
10
-45.840888338519633
20
28.518587861898595
10
-43.342816617987758
20
16.765315490280784
42
-0.41433224545433173
10
-44.113051230737952
20
15.579219558337453
10
-55.851213915792847
20
13.083412054726494
42
-0.42206318657610414
10
-57.042623834356405
20
13.88102688894114
0
LWPOLYLINE
5
109
100
AcDbEntity
8
0
100
AcDbPolyline
90
8
70
1
43
0.0
10
-46.258086779073707
20
8.9423742546368707
42
-0.41409859162257334
10
-45.48795705325702
20
10.128368386367336
10
-33.749470795315531
20
12.623343005493691
42
-0.41410898671952528
10
-32.563830683285772
20
11.853386176223328
10
-30.068684060699589
20
0.11529765912941431
42
-0.41408682641751904
10
-30.83868406069957
20
-1.0707023408705574
10
-42.576690019137935
20
-3.5656738569598718
42
-0.4141746919539992
10
-43.762093657764396
20
-2.7950555775995345
0
LWPOLYLINE
5
110
100
AcDbEntity
8
0
100
AcDbPolyline
90
18
70
1
43
0.0
10
-137.5076840606994
20
-10.392702340870557
10
-137.49268406069942
20
-11.392702340870553
42
0.41421356237310997
10
-136.49268406069939
20
-12.392702340870558
10
-131.49268406069939
20
-12.392702340870549
42
0.41421356237310281
10
-130.49268406069942
20
-11.392702340870553
10
-130.49268406069939
20
1.6072976591294363
42
0.41421356237311052
10
-131.49268406069939
20
2.6072976591294434
10
-138.93068406069946
20
2.6072976591294328
42
0.41421407356831408
10
-139.93068580602878
20
3.607297659127914
10
-151.93068406069943
20
3.6072976591294292
42
0.41421356237309764
10
-152.93068406069943
20
2.6072976591294337
10
-160.36868406069939
20
2.6072976591294328
42
0.41421356237308637
10
-161.36868406069934
20
1.6072976591294363
10
-161.36868406069939
20
-11.392702340870553
42
0.41421356237305795
10
-160.36868406069939
20
-12.392702340870564
10
-155.36868406069939
20
-12.392702340870549
42
0.41421356237310281
10
-154.36868406069942
20
-11.392702340870553
10
-154.37368406069939
20
-10.392702340870557
0
LWPOLYLINE
5
111
100
AcDbEntity
8
0
100
AcDbPolyline
90
8
70
1
43
0.0
10
106.86931593930038
20
3.6072976591294559
42
-0.41421356237309764
10
107.86931593930036
20
2.6072976591294506
10
107.86931593930035
20
-9.3927023408705423
42
-0.41421356237309764
10
106.86931593930038
20
-10.392702340870539
10
94.869315939300364
20
-10.392702340870539
42
-0.41421356237309503
10
93.869315939300364
20
-9.3927023408705423
10
93.869315939300861
20
2.6072966591291014
42
-0.41421334407132898
10
94.869314193971107
20
3.6072976591279193
0
LWPOLYLINE
5
112
100
AcDbEntity
8
0
100
AcDbPolyline
90
8
70
1
43
0.0
10
32.147532790049681
20
32.441394978498202
42
-0.42071684544995369
10
33.338138905112551
20
33.233590904301821
10
45.076138905112551
20
30.738590904301773
42
-0.40772297415239489
10
45.851229603943004
20
29.574205946006217
10
43.351022694127977
20
17.815120624941496
42
-0.41418302877148622
10
42.165325289222075
20
17.044342111344953
10
30.427315939300392
20
19.539297659129428
42
-0.41401662397548178
10
29.65731593930041
20
20.725297659129431
0
LWPOLYLINE
5
113
100
AcDbEntity
8
0
100
AcDbPolyline
90
8
70
1
43
0.0
10
-74.904831661433363
20
-16.62861403168829
42
-0.41410838148750273
10
-74.134772369881773
20
-15.442849941604351
10
-62.397595751517272
20
-12.947554740136729
42
-0.41424164632405452
10
-61.210684060699521
20
-13.717702340870552
10
-58.721169239980497
20
-25.433987617660026
42
-0.42087860809859917
10
-59.487037297428245
20
-26.642292743805744
10
-71.223684060699526
20
-29.136702340870528
42
-0.40786933846319529
10
-72.406102564723383
20
-28.388062103376981
0
LWPOLYLINE
5
114
100
AcDbEntity
8
0
100
AcDbPolyline
90
8
70
1
43
0.0
10
81.289315939300408
20
-37.632202340870521
42
-0.41421356237310281
10
82.289315939300394
20
-36.632202340870528
10
94.28931593930038
20
-36.632202340870528
42
-0.41421356237307944
10
95.289315939300366
20
-37.632202340870521
10
95.289315939300366
20
-49.632202340870521
42
-0.41421356237309503
10
94.289315939300366
20
-50.632202340870514
10
82.289315939300351
20
-50.632202340870506
42
-0.41421326947979908
10
81.289315939300892
20
-49.632203340870866
0
LWPOLYLINE
5
115
100
AcDbEntity
8
0
100
AcDbPolyline
90
8
70
1
43
0.0
10
-64.891390786974
20
4.98212065360722
42
-0.41427935145446632
10
-64.121682038485119
20
6.1682882305032347
10
-52.383861094887301
20
8.6630044139570259
42
-0.41452366375398514
10
-51.197828295417452
20
7.8922672803327245
10
-48.69763711025503
20
-3.8666222886726094
42
-0.40769651276598118
10
-49.472860679064105
20
-5.0309975423381736
10
-61.210668093017475
20
-7.5258277632425727
42
-0.40960231039397438
10
-62.393407717839253
20
-6.7711162536937461
0
LWPOLYLINE
5
116
100
AcDbEntity
8
0
100
AcDbPolyline
90
8
70
1
43
0.0
10
-42.997822317819242
20
-29.317658104034571
42
-0.41425507237551334
10
-42.227501847784779
20
-28.131433693497208
10
-30.48932997174542
20
-25.636115870531654
42
-0.42065743441287778
10
-29.298907156433117
20
-26.428572166738931
10
-26.808390814119463
20
-38.144279354213822
42
-0.42127025842690957
10
-27.602319509850286
20
-39.335409449534971
10
-39.340247910144093
20
-41.830299721447744
42
-0.40718270366131781
10
-40.502388859231822
20
-41.054978959235072
0
LWPOLYLINE
5
117
100
AcDbEntity
8
0
100
AcDbPolyline
90
18
70
1
43
0.0
10
140.9073159393003
20
24.657297659129426
42
-0.41421356237310802
10
141.9073159393003
20
23.657297659129437
10
141.9073159393003
20
10.657297659129465
42
-0.41421356237309437
10
140.90731593930033
20
9.657297659129469
10
133.46931493930035
20
9.6572976591294513
42
-0.41421407356827672
10
132.46931419397282
20
8.6572986591309764
10
120.46931593930037
20
8.6572976591294264
42
-0.41421356237309798
10
119.46931593930037
20
9.6572976591294335
10
112.03131593930031
20
9.6572976591294513
42
-0.41421356237307944
10
111.03131593930033
20
10.657297659129448
10
111.03131593930033
20
23.657297659129419
42
-0.41421356237309503
10
112.03131593930033
20
24.657297659129416
10
117.03131593930036
20
24.657297659129419
42
-0.41421356237309631
10
118.03131593930034
20
23.657297659129419
10
118.04131593930035
20
22.653297659129432
10
134.90691593930035
20
22.65329765912945
10
134.90731593930036
20
23.657297659129437
42
-0.41421356237310281
10
135.90731593930033
20
24.657297659129433
0
LWPOLYLINE
5
118
100
AcDbEntity
8
0
100
AcDbPolyline
90
8
70
1
43
0.0
10
-80.264979262167145
20
-37.238725722506018
42
-0.41423343386156602
10
-79.494417582631883
20
-36.052767283517596
10
-67.756684060699513
20
-33.557702340870534
42
-0.41399031057015895
10
-66.570684060699506
20
-34.327902340870523
10
-64.079980994436809
20
-46.049480215500324
42
-0.4190425794757921
10
-64.846684060699545
20
-47.251802340870547
10
-76.583419133152717
20
-49.746559538669111
42
-0.41447085588155624
10
-77.770744308286893
20
-48.976218824820741
0
LWPOLYLINE
5
119
100
AcDbEntity
8
0
100
AcDbPolyline
90
8
70
1
43
0.0
10
150.22931593930085
20
0.46729665913085533
42
-0.41421334407080929
10
151.22931419397108
20
1.4672976591279334
10
163.22931419397108
20
1.4672976591279192
42
-0.41421407356828921
10
164.22931593930031
20
0.46729765912946419
10
164.22931593930031
20
-11.532702340870529
42
-0.41421356237310025
10
163.22931593930034
20
-12.532702340870525
10
151.22931593930034
20
-12.532702340870523
42
-0.41421356237310997
10
150.22931593930031
20
-11.532702340870529
0
LWPOLYLINE
5
120
100
AcDbEntity
8
0
100
AcDbPolyline
90
8
70
1
43
0.0
10
37.846315939300439
20
-26.151702340870525
42
-0.41417459738948842
10
38.616431023183893
20
-27.337607126015207
10
36.121296748804973
20
-39.074998273061794
42
-0.41417255350358306
10
34.93549297348828
20
-39.845195586042962
10
23.220947749492289
20
-37.355352932605861
42
-0.42127620067924876
10
22.426729448955616
20
-36.164256409246306
10
24.922024332657656
20
-24.427568267130194
42
-0.41452789797975237
10
26.108492973488246
20
-23.656995586042928
0
LWPOLYLINE
5
121
100
AcDbEntity
8
0
100
AcDbPolyline
90
8
70
1
43
0.0
10
-160.56668406069943
20
40.755297659129411
42
-0.41421356237307161
10
-159.5666840606994
20
41.755297659129425
10
-147.56668406069946
20
41.755297659129404
42
-0.41421356237310802
10
-146.56668406069943
20
40.755297659129411
10
-146.56668406069946
20
28.755297659129422
42
-0.41421356237310281
10
-147.56668406069946
20
27.755297659129425
10
-159.5666840606994
20
27.755297659129411
42
-0.41421356237307294
10
-160.56668406069943
20
28.755297659129422
0
LWPOLYLINE
5
122
100
AcDbEntity
8
0
100
AcDbPolyline
90
8
70
1
43
0.0
10
-155.81068406069946
20
-16.441702340870545
42
-0.41421356237310281
10
-154.81068406069949
20
-15.441702340870549
10
-142.81068580602874
20
-15.44270234087209
42
-0.41421407356831469
10
-141.81068406069943
20
-16.442702340870561
10
-141.81068406069943
20
-28.441702340870538
42
-0.41436869132492937
10
-142.81068406069946
20
-29.442702340870532
10
-154.81068406069949
20
-29.442702340870536
42
-0.41421356237311197
10
-155.81068406069949
20
-28.442702340870536
0
LWPOLYLINE
5
123
100
AcDbEntity
8
0
100
AcDbPolyline
90
8
70
1
43
0.0
10
155.99931593930029
20
-49.632202340870499
42
-0.41421356237310281
10
154.99931593930032
20
-50.632202340870492
10
142.99931593930035
20
-50.632202340870478
42
-0.41421356237307422
10
141.99931593930035
20
-49.632202340870499
10
141.99931593930035
20
-37.632202340870506
42
-0.41421356237310281
10
142.99931593930035
20
-36.632202340870506
10
154.99931593930032
20
-36.632202340870521
42
-0.41421356237308593
10
155.99931593930029
20
-37.632202340870506
0
LWPOLYLINE
5
124
100
AcDbEntity
8
0
100
AcDbPolyline
90
8
70
1
43
0.0
10
43.556315939300418
20
-28.387702340870504
42
-0.41451726442920506
10
44.742404248482686
20
-27.616849941604308
10
56.480221614190484
20
-30.111682291360459
42
-0.41426596547645728
10
57.250758741501841
20
-31.298037413323783
10
54.755588540946775
20
-43.035368209318435
42
-0.41427991601747344
10
53.569542054794958
20
-43.805703957371108
10
41.831519490612543
20
-41.310924356970318
42
-0.41424247674665604
10
41.061463540034282
20
-40.125014031688266
0
LWPOLYLINE
5
125
100
AcDbEntity
8
0
100
AcDbPolyline
90
8
70
1
43
0.0
10
37.502755520319553
20
11.853563271452277
42
-0.41396198142226021
10
38.687875380778067
20
12.62339147602296
10
50.426586903918782
20
10.128367795454047
42
-0.41409884959397902
10
51.196715573033231
20
8.9423741730021149
10
48.701315939300372
20
-2.7947023408705505
42
-0.41419711869779724
10
47.515409263919032
20
-3.5648264182692313
10
35.777315939300394
20
-1.0707023408705438
42
-0.41408865707531406
10
35.007315939300412
20
0.11529765912943191
0
LWPOLYLINE
5
126
100
AcDbEntity
8
0
100
AcDbPolyline
90
8
70
1
43
0.0
10
-83.52469544306868
20
1.021351013203629
42
-0.42081326779681727
10
-82.732635302824065
20
2.2119849351245309
10
-71.017595751517291
20
4.7024452598632287
42
-0.41421356237309781
10
-69.831536459965733
20
3.9322093499471755
10
-67.336579416518973
20
-7.8057997806223973
42
-0.41417422377513075
10
-68.106684060699536
20
-8.9917023408705532
10
-79.843860679064093
20
-11.486997542338152
42
-0.42087063019109644
10
-81.035417218893485
20
-10.694425753118432
0
LWPOLYLINE
5
127
100
AcDbEntity
8
0
100
AcDbPolyline
90
8
70
1
43
0.0
10
120.06681593930037
20
2.6072976591294506
42
-0.41421356237309392
10
121.06681593930035
20
3.607297659129447
10
137.76581593930032
20
3.6072976591294639
42
-0.4142135623731103
10
138.76581593930035
20
2.6072976591294683
10
138.76581593930032
20
-9.3927023408705246
42
-0.41421356237310381
10
137.76581593930032
20
-10.392702340870521
10
121.06681593930034
20
-10.392702340870539
42
-0.41421356237307977
10
120.06681593930037
20
-9.3927023408705423
0
LWPOLYLINE
5
128
100
AcDbEntity
8
0
100
AcDbPolyline
90
8
70
1
43
0.0
10
50.781846287418176
20
28.481269091331555
42
-0.42076633254538587
10
51.97231593930038
20
29.273297659129422
10
63.710242516934592
20
26.77895736581798
42
-0.41414934923123869
10
64.480789114555421
20
25.592706171512024
10
61.985355241841489
20
13.854482543786339
42
-0.41431770157135511
10
60.799050388018642
20
13.084737526888173
10
49.061315939300378
20
15.579297659129463
42
-0.42075343056258646
10
48.295963668122084
20
16.78716169989293
0
LWPOLYLINE
5
129
100
AcDbEntity
8
0
100
AcDbPolyline
90
18
70
1
43
0.0
10
53.936315870124844
20
31.978297800826461
42
-0.41082491098490892
10
53.163599940673087
20
33.153011070826182
10
53.347315939300373
20
34.160297659129398
10
36.863315939300421
20
37.665297659129408
10
36.659022694127827
20
36.673120624941348
42
-0.41405510599189665
10
35.473475320765544
20
35.903147831168653
10
30.582228477443657
20
36.942449091525305
42
-0.41417211937151266
10
29.812315939300433
20
38.128297659129387
10
32.515189753444169
20
50.844204784510111
42
-0.41426509838014269
10
33.701315939300336
20
51.614297659129377
10
40.976463555226758
20
50.068385973528358
42
-0.40971111337022548
10
42.147341580547845
20
50.841486701923351
10
53.915404248482616
20
48.335150058395548
42
-0.41425893778758405
10
54.685515693239637
20
47.149025207987577
10
61.955884854270352
20
45.601176403125351
42
-0.41404672270594334
10
62.724926448681011
20
44.415283135739173
10
60.01868186481228
20
31.734441392401923
42
-0.42191064028134306
10
58.827669176029467
20
30.937707256194351
0
LWPOLYLINE
5
130
100
AcDbEntity
8
0
100
AcDbPolyline
90
8
70
1
43
0.0
10
-15.115419133152701
20
16.584740461330863
42
-0.41410956711864694
10
-13.929684060699579
20
15.814297659129455
10
-11.433950947768487
20
4.0758550736598433
42
-0.41872122727320732
10
-12.220212428962629
20
2.8868698527720174
10
-23.94241850941771
20
0.39573752688803299
42
-0.41426512516711245
10
-25.128684060699591
20
1.1652976591294539
10
-27.623536459965766
20
12.90320934994722
42
-0.41423115867892707
10
-26.853677500719485
20
14.089266823862388
0
LWPOLYLINE
5
131
100
AcDbEntity
8
0
100
AcDbPolyline
90
8
70
1
43
0.0
10
56.131901911077826
20
7.8712516919559326
42
-0.42075367643091666
10
57.322315939300381
20
8.6632976591294408
10
69.060492557664929
20
6.1680024576619363
42
-0.41401293997709215
10
69.830697665221493
20
4.9825755197451436
10
67.330683485306295
20
-6.7774928512357278
42
-0.40763559241505565
10
66.149492973488222
20
-7.5259955860429697
10
54.411847236431647
20
-5.0308152350632618
42
-0.41440641043459575
10
53.641463540034181
20
-3.8446140316883195
0
LWPOLYLINE
5
132
100
AcDbEntity
8
0
100
AcDbPolyline
90
8
70
1
43
0.0
10
74.766975669546511
20
3.9167145966532702
42
-0.41887460011676991
10
75.95631593930041
20
4.7022976591294539
10
87.693492557664854
20
2.2070024576619041
42
-0.41407613353754208
10
88.463401206322658
20
1.0213992176874509
10
85.968463540034165
20
-10.716614031688286
42
-0.4139112024617192
10
84.78331593930038
20
-11.486702340870531
10
73.044962632114064
20
-8.9916270587188922
42
-0.41416620369168811
10
72.275727853235324
20
-7.8055824584297495
0
LWPOLYLINE
5
133
100
AcDbEntity
8
0
100
AcDbPolyline
90
20
70
1
43
0.0
10
-130.90268406069941
20
24.657297659129402
42
-0.41421356237311197
10
-129.90268406069941
20
23.657297659129402
10
-129.90268406069941
20
22.657297659129405
10
-129.81568406069943
20
22.657297659129409
42
-0.41421356237311197
10
-128.81568406069943
20
21.657297659129409
10
-128.81568406069945
20
9.6572976591294157
42
-0.41421356237309798
10
-129.81568406069943
20
8.6572976591294193
10
-168.00968406069944
20
8.6572976591293855
42
-0.41421356237305795
10
-169.00968406069947
20
9.6572976591294157
10
-169.00968406069939
20
21.657297659129409
42
-0.41421356237308593
10
-168.00968406069944
20
22.657297659129405
10
-160.77868406069942
20
22.657297659129405
10
-160.77868406069939
20
23.657297659129402
42
-0.41421356237308593
10
-159.77868406069939
20
24.657297659129398
10
-154.77868406069942
20
24.657297659129402
42
-0.41421356237311197
10
-153.77868406069939
20
23.657297659129402
10
-153.77668406069941
20
22.657297659129405
10
-136.90268406069944
20
22.657297659129405
10
-136.90268406069941
20
23.657297659129402
42
-0.41421356237310281
10
-135.90268406069941
20
24.657297659129398
0
LWPOLYLINE
5
134
100
AcDbEntity
8
0
100
AcDbPolyline
90
8
70
1
43
0.0
10
69.423926498058265
20
24.563864503310185
42
-0.40782946884257432
10
70.606315939300373
20
25.312297659129417
10
82.343315939300382
20
22.817297659129423
42
-0.41417866696581862
10
83.113440599561898
20
21.631390853780822
10
80.619315939300392
20
9.8932976591294501
42
-0.4139538683776805
10
79.433315939300385
20
9.1232976591294523
10
67.695227630118126
20
11.61844525986325
42
-0.41411847310937983
10
66.925168338566593
20
12.804209349947193
0
LWPOLYLINE
5
135
100
AcDbEntity
8
0
100
AcDbPolyline
90
8
70
1
43
0.0
10
31.77029981639631
20
14.093950988470498
42
-0.42074027527829966
10
32.562609184472741
20
12.903474693317268
10
30.067357984097818
20
1.1655024377735299
42
-0.41429115852756337
10
28.881227630118119
20
0.39544525986322326
10
17.143961870924375
20
2.8908841494742221
42
-0.41400589677317257
10
16.374250308829481
20
4.0761919696680771
10
18.873051287663056
20
15.835976671768988
42
-0.407768859968828
10
20.054492557664826
20
16.584002457661846
0
LWPOLYLINE
5
136
100
AcDbEntity
8
0
100
AcDbPolyline
90
8
70
1
43
0.0
10
-78.164536469590644
20
21.631209347898356
42
-0.41419002130109139
10
-77.394865847887829
20
22.817258988779734
10
-65.657595751517277
20
25.312445259863242
42
-0.41428655323178654
10
-64.470684060699526
20
24.542297659129417
10
-61.971126265734085
20
12.782855014918976
42
-0.4077436463464662
10
-62.746684060699508
20
11.618297659129427
10
-74.483684060699559
20
9.1232976591294328
42
-0.42080302599033614
10
-75.674378132227304
20
9.9153824241337105
0
LWPOLYLINE
5
137
100
AcDbEntity
8
0
100
AcDbPolyline
90
8
70
1
43
0.0
10
-37.637861617285381
20
-8.7074743585520622
42
-0.41417171897872368
10
-36.8675957515173
20
-7.5215547401367644
10
-25.130038129075196
20
-5.0272888312152473
42
-0.41429788468344464
10
-23.943733842085283
20
-5.7967129499073833
10
-21.448537438113355
20
-17.533790857964462
42
-0.41421356237310192
10
-22.218772577793509
20
-18.719848963456744
10
-33.978202363585275
20
-21.220277816585444
42
-0.40790220000487548
10
-35.14297926216716
20
-20.444525722506036
0
LWPOLYLINE
5
138
100
AcDbEntity
8
0
100
AcDbPolyline
90
8
70
1
43
0.0
10
-116.62068406069942
20
21.657297659129409
42
-0.41421356237310281
10
-115.62068406069943
20
22.657297659129405
10
-103.62068580602877
20
22.65729765912792
42
-0.41421407356826462
10
-102.6206840606995
20
21.657297659129409
10
-102.62068406069955
20
9.6572976591294157
42
-0.41421356237309798
10
-103.62068406069952
20
8.6572976591294193
10
-115.62068406069943
20
8.6572976591294211
42
-0.41421356237310997
10
-116.62068406069946
20
9.6572976591294157
0
LWPOLYLINE
5
139
100
AcDbEntity
8
0
100
AcDbPolyline
90
8
70
1
43
0.0
10
10.72932429862947
20
56.495295856587276
42
-0.41450605127977042
10
11.916580866847045
20
57.264854856927982
10
23.653139320935885
20
54.770592860596985
42
-0.40784881610772733
10
24.428927513754715
20
53.605991466492284
10
21.929315939300373
20
41.847297659129396
42
-0.41436820643471028
10
20.742404248482664
20
41.077150058395574
10
9.0052865643901399
20
43.571046213512673
42
-0.41410269122225846
10
8.234577935631533
20
44.756856113218234
0
LWPOLYLINE
5
140
100
AcDbEntity
8
0
100
AcDbPolyline
90
8
70
1
43
0.0
10
13.518315939300368
20
36.424297659129422
42
-0.41409445603198985
10
14.704051011753698
20
37.194740461330809
10
26.442130855608657
20
34.699552957437611
42
-0.41428422638834045
10
27.212169316714174
20
33.513209142035429
10
24.717346642991235
20
21.775516410389226
42
-0.41428903331305883
10
23.531227630118181
20
21.005445259863222
10
11.794492973488317
20
23.500004413957008
42
-0.40643521428690399
10
11.017693040399894
20
24.659844117127811
0
LWPOLYLINE
5
141
100
AcDbEntity
8
0
100
AcDbPolyline
90
8
70
1
43
0.0
10
-118.30068406069947
20
-35.492202340870534
42
-0.41421356237311197
10
-117.30068406069944
20
-34.49220234087052
10
-105.30068580602875
20
-34.492202340872026
42
-0.41421407356826462
10
-104.3006840606995
20
-35.492202340870534
10
-104.30068406069952
20
-47.492202340870534
42
-0.41421356237310281
10
-105.30068406069951
20
-48.492202340870527
10
-117.30068406069944
20
-48.49220234087052
42
-0.41421356237310802
10
-118.30068406069944
20
-47.492202340870534
0
ARC
5
142
100
AcDbEntity
8
0
100
AcDbCircle
10
119.37931593930034
20
-16.441702340870499
30
0
40
0.9999999999999698
210
0
220
-0
230
1
100
AcDbArc
50
90
51
180
0
LINE
5
143
100
AcDbEntity
8
0
100
AcDbLine
10
119.37931593930034
20
-15.441702340870531
30
0
11
131.37931593930034
21
-15.441702340870505
31
0
0
ARC
5
144
100
AcDbEntity
8
0
100
AcDbCircle
10
131.37931593930037
20
-16.441702340870496
30
0
40
0.99999999999997868
210
0
220
0
230
1
100
AcDbArc
50
0
51
90.000000000001634
0
LINE
5
145
100
AcDbEntity
8
0
100
AcDbLine
10
132.37931593930034
20
-16.44170234087051
30
0
11
132.37931593930034
21
-28.441702340870503
31
0
0
ARC
5
146
100
AcDbEntity
8
0
100
AcDbCircle
10
131.37931593930031
20
-28.442702340870486
30
0
40
1.0000000000000098
210
0
220
0
230
1
100
AcDbArc
50
-89.99999999999838
51
0.057295760410215828
0
LINE
5
147
100
AcDbEntity
8
0
100
AcDbLine
10
131.37931593930034
20
-29.442702340870497
30
0
11
119.37931593930034
21
-29.441702340870528
31
0
0
ARC
5
148
100
AcDbEntity
8
0
100
AcDbCircle
10
119.37931593930034
20
-28.441702340870524
30
0
40
0.99999999999999645
210
0
220
0
230
1
100
AcDbArc
50
180
51
270
0
LINE
5
149
100
AcDbEntity
8
0
100
AcDbLine
10
118.37931593930035
20
-28.441702340870521
30
0
11
118.37931593930037
21
-16.441702340870528
31
0
0
LWPOLYLINE
5
150
100
AcDbEntity
8
0
100
AcDbPolyline
90
8
70
1
43
0.0
10
6.2887581932134129
20
-20.465437296590924
42
-0.41390917320448728
10
7.4737470763665836
20
-19.695581122470767
10
19.211961870924412
20
-22.190115850525721
42
-0.42083239627644747
10
19.977968210062521
20
-23.398358840308337
10
17.487591640512402
20
-35.114321569302447
42
-0.41411896995643549
10
16.301845794393763
20
-35.884287945273272
10
4.5642274222064936
20
-33.389555718284313
42
-0.41415669999211796
10
3.7941771792153389
20
-32.203592530904778
0
LWPOLYLINE
5
151
100
AcDbEntity
8
0
100
AcDbPolyline
90
8
70
1
43
0.0
10
113.92931593930032
20
-47.492202340870513
42
-0.41421356237310281
10
112.92931593930035
20
-48.492202340870506
10
100.92931593930035
20
-48.49220234087052
42
-0.41421356237309764
10
99.929315939300366
20
-47.492202340870513
10
99.92931593930038
20
-35.49220234087052
42
-0.41421356237310281
10
100.92931593930035
20
-34.49220234087052
10
112.92931593930035
20
-34.492202340870513
42
-0.41421356237310414
10
113.92931593930037
20
-35.49220234087052
0
LWPOLYLINE
5
152
100
AcDbEntity
8
0
100
AcDbPolyline
90
8
70
1
43
0.0
10
-85.670684060699529
20
-49.632202340870535
42
-0.41421356237310281
10
-86.670684060699514
20
-50.632202340870535
10
-98.6706823153703
20
-50.632202340869014
42
-0.41421407356828416
10
-99.670684060699486
20
-49.632202340870535
10
-99.670684060699486
20
-37.632202340870542
42
-0.41421356237310281
10
-98.6706840606995
20
-36.632202340870549
10
-86.670684060699514
20
-36.63220234087057
42
-0.41421356237308332
10
-85.670684060699529
20
-37.632202340870542
0
ARC
5
153
100
AcDbEntity
8
0
100
AcDbCircle
10
-111.94068406069943
20
-16.442702340870532
30
0
40
0.9999999999999698
210
0
220
-0
230
1
100
AcDbArc
50
90
51
180
0
LINE
5
154
100
AcDbEntity
8
0
100
AcDbLine
10
-111.94068406069943
20
-15.442702340870564
30
0
11
-99.940684060699539
21
-15.44170234087054
31
0
0
ARC
5
155
100
AcDbEntity
8
0
100
AcDbCircle
10
-99.940684060699496
20
-16.441702340870531
30
0
40
0.99999999999997868
210
0
220
0
230
1
100
AcDbArc
50
0
51
90.000000000002444
0
LINE
5
156
100
AcDbEntity
8
0
100
AcDbLine
10
-98.94068406069951
20
-16.441702340870545
30
0
11
-98.940684060699482
21
-28.441702340870538
31
0
0
ARC
5
157
100
AcDbEntity
8
0
100
AcDbCircle
10
-99.94068406069951
20
-28.442702340870522
30
0
40
1.0000000000000098
210
0
220
0
230
1
100
AcDbArc
50
-89.99999999999919
51
0.057295760410215828
0
LINE
5
158
100
AcDbEntity
8
0
100
AcDbLine
10
-99.940684060699496
20
-29.442702340870532
30
0
11
-111.94068231537014
21
-29.441702340869028
31
0
0
ARC
5
159
100
AcDbEntity
8
0
100
AcDbCircle
10
-111.94068406069943
20
-28.441702340870538
30
0
40
1.0000000000000169
210
0
220
0
230
1
100
AcDbArc
50
180.00005729196508
51
270.00010000000191
0
LINE
5
160
100
AcDbEntity
8
0
100
AcDbLine
10
-112.94068406069894
20
-28.441703340870887
30
0
11
-112.9406840606994
21
-16.442702340870561
31
0
0
LWPOLYLINE
5
161
100
AcDbEntity
8
0
100
AcDbPolyline
90
8
70
1
43
0.0
10
-6.4958577077779012
20
-1.0654816410369388
42
-0.41435815508215645
10
-5.3092412584981474
20
-1.8359672684172779
10
-2.8143908155271875
20
-13.573879375058373
42
-0.41880877858603088
10
-3.6001456645743368
20
-14.76305662285834
10
-15.322964402075003
20
-17.255072474501198
42
-0.41412042247984093
10
-16.508684060699572
20
-16.484702340870534
10
-19.00405733050092
20
-4.7467577659620988
42
-0.40954469241375019
10
-18.249191403049419
20
-3.5642573194661642
0
LWPOLYLINE
5
162
100
AcDbEntity
8
0
100
AcDbPolyline
90
8
70
1
43
0.0
10
-117.99068406069949
20
-28.442702340870536
42
-0.41421356237310281
10
-118.99068406069946
20
-29.442702340870532
10
-130.99068406069944
20
-29.442702340870525
42
-0.41433982754119342
10
-131.99068406069944
20
-28.441702340870538
10
-131.99068406069944
20
-16.442702340870561
42
-0.41436648763708411
10
-130.99068406069944
20
-15.441702340870549
10
-118.99068406069946
20
-15.441702340870551
42
-0.41421356237310997
10
-117.99068406069946
20
-16.441702340870545
0
LWPOLYLINE
5
163
100
AcDbEntity
8
0
100
AcDbPolyline
90
8
70
1
43
0.0
10
-40.897554357970954
20
29.552293481475441
42
-0.41427125265903064
10
-40.127494065452012
20
30.738338067970432
10
-28.389684060699558
20
33.233297659129391
42
-0.41433936716956865
10
-27.203287767959221
20
32.463022915206572
10
-24.708684060699582
20
20.725297659129431
42
-0.41400614030569832
10
-25.478684060699557
20
19.539297659129424
10
-37.21669629815743
20
17.044355702041834
42
-0.41425806220530892
10
-38.402684060699563
20
17.815297659129396
0
LWPOLYLINE
5
164
100
AcDbEntity
8
0
100
AcDbPolyline
90
8
70
1
43
0.0
10
-61.631900826259582
20
-33.277973781020421
42
-0.41418969738119127
10
-60.861595543605517
20
-32.091955718284325
10
-49.12386109488736
20
-29.596995586042901
42
-0.42085142457745089
10
-47.933209531156599
20
-30.388809237395481
10
-45.445088604772714
20
-42.094802394314321
42
-0.41717975697316417
10
-46.212507442334996
20
-43.290907139402961
10
-57.950595751517255
20
-45.786054740136741
42
-0.41427154427947577
10
-59.136831661433327
20
-45.015714031688283
0
LWPOLYLINE
5
165
100
AcDbEntity
8
0
100
AcDbPolyline
90
8
70
1
43
0.0
10
94.569315939300367
20
-16.441702340870528
42
-0.41421356237309503
10
95.569315939300367
20
-15.441702340870531
10
107.56931593930037
20
-15.441702340870538
42
-0.41421356237307749
10
108.56931593930035
20
-16.441702340870528
10
108.56931593930037
20
-28.441702340870513
42
-0.41433480030321745
10
107.56931593930037
20
-29.442702340870515
10
95.569317684629596
20
-29.441702340868989
42
-0.4142137806753961
10
94.569315939300864
20
-28.441703340869129
0
LWPOLYLINE
5
166
100
AcDbEntity
8
0
100
AcDbPolyline
90
8
70
1
43
0.0
10
-102.93068406069949
20
2.6072976591294328
42
-0.41421356237309798
10
-101.93068406069952
20
3.6072976591294292
10
-89.930684060699519
20
3.6072976591294283
42
-0.4142135623731103
10
-88.930684060699505
20
2.6072976591294328
10
-88.930684060699519
20
-9.3927023408705601
42
-0.41421356237310381
10
-89.930684060699519
20
-10.392702340870557
10
-101.93068406069955
20
-10.39270234087056
42
-0.4142132694797997
10
-102.93068406069904
20
-9.3927033408709093
0
LWPOLYLINE
5
167
100
AcDbEntity
8
0
100
AcDbPolyline
90
8
70
1
43
0.0
10
-121.98068406069943
20
2.6072976591294328
42
-0.41421356237309798
10
-120.98068406069945
20
3.6072976591294292
10
-108.98068580602879
20
3.6072976591279424
42
-0.41421407356826367
10
-107.98068406069952
20
2.6072976591294328
10
-107.98068406069953
20
-9.3927023408705601
42
-0.41421356237310381
10
-108.98068406069953
20
-10.392702340870557
10
-120.98068231537016
20
-10.39270234086902
42
-0.41421378067491416
10
-121.98068406069896
20
-9.3927033408709093
0
LWPOLYLINE
5
168
100
AcDbEntity
8
0
100
AcDbPolyline
90
18
70
1
43
0.0
10
-24.757684060699567
20
39.189297659129409
10
-24.553390815527152
20
38.197120624941562
42
0.41406537370705754
10
-23.367693659269637
20
37.426344257826159
10
-18.476418509417801
20
38.466737526888167
42
0.41406863026377538
10
-17.706390815527094
20
39.652120624941475
10
-20.410441649068662
20
52.368734938029995
42
0.413947401063255
10
-21.595621039175938
20
53.138311120912789
10
-28.871536459965768
20
51.592209349947154
42
0.41395516255447162
10
-30.056684060699581
20
52.362297659129389
10
-41.772609625374699
20
49.87198977549032
42
0.42076983963207815
10
-42.564979262167142
20
48.681474277493933
10
-49.855805597821927
20
47.132079871982675
42
0.40974986568797467
10
-50.610831661433323
20
45.948385968311655
10
-47.910786741646064
20
33.247943833905722
42
0.41877431333027165
10
-46.721948988246112
20
32.461854856927935
10
-41.830772867369525
20
33.50215249627594
42
0.41430177216369712
10
-41.060979262167137
20
34.688474277493832
10
-41.241684060699555
20
35.684297659129399
0
ARC
5
169
100
AcDbEntity
8
0
100
AcDbCircle
10
57.814367339316831
20
-11.94461722327542
30
0
40
1.0002841737642416
210
0
220
-0
230
1
100
AcDbArc
50
78.021982834324561
51
169.2851153980009
0
LINE
5
170
100
AcDbEntity
8
0
100
AcDbLine
10
58.021962702571422
20
-10.966111937935374
30
0
11
69.760315939300384
21
-13.461702340870527
31
0
0
ARC
5
171
100
AcDbEntity
8
0
100
AcDbCircle
10
69.55232772373202
20
-14.439800935267701
30
0
40
0.99996797857583886
210
0
220
0
230
1
100
AcDbArc
50
-11.994614611441273
51
77.99512732541713
0
LINE
5
172
100
AcDbEntity
8
0
100
AcDbLine
10
70.530463540034191
20
-14.647614031688294
30
0
11
68.035315939300389
21
-26.385702340870534
31
0
0
ARC
5
173
100
AcDbEntity
8
0
100
AcDbCircle
10
67.057368632147245
20
-26.177621183241527
30
0
40
0.99983933560159621
210
0
220
0
230
1
100
AcDbArc
50
257.98459662870766
51
347.9881145485495
0
LINE
5
174
100
AcDbEntity
8
0
100
AcDbLine
10
66.84922743034474
20
-27.155555709234168
30
0
11
55.111314713046625
21
-24.660959770783897
31
0
0
ARC
5
175
100
AcDbEntity
8
0
100
AcDbCircle
10
55.319265351776636
20
-23.682628934529532
30
0
40
1.000187329111105
210
0
220
0
230
1
100
AcDbArc
50
168.01692310136517
51
257.99999999999852
0
LINE
5
176
100
AcDbEntity
8
0
100
AcDbLine
10
54.340873137098967
20
-23.474967268417217
30
0
11
56.831523590328814
21
-11.758642511665457
31
0
0
LWPOLYLINE
5
177
100
AcDbEntity
8
0
100
AcDbPolyline
90
8
70
1
43
0.0
10
32.492575658018978
20
-5.540657128076985
42
-0.41417979247072551
10
33.262169316714278
20
-6.7267908579644242
10
30.767315947385306
20
-18.464702342590755
42
-0.41423424041180745
10
29.581227630118185
20
-19.234554740136751
10
17.844138905112459
20
-16.73940909569815
42
-0.41407807693801268
10
17.074268773861633
20
-15.553812003630975
10
19.568238476890652
20
-3.8158055681152891
42
-0.41424498260500892
10
20.754315939300376
20
-3.0457023408705557
0
LWPOLYLINE
5
178
100
AcDbEntity
8
0
100
AcDbPolyline
90
20
70
1
43
0.0
10
-125.43768406069941
20
-32.492202340870527
42
-0.41421356237311197
10
-124.43768406069938
20
-33.492202340870527
10
-124.43768406069938
20
-34.49220234087052
10
-124.35068406069948
20
-34.492202340870534
42
-0.41421356237311197
10
-123.35068406069948
20
-35.492202340870534
10
-123.35068406069951
20
-47.492202340870534
42
-0.41421356237310281
10
-124.35068406069948
20
-48.492202340870527
10
-155.40068406069946
20
-48.49220234087052
42
-0.41421356237310802
10
-156.40068406069946
20
-47.492202340870534
10
-156.40068406069943
20
-35.492202340870534
42
-0.41421356237310281
10
-155.40068406069946
20
-34.492202340870541
10
-155.31368406069942
20
-34.49220234087052
10
-155.31368406069936
20
-33.492202340870527
42
-0.41421356237310281
10
-154.31368406069939
20
-32.492202340870534
10
-149.31368406069939
20
-32.492202340870527
42
-0.41421356237311197
10
-148.31368406069939
20
-33.492202340870527
10
-148.31368406069939
20
-34.49220234087052
10
-131.43768406069941
20
-34.49220234087052
10
-131.43768406069938
20
-33.492202340870527
42
-0.41421356237310281
10
-130.43768406069941
20
-32.492202340870534
0
LWPOLYLINE
5
179
100
AcDbEntity
8
0
100
AcDbPolyline
90
8
70
1
43
0.0
10
146.15931593930037
20
-18.581702340870514
42
-0.41421356237310281
10
147.15931593930034
20
-17.581702340870518
10
159.15931593930031
20
-17.581702340870521
42
-0.41421356237310997
10
160.15931593930034
20
-18.581702340870514
10
160.15931593930031
20
-30.581702340870489
42
-0.41427803133069296
10
159.15931593930031
20
-31.582202340870502
10
147.15931593930034
20
-31.582202340870516
42
-0.41429121663993101
10
146.15931593930034
20
-30.581702340870489
0
LWPOLYLINE
5
180
100
AcDbEntity
8
0
100
AcDbPolyline
90
8
70
1
43
0.0
10
62.191964331471695
20
-32.335439731255136
42
-0.41052064441312436
10
63.376139320935906
20
-31.577607139402922
10
75.113139320935886
20
-34.072707139402915
42
-0.41417300762552139
10
75.884300440673044
20
-35.258699122374878
10
73.388463540034181
20
-46.996514031688278
42
-0.41421356237309759
10
72.202404248482637
20
-47.766749941604317
10
60.465492557664859
20
-45.271697542338103
42
-0.41419701160504607
10
59.694873137098945
20
-44.085667268417254
0
LWPOLYLINE
5
181
100
AcDbEntity
8
0
100
AcDbPolyline
90
8
70
1
43
0.0
10
118.97931593930036
20
-35.49220234087052
42
-0.41421356237309503
10
119.97931593930035
20
-34.49220234087052
10
131.97931593930034
20
-34.492202340870499
42
-0.41421356237311197
10
132.97931593930034
20
-35.492202340870506
10
132.97931593930031
20
-47.492202340870492
42
-0.41421356237310281
10
131.97931593930034
20
-48.492202340870492
10
119.97931593930034
20
-48.492202340870506
42
-0.41421356237307944
10
118.97931593930036
20
-47.492202340870513
0
LWPOLYLINE
5
182
100
AcDbEntity
8
0
100
AcDbPolyline
90
8
70
1
43
0.0
10
-83.570684060699563
20
9.6572976591294157
42
-0.41421305117808582
10
-84.570682315370291
20
8.657297659130947
10
-96.570684060699506
20
8.6572976591294211
42
-0.41421356237310997
10
-97.570684060699506
20
9.6572976591294157
10
-97.570684060699477
20
21.657297659129409
42
-0.41421356237310281
10
-96.570684060699506
20
22.657297659129405
10
-84.570685806028791
20
22.65729765912792
42
-0.41421407356826462
10
-83.570684060699534
20
21.657297659129409
0
LWPOLYLINE
5
183
100
AcDbEntity
8
0
100
AcDbPolyline
90
8
70
1
43
0.0
10
-94.310684060699515
20
-17.50270234087056
42
-0.41421356237310281
10
-93.310684060699529
20
-16.502702340870563
10
-81.310685806028829
20
-16.502702340872048
42
-0.41421407356826401
10
-80.310684060699558
20
-17.50270234087056
10
-80.310684060699572
20
-29.502702340870535
42
-0.41421305117809587
10
-81.3106823153703
20
-30.502702340869003
10
-93.310684060699487
20
-30.502702340870535
42
-0.41421356237311197
10
-94.310684060699515
20
-29.502702340870535
0
LWPOLYLINE
5
184
100
AcDbEntity
8
0
100
AcDbPolyline
90
8
70
1
43
0.0
10
74.225975142634439
20
44.516480119860454
42
-0.41916247659901551
10
75.416492557664796
20
45.302002457661899
10
87.153315939300327
20
42.807297659129439
42
-0.41418208761063441
10
87.923454606579639
20
41.621387867038315
10
85.428463540034173
20
29.883385968311671
42
-0.41421356237309404
10
84.242404248482629
20
29.113150058395636
10
72.505580866847112
20
31.607854856927922
42
-0.41430150028250018
10
71.735168326109928
20
32.794209361534456
0
CIRCLE
5
185
100
AcDbEntity
8
0
100
AcDbCircle
10
62.991293018522555
20
-66.535972250061164
30
0
40
1
210
0
220
-0
230
1
0
CIRCLE
5
186
100
AcDbEntity
8
0
100
AcDbCircle
10
-178.21044299806218
20
-59.392211278232942
30
0
40
1
210
0
220
-0
230
1
0
CIRCLE
5
187
100
AcDbEntity
8
0
100
AcDbCircle
10
-63.827203197924298
20
59.630640502310669
30
0
40
1
210
0
220
-0
230
1
0
CIRCLE
5
188
100
AcDbEntity
8
0
100
AcDbCircle
10
174.32757487666277
20
51.845806596491961
30
0
40
1
210
0
220
-0
230
1
0
CIRCLE
5
189
100
AcDbEntity
8
0
100
AcDbCircle
10
174.32757487666279
20
-59.646211278232933
30
0
40
1
210
0
220
-0
230
1
0
CIRCLE
5
190
100
AcDbEntity
8
0
100
AcDbCircle
10
62.95650399585778
20
60.406165247158839
30
0
40
1
210
0
220
-0
230
1
0
CIRCLE
5
191
100
AcDbEntity
8
0
100
AcDbCircle
10
-178.21044299806218
20
51.083806596491954
30
0
40
1
210
0
220
-0
230
1
0
CIRCLE
5
192
100
AcDbEntity
8
0
100
AcDbCircle
10
-63.793424615321698
20
-66.528358192296778
30
0
40
1
210
0
220
-0
230
1
0
LWPOLYLINE
5
193
100
AcDbEntity
8
0
100
AcDbPolyline
90
40
70
1
43
0.0
10
42.651835813385205
20
-65.751514608071787
10
44.732872997102319
20
-75.532582251227481
10
38.648050745754468
20
-76.827199753461471
42
-0.058846203974490259
10
35.142565939300319
20
-77.241202340870501
10
-35.723434060699653
20
-77.24120229883647
42
-0.058644342790359107
10
-39.217142216994176
20
-76.830015725401481
10
-82.122410898009349
20
-67.766999535341597
42
0.052090285125248666
10
-86.255864534097554
20
-67.335202340870495
10
-171.10543406069974
20
-67.335202340870524
42
-0.41421356237309492
10
-186.15343406069974
20
-52.287202340870508
10
-186.15343406069971
20
43.978797659129526
42
-0.41421356237309503
10
-171.10543406069974
20
59.026797659129528
10
-93.144402632352808
20
59.026797659129528
42
0.051720162702109912
10
-89.039846172356903
20
59.452513093232724
10
-29.334012881279232
20
71.972304706015166
42
-0.051720162702107692
10
-25.229456421283327
20
72.398020140118348
10
26.320443910237763
20
72.398020140118376
42
-0.049115099075308581
10
30.221330572935958
20
72.013908680910575
10
89.764646673882766
20
60.172909118337323
42
0.049115099075311607
10
93.665533336580964
20
59.788797659129528
10
167.22256593930035
20
59.788797659129514
42
-0.4142135623730947
10
182.27056593930033
20
44.740797659129541
10
182.27056593930033
20
-52.541202340870505
42
-0.41421356237309503
10
167.22256593930035
20
-67.589202340870514
10
84.171564433060965
20
-67.5892023408705
42
0.052456994628027297
10
80.009490065626892
20
-68.027067054559126
10
61.302001416096282
20
-72.007305297863681
10
59.220964232379146
20
-62.226237654707859
10
68.958449380243522
20
-60.15447315947111
42
0.35406333839305709
10
72.126034506756696
20
-56.242046102208846
10
72.126034506756696
20
-56.100647050245641
42
0.35412226758190873
10
68.957629884828705
20
-52.188045725401864
10
3.2970788643062292
20
-38.232366059391495
42
0.10510552356968955
10
1.6337653958517429
20
-38.232392143025152
10
-67.220101200418213
20
-52.869045219424045
42
0.81030087746145207
10
-67.215073837253371
20
-60.695261021739952
10
-36.988466528324267
20
-67.080123297002288
42
0.063409966011720165
10
-35.723434060699653
20
-67.24120229883647
10
35.142565939300319
20
-67.241202340870501
42
0.063491865222237279
10
36.409192870408816
20
-67.079710318699938
0
ENDSEC
0
SECTION
2
OBJECTS
0
DICTIONARY
5
C
100
AcDbDictionary
3
ACAD_GROUP
350
D
3
ACAD_MLINESTYLE
350
17
0
DICTIONARY
5
D
100
AcDbDictionary
0
DICTIONARY
5
1A
330
C
100
AcDbDictionary
0
DICTIONARY
5
17
100
AcDbDictionary
0
ENDSEC
0
EOF
