0
SECTION
2
HEADER
9
$INSUNITS
70
4
9
$ACADVER
1
AC1014
9
$HANDSEED
5
FFFF
0
ENDSEC
0
SECTION
2
TABLES
0
TABLE
2
VPORT
5
8
100
AcDbSymbolTable
0
ENDTAB
0
TABLE
2
LTYPE
5
5
100
AcDbSymbolTable
0
LTYPE
5
14
100
AcDbSymbolTableRecord
100
AcDbLinetypeTableRecord
2
BYBLOCK
70
0
0
LTYPE
5
15
100
AcDbSymbolTableRecord
100
AcDbLinetypeTableRecord
2
BYLAYER
70
0
0
ENDTAB
0
TABLE
2
LAYER
5
2
100
AcDbSymbolTable
70
2
0
LAYER
5
50
100
AcDbSymbolTableRecord
100
AcDbLayerTableRecord
2
0
70
0
6
CONTINUOUS
0
ENDTAB
0
TABLE
2
STYLE
5
3
100
AcDbSymbolTable
70
1
0
STYLE
5
11
100
AcDbSymbolTableRecord
100
AcDbTextStyleTableRecord
2
STANDARD
70
0
0
ENDTAB
0
TABLE
2
VIEW
5
6
100
AcDbSymbolTable
70
0
0
ENDTAB
0
TABLE
2
UCS
5
7
100
AcDbSymbolTable
70
0
0
ENDTAB
0
TABLE
2
APPID
5
9
100
AcDbSymbolTable
70
2
0
APPID
5
12
100
AcDbSymbolTableRecord
100
AcDbRegAppTableRecord
2
ACAD
70
0
0
ENDTAB
0
TABLE
2
DIMSTYLE
5
A
100
AcDbSymbolTable
70
1
0
ENDTAB
0
TABLE
2
BLOCK_RECORD
5
1
100
AcDbSymbolTable
70
1
0
BLOCK_RECORD
5
1F
100
AcDbSymbolTableRecord
100
AcDbBlockTableRecord
2
*MODEL_SPACE
0
BLOCK_RECORD
5
1B
100
AcDbSymbolTableRecord
100
AcDbBlockTableRecord
2
*PAPER_SPACE
0
ENDTAB
0
ENDSEC
0
SECTION
2
BLOCKS
0
BLOCK
5
20
100
AcDbEntity
100
AcDbBlockBegin
2
*MODEL_SPACE
0
ENDBLK
5
21
100
AcDbEntity
100
AcDbBlockEnd
0
BLOCK
5
1C
100
AcDbEntity
100
AcDbBlockBegin
2
*PAPER_SPACE
0
ENDBLK
5
1D
100
AcDbEntity
100
AcDbBlockEnd
0
ENDSEC
0
SECTION
2
ENTITIES
0
CIRCLE
5
100
100
AcDbEntity
8
0
100
AcDbCircle
10
-63.793424615321698
20
-66.528358192296778
30
0
40
1
210
0
220
-0
230
1
0
CIRCLE
5
101
100
AcDbEntity
8
0
100
AcDbCircle
10
-178.21044299806218
20
51.083806596491954
30
0
40
1
210
0
220
-0
230
1
0
CIRCLE
5
102
100
AcDbEntity
8
0
100
AcDbCircle
10
62.95650399585778
20
60.406165247158839
30
0
40
1
210
0
220
-0
230
1
0
CIRCLE
5
103
100
AcDbEntity
8
0
100
AcDbCircle
10
174.32757487666279
20
-59.646211278232933
30
0
40
1
210
0
220
-0
230
1
0
CIRCLE
5
104
100
AcDbEntity
8
0
100
AcDbCircle
10
174.32757487666277
20
51.845806596491961
30
0
40
1
210
0
220
-0
230
1
0
CIRCLE
5
105
100
AcDbEntity
8
0
100
AcDbCircle
10
-63.827203197924298
20
59.630640502310669
30
0
40
1
210
0
220
-0
230
1
0
CIRCLE
5
106
100
AcDbEntity
8
0
100
AcDbCircle
10
-178.21044299806218
20
-59.392211278232942
30
0
40
1
210
0
220
-0
230
1
0
CIRCLE
5
107
100
AcDbEntity
8
0
100
AcDbCircle
10
62.991293018522555
20
-66.535972250061164
30
0
40
1
210
0
220
-0
230
1
0
LWPOLYLINE
5
108
100
AcDbEntity
8
0
100
AcDbPolyline
90
24
70
1
43
0.0
10
-29.334012881279325
20
71.972304706015166
42
-0.051720162702108025
10
-25.229456421283402
20
72.398020140118348
10
26.320443910237824
20
72.398020140118334
42
-0.049115099075308914
10
30.221330572936029
20
72.013908680910546
10
89.764646673882794
20
60.172909118337316
42
0.049115099075311607
10
93.665533336581007
20
59.788797659129528
10
167.22256593930035
20
59.7887976591295
42
-0.41421356237309453
10
182.27056593930033
20
44.740797659129534
10
182.27056593930033
20
-52.541202340870512
42
-0.41421356237309387
10
167.22256593930035
20
-67.589202340870514
10
84.171564433060951
20
-67.5892023408705
42
0.052456994628027033
10
80.009490065626892
20
-68.027067054559126
10
38.648050745754482
20
-76.827199753461471
42
-0.058846203974488587
10
35.142565939300319
20
-77.241202340870501
10
-35.723434060699674
20
-77.24120229883647
42
-0.058644342790361112
10
-39.217142216994176
20
-76.830015725401466
10
-82.122410898009292
20
-67.766999535341597
42
0.052090285125248666
10
-86.255864534097512
20
-67.335202340870495
10
-171.10543406069974
20
-67.335202340870467
42
-0.41421356237309437
10
-186.15343406069971
20
-52.287202340870508
10
-186.15343406069968
20
43.978797659129526
42
-0.41421356237309576
10
-171.10543406069974
20
59.026797659129528
10
-93.144402632352865
20
59.026797659129514
42
0.051720162702109912
10
-89.03984617235696
20
59.452513093232717
0
CIRCLE
5
109
100
AcDbEntity
8
0
100
AcDbCircle
10
152.22256593930035
20
-50.0892023408705
30
0
40
0.99999999999999778
210
0
220
0
230
1
0
CIRCLE
5
110
100
AcDbEntity
8
0
100
AcDbCircle
10
58.315538360215271
20
-54.751003072919801
30
0
40
0.99999999999999645
210
0
220
0
230
1
0
CIRCLE
5
111
100
AcDbEntity
8
0
100
AcDbCircle
10
-59.657007522286179
20
-54.626278372242524
30
0
40
0.99999999999999645
210
0
220
0
230
1
0
CIRCLE
5
112
100
AcDbEntity
8
0
100
AcDbCircle
10
-156.10543406069971
20
-49.835202340870495
30
0
40
0.99999999999999645
210
0
220
0
230
1
0
ENDSEC
0
SECTION
2
OBJECTS
0
DICTIONARY
5
C
100
AcDbDictionary
3
ACAD_GROUP
350
D
3
ACAD_MLINESTYLE
350
17
0
DICTIONARY
5
D
100
AcDbDictionary
0
DICTIONARY
5
1A
330
C
100
AcDbDictionary
0
DICTIONARY
5
17
100
AcDbDictionary
0
ENDSEC
0
EOF
