%TF.GenerationSoftware,KiCad,Pcbnew,(5.1.7)-1*%
%TF.CreationDate,2020-10-18T12:45:37+02:00*%
%TF.ProjectId,backplate,6261636b-706c-4617-9465-2e6b69636164,rev?*%
%TF.SameCoordinates,Original*%
%TF.FileFunction,Copper,L1,Top*%
%TF.FilePolarity,Positive*%
%FSLAX46Y46*%
G04 Gerber Fmt 4.6, Leading zero omitted, Abs format (unit mm)*
G04 Created by KiCad (PCBNEW (5.1.7)-1) date 2020-10-18 12:45:37*
%MOMM*%
%LPD*%
G01*
G04 APERTURE LIST*
%TA.AperFunction,ComponentPad*%
%ADD10C,5.000000*%
%TD*%
%TA.AperFunction,ComponentPad*%
%ADD11C,3.000000*%
%TD*%
%TA.AperFunction,NonConductor*%
%ADD12C,0.254000*%
%TD*%
%TA.AperFunction,NonConductor*%
%ADD13C,0.100000*%
%TD*%
G04 APERTURE END LIST*
D10*
%TO.P,REF\u002A\u002A,1*%
%TO.N,N/C*%
X368300000Y-91440000D03*
%TD*%
%TO.P,REF\u002A\u002A,1*%
%TO.N,N/C*%
X58420000Y-91440000D03*
%TD*%
D11*
%TO.P,REF\u002A\u002A,1*%
%TO.N,N/C*%
X211836000Y-181991000D03*
%TD*%
%TO.P,REF\u002A\u002A,1*%
%TO.N,N/C*%
X211836000Y-77216000D03*
%TD*%
%TO.P,REF\u002A\u002A,1*%
%TO.N,N/C*%
X379476000Y-172212000D03*
%TD*%
%TO.P,REF\u002A\u002A,1*%
%TO.N,N/C*%
X379476000Y-81153000D03*
%TD*%
%TO.P,REF\u002A\u002A,1*%
%TO.N,N/C*%
X47117000Y-81153000D03*
%TD*%
%TO.P,REF\u002A\u002A,1*%
%TO.N,N/C*%
X47117000Y-172212000D03*
%TD*%
D12*
X247037181Y-66729057D02*
X247130052Y-66750887D01*
X247142522Y-66754831D01*
X293147858Y-76472685D01*
X293288319Y-76504128D01*
X293350389Y-76511769D01*
X293411562Y-76524772D01*
X293427558Y-76526453D01*
X294019111Y-76584456D01*
X294075405Y-76590000D01*
X381959657Y-76590000D01*
X382383197Y-76631529D01*
X382736403Y-76738168D01*
X383062172Y-76911382D01*
X383348092Y-77144572D01*
X383583277Y-77428861D01*
X383758759Y-77753409D01*
X383867863Y-78105868D01*
X383912000Y-78525798D01*
X383912001Y-174695646D01*
X383870471Y-175119197D01*
X383763832Y-175472403D01*
X383590617Y-175798173D01*
X383357426Y-176084094D01*
X383073139Y-176319277D01*
X382748591Y-176494759D01*
X382396132Y-176603863D01*
X381976202Y-176648000D01*
X300786618Y-176648000D01*
X300724022Y-176642488D01*
X300617200Y-176654127D01*
X300510169Y-176664668D01*
X300450027Y-176682912D01*
X211970050Y-195236391D01*
X211111937Y-195307549D01*
X210238212Y-195247069D01*
X210012440Y-195208892D01*
X142244241Y-181732263D01*
X209209000Y-181732263D01*
X209209000Y-182249737D01*
X209309954Y-182757268D01*
X209507983Y-183235351D01*
X209795476Y-183665615D01*
X210161385Y-184031524D01*
X210591649Y-184319017D01*
X211069732Y-184517046D01*
X211577263Y-184618000D01*
X212094737Y-184618000D01*
X212602268Y-184517046D01*
X213080351Y-184319017D01*
X213510615Y-184031524D01*
X213876524Y-183665615D01*
X214164017Y-183235351D01*
X214362046Y-182757268D01*
X214463000Y-182249737D01*
X214463000Y-181732263D01*
X214362046Y-181224732D01*
X214164017Y-180746649D01*
X213876524Y-180316385D01*
X213510615Y-179950476D01*
X213080351Y-179662983D01*
X212602268Y-179464954D01*
X212094737Y-179364000D01*
X211577263Y-179364000D01*
X211069732Y-179464954D01*
X210591649Y-179662983D01*
X210161385Y-179950476D01*
X209795476Y-180316385D01*
X209507983Y-180746649D01*
X209309954Y-181224732D01*
X209209000Y-181732263D01*
X142244241Y-181732263D01*
X120676233Y-177443171D01*
X120621831Y-177426668D01*
X120565200Y-177421090D01*
X120565183Y-177421087D01*
X120522718Y-177416906D01*
X120452595Y-177410000D01*
X120452566Y-177410000D01*
X120395947Y-177404426D01*
X120339383Y-177410000D01*
X43744343Y-177410000D01*
X43320803Y-177368471D01*
X42967597Y-177261832D01*
X42641827Y-177088617D01*
X42355906Y-176855426D01*
X42120723Y-176571139D01*
X41945241Y-176246591D01*
X41836137Y-175894132D01*
X41792000Y-175474202D01*
X41792000Y-171953263D01*
X44490000Y-171953263D01*
X44490000Y-172470737D01*
X44590954Y-172978268D01*
X44788983Y-173456351D01*
X45076476Y-173886615D01*
X45442385Y-174252524D01*
X45872649Y-174540017D01*
X46350732Y-174738046D01*
X46858263Y-174839000D01*
X47375737Y-174839000D01*
X47883268Y-174738046D01*
X48361351Y-174540017D01*
X48791615Y-174252524D01*
X49157524Y-173886615D01*
X49445017Y-173456351D01*
X49643046Y-172978268D01*
X49744000Y-172470737D01*
X49744000Y-171953263D01*
X376849000Y-171953263D01*
X376849000Y-172470737D01*
X376949954Y-172978268D01*
X377147983Y-173456351D01*
X377435476Y-173886615D01*
X377801385Y-174252524D01*
X378231649Y-174540017D01*
X378709732Y-174738046D01*
X379217263Y-174839000D01*
X379734737Y-174839000D01*
X380242268Y-174738046D01*
X380720351Y-174540017D01*
X381150615Y-174252524D01*
X381516524Y-173886615D01*
X381804017Y-173456351D01*
X382002046Y-172978268D01*
X382103000Y-172470737D01*
X382103000Y-171953263D01*
X382002046Y-171445732D01*
X381804017Y-170967649D01*
X381516524Y-170537385D01*
X381150615Y-170171476D01*
X380720351Y-169883983D01*
X380242268Y-169685954D01*
X379734737Y-169585000D01*
X379217263Y-169585000D01*
X378709732Y-169685954D01*
X378231649Y-169883983D01*
X377801385Y-170171476D01*
X377435476Y-170537385D01*
X377147983Y-170967649D01*
X376949954Y-171445732D01*
X376849000Y-171953263D01*
X49744000Y-171953263D01*
X49643046Y-171445732D01*
X49445017Y-170967649D01*
X49157524Y-170537385D01*
X48791615Y-170171476D01*
X48361351Y-169883983D01*
X47883268Y-169685954D01*
X47375737Y-169585000D01*
X46858263Y-169585000D01*
X46350732Y-169685954D01*
X45872649Y-169883983D01*
X45442385Y-170171476D01*
X45076476Y-170537385D01*
X44788983Y-170967649D01*
X44590954Y-171445732D01*
X44490000Y-171953263D01*
X41792000Y-171953263D01*
X41792000Y-91082772D01*
X54793000Y-91082772D01*
X54793000Y-91797228D01*
X54932383Y-92497957D01*
X55205794Y-93158029D01*
X55602725Y-93752078D01*
X56107922Y-94257275D01*
X56701971Y-94654206D01*
X57362043Y-94927617D01*
X58062772Y-95067000D01*
X58777228Y-95067000D01*
X59477957Y-94927617D01*
X60138029Y-94654206D01*
X60732078Y-94257275D01*
X61237275Y-93752078D01*
X61634206Y-93158029D01*
X61907617Y-92497957D01*
X62047000Y-91797228D01*
X62047000Y-91082772D01*
X364673000Y-91082772D01*
X364673000Y-91797228D01*
X364812383Y-92497957D01*
X365085794Y-93158029D01*
X365482725Y-93752078D01*
X365987922Y-94257275D01*
X366581971Y-94654206D01*
X367242043Y-94927617D01*
X367942772Y-95067000D01*
X368657228Y-95067000D01*
X369357957Y-94927617D01*
X370018029Y-94654206D01*
X370612078Y-94257275D01*
X371117275Y-93752078D01*
X371514206Y-93158029D01*
X371787617Y-92497957D01*
X371927000Y-91797228D01*
X371927000Y-91082772D01*
X371787617Y-90382043D01*
X371514206Y-89721971D01*
X371117275Y-89127922D01*
X370612078Y-88622725D01*
X370018029Y-88225794D01*
X369357957Y-87952383D01*
X368657228Y-87813000D01*
X367942772Y-87813000D01*
X367242043Y-87952383D01*
X366581971Y-88225794D01*
X365987922Y-88622725D01*
X365482725Y-89127922D01*
X365085794Y-89721971D01*
X364812383Y-90382043D01*
X364673000Y-91082772D01*
X62047000Y-91082772D01*
X61907617Y-90382043D01*
X61634206Y-89721971D01*
X61237275Y-89127922D01*
X60732078Y-88622725D01*
X60138029Y-88225794D01*
X59477957Y-87952383D01*
X58777228Y-87813000D01*
X58062772Y-87813000D01*
X57362043Y-87952383D01*
X56701971Y-88225794D01*
X56107922Y-88622725D01*
X55602725Y-89127922D01*
X55205794Y-89721971D01*
X54932383Y-90382043D01*
X54793000Y-91082772D01*
X41792000Y-91082772D01*
X41792000Y-80894263D01*
X44490000Y-80894263D01*
X44490000Y-81411737D01*
X44590954Y-81919268D01*
X44788983Y-82397351D01*
X45076476Y-82827615D01*
X45442385Y-83193524D01*
X45872649Y-83481017D01*
X46350732Y-83679046D01*
X46858263Y-83780000D01*
X47375737Y-83780000D01*
X47883268Y-83679046D01*
X48361351Y-83481017D01*
X48791615Y-83193524D01*
X49157524Y-82827615D01*
X49445017Y-82397351D01*
X49643046Y-81919268D01*
X49744000Y-81411737D01*
X49744000Y-80894263D01*
X376849000Y-80894263D01*
X376849000Y-81411737D01*
X376949954Y-81919268D01*
X377147983Y-82397351D01*
X377435476Y-82827615D01*
X377801385Y-83193524D01*
X378231649Y-83481017D01*
X378709732Y-83679046D01*
X379217263Y-83780000D01*
X379734737Y-83780000D01*
X380242268Y-83679046D01*
X380720351Y-83481017D01*
X381150615Y-83193524D01*
X381516524Y-82827615D01*
X381804017Y-82397351D01*
X382002046Y-81919268D01*
X382103000Y-81411737D01*
X382103000Y-80894263D01*
X382002046Y-80386732D01*
X381804017Y-79908649D01*
X381516524Y-79478385D01*
X381150615Y-79112476D01*
X380720351Y-78824983D01*
X380242268Y-78626954D01*
X379734737Y-78526000D01*
X379217263Y-78526000D01*
X378709732Y-78626954D01*
X378231649Y-78824983D01*
X377801385Y-79112476D01*
X377435476Y-79478385D01*
X377147983Y-79908649D01*
X376949954Y-80386732D01*
X376849000Y-80894263D01*
X49744000Y-80894263D01*
X49643046Y-80386732D01*
X49445017Y-79908649D01*
X49157524Y-79478385D01*
X48791615Y-79112476D01*
X48361351Y-78824983D01*
X47883268Y-78626954D01*
X47375737Y-78526000D01*
X46858263Y-78526000D01*
X46350732Y-78626954D01*
X45872649Y-78824983D01*
X45442385Y-79112476D01*
X45076476Y-79478385D01*
X44788983Y-79908649D01*
X44590954Y-80386732D01*
X44490000Y-80894263D01*
X41792000Y-80894263D01*
X41792000Y-78288343D01*
X41833529Y-77864803D01*
X41940168Y-77511597D01*
X42113382Y-77185828D01*
X42299794Y-76957263D01*
X209209000Y-76957263D01*
X209209000Y-77474737D01*
X209309954Y-77982268D01*
X209507983Y-78460351D01*
X209795476Y-78890615D01*
X210161385Y-79256524D01*
X210591649Y-79544017D01*
X211069732Y-79742046D01*
X211577263Y-79843000D01*
X212094737Y-79843000D01*
X212602268Y-79742046D01*
X213080351Y-79544017D01*
X213510615Y-79256524D01*
X213876524Y-78890615D01*
X214164017Y-78460351D01*
X214362046Y-77982268D01*
X214463000Y-77474737D01*
X214463000Y-76957263D01*
X214362046Y-76449732D01*
X214164017Y-75971649D01*
X213876524Y-75541385D01*
X213510615Y-75175476D01*
X213080351Y-74887983D01*
X212602268Y-74689954D01*
X212094737Y-74589000D01*
X211577263Y-74589000D01*
X211069732Y-74689954D01*
X210591649Y-74887983D01*
X210161385Y-75175476D01*
X209795476Y-75541385D01*
X209507983Y-75971649D01*
X209309954Y-76449732D01*
X209209000Y-76957263D01*
X42299794Y-76957263D01*
X42346572Y-76899908D01*
X42630861Y-76664723D01*
X42955409Y-76489241D01*
X43307868Y-76380137D01*
X43727798Y-76336000D01*
X129850595Y-76336000D01*
X129864812Y-76334600D01*
X129973332Y-76331913D01*
X130035399Y-76324272D01*
X130097902Y-76322050D01*
X130113829Y-76319801D01*
X130681883Y-76235551D01*
X130717628Y-76231550D01*
X175182598Y-66771106D01*
X175669959Y-66688193D01*
X175788394Y-66684000D01*
X246577657Y-66684000D01*
X247037181Y-66729057D01*
%TA.AperFunction,NonConductor*%
D13*
G36*
X247037181Y-66729057D02*
G01*
X247130052Y-66750887D01*
X247142522Y-66754831D01*
X293147858Y-76472685D01*
X293288319Y-76504128D01*
X293350389Y-76511769D01*
X293411562Y-76524772D01*
X293427558Y-76526453D01*
X294019111Y-76584456D01*
X294075405Y-76590000D01*
X381959657Y-76590000D01*
X382383197Y-76631529D01*
X382736403Y-76738168D01*
X383062172Y-76911382D01*
X383348092Y-77144572D01*
X383583277Y-77428861D01*
X383758759Y-77753409D01*
X383867863Y-78105868D01*
X383912000Y-78525798D01*
X383912001Y-174695646D01*
X383870471Y-175119197D01*
X383763832Y-175472403D01*
X383590617Y-175798173D01*
X383357426Y-176084094D01*
X383073139Y-176319277D01*
X382748591Y-176494759D01*
X382396132Y-176603863D01*
X381976202Y-176648000D01*
X300786618Y-176648000D01*
X300724022Y-176642488D01*
X300617200Y-176654127D01*
X300510169Y-176664668D01*
X300450027Y-176682912D01*
X211970050Y-195236391D01*
X211111937Y-195307549D01*
X210238212Y-195247069D01*
X210012440Y-195208892D01*
X142244241Y-181732263D01*
X209209000Y-181732263D01*
X209209000Y-182249737D01*
X209309954Y-182757268D01*
X209507983Y-183235351D01*
X209795476Y-183665615D01*
X210161385Y-184031524D01*
X210591649Y-184319017D01*
X211069732Y-184517046D01*
X211577263Y-184618000D01*
X212094737Y-184618000D01*
X212602268Y-184517046D01*
X213080351Y-184319017D01*
X213510615Y-184031524D01*
X213876524Y-183665615D01*
X214164017Y-183235351D01*
X214362046Y-182757268D01*
X214463000Y-182249737D01*
X214463000Y-181732263D01*
X214362046Y-181224732D01*
X214164017Y-180746649D01*
X213876524Y-180316385D01*
X213510615Y-179950476D01*
X213080351Y-179662983D01*
X212602268Y-179464954D01*
X212094737Y-179364000D01*
X211577263Y-179364000D01*
X211069732Y-179464954D01*
X210591649Y-179662983D01*
X210161385Y-179950476D01*
X209795476Y-180316385D01*
X209507983Y-180746649D01*
X209309954Y-181224732D01*
X209209000Y-181732263D01*
X142244241Y-181732263D01*
X120676233Y-177443171D01*
X120621831Y-177426668D01*
X120565200Y-177421090D01*
X120565183Y-177421087D01*
X120522718Y-177416906D01*
X120452595Y-177410000D01*
X120452566Y-177410000D01*
X120395947Y-177404426D01*
X120339383Y-177410000D01*
X43744343Y-177410000D01*
X43320803Y-177368471D01*
X42967597Y-177261832D01*
X42641827Y-177088617D01*
X42355906Y-176855426D01*
X42120723Y-176571139D01*
X41945241Y-176246591D01*
X41836137Y-175894132D01*
X41792000Y-175474202D01*
X41792000Y-171953263D01*
X44490000Y-171953263D01*
X44490000Y-172470737D01*
X44590954Y-172978268D01*
X44788983Y-173456351D01*
X45076476Y-173886615D01*
X45442385Y-174252524D01*
X45872649Y-174540017D01*
X46350732Y-174738046D01*
X46858263Y-174839000D01*
X47375737Y-174839000D01*
X47883268Y-174738046D01*
X48361351Y-174540017D01*
X48791615Y-174252524D01*
X49157524Y-173886615D01*
X49445017Y-173456351D01*
X49643046Y-172978268D01*
X49744000Y-172470737D01*
X49744000Y-171953263D01*
X376849000Y-171953263D01*
X376849000Y-172470737D01*
X376949954Y-172978268D01*
X377147983Y-173456351D01*
X377435476Y-173886615D01*
X377801385Y-174252524D01*
X378231649Y-174540017D01*
X378709732Y-174738046D01*
X379217263Y-174839000D01*
X379734737Y-174839000D01*
X380242268Y-174738046D01*
X380720351Y-174540017D01*
X381150615Y-174252524D01*
X381516524Y-173886615D01*
X381804017Y-173456351D01*
X382002046Y-172978268D01*
X382103000Y-172470737D01*
X382103000Y-171953263D01*
X382002046Y-171445732D01*
X381804017Y-170967649D01*
X381516524Y-170537385D01*
X381150615Y-170171476D01*
X380720351Y-169883983D01*
X380242268Y-169685954D01*
X379734737Y-169585000D01*
X379217263Y-169585000D01*
X378709732Y-169685954D01*
X378231649Y-169883983D01*
X377801385Y-170171476D01*
X377435476Y-170537385D01*
X377147983Y-170967649D01*
X376949954Y-171445732D01*
X376849000Y-171953263D01*
X49744000Y-171953263D01*
X49643046Y-171445732D01*
X49445017Y-170967649D01*
X49157524Y-170537385D01*
X48791615Y-170171476D01*
X48361351Y-169883983D01*
X47883268Y-169685954D01*
X47375737Y-169585000D01*
X46858263Y-169585000D01*
X46350732Y-169685954D01*
X45872649Y-169883983D01*
X45442385Y-170171476D01*
X45076476Y-170537385D01*
X44788983Y-170967649D01*
X44590954Y-171445732D01*
X44490000Y-171953263D01*
X41792000Y-171953263D01*
X41792000Y-91082772D01*
X54793000Y-91082772D01*
X54793000Y-91797228D01*
X54932383Y-92497957D01*
X55205794Y-93158029D01*
X55602725Y-93752078D01*
X56107922Y-94257275D01*
X56701971Y-94654206D01*
X57362043Y-94927617D01*
X58062772Y-95067000D01*
X58777228Y-95067000D01*
X59477957Y-94927617D01*
X60138029Y-94654206D01*
X60732078Y-94257275D01*
X61237275Y-93752078D01*
X61634206Y-93158029D01*
X61907617Y-92497957D01*
X62047000Y-91797228D01*
X62047000Y-91082772D01*
X364673000Y-91082772D01*
X364673000Y-91797228D01*
X364812383Y-92497957D01*
X365085794Y-93158029D01*
X365482725Y-93752078D01*
X365987922Y-94257275D01*
X366581971Y-94654206D01*
X367242043Y-94927617D01*
X367942772Y-95067000D01*
X368657228Y-95067000D01*
X369357957Y-94927617D01*
X370018029Y-94654206D01*
X370612078Y-94257275D01*
X371117275Y-93752078D01*
X371514206Y-93158029D01*
X371787617Y-92497957D01*
X371927000Y-91797228D01*
X371927000Y-91082772D01*
X371787617Y-90382043D01*
X371514206Y-89721971D01*
X371117275Y-89127922D01*
X370612078Y-88622725D01*
X370018029Y-88225794D01*
X369357957Y-87952383D01*
X368657228Y-87813000D01*
X367942772Y-87813000D01*
X367242043Y-87952383D01*
X366581971Y-88225794D01*
X365987922Y-88622725D01*
X365482725Y-89127922D01*
X365085794Y-89721971D01*
X364812383Y-90382043D01*
X364673000Y-91082772D01*
X62047000Y-91082772D01*
X61907617Y-90382043D01*
X61634206Y-89721971D01*
X61237275Y-89127922D01*
X60732078Y-88622725D01*
X60138029Y-88225794D01*
X59477957Y-87952383D01*
X58777228Y-87813000D01*
X58062772Y-87813000D01*
X57362043Y-87952383D01*
X56701971Y-88225794D01*
X56107922Y-88622725D01*
X55602725Y-89127922D01*
X55205794Y-89721971D01*
X54932383Y-90382043D01*
X54793000Y-91082772D01*
X41792000Y-91082772D01*
X41792000Y-80894263D01*
X44490000Y-80894263D01*
X44490000Y-81411737D01*
X44590954Y-81919268D01*
X44788983Y-82397351D01*
X45076476Y-82827615D01*
X45442385Y-83193524D01*
X45872649Y-83481017D01*
X46350732Y-83679046D01*
X46858263Y-83780000D01*
X47375737Y-83780000D01*
X47883268Y-83679046D01*
X48361351Y-83481017D01*
X48791615Y-83193524D01*
X49157524Y-82827615D01*
X49445017Y-82397351D01*
X49643046Y-81919268D01*
X49744000Y-81411737D01*
X49744000Y-80894263D01*
X376849000Y-80894263D01*
X376849000Y-81411737D01*
X376949954Y-81919268D01*
X377147983Y-82397351D01*
X377435476Y-82827615D01*
X377801385Y-83193524D01*
X378231649Y-83481017D01*
X378709732Y-83679046D01*
X379217263Y-83780000D01*
X379734737Y-83780000D01*
X380242268Y-83679046D01*
X380720351Y-83481017D01*
X381150615Y-83193524D01*
X381516524Y-82827615D01*
X381804017Y-82397351D01*
X382002046Y-81919268D01*
X382103000Y-81411737D01*
X382103000Y-80894263D01*
X382002046Y-80386732D01*
X381804017Y-79908649D01*
X381516524Y-79478385D01*
X381150615Y-79112476D01*
X380720351Y-78824983D01*
X380242268Y-78626954D01*
X379734737Y-78526000D01*
X379217263Y-78526000D01*
X378709732Y-78626954D01*
X378231649Y-78824983D01*
X377801385Y-79112476D01*
X377435476Y-79478385D01*
X377147983Y-79908649D01*
X376949954Y-80386732D01*
X376849000Y-80894263D01*
X49744000Y-80894263D01*
X49643046Y-80386732D01*
X49445017Y-79908649D01*
X49157524Y-79478385D01*
X48791615Y-79112476D01*
X48361351Y-78824983D01*
X47883268Y-78626954D01*
X47375737Y-78526000D01*
X46858263Y-78526000D01*
X46350732Y-78626954D01*
X45872649Y-78824983D01*
X45442385Y-79112476D01*
X45076476Y-79478385D01*
X44788983Y-79908649D01*
X44590954Y-80386732D01*
X44490000Y-80894263D01*
X41792000Y-80894263D01*
X41792000Y-78288343D01*
X41833529Y-77864803D01*
X41940168Y-77511597D01*
X42113382Y-77185828D01*
X42299794Y-76957263D01*
X209209000Y-76957263D01*
X209209000Y-77474737D01*
X209309954Y-77982268D01*
X209507983Y-78460351D01*
X209795476Y-78890615D01*
X210161385Y-79256524D01*
X210591649Y-79544017D01*
X211069732Y-79742046D01*
X211577263Y-79843000D01*
X212094737Y-79843000D01*
X212602268Y-79742046D01*
X213080351Y-79544017D01*
X213510615Y-79256524D01*
X213876524Y-78890615D01*
X214164017Y-78460351D01*
X214362046Y-77982268D01*
X214463000Y-77474737D01*
X214463000Y-76957263D01*
X214362046Y-76449732D01*
X214164017Y-75971649D01*
X213876524Y-75541385D01*
X213510615Y-75175476D01*
X213080351Y-74887983D01*
X212602268Y-74689954D01*
X212094737Y-74589000D01*
X211577263Y-74589000D01*
X211069732Y-74689954D01*
X210591649Y-74887983D01*
X210161385Y-75175476D01*
X209795476Y-75541385D01*
X209507983Y-75971649D01*
X209309954Y-76449732D01*
X209209000Y-76957263D01*
X42299794Y-76957263D01*
X42346572Y-76899908D01*
X42630861Y-76664723D01*
X42955409Y-76489241D01*
X43307868Y-76380137D01*
X43727798Y-76336000D01*
X129850595Y-76336000D01*
X129864812Y-76334600D01*
X129973332Y-76331913D01*
X130035399Y-76324272D01*
X130097902Y-76322050D01*
X130113829Y-76319801D01*
X130681883Y-76235551D01*
X130717628Y-76231550D01*
X175182598Y-66771106D01*
X175669959Y-66688193D01*
X175788394Y-66684000D01*
X246577657Y-66684000D01*
X247037181Y-66729057D01*
G37*
%TD.AperFunction*%
M02*
