%TF.GenerationSoftware,KiCad,Pcbnew,(5.1.6)-1*%
%TF.CreationDate,2020-08-30T21:37:50+02:00*%
%TF.ProjectId,backplate,6261636b-706c-4617-9465-2e6b69636164,rev?*%
%TF.SameCoordinates,Original*%
%TF.FileFunction,Copper,L2,Bot*%
%TF.FilePolarity,Positive*%
%FSLAX46Y46*%
G04 Gerber Fmt 4.6, Leading zero omitted, Abs format (unit mm)*
G04 Created by KiCad (PCBNEW (5.1.6)-1) date 2020-08-30 21:37:50*
%MOMM*%
%LPD*%
G01*
G04 APERTURE LIST*
%TA.AperFunction,EtchedComponent*%
%ADD10C,0.010000*%
%TD*%
%TA.AperFunction,ComponentPad*%
%ADD11C,5.000000*%
%TD*%
%TA.AperFunction,ComponentPad*%
%ADD12C,3.000000*%
%TD*%
%TA.AperFunction,NonConductor*%
%ADD13C,0.254000*%
%TD*%
G04 APERTURE END LIST*
D10*
%TO.C,G\u002A\u002A\u002A*%
G36*
X134756654Y-95088777D02*
G01*
X131882625Y-95656246D01*
X129042731Y-96217010D01*
X126240336Y-96770405D01*
X123478807Y-97315765D01*
X120761510Y-97852424D01*
X118091811Y-98379718D01*
X115473076Y-98896979D01*
X112908670Y-99403544D01*
X110401961Y-99898747D01*
X107956314Y-100381922D01*
X105575095Y-100852404D01*
X103261670Y-101309527D01*
X101019405Y-101752626D01*
X98851666Y-102181035D01*
X96761820Y-102594090D01*
X94753232Y-102991124D01*
X92829268Y-103371473D01*
X90993294Y-103734470D01*
X89248677Y-104079451D01*
X87598782Y-104405749D01*
X86046975Y-104712700D01*
X84596623Y-104999638D01*
X83251091Y-105265897D01*
X82013746Y-105510813D01*
X80887954Y-105733719D01*
X79877080Y-105933951D01*
X78984490Y-106110842D01*
X78213551Y-106263728D01*
X77567629Y-106391943D01*
X77050089Y-106494821D01*
X76664299Y-106571697D01*
X76413623Y-106621906D01*
X76301427Y-106644782D01*
X76296496Y-106645875D01*
X75866318Y-106808361D01*
X75462794Y-107070418D01*
X75137855Y-107396368D01*
X75073222Y-107486315D01*
X74957344Y-107706259D01*
X74838460Y-108003343D01*
X74744109Y-108306907D01*
X74729461Y-108366494D01*
X74715885Y-108431866D01*
X74703341Y-108508497D01*
X74691788Y-108601857D01*
X74681186Y-108717420D01*
X74671493Y-108860657D01*
X74662668Y-109037041D01*
X74654672Y-109252044D01*
X74647464Y-109511139D01*
X74641002Y-109819798D01*
X74635246Y-110183492D01*
X74630155Y-110607695D01*
X74625689Y-111097879D01*
X74621806Y-111659515D01*
X74618467Y-112298077D01*
X74615629Y-113019036D01*
X74613254Y-113827865D01*
X74611299Y-114730036D01*
X74609724Y-115731022D01*
X74608488Y-116836294D01*
X74607551Y-118051325D01*
X74606872Y-119381587D01*
X74606411Y-120832553D01*
X74606125Y-122409694D01*
X74605975Y-124118484D01*
X74605921Y-125964394D01*
X74605916Y-126873000D01*
X74605941Y-128784680D01*
X74606041Y-130556690D01*
X74606258Y-132194501D01*
X74606633Y-133703586D01*
X74607205Y-135089418D01*
X74608017Y-136357468D01*
X74609108Y-137513209D01*
X74610520Y-138562113D01*
X74612293Y-139509652D01*
X74614467Y-140361300D01*
X74617084Y-141122527D01*
X74620185Y-141798807D01*
X74623809Y-142395611D01*
X74627998Y-142918412D01*
X74632793Y-143372682D01*
X74638234Y-143763894D01*
X74644362Y-144097520D01*
X74651218Y-144379031D01*
X74658842Y-144613901D01*
X74667275Y-144807602D01*
X74676558Y-144965605D01*
X74686732Y-145093384D01*
X74697837Y-145196410D01*
X74709914Y-145280156D01*
X74723004Y-145350094D01*
X74737147Y-145411697D01*
X74744109Y-145439094D01*
X74840593Y-145748640D01*
X74959664Y-146044862D01*
X75073222Y-146259686D01*
X75369464Y-146596264D01*
X75757694Y-146878216D01*
X76186004Y-147069871D01*
X76296496Y-147100265D01*
X76385792Y-147118673D01*
X76614101Y-147164607D01*
X76978057Y-147237398D01*
X77474296Y-147336380D01*
X78099451Y-147460886D01*
X78850156Y-147610247D01*
X79723047Y-147783797D01*
X80714759Y-147980868D01*
X81821924Y-148200792D01*
X83041178Y-148442902D01*
X84369156Y-148706531D01*
X85802492Y-148991011D01*
X87337820Y-149295675D01*
X88971776Y-149619855D01*
X90700992Y-149962884D01*
X92522105Y-150324094D01*
X94431748Y-150702818D01*
X96426556Y-151098389D01*
X98503164Y-151510139D01*
X100658206Y-151937400D01*
X102888316Y-152379506D01*
X105190129Y-152835788D01*
X107560280Y-153305580D01*
X109995403Y-153788213D01*
X112492132Y-154283021D01*
X115047102Y-154789335D01*
X117656948Y-155306490D01*
X120318304Y-155833816D01*
X123027805Y-156370647D01*
X125782085Y-156916315D01*
X128577778Y-157470152D01*
X131411519Y-158031492D01*
X134279943Y-158599667D01*
X134754428Y-158693649D01*
X192837142Y-170198143D01*
X210881857Y-170192064D01*
X228926572Y-170185984D01*
X286874857Y-158695565D01*
X289745506Y-158126333D01*
X292582109Y-157563814D01*
X295381292Y-157008678D01*
X298139685Y-156461595D01*
X300853914Y-155923235D01*
X303520608Y-155394267D01*
X306136395Y-154875360D01*
X308697902Y-154367184D01*
X311201759Y-153870409D01*
X313644591Y-153385704D01*
X316023028Y-152913738D01*
X318333697Y-152455182D01*
X320573227Y-152010704D01*
X322738244Y-151580975D01*
X324825378Y-151166663D01*
X326831255Y-150768439D01*
X328752504Y-150386972D01*
X330585753Y-150022931D01*
X332327630Y-149676986D01*
X333974762Y-149349806D01*
X335523778Y-149042062D01*
X336971305Y-148754422D01*
X338313971Y-148487556D01*
X339548405Y-148242134D01*
X340671233Y-148018826D01*
X341679085Y-147818299D01*
X342568588Y-147641225D01*
X343336369Y-147488273D01*
X343979057Y-147360113D01*
X344493280Y-147257413D01*
X344875665Y-147180843D01*
X345122841Y-147131074D01*
X345231435Y-147108774D01*
X345235082Y-147107955D01*
X345693090Y-146939140D01*
X346109767Y-146671827D01*
X346439679Y-146336627D01*
X346494207Y-146259686D01*
X346610085Y-146039741D01*
X346728969Y-145742657D01*
X346823320Y-145439094D01*
X346837968Y-145379507D01*
X346851544Y-145314134D01*
X346864088Y-145237504D01*
X346875641Y-145144143D01*
X346886243Y-145028581D01*
X346895936Y-144885343D01*
X346904761Y-144708959D01*
X346912757Y-144493956D01*
X346919965Y-144234861D01*
X346926427Y-143926203D01*
X346932183Y-143562508D01*
X346937274Y-143138305D01*
X346941740Y-142648121D01*
X346945623Y-142086485D01*
X346948962Y-141447923D01*
X346951800Y-140726964D01*
X346954175Y-139918135D01*
X346956130Y-139015964D01*
X346957705Y-138014979D01*
X346958941Y-136909707D01*
X346959878Y-135694676D01*
X346960557Y-134364414D01*
X346961018Y-132913448D01*
X346961304Y-131336306D01*
X346961454Y-129627517D01*
X346961508Y-127781607D01*
X346961512Y-126877891D01*
X341013143Y-126877891D01*
X341013058Y-128350369D01*
X341012806Y-129783910D01*
X341012398Y-131171790D01*
X341011839Y-132507284D01*
X341011140Y-133783668D01*
X341010306Y-134994217D01*
X341009348Y-136132207D01*
X341008272Y-137190914D01*
X341007086Y-138163613D01*
X341005800Y-139043579D01*
X341004420Y-139824089D01*
X341002954Y-140498417D01*
X341001412Y-141059840D01*
X340999801Y-141501633D01*
X340998128Y-141817071D01*
X340996403Y-141999431D01*
X340995000Y-142044983D01*
X340923463Y-142059220D01*
X340712959Y-142101021D01*
X340366888Y-142169711D01*
X339888654Y-142264614D01*
X339281658Y-142385057D01*
X338549302Y-142530364D01*
X337694988Y-142699860D01*
X336722118Y-142892871D01*
X335634092Y-143108721D01*
X334434315Y-143346737D01*
X333126187Y-143606243D01*
X331713109Y-143886564D01*
X330198485Y-144187025D01*
X328585716Y-144506953D01*
X326878203Y-144845671D01*
X325079349Y-145202505D01*
X323192556Y-145576781D01*
X321221224Y-145967823D01*
X319168757Y-146374956D01*
X317038556Y-146797507D01*
X314834023Y-147234799D01*
X312558560Y-147686159D01*
X310215569Y-148150911D01*
X307808451Y-148628380D01*
X305340608Y-149117893D01*
X302815443Y-149618773D01*
X300236357Y-150130346D01*
X297606752Y-150651938D01*
X294930030Y-151182873D01*
X292209592Y-151722477D01*
X289448841Y-152270074D01*
X286651179Y-152824991D01*
X285060572Y-153140487D01*
X229144286Y-164231437D01*
X210900831Y-164239361D01*
X192657375Y-164247286D01*
X136732831Y-153176831D01*
X133914806Y-152618977D01*
X131131526Y-152067970D01*
X128386400Y-151524484D01*
X125682839Y-150989196D01*
X123024255Y-150462782D01*
X120414058Y-149945918D01*
X117855659Y-149439280D01*
X115352469Y-148943544D01*
X112907898Y-148459385D01*
X110525359Y-147987481D01*
X108208261Y-147528506D01*
X105960015Y-147083136D01*
X103784033Y-146652049D01*
X101683725Y-146235918D01*
X99662502Y-145835422D01*
X97723775Y-145451235D01*
X95870955Y-145084034D01*
X94107453Y-144734494D01*
X92436679Y-144403291D01*
X90862045Y-144091102D01*
X89386961Y-143798603D01*
X88014839Y-143526468D01*
X86749088Y-143275376D01*
X85593121Y-143046000D01*
X84550347Y-142839018D01*
X83624179Y-142655105D01*
X82818025Y-142494937D01*
X82135299Y-142359190D01*
X81579410Y-142248541D01*
X81153769Y-142163665D01*
X80861787Y-142105238D01*
X80706875Y-142073936D01*
X80681286Y-142068512D01*
X80666642Y-142058993D01*
X80653165Y-142035669D01*
X80640808Y-141992754D01*
X80629523Y-141924461D01*
X80619260Y-141825005D01*
X80609971Y-141688600D01*
X80601609Y-141509460D01*
X80594125Y-141281798D01*
X80587470Y-140999828D01*
X80581596Y-140657766D01*
X80576454Y-140249823D01*
X80571997Y-139770216D01*
X80568176Y-139213156D01*
X80564943Y-138572859D01*
X80562249Y-137843539D01*
X80560046Y-137019409D01*
X80558285Y-136094683D01*
X80556918Y-135063575D01*
X80555898Y-133920299D01*
X80555174Y-132659070D01*
X80554700Y-131274101D01*
X80554427Y-129759606D01*
X80554306Y-128109799D01*
X80554286Y-126873000D01*
X80554329Y-125125167D01*
X80554491Y-123516692D01*
X80554819Y-122041787D01*
X80555363Y-120694668D01*
X80556171Y-119469549D01*
X80557290Y-118360643D01*
X80558770Y-117362166D01*
X80560659Y-116468331D01*
X80563005Y-115673352D01*
X80565856Y-114971445D01*
X80569261Y-114356822D01*
X80573268Y-113823699D01*
X80577925Y-113366288D01*
X80583282Y-112978806D01*
X80589385Y-112655465D01*
X80596284Y-112390481D01*
X80604027Y-112178066D01*
X80612663Y-112012436D01*
X80622239Y-111887805D01*
X80632804Y-111798386D01*
X80644406Y-111738395D01*
X80657095Y-111702045D01*
X80670917Y-111683551D01*
X80681286Y-111678133D01*
X80758353Y-111662313D01*
X80974408Y-111619077D01*
X81326038Y-111549099D01*
X81809833Y-111453051D01*
X82422380Y-111331609D01*
X83160268Y-111185445D01*
X84020087Y-111015234D01*
X84998423Y-110821650D01*
X86091866Y-110605367D01*
X87297004Y-110367057D01*
X88610426Y-110107397D01*
X90028721Y-109827058D01*
X91548476Y-109526715D01*
X93166281Y-109207042D01*
X94878723Y-108868713D01*
X96682392Y-108512402D01*
X98573875Y-108138783D01*
X100549762Y-107748528D01*
X102606641Y-107342313D01*
X104741100Y-106920812D01*
X106949728Y-106484697D01*
X109229114Y-106034643D01*
X111575845Y-105571324D01*
X113986511Y-105095414D01*
X116457700Y-104607586D01*
X118986000Y-104108515D01*
X121568001Y-103598874D01*
X124200289Y-103079338D01*
X126879455Y-102550579D01*
X129602086Y-102013272D01*
X132364772Y-101468092D01*
X135164100Y-100915710D01*
X136733198Y-100606099D01*
X192658111Y-89571286D01*
X228981400Y-89571286D01*
X284870272Y-100605980D01*
X287687528Y-101162234D01*
X290470037Y-101711658D01*
X293214385Y-102253578D01*
X295917160Y-102787318D01*
X298574950Y-103312205D01*
X301184341Y-103827564D01*
X303741922Y-104332720D01*
X306244280Y-104826999D01*
X308688003Y-105309726D01*
X311069678Y-105780227D01*
X313385892Y-106237827D01*
X315633234Y-106681852D01*
X317808290Y-107111627D01*
X319907648Y-107526478D01*
X321927896Y-107925731D01*
X323865622Y-108308710D01*
X325717412Y-108674741D01*
X327479855Y-109023150D01*
X329149537Y-109353263D01*
X330723047Y-109664404D01*
X332196972Y-109955899D01*
X333567899Y-110227075D01*
X334832416Y-110477255D01*
X335987111Y-110705766D01*
X337028570Y-110911934D01*
X337953383Y-111095083D01*
X338758135Y-111254539D01*
X339439415Y-111389628D01*
X339993810Y-111499675D01*
X340417908Y-111584006D01*
X340708295Y-111641947D01*
X340861561Y-111672821D01*
X340886143Y-111678013D01*
X340900785Y-111687469D01*
X340914260Y-111710732D01*
X340926615Y-111753586D01*
X340937899Y-111821817D01*
X340948161Y-111921209D01*
X340957449Y-112057547D01*
X340965811Y-112236616D01*
X340973295Y-112464201D01*
X340979950Y-112746086D01*
X340985824Y-113088058D01*
X340990966Y-113495900D01*
X340995423Y-113975397D01*
X340999245Y-114532335D01*
X341002479Y-115172498D01*
X341005174Y-115901672D01*
X341007378Y-116725640D01*
X341009140Y-117650189D01*
X341010507Y-118681102D01*
X341011529Y-119824165D01*
X341012253Y-121085163D01*
X341012727Y-122469881D01*
X341013001Y-123984103D01*
X341013123Y-125633614D01*
X341013143Y-126877891D01*
X346961512Y-126877891D01*
X346961513Y-126873000D01*
X346961488Y-124961320D01*
X346961388Y-123189311D01*
X346961171Y-121551500D01*
X346960796Y-120042414D01*
X346960224Y-118656583D01*
X346959412Y-117388533D01*
X346958321Y-116232792D01*
X346956909Y-115183888D01*
X346955136Y-114236348D01*
X346952962Y-113384701D01*
X346950345Y-112623473D01*
X346947244Y-111947194D01*
X346943620Y-111350389D01*
X346939431Y-110827588D01*
X346934636Y-110373318D01*
X346929195Y-109982106D01*
X346923067Y-109648481D01*
X346916211Y-109366969D01*
X346908587Y-109132099D01*
X346900154Y-108938398D01*
X346890871Y-108780395D01*
X346880697Y-108652616D01*
X346869592Y-108549590D01*
X346857515Y-108465844D01*
X346844425Y-108395906D01*
X346830282Y-108334304D01*
X346823320Y-108306907D01*
X346726836Y-107997361D01*
X346607765Y-107701139D01*
X346494207Y-107486315D01*
X346197941Y-107149712D01*
X345809701Y-106867774D01*
X345381407Y-106676175D01*
X345270933Y-106645804D01*
X345181624Y-106627433D01*
X344953290Y-106581604D01*
X344589297Y-106508983D01*
X344093014Y-106410237D01*
X343467806Y-106286031D01*
X342717041Y-106137031D01*
X341844087Y-105963905D01*
X340852309Y-105767316D01*
X339745075Y-105547933D01*
X338525752Y-105306420D01*
X337197707Y-105043444D01*
X335764307Y-104759671D01*
X334228919Y-104455766D01*
X332594910Y-104132397D01*
X330865647Y-103790228D01*
X329044496Y-103429927D01*
X327134826Y-103052158D01*
X325140003Y-102657589D01*
X323063394Y-102246885D01*
X320908365Y-101820712D01*
X318678285Y-101379736D01*
X316376520Y-100924624D01*
X314006436Y-100456041D01*
X311571402Y-99974653D01*
X309074784Y-99481127D01*
X306519948Y-98976128D01*
X303910263Y-98460323D01*
X301249094Y-97934378D01*
X298539810Y-97398958D01*
X295785777Y-96854730D01*
X292990361Y-96302360D01*
X290156931Y-95742513D01*
X287288852Y-95175856D01*
X286847734Y-95088706D01*
X228799754Y-83620429D01*
X192841593Y-83620429D01*
X134756654Y-95088777D01*
G37*
X134756654Y-95088777D02*
X131882625Y-95656246D01*
X129042731Y-96217010D01*
X126240336Y-96770405D01*
X123478807Y-97315765D01*
X120761510Y-97852424D01*
X118091811Y-98379718D01*
X115473076Y-98896979D01*
X112908670Y-99403544D01*
X110401961Y-99898747D01*
X107956314Y-100381922D01*
X105575095Y-100852404D01*
X103261670Y-101309527D01*
X101019405Y-101752626D01*
X98851666Y-102181035D01*
X96761820Y-102594090D01*
X94753232Y-102991124D01*
X92829268Y-103371473D01*
X90993294Y-103734470D01*
X89248677Y-104079451D01*
X87598782Y-104405749D01*
X86046975Y-104712700D01*
X84596623Y-104999638D01*
X83251091Y-105265897D01*
X82013746Y-105510813D01*
X80887954Y-105733719D01*
X79877080Y-105933951D01*
X78984490Y-106110842D01*
X78213551Y-106263728D01*
X77567629Y-106391943D01*
X77050089Y-106494821D01*
X76664299Y-106571697D01*
X76413623Y-106621906D01*
X76301427Y-106644782D01*
X76296496Y-106645875D01*
X75866318Y-106808361D01*
X75462794Y-107070418D01*
X75137855Y-107396368D01*
X75073222Y-107486315D01*
X74957344Y-107706259D01*
X74838460Y-108003343D01*
X74744109Y-108306907D01*
X74729461Y-108366494D01*
X74715885Y-108431866D01*
X74703341Y-108508497D01*
X74691788Y-108601857D01*
X74681186Y-108717420D01*
X74671493Y-108860657D01*
X74662668Y-109037041D01*
X74654672Y-109252044D01*
X74647464Y-109511139D01*
X74641002Y-109819798D01*
X74635246Y-110183492D01*
X74630155Y-110607695D01*
X74625689Y-111097879D01*
X74621806Y-111659515D01*
X74618467Y-112298077D01*
X74615629Y-113019036D01*
X74613254Y-113827865D01*
X74611299Y-114730036D01*
X74609724Y-115731022D01*
X74608488Y-116836294D01*
X74607551Y-118051325D01*
X74606872Y-119381587D01*
X74606411Y-120832553D01*
X74606125Y-122409694D01*
X74605975Y-124118484D01*
X74605921Y-125964394D01*
X74605916Y-126873000D01*
X74605941Y-128784680D01*
X74606041Y-130556690D01*
X74606258Y-132194501D01*
X74606633Y-133703586D01*
X74607205Y-135089418D01*
X74608017Y-136357468D01*
X74609108Y-137513209D01*
X74610520Y-138562113D01*
X74612293Y-139509652D01*
X74614467Y-140361300D01*
X74617084Y-141122527D01*
X74620185Y-141798807D01*
X74623809Y-142395611D01*
X74627998Y-142918412D01*
X74632793Y-143372682D01*
X74638234Y-143763894D01*
X74644362Y-144097520D01*
X74651218Y-144379031D01*
X74658842Y-144613901D01*
X74667275Y-144807602D01*
X74676558Y-144965605D01*
X74686732Y-145093384D01*
X74697837Y-145196410D01*
X74709914Y-145280156D01*
X74723004Y-145350094D01*
X74737147Y-145411697D01*
X74744109Y-145439094D01*
X74840593Y-145748640D01*
X74959664Y-146044862D01*
X75073222Y-146259686D01*
X75369464Y-146596264D01*
X75757694Y-146878216D01*
X76186004Y-147069871D01*
X76296496Y-147100265D01*
X76385792Y-147118673D01*
X76614101Y-147164607D01*
X76978057Y-147237398D01*
X77474296Y-147336380D01*
X78099451Y-147460886D01*
X78850156Y-147610247D01*
X79723047Y-147783797D01*
X80714759Y-147980868D01*
X81821924Y-148200792D01*
X83041178Y-148442902D01*
X84369156Y-148706531D01*
X85802492Y-148991011D01*
X87337820Y-149295675D01*
X88971776Y-149619855D01*
X90700992Y-149962884D01*
X92522105Y-150324094D01*
X94431748Y-150702818D01*
X96426556Y-151098389D01*
X98503164Y-151510139D01*
X100658206Y-151937400D01*
X102888316Y-152379506D01*
X105190129Y-152835788D01*
X107560280Y-153305580D01*
X109995403Y-153788213D01*
X112492132Y-154283021D01*
X115047102Y-154789335D01*
X117656948Y-155306490D01*
X120318304Y-155833816D01*
X123027805Y-156370647D01*
X125782085Y-156916315D01*
X128577778Y-157470152D01*
X131411519Y-158031492D01*
X134279943Y-158599667D01*
X134754428Y-158693649D01*
X192837142Y-170198143D01*
X210881857Y-170192064D01*
X228926572Y-170185984D01*
X286874857Y-158695565D01*
X289745506Y-158126333D01*
X292582109Y-157563814D01*
X295381292Y-157008678D01*
X298139685Y-156461595D01*
X300853914Y-155923235D01*
X303520608Y-155394267D01*
X306136395Y-154875360D01*
X308697902Y-154367184D01*
X311201759Y-153870409D01*
X313644591Y-153385704D01*
X316023028Y-152913738D01*
X318333697Y-152455182D01*
X320573227Y-152010704D01*
X322738244Y-151580975D01*
X324825378Y-151166663D01*
X326831255Y-150768439D01*
X328752504Y-150386972D01*
X330585753Y-150022931D01*
X332327630Y-149676986D01*
X333974762Y-149349806D01*
X335523778Y-149042062D01*
X336971305Y-148754422D01*
X338313971Y-148487556D01*
X339548405Y-148242134D01*
X340671233Y-148018826D01*
X341679085Y-147818299D01*
X342568588Y-147641225D01*
X343336369Y-147488273D01*
X343979057Y-147360113D01*
X344493280Y-147257413D01*
X344875665Y-147180843D01*
X345122841Y-147131074D01*
X345231435Y-147108774D01*
X345235082Y-147107955D01*
X345693090Y-146939140D01*
X346109767Y-146671827D01*
X346439679Y-146336627D01*
X346494207Y-146259686D01*
X346610085Y-146039741D01*
X346728969Y-145742657D01*
X346823320Y-145439094D01*
X346837968Y-145379507D01*
X346851544Y-145314134D01*
X346864088Y-145237504D01*
X346875641Y-145144143D01*
X346886243Y-145028581D01*
X346895936Y-144885343D01*
X346904761Y-144708959D01*
X346912757Y-144493956D01*
X346919965Y-144234861D01*
X346926427Y-143926203D01*
X346932183Y-143562508D01*
X346937274Y-143138305D01*
X346941740Y-142648121D01*
X346945623Y-142086485D01*
X346948962Y-141447923D01*
X346951800Y-140726964D01*
X346954175Y-139918135D01*
X346956130Y-139015964D01*
X346957705Y-138014979D01*
X346958941Y-136909707D01*
X346959878Y-135694676D01*
X346960557Y-134364414D01*
X346961018Y-132913448D01*
X346961304Y-131336306D01*
X346961454Y-129627517D01*
X346961508Y-127781607D01*
X346961512Y-126877891D01*
X341013143Y-126877891D01*
X341013058Y-128350369D01*
X341012806Y-129783910D01*
X341012398Y-131171790D01*
X341011839Y-132507284D01*
X341011140Y-133783668D01*
X341010306Y-134994217D01*
X341009348Y-136132207D01*
X341008272Y-137190914D01*
X341007086Y-138163613D01*
X341005800Y-139043579D01*
X341004420Y-139824089D01*
X341002954Y-140498417D01*
X341001412Y-141059840D01*
X340999801Y-141501633D01*
X340998128Y-141817071D01*
X340996403Y-141999431D01*
X340995000Y-142044983D01*
X340923463Y-142059220D01*
X340712959Y-142101021D01*
X340366888Y-142169711D01*
X339888654Y-142264614D01*
X339281658Y-142385057D01*
X338549302Y-142530364D01*
X337694988Y-142699860D01*
X336722118Y-142892871D01*
X335634092Y-143108721D01*
X334434315Y-143346737D01*
X333126187Y-143606243D01*
X331713109Y-143886564D01*
X330198485Y-144187025D01*
X328585716Y-144506953D01*
X326878203Y-144845671D01*
X325079349Y-145202505D01*
X323192556Y-145576781D01*
X321221224Y-145967823D01*
X319168757Y-146374956D01*
X317038556Y-146797507D01*
X314834023Y-147234799D01*
X312558560Y-147686159D01*
X310215569Y-148150911D01*
X307808451Y-148628380D01*
X305340608Y-149117893D01*
X302815443Y-149618773D01*
X300236357Y-150130346D01*
X297606752Y-150651938D01*
X294930030Y-151182873D01*
X292209592Y-151722477D01*
X289448841Y-152270074D01*
X286651179Y-152824991D01*
X285060572Y-153140487D01*
X229144286Y-164231437D01*
X210900831Y-164239361D01*
X192657375Y-164247286D01*
X136732831Y-153176831D01*
X133914806Y-152618977D01*
X131131526Y-152067970D01*
X128386400Y-151524484D01*
X125682839Y-150989196D01*
X123024255Y-150462782D01*
X120414058Y-149945918D01*
X117855659Y-149439280D01*
X115352469Y-148943544D01*
X112907898Y-148459385D01*
X110525359Y-147987481D01*
X108208261Y-147528506D01*
X105960015Y-147083136D01*
X103784033Y-146652049D01*
X101683725Y-146235918D01*
X99662502Y-145835422D01*
X97723775Y-145451235D01*
X95870955Y-145084034D01*
X94107453Y-144734494D01*
X92436679Y-144403291D01*
X90862045Y-144091102D01*
X89386961Y-143798603D01*
X88014839Y-143526468D01*
X86749088Y-143275376D01*
X85593121Y-143046000D01*
X84550347Y-142839018D01*
X83624179Y-142655105D01*
X82818025Y-142494937D01*
X82135299Y-142359190D01*
X81579410Y-142248541D01*
X81153769Y-142163665D01*
X80861787Y-142105238D01*
X80706875Y-142073936D01*
X80681286Y-142068512D01*
X80666642Y-142058993D01*
X80653165Y-142035669D01*
X80640808Y-141992754D01*
X80629523Y-141924461D01*
X80619260Y-141825005D01*
X80609971Y-141688600D01*
X80601609Y-141509460D01*
X80594125Y-141281798D01*
X80587470Y-140999828D01*
X80581596Y-140657766D01*
X80576454Y-140249823D01*
X80571997Y-139770216D01*
X80568176Y-139213156D01*
X80564943Y-138572859D01*
X80562249Y-137843539D01*
X80560046Y-137019409D01*
X80558285Y-136094683D01*
X80556918Y-135063575D01*
X80555898Y-133920299D01*
X80555174Y-132659070D01*
X80554700Y-131274101D01*
X80554427Y-129759606D01*
X80554306Y-128109799D01*
X80554286Y-126873000D01*
X80554329Y-125125167D01*
X80554491Y-123516692D01*
X80554819Y-122041787D01*
X80555363Y-120694668D01*
X80556171Y-119469549D01*
X80557290Y-118360643D01*
X80558770Y-117362166D01*
X80560659Y-116468331D01*
X80563005Y-115673352D01*
X80565856Y-114971445D01*
X80569261Y-114356822D01*
X80573268Y-113823699D01*
X80577925Y-113366288D01*
X80583282Y-112978806D01*
X80589385Y-112655465D01*
X80596284Y-112390481D01*
X80604027Y-112178066D01*
X80612663Y-112012436D01*
X80622239Y-111887805D01*
X80632804Y-111798386D01*
X80644406Y-111738395D01*
X80657095Y-111702045D01*
X80670917Y-111683551D01*
X80681286Y-111678133D01*
X80758353Y-111662313D01*
X80974408Y-111619077D01*
X81326038Y-111549099D01*
X81809833Y-111453051D01*
X82422380Y-111331609D01*
X83160268Y-111185445D01*
X84020087Y-111015234D01*
X84998423Y-110821650D01*
X86091866Y-110605367D01*
X87297004Y-110367057D01*
X88610426Y-110107397D01*
X90028721Y-109827058D01*
X91548476Y-109526715D01*
X93166281Y-109207042D01*
X94878723Y-108868713D01*
X96682392Y-108512402D01*
X98573875Y-108138783D01*
X100549762Y-107748528D01*
X102606641Y-107342313D01*
X104741100Y-106920812D01*
X106949728Y-106484697D01*
X109229114Y-106034643D01*
X111575845Y-105571324D01*
X113986511Y-105095414D01*
X116457700Y-104607586D01*
X118986000Y-104108515D01*
X121568001Y-103598874D01*
X124200289Y-103079338D01*
X126879455Y-102550579D01*
X129602086Y-102013272D01*
X132364772Y-101468092D01*
X135164100Y-100915710D01*
X136733198Y-100606099D01*
X192658111Y-89571286D01*
X228981400Y-89571286D01*
X284870272Y-100605980D01*
X287687528Y-101162234D01*
X290470037Y-101711658D01*
X293214385Y-102253578D01*
X295917160Y-102787318D01*
X298574950Y-103312205D01*
X301184341Y-103827564D01*
X303741922Y-104332720D01*
X306244280Y-104826999D01*
X308688003Y-105309726D01*
X311069678Y-105780227D01*
X313385892Y-106237827D01*
X315633234Y-106681852D01*
X317808290Y-107111627D01*
X319907648Y-107526478D01*
X321927896Y-107925731D01*
X323865622Y-108308710D01*
X325717412Y-108674741D01*
X327479855Y-109023150D01*
X329149537Y-109353263D01*
X330723047Y-109664404D01*
X332196972Y-109955899D01*
X333567899Y-110227075D01*
X334832416Y-110477255D01*
X335987111Y-110705766D01*
X337028570Y-110911934D01*
X337953383Y-111095083D01*
X338758135Y-111254539D01*
X339439415Y-111389628D01*
X339993810Y-111499675D01*
X340417908Y-111584006D01*
X340708295Y-111641947D01*
X340861561Y-111672821D01*
X340886143Y-111678013D01*
X340900785Y-111687469D01*
X340914260Y-111710732D01*
X340926615Y-111753586D01*
X340937899Y-111821817D01*
X340948161Y-111921209D01*
X340957449Y-112057547D01*
X340965811Y-112236616D01*
X340973295Y-112464201D01*
X340979950Y-112746086D01*
X340985824Y-113088058D01*
X340990966Y-113495900D01*
X340995423Y-113975397D01*
X340999245Y-114532335D01*
X341002479Y-115172498D01*
X341005174Y-115901672D01*
X341007378Y-116725640D01*
X341009140Y-117650189D01*
X341010507Y-118681102D01*
X341011529Y-119824165D01*
X341012253Y-121085163D01*
X341012727Y-122469881D01*
X341013001Y-123984103D01*
X341013123Y-125633614D01*
X341013143Y-126877891D01*
X346961512Y-126877891D01*
X346961513Y-126873000D01*
X346961488Y-124961320D01*
X346961388Y-123189311D01*
X346961171Y-121551500D01*
X346960796Y-120042414D01*
X346960224Y-118656583D01*
X346959412Y-117388533D01*
X346958321Y-116232792D01*
X346956909Y-115183888D01*
X346955136Y-114236348D01*
X346952962Y-113384701D01*
X346950345Y-112623473D01*
X346947244Y-111947194D01*
X346943620Y-111350389D01*
X346939431Y-110827588D01*
X346934636Y-110373318D01*
X346929195Y-109982106D01*
X346923067Y-109648481D01*
X346916211Y-109366969D01*
X346908587Y-109132099D01*
X346900154Y-108938398D01*
X346890871Y-108780395D01*
X346880697Y-108652616D01*
X346869592Y-108549590D01*
X346857515Y-108465844D01*
X346844425Y-108395906D01*
X346830282Y-108334304D01*
X346823320Y-108306907D01*
X346726836Y-107997361D01*
X346607765Y-107701139D01*
X346494207Y-107486315D01*
X346197941Y-107149712D01*
X345809701Y-106867774D01*
X345381407Y-106676175D01*
X345270933Y-106645804D01*
X345181624Y-106627433D01*
X344953290Y-106581604D01*
X344589297Y-106508983D01*
X344093014Y-106410237D01*
X343467806Y-106286031D01*
X342717041Y-106137031D01*
X341844087Y-105963905D01*
X340852309Y-105767316D01*
X339745075Y-105547933D01*
X338525752Y-105306420D01*
X337197707Y-105043444D01*
X335764307Y-104759671D01*
X334228919Y-104455766D01*
X332594910Y-104132397D01*
X330865647Y-103790228D01*
X329044496Y-103429927D01*
X327134826Y-103052158D01*
X325140003Y-102657589D01*
X323063394Y-102246885D01*
X320908365Y-101820712D01*
X318678285Y-101379736D01*
X316376520Y-100924624D01*
X314006436Y-100456041D01*
X311571402Y-99974653D01*
X309074784Y-99481127D01*
X306519948Y-98976128D01*
X303910263Y-98460323D01*
X301249094Y-97934378D01*
X298539810Y-97398958D01*
X295785777Y-96854730D01*
X292990361Y-96302360D01*
X290156931Y-95742513D01*
X287288852Y-95175856D01*
X286847734Y-95088706D01*
X228799754Y-83620429D01*
X192841593Y-83620429D01*
X134756654Y-95088777D01*
G36*
X243609314Y-99561470D02*
G01*
X243071737Y-99690556D01*
X242438752Y-99918181D01*
X242345614Y-99956450D01*
X241783522Y-100225461D01*
X241240293Y-100550871D01*
X240731906Y-100917370D01*
X240274339Y-101309646D01*
X239883570Y-101712389D01*
X239575577Y-102110289D01*
X239366339Y-102488035D01*
X239271834Y-102830317D01*
X239268000Y-102905446D01*
X239272417Y-103032163D01*
X239295607Y-103142725D01*
X239352480Y-103258735D01*
X239457943Y-103401799D01*
X239626906Y-103593523D01*
X239874277Y-103855512D01*
X240048972Y-104037194D01*
X240927847Y-105006610D01*
X241824479Y-106106785D01*
X242730926Y-107325626D01*
X243639246Y-108651043D01*
X244541497Y-110070945D01*
X245429736Y-111573240D01*
X246296022Y-113145837D01*
X247132411Y-114776645D01*
X247219809Y-114954096D01*
X247775933Y-116128491D01*
X248267859Y-117251309D01*
X248693962Y-118315931D01*
X249052620Y-119315744D01*
X249342210Y-120244130D01*
X249561111Y-121094474D01*
X249707697Y-121860160D01*
X249780348Y-122534572D01*
X249777441Y-123111094D01*
X249697351Y-123583112D01*
X249538457Y-123944007D01*
X249452359Y-124055893D01*
X249385485Y-124188288D01*
X249443131Y-124311629D01*
X249632750Y-124434992D01*
X249834290Y-124521015D01*
X250289390Y-124620309D01*
X250788985Y-124599228D01*
X251314905Y-124468317D01*
X251848980Y-124238120D01*
X252373039Y-123919182D01*
X252868914Y-123522046D01*
X253318434Y-123057257D01*
X253703429Y-122535358D01*
X253920949Y-122149496D01*
X254142570Y-121647463D01*
X254281233Y-121182222D01*
X254344545Y-120706833D01*
X254340114Y-120174357D01*
X254305005Y-119779823D01*
X254260477Y-119424780D01*
X254204638Y-119071899D01*
X254133075Y-118704558D01*
X254041377Y-118306135D01*
X253925131Y-117860007D01*
X253779925Y-117349554D01*
X253601347Y-116758152D01*
X253384985Y-116069180D01*
X253126426Y-115266016D01*
X253020377Y-114940240D01*
X252685613Y-113906466D01*
X252396960Y-112996147D01*
X252151276Y-112196208D01*
X251945419Y-111493572D01*
X251776247Y-110875163D01*
X251640619Y-110327907D01*
X251535392Y-109838726D01*
X251457425Y-109394546D01*
X251403576Y-108982291D01*
X251370703Y-108588884D01*
X251355665Y-108201251D01*
X251353851Y-108004429D01*
X251373360Y-107333521D01*
X251435277Y-106793878D01*
X251543680Y-106376770D01*
X251702649Y-106073473D01*
X251916260Y-105875258D01*
X252188593Y-105773399D01*
X252405251Y-105754714D01*
X252886237Y-105809253D01*
X253449683Y-105967754D01*
X254085287Y-106222547D01*
X254782751Y-106565958D01*
X255531774Y-106990318D01*
X256322057Y-107487953D01*
X257143298Y-108051193D01*
X257985199Y-108672366D01*
X258837460Y-109343800D01*
X259689780Y-110057824D01*
X260531860Y-110806766D01*
X261353399Y-111582953D01*
X262144098Y-112378716D01*
X262893657Y-113186381D01*
X263591776Y-113998278D01*
X263774755Y-114222994D01*
X264537728Y-115212805D01*
X265177929Y-116132433D01*
X265697520Y-116985572D01*
X266098664Y-117775916D01*
X266383523Y-118507158D01*
X266481896Y-118847323D01*
X266595275Y-119446687D01*
X266605772Y-119974934D01*
X266506116Y-120448963D01*
X266289036Y-120885674D01*
X265947262Y-121301966D01*
X265473522Y-121714740D01*
X265146267Y-121951761D01*
X264785641Y-122190472D01*
X264402007Y-122425376D01*
X263982449Y-122662692D01*
X263514050Y-122908638D01*
X262983892Y-123169432D01*
X262379058Y-123451293D01*
X261686630Y-123760438D01*
X260893691Y-124103086D01*
X259987325Y-124485454D01*
X259225143Y-124802121D01*
X257973953Y-125338581D01*
X256854489Y-125861294D01*
X255854966Y-126378212D01*
X254963598Y-126897288D01*
X254168599Y-127426474D01*
X253458183Y-127973724D01*
X252820566Y-128546989D01*
X252243962Y-129154223D01*
X251716585Y-129803378D01*
X251619375Y-129934298D01*
X251117285Y-130710979D01*
X250733252Y-131515816D01*
X250461254Y-132368655D01*
X250295267Y-133289342D01*
X250229268Y-134297723D01*
X250227546Y-134520649D01*
X250244342Y-135167379D01*
X250297986Y-135715636D01*
X250396189Y-136209134D01*
X250546659Y-136691587D01*
X250662562Y-136987527D01*
X251027817Y-137752564D01*
X251493789Y-138529501D01*
X252068179Y-139328828D01*
X252758689Y-140161036D01*
X253573021Y-141036616D01*
X253815803Y-141282504D01*
X255211306Y-142582820D01*
X256722229Y-143808791D01*
X258334618Y-144951872D01*
X260034523Y-146003517D01*
X261807991Y-146955179D01*
X263641071Y-147798313D01*
X265519809Y-148524374D01*
X265792857Y-148618634D01*
X267373647Y-149107193D01*
X268883907Y-149473104D01*
X270329348Y-149717224D01*
X271715684Y-149840412D01*
X273048627Y-149843523D01*
X273678351Y-149801978D01*
X274325049Y-149726744D01*
X274917409Y-149615186D01*
X275533743Y-149451621D01*
X275735143Y-149390029D01*
X276550227Y-149073217D01*
X277249673Y-148668975D01*
X277835123Y-148175382D01*
X278308217Y-147590517D01*
X278670598Y-146912460D01*
X278923907Y-146139290D01*
X279039506Y-145523857D01*
X279092234Y-144686659D01*
X279035386Y-143771382D01*
X278874002Y-142788993D01*
X278613123Y-141750459D01*
X278257789Y-140666749D01*
X277813041Y-139548830D01*
X277283920Y-138407668D01*
X276675467Y-137254232D01*
X275992722Y-136099489D01*
X275240727Y-134954405D01*
X274424521Y-133829950D01*
X273549147Y-132737089D01*
X272739254Y-131816067D01*
X272479482Y-131545806D01*
X272231150Y-131309254D01*
X272021909Y-131131409D01*
X271879410Y-131037268D01*
X271876278Y-131035924D01*
X271485764Y-130947083D01*
X271091030Y-130990234D01*
X270726846Y-131157562D01*
X270509946Y-131343060D01*
X270392592Y-131488834D01*
X270335424Y-131626380D01*
X270346643Y-131774472D01*
X270434450Y-131951887D01*
X270607046Y-132177402D01*
X270872631Y-132469793D01*
X271109162Y-132715000D01*
X272004414Y-133733305D01*
X272799644Y-134847495D01*
X273484674Y-136039457D01*
X274049324Y-137291082D01*
X274483416Y-138584258D01*
X274552361Y-138841190D01*
X274682337Y-139443240D01*
X274771658Y-140063193D01*
X274817542Y-140663393D01*
X274817209Y-141206183D01*
X274767878Y-141653908D01*
X274762192Y-141682288D01*
X274561580Y-142324528D01*
X274249717Y-142878534D01*
X273834710Y-143336228D01*
X273324669Y-143689534D01*
X272727702Y-143930374D01*
X272436071Y-143999302D01*
X271779320Y-144065335D01*
X271026146Y-144035759D01*
X270186852Y-143913333D01*
X269271743Y-143700814D01*
X268291122Y-143400961D01*
X267255292Y-143016530D01*
X266174557Y-142550280D01*
X265139714Y-142046430D01*
X263727194Y-141275040D01*
X262436887Y-140470179D01*
X261246983Y-139616338D01*
X260135667Y-138698009D01*
X259215313Y-137834075D01*
X258527122Y-137122096D01*
X257953168Y-136463307D01*
X257481039Y-135839997D01*
X257098326Y-135234454D01*
X256792617Y-134628967D01*
X256568989Y-134057572D01*
X256479782Y-133669413D01*
X256436224Y-133196235D01*
X256437663Y-132690578D01*
X256483448Y-132204981D01*
X256572928Y-131791986D01*
X256597994Y-131717235D01*
X256890738Y-131113799D01*
X257325611Y-130518031D01*
X257899690Y-129932529D01*
X258610048Y-129359885D01*
X259453763Y-128802697D01*
X260427908Y-128263557D01*
X260572282Y-128190787D01*
X260988449Y-127986488D01*
X261379833Y-127802249D01*
X261772124Y-127627351D01*
X262191011Y-127451072D01*
X262662184Y-127262692D01*
X263211331Y-127051491D01*
X263864143Y-126806748D01*
X264086525Y-126724263D01*
X265395978Y-126223983D01*
X266568702Y-125742388D01*
X267611349Y-125275599D01*
X268530570Y-124819738D01*
X269333014Y-124370928D01*
X270025333Y-123925290D01*
X270614177Y-123478948D01*
X271106196Y-123028022D01*
X271508042Y-122568634D01*
X271716490Y-122275297D01*
X272089507Y-121570520D01*
X272342450Y-120793089D01*
X272474676Y-119952830D01*
X272485542Y-119059566D01*
X272374407Y-118123123D01*
X272140627Y-117153325D01*
X272066883Y-116918786D01*
X271903968Y-116479164D01*
X271678391Y-115950235D01*
X271406419Y-115364496D01*
X271104318Y-114754445D01*
X270788353Y-114152583D01*
X270474790Y-113591406D01*
X270179895Y-113103415D01*
X270081432Y-112951907D01*
X268966515Y-111407471D01*
X267725740Y-109935209D01*
X266359282Y-108535310D01*
X264867320Y-107207966D01*
X264368924Y-106802951D01*
X263094955Y-105855224D01*
X261806680Y-105025181D01*
X260513607Y-104317577D01*
X259225243Y-103737166D01*
X257951098Y-103288704D01*
X256731312Y-102982986D01*
X256063704Y-102882684D01*
X255332970Y-102828168D01*
X254584829Y-102819419D01*
X253864998Y-102856421D01*
X253219195Y-102939160D01*
X252995119Y-102984310D01*
X252135031Y-103253514D01*
X251325167Y-103653874D01*
X250578068Y-104176378D01*
X249906277Y-104812016D01*
X249322336Y-105551776D01*
X249232496Y-105687565D01*
X249091298Y-105899317D01*
X248980046Y-106052492D01*
X248921483Y-106115897D01*
X248920000Y-106116168D01*
X248873115Y-106056325D01*
X248772670Y-105893668D01*
X248633624Y-105653335D01*
X248477750Y-105372945D01*
X248225759Y-104924176D01*
X247922998Y-104405172D01*
X247584237Y-103839562D01*
X247224246Y-103250973D01*
X246857795Y-102663033D01*
X246499652Y-102099372D01*
X246164588Y-101583618D01*
X245867371Y-101139399D01*
X245622773Y-100790343D01*
X245560367Y-100705721D01*
X245322736Y-100400107D01*
X245090057Y-100120501D01*
X244888551Y-99897229D01*
X244744437Y-99760618D01*
X244740879Y-99757874D01*
X244434757Y-99595886D01*
X244060611Y-99530166D01*
X243609314Y-99561470D01*
G37*
X243609314Y-99561470D02*
X243071737Y-99690556D01*
X242438752Y-99918181D01*
X242345614Y-99956450D01*
X241783522Y-100225461D01*
X241240293Y-100550871D01*
X240731906Y-100917370D01*
X240274339Y-101309646D01*
X239883570Y-101712389D01*
X239575577Y-102110289D01*
X239366339Y-102488035D01*
X239271834Y-102830317D01*
X239268000Y-102905446D01*
X239272417Y-103032163D01*
X239295607Y-103142725D01*
X239352480Y-103258735D01*
X239457943Y-103401799D01*
X239626906Y-103593523D01*
X239874277Y-103855512D01*
X240048972Y-104037194D01*
X240927847Y-105006610D01*
X241824479Y-106106785D01*
X242730926Y-107325626D01*
X243639246Y-108651043D01*
X244541497Y-110070945D01*
X245429736Y-111573240D01*
X246296022Y-113145837D01*
X247132411Y-114776645D01*
X247219809Y-114954096D01*
X247775933Y-116128491D01*
X248267859Y-117251309D01*
X248693962Y-118315931D01*
X249052620Y-119315744D01*
X249342210Y-120244130D01*
X249561111Y-121094474D01*
X249707697Y-121860160D01*
X249780348Y-122534572D01*
X249777441Y-123111094D01*
X249697351Y-123583112D01*
X249538457Y-123944007D01*
X249452359Y-124055893D01*
X249385485Y-124188288D01*
X249443131Y-124311629D01*
X249632750Y-124434992D01*
X249834290Y-124521015D01*
X250289390Y-124620309D01*
X250788985Y-124599228D01*
X251314905Y-124468317D01*
X251848980Y-124238120D01*
X252373039Y-123919182D01*
X252868914Y-123522046D01*
X253318434Y-123057257D01*
X253703429Y-122535358D01*
X253920949Y-122149496D01*
X254142570Y-121647463D01*
X254281233Y-121182222D01*
X254344545Y-120706833D01*
X254340114Y-120174357D01*
X254305005Y-119779823D01*
X254260477Y-119424780D01*
X254204638Y-119071899D01*
X254133075Y-118704558D01*
X254041377Y-118306135D01*
X253925131Y-117860007D01*
X253779925Y-117349554D01*
X253601347Y-116758152D01*
X253384985Y-116069180D01*
X253126426Y-115266016D01*
X253020377Y-114940240D01*
X252685613Y-113906466D01*
X252396960Y-112996147D01*
X252151276Y-112196208D01*
X251945419Y-111493572D01*
X251776247Y-110875163D01*
X251640619Y-110327907D01*
X251535392Y-109838726D01*
X251457425Y-109394546D01*
X251403576Y-108982291D01*
X251370703Y-108588884D01*
X251355665Y-108201251D01*
X251353851Y-108004429D01*
X251373360Y-107333521D01*
X251435277Y-106793878D01*
X251543680Y-106376770D01*
X251702649Y-106073473D01*
X251916260Y-105875258D01*
X252188593Y-105773399D01*
X252405251Y-105754714D01*
X252886237Y-105809253D01*
X253449683Y-105967754D01*
X254085287Y-106222547D01*
X254782751Y-106565958D01*
X255531774Y-106990318D01*
X256322057Y-107487953D01*
X257143298Y-108051193D01*
X257985199Y-108672366D01*
X258837460Y-109343800D01*
X259689780Y-110057824D01*
X260531860Y-110806766D01*
X261353399Y-111582953D01*
X262144098Y-112378716D01*
X262893657Y-113186381D01*
X263591776Y-113998278D01*
X263774755Y-114222994D01*
X264537728Y-115212805D01*
X265177929Y-116132433D01*
X265697520Y-116985572D01*
X266098664Y-117775916D01*
X266383523Y-118507158D01*
X266481896Y-118847323D01*
X266595275Y-119446687D01*
X266605772Y-119974934D01*
X266506116Y-120448963D01*
X266289036Y-120885674D01*
X265947262Y-121301966D01*
X265473522Y-121714740D01*
X265146267Y-121951761D01*
X264785641Y-122190472D01*
X264402007Y-122425376D01*
X263982449Y-122662692D01*
X263514050Y-122908638D01*
X262983892Y-123169432D01*
X262379058Y-123451293D01*
X261686630Y-123760438D01*
X260893691Y-124103086D01*
X259987325Y-124485454D01*
X259225143Y-124802121D01*
X257973953Y-125338581D01*
X256854489Y-125861294D01*
X255854966Y-126378212D01*
X254963598Y-126897288D01*
X254168599Y-127426474D01*
X253458183Y-127973724D01*
X252820566Y-128546989D01*
X252243962Y-129154223D01*
X251716585Y-129803378D01*
X251619375Y-129934298D01*
X251117285Y-130710979D01*
X250733252Y-131515816D01*
X250461254Y-132368655D01*
X250295267Y-133289342D01*
X250229268Y-134297723D01*
X250227546Y-134520649D01*
X250244342Y-135167379D01*
X250297986Y-135715636D01*
X250396189Y-136209134D01*
X250546659Y-136691587D01*
X250662562Y-136987527D01*
X251027817Y-137752564D01*
X251493789Y-138529501D01*
X252068179Y-139328828D01*
X252758689Y-140161036D01*
X253573021Y-141036616D01*
X253815803Y-141282504D01*
X255211306Y-142582820D01*
X256722229Y-143808791D01*
X258334618Y-144951872D01*
X260034523Y-146003517D01*
X261807991Y-146955179D01*
X263641071Y-147798313D01*
X265519809Y-148524374D01*
X265792857Y-148618634D01*
X267373647Y-149107193D01*
X268883907Y-149473104D01*
X270329348Y-149717224D01*
X271715684Y-149840412D01*
X273048627Y-149843523D01*
X273678351Y-149801978D01*
X274325049Y-149726744D01*
X274917409Y-149615186D01*
X275533743Y-149451621D01*
X275735143Y-149390029D01*
X276550227Y-149073217D01*
X277249673Y-148668975D01*
X277835123Y-148175382D01*
X278308217Y-147590517D01*
X278670598Y-146912460D01*
X278923907Y-146139290D01*
X279039506Y-145523857D01*
X279092234Y-144686659D01*
X279035386Y-143771382D01*
X278874002Y-142788993D01*
X278613123Y-141750459D01*
X278257789Y-140666749D01*
X277813041Y-139548830D01*
X277283920Y-138407668D01*
X276675467Y-137254232D01*
X275992722Y-136099489D01*
X275240727Y-134954405D01*
X274424521Y-133829950D01*
X273549147Y-132737089D01*
X272739254Y-131816067D01*
X272479482Y-131545806D01*
X272231150Y-131309254D01*
X272021909Y-131131409D01*
X271879410Y-131037268D01*
X271876278Y-131035924D01*
X271485764Y-130947083D01*
X271091030Y-130990234D01*
X270726846Y-131157562D01*
X270509946Y-131343060D01*
X270392592Y-131488834D01*
X270335424Y-131626380D01*
X270346643Y-131774472D01*
X270434450Y-131951887D01*
X270607046Y-132177402D01*
X270872631Y-132469793D01*
X271109162Y-132715000D01*
X272004414Y-133733305D01*
X272799644Y-134847495D01*
X273484674Y-136039457D01*
X274049324Y-137291082D01*
X274483416Y-138584258D01*
X274552361Y-138841190D01*
X274682337Y-139443240D01*
X274771658Y-140063193D01*
X274817542Y-140663393D01*
X274817209Y-141206183D01*
X274767878Y-141653908D01*
X274762192Y-141682288D01*
X274561580Y-142324528D01*
X274249717Y-142878534D01*
X273834710Y-143336228D01*
X273324669Y-143689534D01*
X272727702Y-143930374D01*
X272436071Y-143999302D01*
X271779320Y-144065335D01*
X271026146Y-144035759D01*
X270186852Y-143913333D01*
X269271743Y-143700814D01*
X268291122Y-143400961D01*
X267255292Y-143016530D01*
X266174557Y-142550280D01*
X265139714Y-142046430D01*
X263727194Y-141275040D01*
X262436887Y-140470179D01*
X261246983Y-139616338D01*
X260135667Y-138698009D01*
X259215313Y-137834075D01*
X258527122Y-137122096D01*
X257953168Y-136463307D01*
X257481039Y-135839997D01*
X257098326Y-135234454D01*
X256792617Y-134628967D01*
X256568989Y-134057572D01*
X256479782Y-133669413D01*
X256436224Y-133196235D01*
X256437663Y-132690578D01*
X256483448Y-132204981D01*
X256572928Y-131791986D01*
X256597994Y-131717235D01*
X256890738Y-131113799D01*
X257325611Y-130518031D01*
X257899690Y-129932529D01*
X258610048Y-129359885D01*
X259453763Y-128802697D01*
X260427908Y-128263557D01*
X260572282Y-128190787D01*
X260988449Y-127986488D01*
X261379833Y-127802249D01*
X261772124Y-127627351D01*
X262191011Y-127451072D01*
X262662184Y-127262692D01*
X263211331Y-127051491D01*
X263864143Y-126806748D01*
X264086525Y-126724263D01*
X265395978Y-126223983D01*
X266568702Y-125742388D01*
X267611349Y-125275599D01*
X268530570Y-124819738D01*
X269333014Y-124370928D01*
X270025333Y-123925290D01*
X270614177Y-123478948D01*
X271106196Y-123028022D01*
X271508042Y-122568634D01*
X271716490Y-122275297D01*
X272089507Y-121570520D01*
X272342450Y-120793089D01*
X272474676Y-119952830D01*
X272485542Y-119059566D01*
X272374407Y-118123123D01*
X272140627Y-117153325D01*
X272066883Y-116918786D01*
X271903968Y-116479164D01*
X271678391Y-115950235D01*
X271406419Y-115364496D01*
X271104318Y-114754445D01*
X270788353Y-114152583D01*
X270474790Y-113591406D01*
X270179895Y-113103415D01*
X270081432Y-112951907D01*
X268966515Y-111407471D01*
X267725740Y-109935209D01*
X266359282Y-108535310D01*
X264867320Y-107207966D01*
X264368924Y-106802951D01*
X263094955Y-105855224D01*
X261806680Y-105025181D01*
X260513607Y-104317577D01*
X259225243Y-103737166D01*
X257951098Y-103288704D01*
X256731312Y-102982986D01*
X256063704Y-102882684D01*
X255332970Y-102828168D01*
X254584829Y-102819419D01*
X253864998Y-102856421D01*
X253219195Y-102939160D01*
X252995119Y-102984310D01*
X252135031Y-103253514D01*
X251325167Y-103653874D01*
X250578068Y-104176378D01*
X249906277Y-104812016D01*
X249322336Y-105551776D01*
X249232496Y-105687565D01*
X249091298Y-105899317D01*
X248980046Y-106052492D01*
X248921483Y-106115897D01*
X248920000Y-106116168D01*
X248873115Y-106056325D01*
X248772670Y-105893668D01*
X248633624Y-105653335D01*
X248477750Y-105372945D01*
X248225759Y-104924176D01*
X247922998Y-104405172D01*
X247584237Y-103839562D01*
X247224246Y-103250973D01*
X246857795Y-102663033D01*
X246499652Y-102099372D01*
X246164588Y-101583618D01*
X245867371Y-101139399D01*
X245622773Y-100790343D01*
X245560367Y-100705721D01*
X245322736Y-100400107D01*
X245090057Y-100120501D01*
X244888551Y-99897229D01*
X244744437Y-99760618D01*
X244740879Y-99757874D01*
X244434757Y-99595886D01*
X244060611Y-99530166D01*
X243609314Y-99561470D01*
G36*
X215206637Y-114898446D02*
G01*
X214916051Y-114925773D01*
X214655502Y-115023841D01*
X214494717Y-115117588D01*
X214052681Y-115443148D01*
X213621158Y-115843618D01*
X213219158Y-116293617D01*
X212865693Y-116767765D01*
X212579772Y-117240684D01*
X212380408Y-117686994D01*
X212288539Y-118062871D01*
X212276914Y-118190492D01*
X212284119Y-118297116D01*
X212324559Y-118400561D01*
X212412640Y-118518647D01*
X212562768Y-118669193D01*
X212789349Y-118870018D01*
X213106788Y-119138939D01*
X213267631Y-119273928D01*
X213733838Y-119696161D01*
X214252975Y-120220665D01*
X214805206Y-120824125D01*
X215370699Y-121483227D01*
X215929619Y-122174654D01*
X216462131Y-122875093D01*
X216948402Y-123561227D01*
X217074236Y-123748612D01*
X217381495Y-124238141D01*
X217685896Y-124770055D01*
X217972728Y-125314648D01*
X218227281Y-125842211D01*
X218434844Y-126323040D01*
X218580706Y-126727427D01*
X218621416Y-126872948D01*
X218704876Y-127413179D01*
X218694650Y-127935672D01*
X218619011Y-128306286D01*
X218599613Y-128406472D01*
X218645714Y-128454214D01*
X218789801Y-128468744D01*
X218894847Y-128469572D01*
X219144795Y-128440209D01*
X219440475Y-128344589D01*
X219802733Y-128178645D01*
X220393225Y-127805343D01*
X220914688Y-127320160D01*
X221340515Y-126750020D01*
X221499303Y-126461878D01*
X221625395Y-126189392D01*
X221697308Y-125970781D01*
X221728692Y-125743078D01*
X221733199Y-125443313D01*
X221732377Y-125386792D01*
X221677345Y-124793692D01*
X221534618Y-124116663D01*
X221310849Y-123382074D01*
X221063700Y-122736429D01*
X220936129Y-122426257D01*
X220861506Y-122224596D01*
X220834702Y-122106943D01*
X220850586Y-122048792D01*
X220904028Y-122025640D01*
X220914499Y-122023749D01*
X221091780Y-122044522D01*
X221343112Y-122136341D01*
X221629150Y-122279650D01*
X221910551Y-122454896D01*
X222134244Y-122629972D01*
X222391833Y-122904668D01*
X222676859Y-123278003D01*
X222965138Y-123712966D01*
X223232483Y-124172543D01*
X223454710Y-124619723D01*
X223494993Y-124712406D01*
X223757543Y-125430438D01*
X223978978Y-126225765D01*
X224141761Y-127032466D01*
X224178481Y-127281363D01*
X224214993Y-127682347D01*
X224232050Y-128159322D01*
X224230916Y-128675199D01*
X224212854Y-129192888D01*
X224179127Y-129675298D01*
X224130999Y-130085341D01*
X224073166Y-130373789D01*
X223943364Y-130759902D01*
X223767943Y-131170789D01*
X223570582Y-131557486D01*
X223374964Y-131871027D01*
X223305132Y-131961861D01*
X223109643Y-132196024D01*
X221700107Y-131235673D01*
X221190680Y-130887826D01*
X220619875Y-130496803D01*
X220032885Y-130093644D01*
X219474905Y-129709389D01*
X218991128Y-129375081D01*
X218984286Y-129370342D01*
X218062868Y-128746989D01*
X217179855Y-128179228D01*
X216345516Y-127672657D01*
X215570119Y-127232877D01*
X214863931Y-126865488D01*
X214237220Y-126576088D01*
X213700254Y-126370278D01*
X213272605Y-126255381D01*
X213121167Y-126207335D01*
X212980171Y-126108089D01*
X212818975Y-125931065D01*
X212662931Y-125726558D01*
X212248739Y-125188305D01*
X211788140Y-124634352D01*
X211300514Y-124084803D01*
X210805240Y-123559763D01*
X210321698Y-123079337D01*
X209869270Y-122663631D01*
X209467334Y-122332748D01*
X209228663Y-122163823D01*
X208594242Y-121828881D01*
X207943767Y-121632546D01*
X207273679Y-121575146D01*
X206580420Y-121657008D01*
X205860429Y-121878461D01*
X205110146Y-122239830D01*
X204536355Y-122595481D01*
X204201518Y-122818073D01*
X203813610Y-123070922D01*
X203443147Y-123308171D01*
X203352427Y-123365384D01*
X202734485Y-123753365D01*
X202586242Y-123578563D01*
X202485039Y-123457034D01*
X202314918Y-123250438D01*
X202098506Y-122986338D01*
X201858432Y-122692298D01*
X201826256Y-122652809D01*
X201318918Y-122038845D01*
X200887095Y-121535061D01*
X200532688Y-121143549D01*
X200257598Y-120866401D01*
X200063729Y-120705707D01*
X200044875Y-120693654D01*
X199742436Y-120584263D01*
X199351830Y-120556436D01*
X198901581Y-120605419D01*
X198420209Y-120726460D01*
X197936238Y-120914804D01*
X197575714Y-121105120D01*
X197226854Y-121344765D01*
X196875743Y-121638744D01*
X196555773Y-121954501D01*
X196300335Y-122259477D01*
X196158268Y-122487198D01*
X196066769Y-122699707D01*
X196015984Y-122896739D01*
X196011480Y-123099226D01*
X196058823Y-123328099D01*
X196163581Y-123604288D01*
X196331318Y-123948727D01*
X196567602Y-124382344D01*
X196745638Y-124695857D01*
X197089928Y-125311875D01*
X197465477Y-126010009D01*
X197858841Y-126763283D01*
X198256575Y-127544723D01*
X198645236Y-128327355D01*
X199011378Y-129084202D01*
X199341556Y-129788292D01*
X199622328Y-130412648D01*
X199783943Y-130791857D01*
X200136865Y-131679991D01*
X200459552Y-132558600D01*
X200739873Y-133392680D01*
X200965694Y-134147232D01*
X201029117Y-134384143D01*
X201108273Y-134759998D01*
X201165180Y-135169967D01*
X201198787Y-135582979D01*
X201208046Y-135967966D01*
X201191908Y-136293859D01*
X201149324Y-136529589D01*
X201104686Y-136622581D01*
X200927704Y-136730595D01*
X200681249Y-136720210D01*
X200371744Y-136596742D01*
X200005615Y-136365510D01*
X199589287Y-136031831D01*
X199129183Y-135601022D01*
X198631729Y-135078400D01*
X198103349Y-134469284D01*
X197550468Y-133778989D01*
X197347913Y-133513286D01*
X196739080Y-132682178D01*
X196406749Y-132207000D01*
X190427429Y-132207000D01*
X190391143Y-132243286D01*
X190354857Y-132207000D01*
X190391143Y-132170715D01*
X190427429Y-132207000D01*
X196406749Y-132207000D01*
X196104353Y-131774626D01*
X195458532Y-130814241D01*
X194816415Y-129824633D01*
X194192801Y-128829411D01*
X193602486Y-127852185D01*
X193060271Y-126916565D01*
X192580953Y-126046161D01*
X192185148Y-125276429D01*
X191780943Y-124477854D01*
X191419859Y-123814548D01*
X191102253Y-123287069D01*
X190828485Y-122895978D01*
X190598913Y-122641836D01*
X190425971Y-122529081D01*
X190169397Y-122464654D01*
X189900932Y-122457301D01*
X189580658Y-122509883D01*
X189193572Y-122617488D01*
X188471418Y-122894136D01*
X187827522Y-123259296D01*
X187213455Y-123740491D01*
X187206388Y-123746798D01*
X187013686Y-123951063D01*
X186829487Y-124199587D01*
X186680449Y-124450138D01*
X186593235Y-124660486D01*
X186581143Y-124737185D01*
X186620558Y-124864359D01*
X186726229Y-125073668D01*
X186879296Y-125329680D01*
X186969546Y-125466834D01*
X187183465Y-125798467D01*
X187446923Y-126233425D01*
X187745039Y-126744970D01*
X188062926Y-127306366D01*
X188385700Y-127890876D01*
X188698478Y-128471764D01*
X188986375Y-129022292D01*
X189234507Y-129515724D01*
X189307774Y-129667000D01*
X189506155Y-130088684D01*
X189701828Y-130517352D01*
X189885928Y-130932177D01*
X190049589Y-131312332D01*
X190183944Y-131636991D01*
X190280128Y-131885327D01*
X190329276Y-132036511D01*
X190331875Y-132072745D01*
X190286161Y-132024198D01*
X190177269Y-131873711D01*
X190019525Y-131642061D01*
X189827257Y-131350025D01*
X189736221Y-131209010D01*
X189358349Y-130624999D01*
X188936924Y-129981893D01*
X188483929Y-129297377D01*
X188011350Y-128589134D01*
X187531171Y-127874848D01*
X187055378Y-127172204D01*
X186595954Y-126498886D01*
X186164885Y-125872577D01*
X185774156Y-125310963D01*
X185435750Y-124831726D01*
X185161654Y-124452552D01*
X185109716Y-124382361D01*
X184794392Y-123957645D01*
X184465576Y-123513065D01*
X184149134Y-123083709D01*
X183870932Y-122704664D01*
X183678286Y-122440585D01*
X183360988Y-122024592D01*
X183012581Y-121603531D01*
X182652380Y-121197658D01*
X182299700Y-120827233D01*
X181973856Y-120512512D01*
X181694165Y-120273754D01*
X181479940Y-120131216D01*
X181473216Y-120127904D01*
X181048427Y-119999254D01*
X180563903Y-119984311D01*
X180040914Y-120076348D01*
X179500732Y-120268637D01*
X178964625Y-120554448D01*
X178453865Y-120927056D01*
X178192359Y-121165659D01*
X177881676Y-121491142D01*
X177676026Y-121765608D01*
X177563582Y-122024117D01*
X177532515Y-122301728D01*
X177570996Y-122633503D01*
X177619968Y-122862219D01*
X177712006Y-123198753D01*
X177839771Y-123596096D01*
X177979784Y-123982539D01*
X178020028Y-124084058D01*
X178139474Y-124396080D01*
X178284116Y-124801831D01*
X178438260Y-125255778D01*
X178586208Y-125712387D01*
X178632900Y-125862058D01*
X178763234Y-126281044D01*
X178891476Y-126686820D01*
X179006039Y-127043160D01*
X179095334Y-127313838D01*
X179125179Y-127400881D01*
X179197102Y-127626366D01*
X179236540Y-127791919D01*
X179236844Y-127855204D01*
X179183037Y-127815527D01*
X179067448Y-127679966D01*
X178909851Y-127472699D01*
X178809201Y-127332306D01*
X178451447Y-126832660D01*
X178029135Y-126258311D01*
X177559955Y-125632140D01*
X177061597Y-124977022D01*
X176551754Y-124315836D01*
X176048116Y-123671459D01*
X175568373Y-123066769D01*
X175130217Y-122524643D01*
X174751339Y-122067959D01*
X174612804Y-121905583D01*
X173990164Y-121207005D01*
X173386688Y-120575214D01*
X172813635Y-120020462D01*
X172282267Y-119552997D01*
X171803844Y-119183069D01*
X171389624Y-118920927D01*
X171264459Y-118857728D01*
X170759780Y-118694435D01*
X170255665Y-118675864D01*
X169748402Y-118802090D01*
X169544510Y-118892778D01*
X169222931Y-119095620D01*
X168860041Y-119392255D01*
X168486695Y-119750546D01*
X168133751Y-120138358D01*
X167832065Y-120523554D01*
X167612494Y-120873997D01*
X167580708Y-120938027D01*
X167437809Y-121271675D01*
X167346855Y-121573437D01*
X167310968Y-121866962D01*
X167333275Y-122175895D01*
X167416900Y-122523884D01*
X167564967Y-122934576D01*
X167780603Y-123431617D01*
X167961305Y-123818140D01*
X168349843Y-124661376D01*
X168769008Y-125619179D01*
X169209819Y-126667956D01*
X169663294Y-127784117D01*
X170120454Y-128944068D01*
X170572317Y-130124219D01*
X171009903Y-131300978D01*
X171424231Y-132450752D01*
X171806321Y-133549950D01*
X172147191Y-134574979D01*
X172437861Y-135502248D01*
X172538722Y-135842775D01*
X172649657Y-136242798D01*
X172757938Y-136665349D01*
X172858313Y-137085994D01*
X172945530Y-137480300D01*
X173014338Y-137823832D01*
X173059486Y-138092156D01*
X173075722Y-138260837D01*
X173068069Y-138305693D01*
X173002161Y-138278502D01*
X172845621Y-138186819D01*
X172627626Y-138048086D01*
X172538236Y-137988990D01*
X172143920Y-137695075D01*
X171695129Y-137309446D01*
X171219825Y-136859847D01*
X170745968Y-136374025D01*
X170301520Y-135879725D01*
X169914441Y-135404692D01*
X169856148Y-135327572D01*
X169515816Y-134856993D01*
X169134939Y-134305246D01*
X168725123Y-133691164D01*
X168297972Y-133033582D01*
X167865094Y-132351334D01*
X167438092Y-131663255D01*
X167028574Y-130988178D01*
X166648144Y-130344938D01*
X166308408Y-129752369D01*
X166227672Y-129605448D01*
X159989528Y-129605448D01*
X159892483Y-129671201D01*
X159696403Y-129680830D01*
X159434222Y-129638631D01*
X159138874Y-129548904D01*
X158950481Y-129469851D01*
X158537361Y-129214565D01*
X158104245Y-128834989D01*
X157664124Y-128348176D01*
X157229985Y-127771181D01*
X156814817Y-127121060D01*
X156431609Y-126414866D01*
X156138076Y-125777022D01*
X155973858Y-125355936D01*
X155801158Y-124857412D01*
X155632419Y-124322885D01*
X155480088Y-123793787D01*
X155356606Y-123311555D01*
X155274421Y-122917621D01*
X155268454Y-122881572D01*
X155216219Y-122555000D01*
X155662171Y-122990429D01*
X155962572Y-123306012D01*
X156300367Y-123699328D01*
X156666531Y-124156579D01*
X157052039Y-124663970D01*
X157447867Y-125207705D01*
X157844988Y-125773988D01*
X158234378Y-126349021D01*
X158607013Y-126919009D01*
X158953865Y-127470156D01*
X159265912Y-127988665D01*
X159534127Y-128460740D01*
X159749485Y-128872585D01*
X159902962Y-129210404D01*
X159985531Y-129460400D01*
X159989528Y-129605448D01*
X166227672Y-129605448D01*
X166020971Y-129229306D01*
X165797440Y-128794583D01*
X165693870Y-128572766D01*
X165001207Y-127101594D01*
X164239180Y-125674379D01*
X163419432Y-124308651D01*
X162553606Y-123021941D01*
X161653344Y-121831780D01*
X160730288Y-120755700D01*
X160010413Y-120015000D01*
X159312807Y-119373729D01*
X158667945Y-118858049D01*
X158063346Y-118463889D01*
X157486530Y-118187178D01*
X156925017Y-118023845D01*
X156366326Y-117969819D01*
X155797977Y-118021028D01*
X155207489Y-118173402D01*
X154815950Y-118320569D01*
X154533198Y-118452362D01*
X154170968Y-118642204D01*
X153754279Y-118874875D01*
X153308150Y-119135154D01*
X152857600Y-119407819D01*
X152427647Y-119677649D01*
X152043312Y-119929424D01*
X151729613Y-120147922D01*
X151511569Y-120317923D01*
X151468938Y-120356813D01*
X151197680Y-120657737D01*
X151000455Y-120973778D01*
X150875765Y-121322570D01*
X150822112Y-121721743D01*
X150837997Y-122188928D01*
X150921921Y-122741758D01*
X151072387Y-123397864D01*
X151177266Y-123788714D01*
X151525734Y-124885404D01*
X151956056Y-125982411D01*
X152455858Y-127057839D01*
X153012766Y-128089792D01*
X153614406Y-129056375D01*
X154248405Y-129935691D01*
X154902388Y-130705846D01*
X155327853Y-131133349D01*
X156024368Y-131695986D01*
X156760945Y-132121144D01*
X157531511Y-132407472D01*
X158329997Y-132553616D01*
X159150332Y-132558224D01*
X159986443Y-132419942D01*
X160464325Y-132277854D01*
X160727061Y-132188147D01*
X160937692Y-132117950D01*
X161057625Y-132080084D01*
X161067386Y-132077506D01*
X161131873Y-132133267D01*
X161227052Y-132308306D01*
X161344755Y-132582060D01*
X161476812Y-132933964D01*
X161615052Y-133343454D01*
X161751307Y-133789966D01*
X161760796Y-133822903D01*
X162019512Y-134853391D01*
X162196024Y-135846263D01*
X162285361Y-136770998D01*
X162295490Y-137105572D01*
X162284553Y-137613838D01*
X162234590Y-137995557D01*
X162136129Y-138266285D01*
X161979698Y-138441577D01*
X161755823Y-138536988D01*
X161455033Y-138568074D01*
X161404851Y-138568168D01*
X160966084Y-138505115D01*
X160456671Y-138326685D01*
X159884352Y-138039657D01*
X159256867Y-137650810D01*
X158581958Y-137166921D01*
X157867364Y-136594770D01*
X157120827Y-135941135D01*
X156350086Y-135212794D01*
X155562882Y-134416527D01*
X154766956Y-133559111D01*
X153970049Y-132647325D01*
X153179900Y-131687949D01*
X152404251Y-130687760D01*
X152400672Y-130683000D01*
X151723647Y-129751138D01*
X151129444Y-128862518D01*
X150587365Y-127969938D01*
X150276790Y-127417286D01*
X150054058Y-127013274D01*
X149883860Y-126719711D01*
X149750319Y-126519036D01*
X149637560Y-126393689D01*
X149529706Y-126326109D01*
X149410880Y-126298734D01*
X149265208Y-126294004D01*
X149261286Y-126294023D01*
X148877169Y-126351917D01*
X148522595Y-126506690D01*
X148224567Y-126736019D01*
X148010093Y-127017584D01*
X147906178Y-127329062D01*
X147900572Y-127418723D01*
X147931802Y-127637266D01*
X148020133Y-127963479D01*
X148157520Y-128375333D01*
X148335922Y-128850794D01*
X148547295Y-129367831D01*
X148783598Y-129904412D01*
X148897575Y-130149876D01*
X149575931Y-131454374D01*
X150380912Y-132773333D01*
X151297459Y-134089708D01*
X152310517Y-135386454D01*
X153405026Y-136646525D01*
X154565930Y-137852876D01*
X155778171Y-138988461D01*
X157026692Y-140036236D01*
X158296435Y-140979155D01*
X158713715Y-141261874D01*
X159329212Y-141651921D01*
X159864668Y-141947494D01*
X160345522Y-142153818D01*
X160797212Y-142276119D01*
X161245178Y-142319623D01*
X161714859Y-142289557D01*
X162231694Y-142191147D01*
X162669398Y-142074523D01*
X163320505Y-141845959D01*
X163990419Y-141538599D01*
X164654744Y-141169136D01*
X165289085Y-140754265D01*
X165869049Y-140310677D01*
X166370240Y-139855066D01*
X166768264Y-139404125D01*
X166942907Y-139150189D01*
X167144239Y-138758507D01*
X167331905Y-138284707D01*
X167482311Y-137791473D01*
X167528510Y-137594475D01*
X167550619Y-137518913D01*
X167586150Y-137494633D01*
X167649926Y-137535076D01*
X167756766Y-137653683D01*
X167921492Y-137863895D01*
X168128672Y-138138760D01*
X168560676Y-138681931D01*
X169037710Y-139223644D01*
X169538934Y-139744122D01*
X170043507Y-140223587D01*
X170530589Y-140642263D01*
X170979338Y-140980371D01*
X171368914Y-141218134D01*
X171379104Y-141223326D01*
X171848736Y-141397583D01*
X172406396Y-141501561D01*
X173011893Y-141533000D01*
X173625034Y-141489637D01*
X174166800Y-141380220D01*
X174678591Y-141213145D01*
X175204795Y-140996773D01*
X175718830Y-140746010D01*
X176194116Y-140475761D01*
X176604071Y-140200928D01*
X176922115Y-139936417D01*
X177095376Y-139738118D01*
X177251779Y-139487526D01*
X177358330Y-139246101D01*
X177426945Y-138971455D01*
X177469538Y-138621200D01*
X177488560Y-138339286D01*
X177494845Y-137790296D01*
X177454779Y-137174412D01*
X177366440Y-136481247D01*
X177227906Y-135700411D01*
X177037258Y-134821517D01*
X176792572Y-133834176D01*
X176491929Y-132728000D01*
X176374708Y-132316329D01*
X176079025Y-131312461D01*
X175798925Y-130415478D01*
X175522016Y-129589847D01*
X175235901Y-128800034D01*
X174928186Y-128010504D01*
X174586476Y-127185723D01*
X174578753Y-127167549D01*
X174318309Y-126554955D01*
X174616482Y-126840977D01*
X174764956Y-126993869D01*
X174983280Y-127232227D01*
X175248274Y-127530106D01*
X175536760Y-127861563D01*
X175725642Y-128082431D01*
X176679031Y-129276547D01*
X177621695Y-130595603D01*
X178541921Y-132019398D01*
X179427994Y-133527734D01*
X180268199Y-135100409D01*
X181050821Y-136717225D01*
X181764147Y-138357982D01*
X181945040Y-138806750D01*
X182099079Y-139185437D01*
X182244026Y-139523393D01*
X182367958Y-139794160D01*
X182458955Y-139971281D01*
X182492146Y-140020902D01*
X182697203Y-140147327D01*
X183000133Y-140205223D01*
X183374252Y-140200571D01*
X183792874Y-140139350D01*
X184229313Y-140027541D01*
X184656885Y-139871124D01*
X185048903Y-139676078D01*
X185378682Y-139448383D01*
X185486874Y-139349819D01*
X185675760Y-139119872D01*
X185842152Y-138851214D01*
X185877009Y-138779118D01*
X185943770Y-138578180D01*
X185982371Y-138331128D01*
X185991390Y-138026552D01*
X185969405Y-137653043D01*
X185914994Y-137199191D01*
X185826736Y-136653587D01*
X185703208Y-136004820D01*
X185542989Y-135241482D01*
X185344657Y-134352162D01*
X185302186Y-134166429D01*
X185090785Y-133256815D01*
X184880915Y-132376154D01*
X184677082Y-131542295D01*
X184483793Y-130773085D01*
X184305556Y-130086371D01*
X184146878Y-129500000D01*
X184012265Y-129031819D01*
X183973487Y-128905000D01*
X183758412Y-128215572D01*
X183942743Y-128433286D01*
X184319040Y-128895780D01*
X184720778Y-129425740D01*
X185154777Y-130033206D01*
X185627856Y-130728218D01*
X186146833Y-131520815D01*
X186718527Y-132421039D01*
X187349757Y-133438928D01*
X187417641Y-133549572D01*
X188179293Y-134797662D01*
X188871330Y-135943994D01*
X189504726Y-137007528D01*
X190090453Y-138007222D01*
X190639483Y-138962034D01*
X191162789Y-139890922D01*
X191671342Y-140812846D01*
X192176116Y-141746764D01*
X192345275Y-142063720D01*
X192567136Y-142461596D01*
X192757760Y-142746526D01*
X192941291Y-142939721D01*
X193141872Y-143062399D01*
X193383647Y-143135771D01*
X193605564Y-143171084D01*
X194005437Y-143173470D01*
X194472084Y-143100363D01*
X194972637Y-142964632D01*
X195474229Y-142779147D01*
X195943992Y-142556775D01*
X196349061Y-142310386D01*
X196656566Y-142052847D01*
X196752847Y-141938826D01*
X196876526Y-141741392D01*
X196938734Y-141546611D01*
X196958373Y-141288362D01*
X196958857Y-141218139D01*
X196944102Y-140933827D01*
X196902826Y-140536465D01*
X196839512Y-140054796D01*
X196758643Y-139517562D01*
X196664702Y-138953507D01*
X196562171Y-138391374D01*
X196455534Y-137859904D01*
X196385337Y-137541000D01*
X196176920Y-136633857D01*
X196368317Y-136883896D01*
X197130230Y-137834982D01*
X197887890Y-138694213D01*
X198634182Y-139455656D01*
X199361990Y-140113376D01*
X200064200Y-140661438D01*
X200733696Y-141093908D01*
X201363364Y-141404852D01*
X201946088Y-141588335D01*
X202027835Y-141604288D01*
X202644453Y-141644001D01*
X203283788Y-141557539D01*
X203923550Y-141356719D01*
X204541446Y-141053353D01*
X205115187Y-140659257D01*
X205622481Y-140186244D01*
X206041036Y-139646129D01*
X206185841Y-139400557D01*
X206296732Y-139181476D01*
X206369088Y-138991589D01*
X206412995Y-138785814D01*
X206438539Y-138519068D01*
X206453624Y-138203585D01*
X206443119Y-137550371D01*
X206363916Y-136796712D01*
X206214922Y-135936129D01*
X205995039Y-134962144D01*
X205746621Y-134022478D01*
X205675175Y-133763439D01*
X205642994Y-133624894D01*
X205650163Y-133587582D01*
X205696771Y-133632241D01*
X205748102Y-133695907D01*
X205824007Y-133794372D01*
X205976323Y-133994391D01*
X206194156Y-134281568D01*
X206466608Y-134641511D01*
X206782784Y-135059824D01*
X207131789Y-135522114D01*
X207477646Y-135980715D01*
X207882312Y-136515204D01*
X208295716Y-137056955D01*
X208700890Y-137584033D01*
X209080866Y-138074501D01*
X209418675Y-138506423D01*
X209697347Y-138857863D01*
X209835434Y-139028715D01*
X210232816Y-139504742D01*
X210642296Y-139977270D01*
X211049356Y-140431025D01*
X211439481Y-140850736D01*
X211798153Y-141221130D01*
X212110857Y-141526934D01*
X212363075Y-141752877D01*
X212540292Y-141883687D01*
X212558665Y-141893730D01*
X212990908Y-142039211D01*
X213502867Y-142087012D01*
X214073615Y-142044036D01*
X214682223Y-141917185D01*
X215307766Y-141713363D01*
X215929315Y-141439471D01*
X216525944Y-141102412D01*
X217076725Y-140709089D01*
X217560731Y-140266404D01*
X217591631Y-140233680D01*
X217863658Y-139910177D01*
X218033427Y-139610878D01*
X218121757Y-139283059D01*
X218149472Y-138873999D01*
X218149715Y-138820543D01*
X218108364Y-138097840D01*
X217987288Y-137271919D01*
X217825819Y-136520147D01*
X212758732Y-136520147D01*
X212544983Y-136367944D01*
X212427767Y-136265623D01*
X212234254Y-136075501D01*
X211984569Y-135818263D01*
X211698836Y-135514595D01*
X211435352Y-135227370D01*
X210969223Y-134703942D01*
X210473090Y-134130177D01*
X209955553Y-133517243D01*
X209425209Y-132876308D01*
X208890658Y-132218540D01*
X208360500Y-131555106D01*
X207843332Y-130897175D01*
X207347755Y-130255914D01*
X206882367Y-129642490D01*
X206455768Y-129068072D01*
X206076555Y-128543827D01*
X205753329Y-128080923D01*
X205494689Y-127690528D01*
X205309232Y-127383809D01*
X205205559Y-127171934D01*
X205188596Y-127114578D01*
X205162508Y-126752402D01*
X205202882Y-126362358D01*
X205298564Y-125981146D01*
X205438401Y-125645465D01*
X205611240Y-125392012D01*
X205745029Y-125283645D01*
X205902003Y-125221113D01*
X206060155Y-125218037D01*
X206237335Y-125284507D01*
X206451389Y-125430616D01*
X206720167Y-125666457D01*
X207061517Y-126002120D01*
X207118857Y-126060453D01*
X207689045Y-126671970D01*
X208220163Y-127307537D01*
X208735993Y-127998357D01*
X209260314Y-128775632D01*
X209604557Y-129321893D01*
X210081515Y-130124273D01*
X210544398Y-130957581D01*
X210984790Y-131803227D01*
X211394277Y-132642627D01*
X211764443Y-133457192D01*
X212086874Y-134228336D01*
X212353155Y-134937471D01*
X212554870Y-135566012D01*
X212683606Y-136095371D01*
X212692043Y-136141573D01*
X212758732Y-136520147D01*
X217825819Y-136520147D01*
X217790947Y-136357794D01*
X217523803Y-135370478D01*
X217190318Y-134324987D01*
X216794954Y-133236332D01*
X216342172Y-132119530D01*
X215836434Y-130989593D01*
X215798878Y-130909786D01*
X215647844Y-130588045D01*
X215522196Y-130316868D01*
X215433475Y-130121427D01*
X215393220Y-130026893D01*
X215392000Y-130022320D01*
X215449181Y-130050683D01*
X215606866Y-130145809D01*
X215844269Y-130294740D01*
X216140603Y-130484519D01*
X216317286Y-130599083D01*
X216903671Y-130986615D01*
X217510295Y-131397975D01*
X218121347Y-131821623D01*
X218721017Y-132246016D01*
X219293498Y-132659613D01*
X219822978Y-133050873D01*
X220293649Y-133408253D01*
X220689701Y-133720212D01*
X220995325Y-133975209D01*
X221188748Y-134155468D01*
X221433782Y-134409989D01*
X220909322Y-135184626D01*
X220471779Y-135873292D01*
X220140093Y-136499580D01*
X219905503Y-137090161D01*
X219759252Y-137671707D01*
X219692580Y-138270888D01*
X219695043Y-138882119D01*
X219804706Y-139797345D01*
X220042612Y-140683957D01*
X220412330Y-141549319D01*
X220917429Y-142400794D01*
X221561479Y-143245747D01*
X222096955Y-143837332D01*
X222942164Y-144653081D01*
X223813546Y-145376179D01*
X224695620Y-145996143D01*
X225572906Y-146502491D01*
X226429922Y-146884742D01*
X226773260Y-147003607D01*
X227606700Y-147214788D01*
X228502296Y-147349850D01*
X229413464Y-147405543D01*
X230293622Y-147378618D01*
X230947303Y-147294832D01*
X231470284Y-147179659D01*
X231995307Y-147027359D01*
X232476708Y-146853101D01*
X232868824Y-146672055D01*
X232936481Y-146634047D01*
X233465451Y-146244444D01*
X233888180Y-145766812D01*
X234198777Y-145217987D01*
X234391350Y-144614804D01*
X234460006Y-143974101D01*
X234451098Y-143877748D01*
X230196232Y-143877748D01*
X230152447Y-143907689D01*
X230013022Y-143879230D01*
X229766850Y-143789019D01*
X229434773Y-143647819D01*
X228856525Y-143336074D01*
X228251646Y-142906766D01*
X227639359Y-142380040D01*
X227038885Y-141776044D01*
X226469444Y-141114925D01*
X225950258Y-140416830D01*
X225500548Y-139701904D01*
X225283916Y-139297087D01*
X225108296Y-138937805D01*
X224989221Y-138667358D01*
X224914293Y-138446860D01*
X224871113Y-138237423D01*
X224847282Y-138000161D01*
X224841589Y-137909786D01*
X224833652Y-137613014D01*
X224846638Y-137399840D01*
X224878654Y-137299722D01*
X224880937Y-137298076D01*
X224952982Y-137333770D01*
X225110011Y-137463028D01*
X225338970Y-137672385D01*
X225626807Y-137948375D01*
X225960467Y-138277533D01*
X226326896Y-138646396D01*
X226713042Y-139041497D01*
X227105851Y-139449372D01*
X227492268Y-139856556D01*
X227859242Y-140249584D01*
X228193717Y-140614991D01*
X228482641Y-140939312D01*
X228712960Y-141209082D01*
X228871620Y-141410836D01*
X228881864Y-141425092D01*
X229038759Y-141661886D01*
X229224611Y-141967464D01*
X229425770Y-142316360D01*
X229628590Y-142683106D01*
X229819423Y-143042236D01*
X229984621Y-143368283D01*
X230110537Y-143635780D01*
X230183523Y-143819260D01*
X230196232Y-143877748D01*
X234451098Y-143877748D01*
X234398853Y-143312713D01*
X234268941Y-142826754D01*
X234023912Y-142243439D01*
X233673779Y-141597397D01*
X233232999Y-140908181D01*
X232716033Y-140195350D01*
X232137341Y-139478457D01*
X231511381Y-138777061D01*
X230852613Y-138110715D01*
X230621146Y-137893239D01*
X229712847Y-137077547D01*
X228740834Y-136241867D01*
X227767025Y-135438891D01*
X227302170Y-135068785D01*
X226430805Y-134384143D01*
X226546458Y-134202715D01*
X226629562Y-134081462D01*
X226780750Y-133869380D01*
X226981512Y-133592117D01*
X227213341Y-133275326D01*
X227322627Y-133127034D01*
X227600061Y-132751120D01*
X227891583Y-132355603D01*
X228165754Y-131983168D01*
X228391135Y-131676499D01*
X228426403Y-131628432D01*
X228869663Y-131024082D01*
X229183181Y-131575121D01*
X230021236Y-132934174D01*
X230983756Y-134293005D01*
X232051494Y-135631058D01*
X233205204Y-136927775D01*
X234425641Y-138162598D01*
X235693558Y-139314970D01*
X236989708Y-140364332D01*
X238252000Y-141261874D01*
X238867498Y-141651921D01*
X239402954Y-141947494D01*
X239883807Y-142153818D01*
X240335498Y-142276119D01*
X240783464Y-142319623D01*
X241253145Y-142289557D01*
X241769980Y-142191147D01*
X242207684Y-142074523D01*
X242882805Y-141837680D01*
X243566591Y-141522175D01*
X244237591Y-141143599D01*
X244874358Y-140717544D01*
X245455443Y-140259600D01*
X245959397Y-139785359D01*
X246364771Y-139310411D01*
X246650117Y-138850347D01*
X246653877Y-138842597D01*
X246921265Y-138134757D01*
X247090871Y-137328493D01*
X247163972Y-136431468D01*
X247141842Y-135451346D01*
X247025756Y-134395789D01*
X246816988Y-133272461D01*
X246516814Y-132089024D01*
X246126509Y-130853142D01*
X245659683Y-129605448D01*
X239527814Y-129605448D01*
X239430768Y-129671201D01*
X239234689Y-129680830D01*
X238972508Y-129638631D01*
X238677160Y-129548904D01*
X238488767Y-129469851D01*
X238075646Y-129214565D01*
X237642531Y-128834989D01*
X237202410Y-128348176D01*
X236768271Y-127771181D01*
X236353103Y-127121060D01*
X235969895Y-126414866D01*
X235676361Y-125777022D01*
X235512143Y-125355936D01*
X235339443Y-124857412D01*
X235170705Y-124322885D01*
X235018373Y-123793787D01*
X234894892Y-123311555D01*
X234812706Y-122917621D01*
X234806739Y-122881572D01*
X234754505Y-122555000D01*
X235200457Y-122990429D01*
X235500857Y-123306012D01*
X235838652Y-123699328D01*
X236204816Y-124156579D01*
X236590325Y-124663970D01*
X236986152Y-125207705D01*
X237383274Y-125773988D01*
X237772664Y-126349021D01*
X238145298Y-126919009D01*
X238492151Y-127470156D01*
X238804198Y-127988665D01*
X239072413Y-128460740D01*
X239287771Y-128872585D01*
X239441247Y-129210404D01*
X239523817Y-129460400D01*
X239527814Y-129605448D01*
X245659683Y-129605448D01*
X245647347Y-129572478D01*
X245080603Y-128254694D01*
X244789317Y-127635000D01*
X243928467Y-125961173D01*
X243019982Y-124407091D01*
X242067196Y-122977603D01*
X241073444Y-121677558D01*
X240042060Y-120511803D01*
X239548699Y-120015000D01*
X238851093Y-119373729D01*
X238206231Y-118858049D01*
X237601632Y-118463889D01*
X237024816Y-118187178D01*
X236463302Y-118023845D01*
X235904611Y-117969819D01*
X235336262Y-118021028D01*
X234745775Y-118173402D01*
X234354235Y-118320569D01*
X234071484Y-118452362D01*
X233709254Y-118642204D01*
X233292565Y-118874875D01*
X232846436Y-119135154D01*
X232395885Y-119407819D01*
X231965933Y-119677649D01*
X231581598Y-119929424D01*
X231267899Y-120147922D01*
X231049855Y-120317923D01*
X231007224Y-120356813D01*
X230735966Y-120657737D01*
X230538741Y-120973778D01*
X230414051Y-121322570D01*
X230360398Y-121721743D01*
X230376282Y-122188928D01*
X230460207Y-122741758D01*
X230610672Y-123397864D01*
X230715552Y-123788714D01*
X231064020Y-124885404D01*
X231494342Y-125982411D01*
X231994144Y-127057839D01*
X232551052Y-128089792D01*
X233152692Y-129056375D01*
X233786690Y-129935691D01*
X234440673Y-130705846D01*
X234866139Y-131133349D01*
X235562654Y-131695986D01*
X236299230Y-132121144D01*
X237069797Y-132407472D01*
X237868283Y-132553616D01*
X238688617Y-132558224D01*
X239524729Y-132419942D01*
X240002610Y-132277854D01*
X240265347Y-132188147D01*
X240475978Y-132117950D01*
X240595911Y-132080084D01*
X240605672Y-132077506D01*
X240670159Y-132133267D01*
X240765338Y-132308306D01*
X240883041Y-132582060D01*
X241015098Y-132933964D01*
X241153338Y-133343454D01*
X241289593Y-133789966D01*
X241299082Y-133822903D01*
X241557798Y-134853391D01*
X241734309Y-135846263D01*
X241823646Y-136770998D01*
X241833776Y-137105572D01*
X241822839Y-137613838D01*
X241772876Y-137995557D01*
X241674415Y-138266285D01*
X241517983Y-138441577D01*
X241294109Y-138536988D01*
X240993318Y-138568074D01*
X240943136Y-138568168D01*
X240500012Y-138504849D01*
X239983660Y-138323867D01*
X239399908Y-138029286D01*
X238754579Y-137625170D01*
X238053500Y-137115582D01*
X237302496Y-136504585D01*
X236507392Y-135796243D01*
X235674015Y-134994619D01*
X235346594Y-134664435D01*
X234345233Y-133602181D01*
X233376550Y-132496803D01*
X232460206Y-131373049D01*
X231615860Y-130255670D01*
X230863172Y-129169415D01*
X230396791Y-128433286D01*
X230000664Y-127780143D01*
X229954127Y-126836714D01*
X229926700Y-126418000D01*
X229887310Y-125992430D01*
X229841417Y-125612178D01*
X229798499Y-125349000D01*
X229519243Y-124289550D01*
X229113602Y-123238532D01*
X228597558Y-122232645D01*
X228116010Y-121485147D01*
X227785391Y-121060220D01*
X227373140Y-120590455D01*
X226915246Y-120112645D01*
X226447701Y-119663582D01*
X226006493Y-119280059D01*
X225806000Y-119123621D01*
X225383759Y-118837683D01*
X225001002Y-118650212D01*
X224608243Y-118544993D01*
X224156000Y-118505815D01*
X223919143Y-118505423D01*
X223092201Y-118588174D01*
X222228633Y-118808205D01*
X221333649Y-119163814D01*
X220421289Y-119648043D01*
X220163771Y-119794708D01*
X219950672Y-119904020D01*
X219813923Y-119960140D01*
X219785057Y-119963620D01*
X219722736Y-119898658D01*
X219596700Y-119733308D01*
X219422323Y-119488883D01*
X219214975Y-119186698D01*
X219089399Y-118999000D01*
X218669891Y-118380941D01*
X218280644Y-117843281D01*
X217892155Y-117349865D01*
X217474924Y-116864536D01*
X216999447Y-116351140D01*
X216557684Y-115896303D01*
X215573429Y-114898178D01*
X215206637Y-114898446D01*
G37*
X215206637Y-114898446D02*
X214916051Y-114925773D01*
X214655502Y-115023841D01*
X214494717Y-115117588D01*
X214052681Y-115443148D01*
X213621158Y-115843618D01*
X213219158Y-116293617D01*
X212865693Y-116767765D01*
X212579772Y-117240684D01*
X212380408Y-117686994D01*
X212288539Y-118062871D01*
X212276914Y-118190492D01*
X212284119Y-118297116D01*
X212324559Y-118400561D01*
X212412640Y-118518647D01*
X212562768Y-118669193D01*
X212789349Y-118870018D01*
X213106788Y-119138939D01*
X213267631Y-119273928D01*
X213733838Y-119696161D01*
X214252975Y-120220665D01*
X214805206Y-120824125D01*
X215370699Y-121483227D01*
X215929619Y-122174654D01*
X216462131Y-122875093D01*
X216948402Y-123561227D01*
X217074236Y-123748612D01*
X217381495Y-124238141D01*
X217685896Y-124770055D01*
X217972728Y-125314648D01*
X218227281Y-125842211D01*
X218434844Y-126323040D01*
X218580706Y-126727427D01*
X218621416Y-126872948D01*
X218704876Y-127413179D01*
X218694650Y-127935672D01*
X218619011Y-128306286D01*
X218599613Y-128406472D01*
X218645714Y-128454214D01*
X218789801Y-128468744D01*
X218894847Y-128469572D01*
X219144795Y-128440209D01*
X219440475Y-128344589D01*
X219802733Y-128178645D01*
X220393225Y-127805343D01*
X220914688Y-127320160D01*
X221340515Y-126750020D01*
X221499303Y-126461878D01*
X221625395Y-126189392D01*
X221697308Y-125970781D01*
X221728692Y-125743078D01*
X221733199Y-125443313D01*
X221732377Y-125386792D01*
X221677345Y-124793692D01*
X221534618Y-124116663D01*
X221310849Y-123382074D01*
X221063700Y-122736429D01*
X220936129Y-122426257D01*
X220861506Y-122224596D01*
X220834702Y-122106943D01*
X220850586Y-122048792D01*
X220904028Y-122025640D01*
X220914499Y-122023749D01*
X221091780Y-122044522D01*
X221343112Y-122136341D01*
X221629150Y-122279650D01*
X221910551Y-122454896D01*
X222134244Y-122629972D01*
X222391833Y-122904668D01*
X222676859Y-123278003D01*
X222965138Y-123712966D01*
X223232483Y-124172543D01*
X223454710Y-124619723D01*
X223494993Y-124712406D01*
X223757543Y-125430438D01*
X223978978Y-126225765D01*
X224141761Y-127032466D01*
X224178481Y-127281363D01*
X224214993Y-127682347D01*
X224232050Y-128159322D01*
X224230916Y-128675199D01*
X224212854Y-129192888D01*
X224179127Y-129675298D01*
X224130999Y-130085341D01*
X224073166Y-130373789D01*
X223943364Y-130759902D01*
X223767943Y-131170789D01*
X223570582Y-131557486D01*
X223374964Y-131871027D01*
X223305132Y-131961861D01*
X223109643Y-132196024D01*
X221700107Y-131235673D01*
X221190680Y-130887826D01*
X220619875Y-130496803D01*
X220032885Y-130093644D01*
X219474905Y-129709389D01*
X218991128Y-129375081D01*
X218984286Y-129370342D01*
X218062868Y-128746989D01*
X217179855Y-128179228D01*
X216345516Y-127672657D01*
X215570119Y-127232877D01*
X214863931Y-126865488D01*
X214237220Y-126576088D01*
X213700254Y-126370278D01*
X213272605Y-126255381D01*
X213121167Y-126207335D01*
X212980171Y-126108089D01*
X212818975Y-125931065D01*
X212662931Y-125726558D01*
X212248739Y-125188305D01*
X211788140Y-124634352D01*
X211300514Y-124084803D01*
X210805240Y-123559763D01*
X210321698Y-123079337D01*
X209869270Y-122663631D01*
X209467334Y-122332748D01*
X209228663Y-122163823D01*
X208594242Y-121828881D01*
X207943767Y-121632546D01*
X207273679Y-121575146D01*
X206580420Y-121657008D01*
X205860429Y-121878461D01*
X205110146Y-122239830D01*
X204536355Y-122595481D01*
X204201518Y-122818073D01*
X203813610Y-123070922D01*
X203443147Y-123308171D01*
X203352427Y-123365384D01*
X202734485Y-123753365D01*
X202586242Y-123578563D01*
X202485039Y-123457034D01*
X202314918Y-123250438D01*
X202098506Y-122986338D01*
X201858432Y-122692298D01*
X201826256Y-122652809D01*
X201318918Y-122038845D01*
X200887095Y-121535061D01*
X200532688Y-121143549D01*
X200257598Y-120866401D01*
X200063729Y-120705707D01*
X200044875Y-120693654D01*
X199742436Y-120584263D01*
X199351830Y-120556436D01*
X198901581Y-120605419D01*
X198420209Y-120726460D01*
X197936238Y-120914804D01*
X197575714Y-121105120D01*
X197226854Y-121344765D01*
X196875743Y-121638744D01*
X196555773Y-121954501D01*
X196300335Y-122259477D01*
X196158268Y-122487198D01*
X196066769Y-122699707D01*
X196015984Y-122896739D01*
X196011480Y-123099226D01*
X196058823Y-123328099D01*
X196163581Y-123604288D01*
X196331318Y-123948727D01*
X196567602Y-124382344D01*
X196745638Y-124695857D01*
X197089928Y-125311875D01*
X197465477Y-126010009D01*
X197858841Y-126763283D01*
X198256575Y-127544723D01*
X198645236Y-128327355D01*
X199011378Y-129084202D01*
X199341556Y-129788292D01*
X199622328Y-130412648D01*
X199783943Y-130791857D01*
X200136865Y-131679991D01*
X200459552Y-132558600D01*
X200739873Y-133392680D01*
X200965694Y-134147232D01*
X201029117Y-134384143D01*
X201108273Y-134759998D01*
X201165180Y-135169967D01*
X201198787Y-135582979D01*
X201208046Y-135967966D01*
X201191908Y-136293859D01*
X201149324Y-136529589D01*
X201104686Y-136622581D01*
X200927704Y-136730595D01*
X200681249Y-136720210D01*
X200371744Y-136596742D01*
X200005615Y-136365510D01*
X199589287Y-136031831D01*
X199129183Y-135601022D01*
X198631729Y-135078400D01*
X198103349Y-134469284D01*
X197550468Y-133778989D01*
X197347913Y-133513286D01*
X196739080Y-132682178D01*
X196406749Y-132207000D01*
X190427429Y-132207000D01*
X190391143Y-132243286D01*
X190354857Y-132207000D01*
X190391143Y-132170715D01*
X190427429Y-132207000D01*
X196406749Y-132207000D01*
X196104353Y-131774626D01*
X195458532Y-130814241D01*
X194816415Y-129824633D01*
X194192801Y-128829411D01*
X193602486Y-127852185D01*
X193060271Y-126916565D01*
X192580953Y-126046161D01*
X192185148Y-125276429D01*
X191780943Y-124477854D01*
X191419859Y-123814548D01*
X191102253Y-123287069D01*
X190828485Y-122895978D01*
X190598913Y-122641836D01*
X190425971Y-122529081D01*
X190169397Y-122464654D01*
X189900932Y-122457301D01*
X189580658Y-122509883D01*
X189193572Y-122617488D01*
X188471418Y-122894136D01*
X187827522Y-123259296D01*
X187213455Y-123740491D01*
X187206388Y-123746798D01*
X187013686Y-123951063D01*
X186829487Y-124199587D01*
X186680449Y-124450138D01*
X186593235Y-124660486D01*
X186581143Y-124737185D01*
X186620558Y-124864359D01*
X186726229Y-125073668D01*
X186879296Y-125329680D01*
X186969546Y-125466834D01*
X187183465Y-125798467D01*
X187446923Y-126233425D01*
X187745039Y-126744970D01*
X188062926Y-127306366D01*
X188385700Y-127890876D01*
X188698478Y-128471764D01*
X188986375Y-129022292D01*
X189234507Y-129515724D01*
X189307774Y-129667000D01*
X189506155Y-130088684D01*
X189701828Y-130517352D01*
X189885928Y-130932177D01*
X190049589Y-131312332D01*
X190183944Y-131636991D01*
X190280128Y-131885327D01*
X190329276Y-132036511D01*
X190331875Y-132072745D01*
X190286161Y-132024198D01*
X190177269Y-131873711D01*
X190019525Y-131642061D01*
X189827257Y-131350025D01*
X189736221Y-131209010D01*
X189358349Y-130624999D01*
X188936924Y-129981893D01*
X188483929Y-129297377D01*
X188011350Y-128589134D01*
X187531171Y-127874848D01*
X187055378Y-127172204D01*
X186595954Y-126498886D01*
X186164885Y-125872577D01*
X185774156Y-125310963D01*
X185435750Y-124831726D01*
X185161654Y-124452552D01*
X185109716Y-124382361D01*
X184794392Y-123957645D01*
X184465576Y-123513065D01*
X184149134Y-123083709D01*
X183870932Y-122704664D01*
X183678286Y-122440585D01*
X183360988Y-122024592D01*
X183012581Y-121603531D01*
X182652380Y-121197658D01*
X182299700Y-120827233D01*
X181973856Y-120512512D01*
X181694165Y-120273754D01*
X181479940Y-120131216D01*
X181473216Y-120127904D01*
X181048427Y-119999254D01*
X180563903Y-119984311D01*
X180040914Y-120076348D01*
X179500732Y-120268637D01*
X178964625Y-120554448D01*
X178453865Y-120927056D01*
X178192359Y-121165659D01*
X177881676Y-121491142D01*
X177676026Y-121765608D01*
X177563582Y-122024117D01*
X177532515Y-122301728D01*
X177570996Y-122633503D01*
X177619968Y-122862219D01*
X177712006Y-123198753D01*
X177839771Y-123596096D01*
X177979784Y-123982539D01*
X178020028Y-124084058D01*
X178139474Y-124396080D01*
X178284116Y-124801831D01*
X178438260Y-125255778D01*
X178586208Y-125712387D01*
X178632900Y-125862058D01*
X178763234Y-126281044D01*
X178891476Y-126686820D01*
X179006039Y-127043160D01*
X179095334Y-127313838D01*
X179125179Y-127400881D01*
X179197102Y-127626366D01*
X179236540Y-127791919D01*
X179236844Y-127855204D01*
X179183037Y-127815527D01*
X179067448Y-127679966D01*
X178909851Y-127472699D01*
X178809201Y-127332306D01*
X178451447Y-126832660D01*
X178029135Y-126258311D01*
X177559955Y-125632140D01*
X177061597Y-124977022D01*
X176551754Y-124315836D01*
X176048116Y-123671459D01*
X175568373Y-123066769D01*
X175130217Y-122524643D01*
X174751339Y-122067959D01*
X174612804Y-121905583D01*
X173990164Y-121207005D01*
X173386688Y-120575214D01*
X172813635Y-120020462D01*
X172282267Y-119552997D01*
X171803844Y-119183069D01*
X171389624Y-118920927D01*
X171264459Y-118857728D01*
X170759780Y-118694435D01*
X170255665Y-118675864D01*
X169748402Y-118802090D01*
X169544510Y-118892778D01*
X169222931Y-119095620D01*
X168860041Y-119392255D01*
X168486695Y-119750546D01*
X168133751Y-120138358D01*
X167832065Y-120523554D01*
X167612494Y-120873997D01*
X167580708Y-120938027D01*
X167437809Y-121271675D01*
X167346855Y-121573437D01*
X167310968Y-121866962D01*
X167333275Y-122175895D01*
X167416900Y-122523884D01*
X167564967Y-122934576D01*
X167780603Y-123431617D01*
X167961305Y-123818140D01*
X168349843Y-124661376D01*
X168769008Y-125619179D01*
X169209819Y-126667956D01*
X169663294Y-127784117D01*
X170120454Y-128944068D01*
X170572317Y-130124219D01*
X171009903Y-131300978D01*
X171424231Y-132450752D01*
X171806321Y-133549950D01*
X172147191Y-134574979D01*
X172437861Y-135502248D01*
X172538722Y-135842775D01*
X172649657Y-136242798D01*
X172757938Y-136665349D01*
X172858313Y-137085994D01*
X172945530Y-137480300D01*
X173014338Y-137823832D01*
X173059486Y-138092156D01*
X173075722Y-138260837D01*
X173068069Y-138305693D01*
X173002161Y-138278502D01*
X172845621Y-138186819D01*
X172627626Y-138048086D01*
X172538236Y-137988990D01*
X172143920Y-137695075D01*
X171695129Y-137309446D01*
X171219825Y-136859847D01*
X170745968Y-136374025D01*
X170301520Y-135879725D01*
X169914441Y-135404692D01*
X169856148Y-135327572D01*
X169515816Y-134856993D01*
X169134939Y-134305246D01*
X168725123Y-133691164D01*
X168297972Y-133033582D01*
X167865094Y-132351334D01*
X167438092Y-131663255D01*
X167028574Y-130988178D01*
X166648144Y-130344938D01*
X166308408Y-129752369D01*
X166227672Y-129605448D01*
X159989528Y-129605448D01*
X159892483Y-129671201D01*
X159696403Y-129680830D01*
X159434222Y-129638631D01*
X159138874Y-129548904D01*
X158950481Y-129469851D01*
X158537361Y-129214565D01*
X158104245Y-128834989D01*
X157664124Y-128348176D01*
X157229985Y-127771181D01*
X156814817Y-127121060D01*
X156431609Y-126414866D01*
X156138076Y-125777022D01*
X155973858Y-125355936D01*
X155801158Y-124857412D01*
X155632419Y-124322885D01*
X155480088Y-123793787D01*
X155356606Y-123311555D01*
X155274421Y-122917621D01*
X155268454Y-122881572D01*
X155216219Y-122555000D01*
X155662171Y-122990429D01*
X155962572Y-123306012D01*
X156300367Y-123699328D01*
X156666531Y-124156579D01*
X157052039Y-124663970D01*
X157447867Y-125207705D01*
X157844988Y-125773988D01*
X158234378Y-126349021D01*
X158607013Y-126919009D01*
X158953865Y-127470156D01*
X159265912Y-127988665D01*
X159534127Y-128460740D01*
X159749485Y-128872585D01*
X159902962Y-129210404D01*
X159985531Y-129460400D01*
X159989528Y-129605448D01*
X166227672Y-129605448D01*
X166020971Y-129229306D01*
X165797440Y-128794583D01*
X165693870Y-128572766D01*
X165001207Y-127101594D01*
X164239180Y-125674379D01*
X163419432Y-124308651D01*
X162553606Y-123021941D01*
X161653344Y-121831780D01*
X160730288Y-120755700D01*
X160010413Y-120015000D01*
X159312807Y-119373729D01*
X158667945Y-118858049D01*
X158063346Y-118463889D01*
X157486530Y-118187178D01*
X156925017Y-118023845D01*
X156366326Y-117969819D01*
X155797977Y-118021028D01*
X155207489Y-118173402D01*
X154815950Y-118320569D01*
X154533198Y-118452362D01*
X154170968Y-118642204D01*
X153754279Y-118874875D01*
X153308150Y-119135154D01*
X152857600Y-119407819D01*
X152427647Y-119677649D01*
X152043312Y-119929424D01*
X151729613Y-120147922D01*
X151511569Y-120317923D01*
X151468938Y-120356813D01*
X151197680Y-120657737D01*
X151000455Y-120973778D01*
X150875765Y-121322570D01*
X150822112Y-121721743D01*
X150837997Y-122188928D01*
X150921921Y-122741758D01*
X151072387Y-123397864D01*
X151177266Y-123788714D01*
X151525734Y-124885404D01*
X151956056Y-125982411D01*
X152455858Y-127057839D01*
X153012766Y-128089792D01*
X153614406Y-129056375D01*
X154248405Y-129935691D01*
X154902388Y-130705846D01*
X155327853Y-131133349D01*
X156024368Y-131695986D01*
X156760945Y-132121144D01*
X157531511Y-132407472D01*
X158329997Y-132553616D01*
X159150332Y-132558224D01*
X159986443Y-132419942D01*
X160464325Y-132277854D01*
X160727061Y-132188147D01*
X160937692Y-132117950D01*
X161057625Y-132080084D01*
X161067386Y-132077506D01*
X161131873Y-132133267D01*
X161227052Y-132308306D01*
X161344755Y-132582060D01*
X161476812Y-132933964D01*
X161615052Y-133343454D01*
X161751307Y-133789966D01*
X161760796Y-133822903D01*
X162019512Y-134853391D01*
X162196024Y-135846263D01*
X162285361Y-136770998D01*
X162295490Y-137105572D01*
X162284553Y-137613838D01*
X162234590Y-137995557D01*
X162136129Y-138266285D01*
X161979698Y-138441577D01*
X161755823Y-138536988D01*
X161455033Y-138568074D01*
X161404851Y-138568168D01*
X160966084Y-138505115D01*
X160456671Y-138326685D01*
X159884352Y-138039657D01*
X159256867Y-137650810D01*
X158581958Y-137166921D01*
X157867364Y-136594770D01*
X157120827Y-135941135D01*
X156350086Y-135212794D01*
X155562882Y-134416527D01*
X154766956Y-133559111D01*
X153970049Y-132647325D01*
X153179900Y-131687949D01*
X152404251Y-130687760D01*
X152400672Y-130683000D01*
X151723647Y-129751138D01*
X151129444Y-128862518D01*
X150587365Y-127969938D01*
X150276790Y-127417286D01*
X150054058Y-127013274D01*
X149883860Y-126719711D01*
X149750319Y-126519036D01*
X149637560Y-126393689D01*
X149529706Y-126326109D01*
X149410880Y-126298734D01*
X149265208Y-126294004D01*
X149261286Y-126294023D01*
X148877169Y-126351917D01*
X148522595Y-126506690D01*
X148224567Y-126736019D01*
X148010093Y-127017584D01*
X147906178Y-127329062D01*
X147900572Y-127418723D01*
X147931802Y-127637266D01*
X148020133Y-127963479D01*
X148157520Y-128375333D01*
X148335922Y-128850794D01*
X148547295Y-129367831D01*
X148783598Y-129904412D01*
X148897575Y-130149876D01*
X149575931Y-131454374D01*
X150380912Y-132773333D01*
X151297459Y-134089708D01*
X152310517Y-135386454D01*
X153405026Y-136646525D01*
X154565930Y-137852876D01*
X155778171Y-138988461D01*
X157026692Y-140036236D01*
X158296435Y-140979155D01*
X158713715Y-141261874D01*
X159329212Y-141651921D01*
X159864668Y-141947494D01*
X160345522Y-142153818D01*
X160797212Y-142276119D01*
X161245178Y-142319623D01*
X161714859Y-142289557D01*
X162231694Y-142191147D01*
X162669398Y-142074523D01*
X163320505Y-141845959D01*
X163990419Y-141538599D01*
X164654744Y-141169136D01*
X165289085Y-140754265D01*
X165869049Y-140310677D01*
X166370240Y-139855066D01*
X166768264Y-139404125D01*
X166942907Y-139150189D01*
X167144239Y-138758507D01*
X167331905Y-138284707D01*
X167482311Y-137791473D01*
X167528510Y-137594475D01*
X167550619Y-137518913D01*
X167586150Y-137494633D01*
X167649926Y-137535076D01*
X167756766Y-137653683D01*
X167921492Y-137863895D01*
X168128672Y-138138760D01*
X168560676Y-138681931D01*
X169037710Y-139223644D01*
X169538934Y-139744122D01*
X170043507Y-140223587D01*
X170530589Y-140642263D01*
X170979338Y-140980371D01*
X171368914Y-141218134D01*
X171379104Y-141223326D01*
X171848736Y-141397583D01*
X172406396Y-141501561D01*
X173011893Y-141533000D01*
X173625034Y-141489637D01*
X174166800Y-141380220D01*
X174678591Y-141213145D01*
X175204795Y-140996773D01*
X175718830Y-140746010D01*
X176194116Y-140475761D01*
X176604071Y-140200928D01*
X176922115Y-139936417D01*
X177095376Y-139738118D01*
X177251779Y-139487526D01*
X177358330Y-139246101D01*
X177426945Y-138971455D01*
X177469538Y-138621200D01*
X177488560Y-138339286D01*
X177494845Y-137790296D01*
X177454779Y-137174412D01*
X177366440Y-136481247D01*
X177227906Y-135700411D01*
X177037258Y-134821517D01*
X176792572Y-133834176D01*
X176491929Y-132728000D01*
X176374708Y-132316329D01*
X176079025Y-131312461D01*
X175798925Y-130415478D01*
X175522016Y-129589847D01*
X175235901Y-128800034D01*
X174928186Y-128010504D01*
X174586476Y-127185723D01*
X174578753Y-127167549D01*
X174318309Y-126554955D01*
X174616482Y-126840977D01*
X174764956Y-126993869D01*
X174983280Y-127232227D01*
X175248274Y-127530106D01*
X175536760Y-127861563D01*
X175725642Y-128082431D01*
X176679031Y-129276547D01*
X177621695Y-130595603D01*
X178541921Y-132019398D01*
X179427994Y-133527734D01*
X180268199Y-135100409D01*
X181050821Y-136717225D01*
X181764147Y-138357982D01*
X181945040Y-138806750D01*
X182099079Y-139185437D01*
X182244026Y-139523393D01*
X182367958Y-139794160D01*
X182458955Y-139971281D01*
X182492146Y-140020902D01*
X182697203Y-140147327D01*
X183000133Y-140205223D01*
X183374252Y-140200571D01*
X183792874Y-140139350D01*
X184229313Y-140027541D01*
X184656885Y-139871124D01*
X185048903Y-139676078D01*
X185378682Y-139448383D01*
X185486874Y-139349819D01*
X185675760Y-139119872D01*
X185842152Y-138851214D01*
X185877009Y-138779118D01*
X185943770Y-138578180D01*
X185982371Y-138331128D01*
X185991390Y-138026552D01*
X185969405Y-137653043D01*
X185914994Y-137199191D01*
X185826736Y-136653587D01*
X185703208Y-136004820D01*
X185542989Y-135241482D01*
X185344657Y-134352162D01*
X185302186Y-134166429D01*
X185090785Y-133256815D01*
X184880915Y-132376154D01*
X184677082Y-131542295D01*
X184483793Y-130773085D01*
X184305556Y-130086371D01*
X184146878Y-129500000D01*
X184012265Y-129031819D01*
X183973487Y-128905000D01*
X183758412Y-128215572D01*
X183942743Y-128433286D01*
X184319040Y-128895780D01*
X184720778Y-129425740D01*
X185154777Y-130033206D01*
X185627856Y-130728218D01*
X186146833Y-131520815D01*
X186718527Y-132421039D01*
X187349757Y-133438928D01*
X187417641Y-133549572D01*
X188179293Y-134797662D01*
X188871330Y-135943994D01*
X189504726Y-137007528D01*
X190090453Y-138007222D01*
X190639483Y-138962034D01*
X191162789Y-139890922D01*
X191671342Y-140812846D01*
X192176116Y-141746764D01*
X192345275Y-142063720D01*
X192567136Y-142461596D01*
X192757760Y-142746526D01*
X192941291Y-142939721D01*
X193141872Y-143062399D01*
X193383647Y-143135771D01*
X193605564Y-143171084D01*
X194005437Y-143173470D01*
X194472084Y-143100363D01*
X194972637Y-142964632D01*
X195474229Y-142779147D01*
X195943992Y-142556775D01*
X196349061Y-142310386D01*
X196656566Y-142052847D01*
X196752847Y-141938826D01*
X196876526Y-141741392D01*
X196938734Y-141546611D01*
X196958373Y-141288362D01*
X196958857Y-141218139D01*
X196944102Y-140933827D01*
X196902826Y-140536465D01*
X196839512Y-140054796D01*
X196758643Y-139517562D01*
X196664702Y-138953507D01*
X196562171Y-138391374D01*
X196455534Y-137859904D01*
X196385337Y-137541000D01*
X196176920Y-136633857D01*
X196368317Y-136883896D01*
X197130230Y-137834982D01*
X197887890Y-138694213D01*
X198634182Y-139455656D01*
X199361990Y-140113376D01*
X200064200Y-140661438D01*
X200733696Y-141093908D01*
X201363364Y-141404852D01*
X201946088Y-141588335D01*
X202027835Y-141604288D01*
X202644453Y-141644001D01*
X203283788Y-141557539D01*
X203923550Y-141356719D01*
X204541446Y-141053353D01*
X205115187Y-140659257D01*
X205622481Y-140186244D01*
X206041036Y-139646129D01*
X206185841Y-139400557D01*
X206296732Y-139181476D01*
X206369088Y-138991589D01*
X206412995Y-138785814D01*
X206438539Y-138519068D01*
X206453624Y-138203585D01*
X206443119Y-137550371D01*
X206363916Y-136796712D01*
X206214922Y-135936129D01*
X205995039Y-134962144D01*
X205746621Y-134022478D01*
X205675175Y-133763439D01*
X205642994Y-133624894D01*
X205650163Y-133587582D01*
X205696771Y-133632241D01*
X205748102Y-133695907D01*
X205824007Y-133794372D01*
X205976323Y-133994391D01*
X206194156Y-134281568D01*
X206466608Y-134641511D01*
X206782784Y-135059824D01*
X207131789Y-135522114D01*
X207477646Y-135980715D01*
X207882312Y-136515204D01*
X208295716Y-137056955D01*
X208700890Y-137584033D01*
X209080866Y-138074501D01*
X209418675Y-138506423D01*
X209697347Y-138857863D01*
X209835434Y-139028715D01*
X210232816Y-139504742D01*
X210642296Y-139977270D01*
X211049356Y-140431025D01*
X211439481Y-140850736D01*
X211798153Y-141221130D01*
X212110857Y-141526934D01*
X212363075Y-141752877D01*
X212540292Y-141883687D01*
X212558665Y-141893730D01*
X212990908Y-142039211D01*
X213502867Y-142087012D01*
X214073615Y-142044036D01*
X214682223Y-141917185D01*
X215307766Y-141713363D01*
X215929315Y-141439471D01*
X216525944Y-141102412D01*
X217076725Y-140709089D01*
X217560731Y-140266404D01*
X217591631Y-140233680D01*
X217863658Y-139910177D01*
X218033427Y-139610878D01*
X218121757Y-139283059D01*
X218149472Y-138873999D01*
X218149715Y-138820543D01*
X218108364Y-138097840D01*
X217987288Y-137271919D01*
X217825819Y-136520147D01*
X212758732Y-136520147D01*
X212544983Y-136367944D01*
X212427767Y-136265623D01*
X212234254Y-136075501D01*
X211984569Y-135818263D01*
X211698836Y-135514595D01*
X211435352Y-135227370D01*
X210969223Y-134703942D01*
X210473090Y-134130177D01*
X209955553Y-133517243D01*
X209425209Y-132876308D01*
X208890658Y-132218540D01*
X208360500Y-131555106D01*
X207843332Y-130897175D01*
X207347755Y-130255914D01*
X206882367Y-129642490D01*
X206455768Y-129068072D01*
X206076555Y-128543827D01*
X205753329Y-128080923D01*
X205494689Y-127690528D01*
X205309232Y-127383809D01*
X205205559Y-127171934D01*
X205188596Y-127114578D01*
X205162508Y-126752402D01*
X205202882Y-126362358D01*
X205298564Y-125981146D01*
X205438401Y-125645465D01*
X205611240Y-125392012D01*
X205745029Y-125283645D01*
X205902003Y-125221113D01*
X206060155Y-125218037D01*
X206237335Y-125284507D01*
X206451389Y-125430616D01*
X206720167Y-125666457D01*
X207061517Y-126002120D01*
X207118857Y-126060453D01*
X207689045Y-126671970D01*
X208220163Y-127307537D01*
X208735993Y-127998357D01*
X209260314Y-128775632D01*
X209604557Y-129321893D01*
X210081515Y-130124273D01*
X210544398Y-130957581D01*
X210984790Y-131803227D01*
X211394277Y-132642627D01*
X211764443Y-133457192D01*
X212086874Y-134228336D01*
X212353155Y-134937471D01*
X212554870Y-135566012D01*
X212683606Y-136095371D01*
X212692043Y-136141573D01*
X212758732Y-136520147D01*
X217825819Y-136520147D01*
X217790947Y-136357794D01*
X217523803Y-135370478D01*
X217190318Y-134324987D01*
X216794954Y-133236332D01*
X216342172Y-132119530D01*
X215836434Y-130989593D01*
X215798878Y-130909786D01*
X215647844Y-130588045D01*
X215522196Y-130316868D01*
X215433475Y-130121427D01*
X215393220Y-130026893D01*
X215392000Y-130022320D01*
X215449181Y-130050683D01*
X215606866Y-130145809D01*
X215844269Y-130294740D01*
X216140603Y-130484519D01*
X216317286Y-130599083D01*
X216903671Y-130986615D01*
X217510295Y-131397975D01*
X218121347Y-131821623D01*
X218721017Y-132246016D01*
X219293498Y-132659613D01*
X219822978Y-133050873D01*
X220293649Y-133408253D01*
X220689701Y-133720212D01*
X220995325Y-133975209D01*
X221188748Y-134155468D01*
X221433782Y-134409989D01*
X220909322Y-135184626D01*
X220471779Y-135873292D01*
X220140093Y-136499580D01*
X219905503Y-137090161D01*
X219759252Y-137671707D01*
X219692580Y-138270888D01*
X219695043Y-138882119D01*
X219804706Y-139797345D01*
X220042612Y-140683957D01*
X220412330Y-141549319D01*
X220917429Y-142400794D01*
X221561479Y-143245747D01*
X222096955Y-143837332D01*
X222942164Y-144653081D01*
X223813546Y-145376179D01*
X224695620Y-145996143D01*
X225572906Y-146502491D01*
X226429922Y-146884742D01*
X226773260Y-147003607D01*
X227606700Y-147214788D01*
X228502296Y-147349850D01*
X229413464Y-147405543D01*
X230293622Y-147378618D01*
X230947303Y-147294832D01*
X231470284Y-147179659D01*
X231995307Y-147027359D01*
X232476708Y-146853101D01*
X232868824Y-146672055D01*
X232936481Y-146634047D01*
X233465451Y-146244444D01*
X233888180Y-145766812D01*
X234198777Y-145217987D01*
X234391350Y-144614804D01*
X234460006Y-143974101D01*
X234451098Y-143877748D01*
X230196232Y-143877748D01*
X230152447Y-143907689D01*
X230013022Y-143879230D01*
X229766850Y-143789019D01*
X229434773Y-143647819D01*
X228856525Y-143336074D01*
X228251646Y-142906766D01*
X227639359Y-142380040D01*
X227038885Y-141776044D01*
X226469444Y-141114925D01*
X225950258Y-140416830D01*
X225500548Y-139701904D01*
X225283916Y-139297087D01*
X225108296Y-138937805D01*
X224989221Y-138667358D01*
X224914293Y-138446860D01*
X224871113Y-138237423D01*
X224847282Y-138000161D01*
X224841589Y-137909786D01*
X224833652Y-137613014D01*
X224846638Y-137399840D01*
X224878654Y-137299722D01*
X224880937Y-137298076D01*
X224952982Y-137333770D01*
X225110011Y-137463028D01*
X225338970Y-137672385D01*
X225626807Y-137948375D01*
X225960467Y-138277533D01*
X226326896Y-138646396D01*
X226713042Y-139041497D01*
X227105851Y-139449372D01*
X227492268Y-139856556D01*
X227859242Y-140249584D01*
X228193717Y-140614991D01*
X228482641Y-140939312D01*
X228712960Y-141209082D01*
X228871620Y-141410836D01*
X228881864Y-141425092D01*
X229038759Y-141661886D01*
X229224611Y-141967464D01*
X229425770Y-142316360D01*
X229628590Y-142683106D01*
X229819423Y-143042236D01*
X229984621Y-143368283D01*
X230110537Y-143635780D01*
X230183523Y-143819260D01*
X230196232Y-143877748D01*
X234451098Y-143877748D01*
X234398853Y-143312713D01*
X234268941Y-142826754D01*
X234023912Y-142243439D01*
X233673779Y-141597397D01*
X233232999Y-140908181D01*
X232716033Y-140195350D01*
X232137341Y-139478457D01*
X231511381Y-138777061D01*
X230852613Y-138110715D01*
X230621146Y-137893239D01*
X229712847Y-137077547D01*
X228740834Y-136241867D01*
X227767025Y-135438891D01*
X227302170Y-135068785D01*
X226430805Y-134384143D01*
X226546458Y-134202715D01*
X226629562Y-134081462D01*
X226780750Y-133869380D01*
X226981512Y-133592117D01*
X227213341Y-133275326D01*
X227322627Y-133127034D01*
X227600061Y-132751120D01*
X227891583Y-132355603D01*
X228165754Y-131983168D01*
X228391135Y-131676499D01*
X228426403Y-131628432D01*
X228869663Y-131024082D01*
X229183181Y-131575121D01*
X230021236Y-132934174D01*
X230983756Y-134293005D01*
X232051494Y-135631058D01*
X233205204Y-136927775D01*
X234425641Y-138162598D01*
X235693558Y-139314970D01*
X236989708Y-140364332D01*
X238252000Y-141261874D01*
X238867498Y-141651921D01*
X239402954Y-141947494D01*
X239883807Y-142153818D01*
X240335498Y-142276119D01*
X240783464Y-142319623D01*
X241253145Y-142289557D01*
X241769980Y-142191147D01*
X242207684Y-142074523D01*
X242882805Y-141837680D01*
X243566591Y-141522175D01*
X244237591Y-141143599D01*
X244874358Y-140717544D01*
X245455443Y-140259600D01*
X245959397Y-139785359D01*
X246364771Y-139310411D01*
X246650117Y-138850347D01*
X246653877Y-138842597D01*
X246921265Y-138134757D01*
X247090871Y-137328493D01*
X247163972Y-136431468D01*
X247141842Y-135451346D01*
X247025756Y-134395789D01*
X246816988Y-133272461D01*
X246516814Y-132089024D01*
X246126509Y-130853142D01*
X245659683Y-129605448D01*
X239527814Y-129605448D01*
X239430768Y-129671201D01*
X239234689Y-129680830D01*
X238972508Y-129638631D01*
X238677160Y-129548904D01*
X238488767Y-129469851D01*
X238075646Y-129214565D01*
X237642531Y-128834989D01*
X237202410Y-128348176D01*
X236768271Y-127771181D01*
X236353103Y-127121060D01*
X235969895Y-126414866D01*
X235676361Y-125777022D01*
X235512143Y-125355936D01*
X235339443Y-124857412D01*
X235170705Y-124322885D01*
X235018373Y-123793787D01*
X234894892Y-123311555D01*
X234812706Y-122917621D01*
X234806739Y-122881572D01*
X234754505Y-122555000D01*
X235200457Y-122990429D01*
X235500857Y-123306012D01*
X235838652Y-123699328D01*
X236204816Y-124156579D01*
X236590325Y-124663970D01*
X236986152Y-125207705D01*
X237383274Y-125773988D01*
X237772664Y-126349021D01*
X238145298Y-126919009D01*
X238492151Y-127470156D01*
X238804198Y-127988665D01*
X239072413Y-128460740D01*
X239287771Y-128872585D01*
X239441247Y-129210404D01*
X239523817Y-129460400D01*
X239527814Y-129605448D01*
X245659683Y-129605448D01*
X245647347Y-129572478D01*
X245080603Y-128254694D01*
X244789317Y-127635000D01*
X243928467Y-125961173D01*
X243019982Y-124407091D01*
X242067196Y-122977603D01*
X241073444Y-121677558D01*
X240042060Y-120511803D01*
X239548699Y-120015000D01*
X238851093Y-119373729D01*
X238206231Y-118858049D01*
X237601632Y-118463889D01*
X237024816Y-118187178D01*
X236463302Y-118023845D01*
X235904611Y-117969819D01*
X235336262Y-118021028D01*
X234745775Y-118173402D01*
X234354235Y-118320569D01*
X234071484Y-118452362D01*
X233709254Y-118642204D01*
X233292565Y-118874875D01*
X232846436Y-119135154D01*
X232395885Y-119407819D01*
X231965933Y-119677649D01*
X231581598Y-119929424D01*
X231267899Y-120147922D01*
X231049855Y-120317923D01*
X231007224Y-120356813D01*
X230735966Y-120657737D01*
X230538741Y-120973778D01*
X230414051Y-121322570D01*
X230360398Y-121721743D01*
X230376282Y-122188928D01*
X230460207Y-122741758D01*
X230610672Y-123397864D01*
X230715552Y-123788714D01*
X231064020Y-124885404D01*
X231494342Y-125982411D01*
X231994144Y-127057839D01*
X232551052Y-128089792D01*
X233152692Y-129056375D01*
X233786690Y-129935691D01*
X234440673Y-130705846D01*
X234866139Y-131133349D01*
X235562654Y-131695986D01*
X236299230Y-132121144D01*
X237069797Y-132407472D01*
X237868283Y-132553616D01*
X238688617Y-132558224D01*
X239524729Y-132419942D01*
X240002610Y-132277854D01*
X240265347Y-132188147D01*
X240475978Y-132117950D01*
X240595911Y-132080084D01*
X240605672Y-132077506D01*
X240670159Y-132133267D01*
X240765338Y-132308306D01*
X240883041Y-132582060D01*
X241015098Y-132933964D01*
X241153338Y-133343454D01*
X241289593Y-133789966D01*
X241299082Y-133822903D01*
X241557798Y-134853391D01*
X241734309Y-135846263D01*
X241823646Y-136770998D01*
X241833776Y-137105572D01*
X241822839Y-137613838D01*
X241772876Y-137995557D01*
X241674415Y-138266285D01*
X241517983Y-138441577D01*
X241294109Y-138536988D01*
X240993318Y-138568074D01*
X240943136Y-138568168D01*
X240500012Y-138504849D01*
X239983660Y-138323867D01*
X239399908Y-138029286D01*
X238754579Y-137625170D01*
X238053500Y-137115582D01*
X237302496Y-136504585D01*
X236507392Y-135796243D01*
X235674015Y-134994619D01*
X235346594Y-134664435D01*
X234345233Y-133602181D01*
X233376550Y-132496803D01*
X232460206Y-131373049D01*
X231615860Y-130255670D01*
X230863172Y-129169415D01*
X230396791Y-128433286D01*
X230000664Y-127780143D01*
X229954127Y-126836714D01*
X229926700Y-126418000D01*
X229887310Y-125992430D01*
X229841417Y-125612178D01*
X229798499Y-125349000D01*
X229519243Y-124289550D01*
X229113602Y-123238532D01*
X228597558Y-122232645D01*
X228116010Y-121485147D01*
X227785391Y-121060220D01*
X227373140Y-120590455D01*
X226915246Y-120112645D01*
X226447701Y-119663582D01*
X226006493Y-119280059D01*
X225806000Y-119123621D01*
X225383759Y-118837683D01*
X225001002Y-118650212D01*
X224608243Y-118544993D01*
X224156000Y-118505815D01*
X223919143Y-118505423D01*
X223092201Y-118588174D01*
X222228633Y-118808205D01*
X221333649Y-119163814D01*
X220421289Y-119648043D01*
X220163771Y-119794708D01*
X219950672Y-119904020D01*
X219813923Y-119960140D01*
X219785057Y-119963620D01*
X219722736Y-119898658D01*
X219596700Y-119733308D01*
X219422323Y-119488883D01*
X219214975Y-119186698D01*
X219089399Y-118999000D01*
X218669891Y-118380941D01*
X218280644Y-117843281D01*
X217892155Y-117349865D01*
X217474924Y-116864536D01*
X216999447Y-116351140D01*
X216557684Y-115896303D01*
X215573429Y-114898178D01*
X215206637Y-114898446D01*
%TD*%
D11*
%TO.P,REF\u002A\u002A,1*%
%TO.N,N/C*%
X368300000Y-91440000D03*
%TD*%
%TO.P,REF\u002A\u002A,1*%
%TO.N,N/C*%
X58420000Y-91440000D03*
%TD*%
D12*
%TO.P,REF\u002A\u002A,1*%
%TO.N,N/C*%
X211836000Y-181991000D03*
%TD*%
%TO.P,REF\u002A\u002A,1*%
%TO.N,N/C*%
X211836000Y-76073000D03*
%TD*%
%TO.P,REF\u002A\u002A,1*%
%TO.N,N/C*%
X379476000Y-172212000D03*
%TD*%
%TO.P,REF\u002A\u002A,1*%
%TO.N,N/C*%
X379476000Y-81153000D03*
%TD*%
%TO.P,REF\u002A\u002A,1*%
%TO.N,N/C*%
X47117000Y-81153000D03*
%TD*%
%TO.P,REF\u002A\u002A,1*%
%TO.N,N/C*%
X47117000Y-172212000D03*
%TD*%
D13*
G36*
X247037181Y-66729057D02*
G01*
X247130052Y-66750887D01*
X247142522Y-66754831D01*
X293147858Y-76472685D01*
X293288319Y-76504128D01*
X293350389Y-76511769D01*
X293411562Y-76524772D01*
X293427558Y-76526453D01*
X294019111Y-76584456D01*
X294075405Y-76590000D01*
X381959657Y-76590000D01*
X382383197Y-76631529D01*
X382736403Y-76738168D01*
X383062172Y-76911382D01*
X383348092Y-77144572D01*
X383583277Y-77428861D01*
X383758759Y-77753409D01*
X383867863Y-78105868D01*
X383912000Y-78525798D01*
X383912001Y-174695646D01*
X383870471Y-175119197D01*
X383763832Y-175472403D01*
X383590617Y-175798173D01*
X383357426Y-176084094D01*
X383073139Y-176319277D01*
X382748591Y-176494759D01*
X382396132Y-176603863D01*
X381976202Y-176648000D01*
X300786618Y-176648000D01*
X300724022Y-176642488D01*
X300617200Y-176654127D01*
X300510169Y-176664668D01*
X300450027Y-176682912D01*
X211970050Y-195236391D01*
X211111937Y-195307549D01*
X210238212Y-195247069D01*
X210012440Y-195208892D01*
X142244241Y-181732263D01*
X209209000Y-181732263D01*
X209209000Y-182249737D01*
X209309954Y-182757268D01*
X209507983Y-183235351D01*
X209795476Y-183665615D01*
X210161385Y-184031524D01*
X210591649Y-184319017D01*
X211069732Y-184517046D01*
X211577263Y-184618000D01*
X212094737Y-184618000D01*
X212602268Y-184517046D01*
X213080351Y-184319017D01*
X213510615Y-184031524D01*
X213876524Y-183665615D01*
X214164017Y-183235351D01*
X214362046Y-182757268D01*
X214463000Y-182249737D01*
X214463000Y-181732263D01*
X214362046Y-181224732D01*
X214164017Y-180746649D01*
X213876524Y-180316385D01*
X213510615Y-179950476D01*
X213080351Y-179662983D01*
X212602268Y-179464954D01*
X212094737Y-179364000D01*
X211577263Y-179364000D01*
X211069732Y-179464954D01*
X210591649Y-179662983D01*
X210161385Y-179950476D01*
X209795476Y-180316385D01*
X209507983Y-180746649D01*
X209309954Y-181224732D01*
X209209000Y-181732263D01*
X142244241Y-181732263D01*
X120676233Y-177443171D01*
X120621831Y-177426668D01*
X120565200Y-177421090D01*
X120565183Y-177421087D01*
X120522718Y-177416906D01*
X120452595Y-177410000D01*
X120452566Y-177410000D01*
X120395947Y-177404426D01*
X120339383Y-177410000D01*
X43744343Y-177410000D01*
X43320803Y-177368471D01*
X42967597Y-177261832D01*
X42641827Y-177088617D01*
X42355906Y-176855426D01*
X42120723Y-176571139D01*
X41945241Y-176246591D01*
X41836137Y-175894132D01*
X41792000Y-175474202D01*
X41792000Y-171953263D01*
X44490000Y-171953263D01*
X44490000Y-172470737D01*
X44590954Y-172978268D01*
X44788983Y-173456351D01*
X45076476Y-173886615D01*
X45442385Y-174252524D01*
X45872649Y-174540017D01*
X46350732Y-174738046D01*
X46858263Y-174839000D01*
X47375737Y-174839000D01*
X47883268Y-174738046D01*
X48361351Y-174540017D01*
X48791615Y-174252524D01*
X49157524Y-173886615D01*
X49445017Y-173456351D01*
X49643046Y-172978268D01*
X49744000Y-172470737D01*
X49744000Y-171953263D01*
X376849000Y-171953263D01*
X376849000Y-172470737D01*
X376949954Y-172978268D01*
X377147983Y-173456351D01*
X377435476Y-173886615D01*
X377801385Y-174252524D01*
X378231649Y-174540017D01*
X378709732Y-174738046D01*
X379217263Y-174839000D01*
X379734737Y-174839000D01*
X380242268Y-174738046D01*
X380720351Y-174540017D01*
X381150615Y-174252524D01*
X381516524Y-173886615D01*
X381804017Y-173456351D01*
X382002046Y-172978268D01*
X382103000Y-172470737D01*
X382103000Y-171953263D01*
X382002046Y-171445732D01*
X381804017Y-170967649D01*
X381516524Y-170537385D01*
X381150615Y-170171476D01*
X380720351Y-169883983D01*
X380242268Y-169685954D01*
X379734737Y-169585000D01*
X379217263Y-169585000D01*
X378709732Y-169685954D01*
X378231649Y-169883983D01*
X377801385Y-170171476D01*
X377435476Y-170537385D01*
X377147983Y-170967649D01*
X376949954Y-171445732D01*
X376849000Y-171953263D01*
X49744000Y-171953263D01*
X49643046Y-171445732D01*
X49445017Y-170967649D01*
X49157524Y-170537385D01*
X48791615Y-170171476D01*
X48361351Y-169883983D01*
X47883268Y-169685954D01*
X47375737Y-169585000D01*
X46858263Y-169585000D01*
X46350732Y-169685954D01*
X45872649Y-169883983D01*
X45442385Y-170171476D01*
X45076476Y-170537385D01*
X44788983Y-170967649D01*
X44590954Y-171445732D01*
X44490000Y-171953263D01*
X41792000Y-171953263D01*
X41792000Y-124870387D01*
X73473917Y-126639429D01*
X73473916Y-126872948D01*
X73473916Y-126873015D01*
X73473941Y-128784680D01*
X73473941Y-128784744D01*
X73474041Y-130556754D01*
X73474042Y-130556760D01*
X73474041Y-130556840D01*
X73474258Y-132194651D01*
X73474259Y-132194659D01*
X73474258Y-132194782D01*
X73474633Y-133703867D01*
X73474634Y-133703879D01*
X73474633Y-133704053D01*
X73475205Y-135089885D01*
X73475207Y-135089901D01*
X73475205Y-135090143D01*
X73476017Y-136358193D01*
X73476020Y-136358222D01*
X73476018Y-136358537D01*
X73477109Y-137514278D01*
X73477111Y-137514302D01*
X73477109Y-137514733D01*
X73478521Y-138563637D01*
X73478525Y-138563675D01*
X73478522Y-138564231D01*
X73480295Y-139511770D01*
X73480300Y-139511821D01*
X73480297Y-139512542D01*
X73482471Y-140364190D01*
X73482477Y-140364252D01*
X73482474Y-140365192D01*
X73485091Y-141126418D01*
X73485099Y-141126495D01*
X73485096Y-141127718D01*
X73488197Y-141803997D01*
X73488207Y-141804098D01*
X73488206Y-141805681D01*
X73491830Y-142402485D01*
X73491843Y-142402609D01*
X73491845Y-142404681D01*
X73496034Y-142927482D01*
X73496051Y-142927644D01*
X73496061Y-142930360D01*
X73500856Y-143384630D01*
X73500877Y-143384825D01*
X73500902Y-143388424D01*
X73506343Y-143779637D01*
X73506370Y-143779881D01*
X73506425Y-143784683D01*
X73512553Y-144118309D01*
X73512585Y-144118583D01*
X73512698Y-144125081D01*
X73519554Y-144406591D01*
X73519587Y-144406861D01*
X73519814Y-144415757D01*
X73527438Y-144650627D01*
X73527463Y-144650818D01*
X73527913Y-144663137D01*
X73536346Y-144856838D01*
X73536443Y-144857524D01*
X73536407Y-144858211D01*
X73537224Y-144873995D01*
X73546507Y-145031997D01*
X73547109Y-145035814D01*
X73546984Y-145039689D01*
X73548129Y-145055453D01*
X73558303Y-145183231D01*
X73559701Y-145191040D01*
X73559667Y-145198972D01*
X73561251Y-145214698D01*
X73572356Y-145317724D01*
X73574888Y-145329895D01*
X73575280Y-145342325D01*
X73577427Y-145357984D01*
X73589504Y-145441730D01*
X73593278Y-145457086D01*
X73594436Y-145472856D01*
X73597235Y-145488411D01*
X73610325Y-145558349D01*
X73614554Y-145572905D01*
X73616278Y-145587963D01*
X73619707Y-145603392D01*
X73633850Y-145664996D01*
X73635514Y-145669959D01*
X73636230Y-145675150D01*
X73640016Y-145690495D01*
X73646978Y-145717892D01*
X73654564Y-145738897D01*
X73658792Y-145760827D01*
X73663390Y-145775949D01*
X73759874Y-146085495D01*
X73774464Y-146120013D01*
X73784478Y-146156128D01*
X73790271Y-146170833D01*
X73909342Y-146467056D01*
X73932914Y-146512340D01*
X73951595Y-146559859D01*
X73958884Y-146573884D01*
X74072442Y-146788707D01*
X74080597Y-146801046D01*
X74086552Y-146814578D01*
X74141438Y-146893101D01*
X74194256Y-146973018D01*
X74204647Y-146983532D01*
X74213121Y-146995656D01*
X74223481Y-147007593D01*
X74519723Y-147344170D01*
X74524492Y-147348625D01*
X74528369Y-147353881D01*
X74605207Y-147424017D01*
X74681175Y-147494975D01*
X74686719Y-147498419D01*
X74691543Y-147502822D01*
X74704267Y-147512199D01*
X75092497Y-147794151D01*
X75186730Y-147849413D01*
X75280956Y-147904932D01*
X75282957Y-147905844D01*
X75283071Y-147905911D01*
X75283209Y-147905959D01*
X75295338Y-147911488D01*
X75723648Y-148103143D01*
X75797863Y-148127985D01*
X75870557Y-148157032D01*
X75885767Y-148161330D01*
X75996259Y-148191723D01*
X76024870Y-148196655D01*
X76052487Y-148205654D01*
X76067945Y-148208953D01*
X76157241Y-148227361D01*
X76157490Y-148227387D01*
X76162516Y-148228435D01*
X76390826Y-148274369D01*
X76390907Y-148274377D01*
X76392098Y-148274624D01*
X76756054Y-148347415D01*
X76756083Y-148347418D01*
X76756625Y-148347530D01*
X77252864Y-148446511D01*
X77252883Y-148446513D01*
X77253189Y-148446576D01*
X77878344Y-148571082D01*
X77878353Y-148571083D01*
X77878557Y-148571125D01*
X78629262Y-148720486D01*
X78629276Y-148720487D01*
X78629410Y-148720515D01*
X79502302Y-148894065D01*
X79502308Y-148894066D01*
X79502412Y-148894087D01*
X80494124Y-149091158D01*
X80494132Y-149091159D01*
X80494211Y-149091175D01*
X81601376Y-149311099D01*
X81601378Y-149311099D01*
X81601445Y-149311113D01*
X82820699Y-149553223D01*
X82820706Y-149553224D01*
X82820756Y-149553234D01*
X84148717Y-149816860D01*
X84148782Y-149816873D01*
X85582118Y-150101353D01*
X85582122Y-150101353D01*
X85582159Y-150101361D01*
X87117487Y-150406025D01*
X87117491Y-150406025D01*
X87117523Y-150406032D01*
X88751479Y-150730212D01*
X88751482Y-150730212D01*
X88751510Y-150730218D01*
X90480721Y-151073246D01*
X90480755Y-151073253D01*
X92301868Y-151434463D01*
X92301869Y-151434463D01*
X92301893Y-151434468D01*
X94211527Y-151813190D01*
X94211560Y-151813197D01*
X96206368Y-152208768D01*
X96206371Y-152208768D01*
X96206389Y-152208772D01*
X98282997Y-152620522D01*
X98282998Y-152620522D01*
X98283017Y-152620526D01*
X100438046Y-153047784D01*
X100438078Y-153047791D01*
X102668188Y-153489897D01*
X102668195Y-153489898D01*
X102668206Y-153489900D01*
X104969921Y-153946162D01*
X104970035Y-153946186D01*
X107340186Y-154415978D01*
X107340189Y-154415978D01*
X107340202Y-154415981D01*
X109775325Y-154898614D01*
X109775340Y-154898617D01*
X112272069Y-155393425D01*
X112272072Y-155393425D01*
X112272085Y-155393428D01*
X114827055Y-155899742D01*
X114827061Y-155899743D01*
X114827068Y-155899744D01*
X117436914Y-156416899D01*
X117436929Y-156416902D01*
X120098240Y-156944219D01*
X120098298Y-156944231D01*
X122807782Y-157481059D01*
X122807813Y-157481065D01*
X125562093Y-158026733D01*
X125562101Y-158026734D01*
X125562107Y-158026735D01*
X128357754Y-158580563D01*
X128357813Y-158580575D01*
X131191536Y-159141912D01*
X131191567Y-159141918D01*
X134059990Y-159710093D01*
X134059998Y-159710094D01*
X134059999Y-159710094D01*
X134534484Y-159804076D01*
X134534486Y-159804076D01*
X192617199Y-171308570D01*
X192719521Y-171318609D01*
X192821718Y-171330038D01*
X192837038Y-171330140D01*
X192837071Y-171330143D01*
X192837100Y-171330140D01*
X192837523Y-171330143D01*
X210882238Y-171324064D01*
X228926953Y-171317984D01*
X229028993Y-171307944D01*
X229131222Y-171299332D01*
X229146747Y-171296366D01*
X287095032Y-159805947D01*
X287095038Y-159805945D01*
X289965687Y-159236713D01*
X289965688Y-159236713D01*
X289965702Y-159236710D01*
X292802305Y-158674191D01*
X292802308Y-158674190D01*
X292802319Y-158674188D01*
X295601436Y-158119065D01*
X295601516Y-158119050D01*
X298359909Y-157571967D01*
X298359910Y-157571967D01*
X298359924Y-157571964D01*
X301074153Y-157033604D01*
X301074156Y-157033603D01*
X301074167Y-157033601D01*
X303740861Y-156504633D01*
X303740862Y-156504633D01*
X303740876Y-156504630D01*
X306356663Y-155985723D01*
X306356662Y-155985723D01*
X306356679Y-155985720D01*
X308918186Y-155477544D01*
X308918187Y-155477544D01*
X308918201Y-155477541D01*
X311422023Y-154980773D01*
X311422075Y-154980763D01*
X313864906Y-154496058D01*
X313864911Y-154496056D01*
X313864924Y-154496054D01*
X316243299Y-154024100D01*
X316243378Y-154024085D01*
X318554047Y-153565529D01*
X318554050Y-153565528D01*
X318554066Y-153565525D01*
X320793596Y-153121047D01*
X320793598Y-153121047D01*
X320793616Y-153121043D01*
X322958633Y-152691314D01*
X322958654Y-152691310D01*
X325045788Y-152276998D01*
X325045795Y-152276996D01*
X325045810Y-152276993D01*
X327051578Y-151878791D01*
X327051712Y-151878765D01*
X328972961Y-151497298D01*
X328972968Y-151497296D01*
X328972988Y-151497292D01*
X330806237Y-151133251D01*
X330806239Y-151133250D01*
X330806267Y-151133245D01*
X332548100Y-150787309D01*
X332548177Y-150787294D01*
X334195310Y-150460113D01*
X334195311Y-150460113D01*
X334195346Y-150460106D01*
X335744303Y-150152374D01*
X335744406Y-150152354D01*
X337191933Y-149864714D01*
X337191937Y-149864713D01*
X337191983Y-149864704D01*
X338534649Y-149597838D01*
X338534655Y-149597836D01*
X338534708Y-149597826D01*
X339769141Y-149352404D01*
X339769143Y-149352403D01*
X339769213Y-149352390D01*
X340892040Y-149129082D01*
X340892045Y-149129080D01*
X340892131Y-149129064D01*
X341899983Y-148928537D01*
X341899995Y-148928533D01*
X341900096Y-148928514D01*
X342789599Y-148751440D01*
X342789606Y-148751438D01*
X342789751Y-148751410D01*
X343557533Y-148598458D01*
X343557544Y-148598455D01*
X343557745Y-148598416D01*
X344200433Y-148470256D01*
X344200460Y-148470248D01*
X344200760Y-148470190D01*
X344714983Y-148367490D01*
X344715018Y-148367479D01*
X344715543Y-148367378D01*
X345097928Y-148290808D01*
X345097998Y-148290787D01*
X345099109Y-148290571D01*
X345346286Y-148240802D01*
X345346496Y-148240738D01*
X345350548Y-148239935D01*
X345459142Y-148217635D01*
X345461531Y-148216895D01*
X345464024Y-148216622D01*
X345479469Y-148213266D01*
X345483116Y-148212447D01*
X345546690Y-148191475D01*
X345611706Y-148175466D01*
X345626574Y-148170103D01*
X346084582Y-148001288D01*
X346088587Y-147999349D01*
X346092884Y-147998191D01*
X346188017Y-147951212D01*
X346283431Y-147905018D01*
X346286980Y-147902340D01*
X346290974Y-147900368D01*
X346304336Y-147891927D01*
X346721013Y-147624614D01*
X346727042Y-147619856D01*
X346733827Y-147616270D01*
X346813701Y-147551461D01*
X346894435Y-147487743D01*
X346899421Y-147481909D01*
X346905385Y-147477070D01*
X346916550Y-147465883D01*
X347246462Y-147130683D01*
X347298706Y-147066039D01*
X347354031Y-147003999D01*
X347363259Y-146991167D01*
X347417788Y-146914226D01*
X347450818Y-146856377D01*
X347488250Y-146801262D01*
X347495714Y-146787330D01*
X347611592Y-146567385D01*
X347630904Y-146520021D01*
X347655085Y-146474942D01*
X347661059Y-146460309D01*
X347779943Y-146163225D01*
X347790286Y-146127648D01*
X347805163Y-146093702D01*
X347809959Y-146078641D01*
X347904310Y-145775078D01*
X347909627Y-145749325D01*
X347918713Y-145724645D01*
X347922593Y-145709323D01*
X347937241Y-145649736D01*
X347939052Y-145637183D01*
X347942999Y-145625131D01*
X347946320Y-145609678D01*
X347959896Y-145544305D01*
X347961627Y-145528194D01*
X347966014Y-145512583D01*
X347968675Y-145497004D01*
X347981219Y-145420374D01*
X347982141Y-145406107D01*
X347985469Y-145392195D01*
X347987519Y-145376524D01*
X347999072Y-145283163D01*
X347999327Y-145273125D01*
X348001353Y-145263291D01*
X348002907Y-145247562D01*
X348013509Y-145132000D01*
X348013474Y-145126341D01*
X348014483Y-145120771D01*
X348015660Y-145105009D01*
X348025353Y-144961771D01*
X348025291Y-144959718D01*
X348025622Y-144957689D01*
X348026522Y-144941909D01*
X348035347Y-144765525D01*
X348035343Y-144765439D01*
X348035979Y-144751029D01*
X348043975Y-144536026D01*
X348043960Y-144535774D01*
X348044319Y-144525436D01*
X348051527Y-144266341D01*
X348051507Y-144266062D01*
X348051717Y-144258555D01*
X348058179Y-143949897D01*
X348058159Y-143949639D01*
X348058285Y-143944116D01*
X348064041Y-143580421D01*
X348064023Y-143580204D01*
X348064101Y-143576093D01*
X348069192Y-143151889D01*
X348069177Y-143151717D01*
X348069227Y-143148618D01*
X348073693Y-142658434D01*
X348073680Y-142658293D01*
X348073713Y-142655947D01*
X348077596Y-142094312D01*
X348077586Y-142094203D01*
X348077608Y-142092404D01*
X348080947Y-141453842D01*
X348080938Y-141453746D01*
X348080953Y-141452379D01*
X348083791Y-140731420D01*
X348083785Y-140731351D01*
X348083795Y-140730288D01*
X348086170Y-139921459D01*
X348086165Y-139921402D01*
X348086172Y-139920588D01*
X348088127Y-139018417D01*
X348088124Y-139018381D01*
X348088129Y-139017745D01*
X348089704Y-138016760D01*
X348089700Y-138016720D01*
X348089704Y-138016245D01*
X348090940Y-136910973D01*
X348090938Y-136910953D01*
X348090941Y-136910580D01*
X348091878Y-135695549D01*
X348091876Y-135695528D01*
X348091878Y-135695254D01*
X348092557Y-134364992D01*
X348092556Y-134364977D01*
X348092557Y-134364774D01*
X348093018Y-132913808D01*
X348093017Y-132913797D01*
X348093018Y-132913653D01*
X348093304Y-131336511D01*
X348093303Y-131336504D01*
X348093304Y-131336405D01*
X348093454Y-129627616D01*
X348093454Y-129627550D01*
X348093508Y-127781640D01*
X348093508Y-127781612D01*
X348093512Y-126877896D01*
X348093512Y-126877891D01*
X348093513Y-126873231D01*
X348093511Y-126873215D01*
X348093513Y-126872985D01*
X348093488Y-124961305D01*
X348093488Y-124961256D01*
X348093388Y-123189247D01*
X348093387Y-123189241D01*
X348093388Y-123189161D01*
X348093171Y-121551350D01*
X348093170Y-121551342D01*
X348093171Y-121551219D01*
X348092796Y-120042133D01*
X348092795Y-120042121D01*
X348092796Y-120041947D01*
X348092224Y-118656116D01*
X348092222Y-118656100D01*
X348092224Y-118655858D01*
X348091412Y-117387808D01*
X348091409Y-117387779D01*
X348091411Y-117387465D01*
X348090320Y-116231723D01*
X348090318Y-116231699D01*
X348090320Y-116231268D01*
X348088908Y-115182364D01*
X348088904Y-115182326D01*
X348088907Y-115181770D01*
X348087134Y-114234230D01*
X348087129Y-114234179D01*
X348087132Y-114233459D01*
X348084958Y-113381811D01*
X348084952Y-113381749D01*
X348084955Y-113380809D01*
X348082338Y-112619581D01*
X348082330Y-112619504D01*
X348082333Y-112618282D01*
X348079232Y-111942003D01*
X348079222Y-111941902D01*
X348079223Y-111940320D01*
X348075599Y-111343515D01*
X348075586Y-111343391D01*
X348075584Y-111341319D01*
X348071395Y-110818518D01*
X348071378Y-110818356D01*
X348071368Y-110815640D01*
X348066573Y-110361370D01*
X348066552Y-110361175D01*
X348066527Y-110357576D01*
X348061086Y-109966364D01*
X348061059Y-109966121D01*
X348061004Y-109961317D01*
X348054876Y-109627692D01*
X348054844Y-109627418D01*
X348054731Y-109620920D01*
X348047875Y-109339408D01*
X348047842Y-109339138D01*
X348047615Y-109330243D01*
X348039991Y-109095373D01*
X348039966Y-109095183D01*
X348039516Y-109082862D01*
X348031083Y-108889162D01*
X348030986Y-108888476D01*
X348031022Y-108887789D01*
X348030205Y-108872005D01*
X348020922Y-108714002D01*
X348020320Y-108710185D01*
X348020445Y-108706311D01*
X348019300Y-108690547D01*
X348009126Y-108562768D01*
X348007728Y-108554959D01*
X348007762Y-108547028D01*
X348006178Y-108531303D01*
X347995073Y-108428276D01*
X347992541Y-108416105D01*
X347992149Y-108403674D01*
X347990002Y-108388016D01*
X347977925Y-108304270D01*
X347974151Y-108288913D01*
X347972993Y-108273144D01*
X347970194Y-108257588D01*
X347957104Y-108187651D01*
X347952874Y-108173092D01*
X347951150Y-108158033D01*
X347947721Y-108142604D01*
X347933578Y-108081002D01*
X347931915Y-108076041D01*
X347931199Y-108070852D01*
X347927413Y-108055506D01*
X347920451Y-108028109D01*
X347912865Y-108007104D01*
X347908637Y-107985174D01*
X347904039Y-107970052D01*
X347807555Y-107660506D01*
X347792965Y-107625986D01*
X347782951Y-107589874D01*
X347777158Y-107575168D01*
X347658087Y-107278946D01*
X347634517Y-107233666D01*
X347615834Y-107186141D01*
X347608545Y-107172117D01*
X347494987Y-106957293D01*
X347486832Y-106944954D01*
X347480876Y-106931420D01*
X347425993Y-106852902D01*
X347373173Y-106772983D01*
X347362779Y-106762466D01*
X347354305Y-106750342D01*
X347343945Y-106738405D01*
X347047679Y-106401802D01*
X347042895Y-106397334D01*
X347039009Y-106392065D01*
X346962211Y-106321971D01*
X346886227Y-106250998D01*
X346880666Y-106247543D01*
X346875830Y-106243130D01*
X346863106Y-106233754D01*
X346474866Y-105951815D01*
X346380502Y-105896481D01*
X346286341Y-105841013D01*
X346284401Y-105840129D01*
X346284287Y-105840062D01*
X346284149Y-105840014D01*
X346271959Y-105834458D01*
X345843665Y-105642859D01*
X345769407Y-105618010D01*
X345696689Y-105588967D01*
X345681479Y-105584671D01*
X345571004Y-105554300D01*
X345542238Y-105549346D01*
X345514471Y-105540311D01*
X345499012Y-105537019D01*
X345409703Y-105518648D01*
X345409452Y-105518621D01*
X345404386Y-105517568D01*
X345176051Y-105471739D01*
X345175973Y-105471731D01*
X345174773Y-105471483D01*
X344810780Y-105398862D01*
X344810750Y-105398859D01*
X344810202Y-105398746D01*
X344313919Y-105300001D01*
X344313903Y-105299999D01*
X344313590Y-105299935D01*
X343688382Y-105175729D01*
X343688367Y-105175728D01*
X343688170Y-105175687D01*
X342937405Y-105026687D01*
X342937393Y-105026686D01*
X342937253Y-105026657D01*
X342064299Y-104853531D01*
X342064291Y-104853530D01*
X342064188Y-104853509D01*
X341072410Y-104656920D01*
X341072400Y-104656919D01*
X341072322Y-104656903D01*
X339965088Y-104437519D01*
X339965077Y-104437518D01*
X339965019Y-104437506D01*
X338745738Y-104196001D01*
X338745639Y-104195981D01*
X337417593Y-103933005D01*
X337417585Y-103933004D01*
X337417545Y-103932996D01*
X335984145Y-103649223D01*
X335984141Y-103649223D01*
X335984104Y-103649215D01*
X334448772Y-103345321D01*
X334448679Y-103345302D01*
X332814670Y-103021933D01*
X332814665Y-103021932D01*
X332814638Y-103021927D01*
X331085376Y-102679758D01*
X331085375Y-102679758D01*
X331085346Y-102679752D01*
X329264195Y-102319451D01*
X329264194Y-102319451D01*
X329264170Y-102319446D01*
X327354500Y-101941677D01*
X327354491Y-101941676D01*
X327354476Y-101941673D01*
X325359720Y-101547117D01*
X325359631Y-101547099D01*
X323283023Y-101136395D01*
X323283020Y-101136395D01*
X323283002Y-101136391D01*
X321127973Y-100710218D01*
X321127955Y-100710215D01*
X318897918Y-100269247D01*
X318897857Y-100269235D01*
X316596092Y-99814123D01*
X316596087Y-99814123D01*
X316596075Y-99814120D01*
X314225991Y-99345537D01*
X314225988Y-99345537D01*
X314225975Y-99345534D01*
X311791041Y-98864166D01*
X311790925Y-98864142D01*
X309294325Y-98370621D01*
X309294293Y-98370614D01*
X306739474Y-97865619D01*
X306739442Y-97865612D01*
X304129757Y-97349807D01*
X304129756Y-97349807D01*
X304129742Y-97349804D01*
X301468620Y-96823868D01*
X301468560Y-96823856D01*
X298759294Y-96288440D01*
X298759262Y-96288433D01*
X296005229Y-95744205D01*
X296005221Y-95744204D01*
X296005215Y-95744203D01*
X293209846Y-95191842D01*
X293209787Y-95191830D01*
X290376402Y-94631992D01*
X290376343Y-94631980D01*
X287508314Y-94065334D01*
X287508256Y-94065322D01*
X287067138Y-93978172D01*
X287067136Y-93978172D01*
X272411742Y-91082772D01*
X364673000Y-91082772D01*
X364673000Y-91797228D01*
X364812383Y-92497957D01*
X365085794Y-93158029D01*
X365482725Y-93752078D01*
X365987922Y-94257275D01*
X366581971Y-94654206D01*
X367242043Y-94927617D01*
X367942772Y-95067000D01*
X368657228Y-95067000D01*
X369357957Y-94927617D01*
X370018029Y-94654206D01*
X370612078Y-94257275D01*
X371117275Y-93752078D01*
X371514206Y-93158029D01*
X371787617Y-92497957D01*
X371927000Y-91797228D01*
X371927000Y-91082772D01*
X371787617Y-90382043D01*
X371514206Y-89721971D01*
X371117275Y-89127922D01*
X370612078Y-88622725D01*
X370018029Y-88225794D01*
X369357957Y-87952383D01*
X368657228Y-87813000D01*
X367942772Y-87813000D01*
X367242043Y-87952383D01*
X366581971Y-88225794D01*
X365987922Y-88622725D01*
X365482725Y-89127922D01*
X365085794Y-89721971D01*
X364812383Y-90382043D01*
X364673000Y-91082772D01*
X272411742Y-91082772D01*
X229019157Y-82509895D01*
X228917295Y-82499951D01*
X228815559Y-82488539D01*
X228799754Y-82488429D01*
X192841593Y-82488429D01*
X192739810Y-82498409D01*
X192637850Y-82506915D01*
X192622323Y-82509869D01*
X134537430Y-93978208D01*
X134537377Y-93978218D01*
X131663413Y-94545674D01*
X131663335Y-94545689D01*
X128823441Y-95106453D01*
X128823436Y-95106454D01*
X128823428Y-95106456D01*
X126021033Y-95659851D01*
X126021030Y-95659852D01*
X126021019Y-95659854D01*
X123259582Y-96205196D01*
X123259476Y-96205216D01*
X120542180Y-96741875D01*
X120542179Y-96741875D01*
X120542165Y-96741878D01*
X117872466Y-97269172D01*
X117872461Y-97269173D01*
X117872453Y-97269175D01*
X115253718Y-97786436D01*
X115253717Y-97786436D01*
X115253703Y-97786439D01*
X112689297Y-98293004D01*
X112689296Y-98293004D01*
X112689282Y-98293007D01*
X110182573Y-98788210D01*
X110182572Y-98788210D01*
X110182558Y-98788213D01*
X107736917Y-99271387D01*
X107736895Y-99271391D01*
X105355709Y-99741867D01*
X105355659Y-99741876D01*
X103042234Y-100198999D01*
X103042227Y-100199001D01*
X103042217Y-100199003D01*
X100800011Y-100642090D01*
X100799934Y-100642105D01*
X98632194Y-101070514D01*
X98632192Y-101070515D01*
X98632174Y-101070518D01*
X96542328Y-101483573D01*
X96542307Y-101483577D01*
X94533719Y-101880611D01*
X94533715Y-101880612D01*
X94533695Y-101880616D01*
X92609731Y-102260965D01*
X92609727Y-102260966D01*
X92609707Y-102260970D01*
X90773732Y-102623967D01*
X90773726Y-102623969D01*
X90773704Y-102623973D01*
X89029087Y-102968954D01*
X89029056Y-102968960D01*
X87379161Y-103295258D01*
X87379158Y-103295259D01*
X87379126Y-103295265D01*
X85827319Y-103602216D01*
X85827316Y-103602217D01*
X85827279Y-103602224D01*
X84376926Y-103889162D01*
X84376879Y-103889171D01*
X83031348Y-104155430D01*
X83031347Y-104155430D01*
X83031291Y-104155441D01*
X81793946Y-104400357D01*
X81793935Y-104400360D01*
X81793879Y-104400371D01*
X80668087Y-104623276D01*
X80668078Y-104623279D01*
X80668003Y-104623293D01*
X79657129Y-104823525D01*
X79657122Y-104823527D01*
X79657023Y-104823546D01*
X78764433Y-105000437D01*
X78764420Y-105000441D01*
X78764289Y-105000466D01*
X77993351Y-105153352D01*
X77993346Y-105153354D01*
X77993150Y-105153391D01*
X77347228Y-105281606D01*
X77347201Y-105281614D01*
X77346925Y-105281667D01*
X76829385Y-105384545D01*
X76829355Y-105384554D01*
X76828866Y-105384648D01*
X76443076Y-105461524D01*
X76443008Y-105461545D01*
X76441981Y-105461743D01*
X76191305Y-105511952D01*
X76191114Y-105512010D01*
X76187469Y-105512727D01*
X76075273Y-105535603D01*
X76073625Y-105536111D01*
X76071910Y-105536294D01*
X76056455Y-105539606D01*
X76051524Y-105540700D01*
X75982109Y-105563386D01*
X75911326Y-105581418D01*
X75896502Y-105586900D01*
X75466324Y-105749386D01*
X75463584Y-105750740D01*
X75460635Y-105751552D01*
X75364502Y-105799693D01*
X75268253Y-105847246D01*
X75265829Y-105849105D01*
X75263092Y-105850476D01*
X75249777Y-105858992D01*
X74846254Y-106121049D01*
X74845571Y-106121594D01*
X74844789Y-106122001D01*
X74758804Y-106190861D01*
X74673596Y-106258883D01*
X74673032Y-106259550D01*
X74672343Y-106260102D01*
X74661107Y-106271217D01*
X74336168Y-106597167D01*
X74283559Y-106661417D01*
X74227886Y-106723032D01*
X74218574Y-106735803D01*
X74153941Y-106825750D01*
X74118686Y-106886569D01*
X74079180Y-106944738D01*
X74071716Y-106958670D01*
X73955838Y-107178613D01*
X73936525Y-107225979D01*
X73912344Y-107271058D01*
X73906370Y-107285691D01*
X73787486Y-107582775D01*
X73777143Y-107618354D01*
X73762266Y-107652299D01*
X73757470Y-107667359D01*
X73663119Y-107970924D01*
X73657802Y-107996675D01*
X73648716Y-108021356D01*
X73644836Y-108036678D01*
X73630188Y-108096265D01*
X73628377Y-108108818D01*
X73624431Y-108120867D01*
X73621109Y-108136319D01*
X73607533Y-108201691D01*
X73605801Y-108217811D01*
X73601415Y-108233419D01*
X73598753Y-108248999D01*
X73586209Y-108325630D01*
X73585287Y-108339896D01*
X73581960Y-108353804D01*
X73579910Y-108369476D01*
X73568357Y-108462836D01*
X73568102Y-108472872D01*
X73566075Y-108482711D01*
X73564522Y-108498439D01*
X73553920Y-108614002D01*
X73553955Y-108619659D01*
X73552946Y-108625229D01*
X73551769Y-108640991D01*
X73542076Y-108784228D01*
X73542138Y-108786281D01*
X73541807Y-108788310D01*
X73540907Y-108804090D01*
X73532082Y-108980475D01*
X73532086Y-108980560D01*
X73531450Y-108994970D01*
X73523454Y-109209974D01*
X73523469Y-109210226D01*
X73523110Y-109220564D01*
X73515902Y-109479659D01*
X73515922Y-109479938D01*
X73515712Y-109487445D01*
X73509250Y-109796104D01*
X73509270Y-109796362D01*
X73509144Y-109801884D01*
X73503388Y-110165579D01*
X73503406Y-110165796D01*
X73503328Y-110169907D01*
X73498237Y-110594110D01*
X73498252Y-110594282D01*
X73498202Y-110597382D01*
X73493736Y-111087566D01*
X73493749Y-111087707D01*
X73493716Y-111090053D01*
X73489833Y-111651689D01*
X73489843Y-111651798D01*
X73489821Y-111653596D01*
X73486482Y-112292158D01*
X73486491Y-112292254D01*
X73486476Y-112293621D01*
X73483638Y-113014580D01*
X73483645Y-113014649D01*
X73483634Y-113015713D01*
X73481259Y-113824541D01*
X73481264Y-113824598D01*
X73481257Y-113825412D01*
X73479302Y-114727583D01*
X73479305Y-114727619D01*
X73479300Y-114728255D01*
X73477725Y-115729241D01*
X73477729Y-115729281D01*
X73477725Y-115729756D01*
X73476489Y-116835028D01*
X73476491Y-116835048D01*
X73476488Y-116835421D01*
X73475551Y-118050452D01*
X73475553Y-118050473D01*
X73475551Y-118050747D01*
X73474872Y-119381009D01*
X73474873Y-119381024D01*
X73474872Y-119381227D01*
X73474411Y-120832193D01*
X73474412Y-120832204D01*
X73474411Y-120832348D01*
X73474125Y-122409489D01*
X73474126Y-122409496D01*
X73474125Y-122409595D01*
X73474113Y-122540691D01*
X41792000Y-121952003D01*
X41792000Y-91082772D01*
X54793000Y-91082772D01*
X54793000Y-91797228D01*
X54932383Y-92497957D01*
X55205794Y-93158029D01*
X55602725Y-93752078D01*
X56107922Y-94257275D01*
X56701971Y-94654206D01*
X57362043Y-94927617D01*
X58062772Y-95067000D01*
X58777228Y-95067000D01*
X59477957Y-94927617D01*
X60138029Y-94654206D01*
X60732078Y-94257275D01*
X61237275Y-93752078D01*
X61634206Y-93158029D01*
X61907617Y-92497957D01*
X62047000Y-91797228D01*
X62047000Y-91082772D01*
X61907617Y-90382043D01*
X61634206Y-89721971D01*
X61237275Y-89127922D01*
X60732078Y-88622725D01*
X60138029Y-88225794D01*
X59477957Y-87952383D01*
X58777228Y-87813000D01*
X58062772Y-87813000D01*
X57362043Y-87952383D01*
X56701971Y-88225794D01*
X56107922Y-88622725D01*
X55602725Y-89127922D01*
X55205794Y-89721971D01*
X54932383Y-90382043D01*
X54793000Y-91082772D01*
X41792000Y-91082772D01*
X41792000Y-80894263D01*
X44490000Y-80894263D01*
X44490000Y-81411737D01*
X44590954Y-81919268D01*
X44788983Y-82397351D01*
X45076476Y-82827615D01*
X45442385Y-83193524D01*
X45872649Y-83481017D01*
X46350732Y-83679046D01*
X46858263Y-83780000D01*
X47375737Y-83780000D01*
X47883268Y-83679046D01*
X48361351Y-83481017D01*
X48791615Y-83193524D01*
X49157524Y-82827615D01*
X49445017Y-82397351D01*
X49643046Y-81919268D01*
X49744000Y-81411737D01*
X49744000Y-80894263D01*
X376849000Y-80894263D01*
X376849000Y-81411737D01*
X376949954Y-81919268D01*
X377147983Y-82397351D01*
X377435476Y-82827615D01*
X377801385Y-83193524D01*
X378231649Y-83481017D01*
X378709732Y-83679046D01*
X379217263Y-83780000D01*
X379734737Y-83780000D01*
X380242268Y-83679046D01*
X380720351Y-83481017D01*
X381150615Y-83193524D01*
X381516524Y-82827615D01*
X381804017Y-82397351D01*
X382002046Y-81919268D01*
X382103000Y-81411737D01*
X382103000Y-80894263D01*
X382002046Y-80386732D01*
X381804017Y-79908649D01*
X381516524Y-79478385D01*
X381150615Y-79112476D01*
X380720351Y-78824983D01*
X380242268Y-78626954D01*
X379734737Y-78526000D01*
X379217263Y-78526000D01*
X378709732Y-78626954D01*
X378231649Y-78824983D01*
X377801385Y-79112476D01*
X377435476Y-79478385D01*
X377147983Y-79908649D01*
X376949954Y-80386732D01*
X376849000Y-80894263D01*
X49744000Y-80894263D01*
X49643046Y-80386732D01*
X49445017Y-79908649D01*
X49157524Y-79478385D01*
X48791615Y-79112476D01*
X48361351Y-78824983D01*
X47883268Y-78626954D01*
X47375737Y-78526000D01*
X46858263Y-78526000D01*
X46350732Y-78626954D01*
X45872649Y-78824983D01*
X45442385Y-79112476D01*
X45076476Y-79478385D01*
X44788983Y-79908649D01*
X44590954Y-80386732D01*
X44490000Y-80894263D01*
X41792000Y-80894263D01*
X41792000Y-78288343D01*
X41833529Y-77864803D01*
X41940168Y-77511597D01*
X42113382Y-77185828D01*
X42346572Y-76899908D01*
X42630861Y-76664723D01*
X42955409Y-76489241D01*
X43307868Y-76380137D01*
X43727798Y-76336000D01*
X129850595Y-76336000D01*
X129864812Y-76334600D01*
X129973332Y-76331913D01*
X130035399Y-76324272D01*
X130097902Y-76322050D01*
X130113829Y-76319801D01*
X130681883Y-76235551D01*
X130717628Y-76231550D01*
X132678915Y-75814263D01*
X209209000Y-75814263D01*
X209209000Y-76331737D01*
X209309954Y-76839268D01*
X209507983Y-77317351D01*
X209795476Y-77747615D01*
X210161385Y-78113524D01*
X210591649Y-78401017D01*
X211069732Y-78599046D01*
X211577263Y-78700000D01*
X212094737Y-78700000D01*
X212602268Y-78599046D01*
X213080351Y-78401017D01*
X213510615Y-78113524D01*
X213876524Y-77747615D01*
X214164017Y-77317351D01*
X214362046Y-76839268D01*
X214463000Y-76331737D01*
X214463000Y-75814263D01*
X214362046Y-75306732D01*
X214164017Y-74828649D01*
X213876524Y-74398385D01*
X213510615Y-74032476D01*
X213080351Y-73744983D01*
X212602268Y-73546954D01*
X212094737Y-73446000D01*
X211577263Y-73446000D01*
X211069732Y-73546954D01*
X210591649Y-73744983D01*
X210161385Y-74032476D01*
X209795476Y-74398385D01*
X209507983Y-74828649D01*
X209309954Y-75306732D01*
X209209000Y-75814263D01*
X132678915Y-75814263D01*
X175182598Y-66771106D01*
X175669959Y-66688193D01*
X175788394Y-66684000D01*
X246577657Y-66684000D01*
X247037181Y-66729057D01*
G37*
X247037181Y-66729057D02*
X247130052Y-66750887D01*
X247142522Y-66754831D01*
X293147858Y-76472685D01*
X293288319Y-76504128D01*
X293350389Y-76511769D01*
X293411562Y-76524772D01*
X293427558Y-76526453D01*
X294019111Y-76584456D01*
X294075405Y-76590000D01*
X381959657Y-76590000D01*
X382383197Y-76631529D01*
X382736403Y-76738168D01*
X383062172Y-76911382D01*
X383348092Y-77144572D01*
X383583277Y-77428861D01*
X383758759Y-77753409D01*
X383867863Y-78105868D01*
X383912000Y-78525798D01*
X383912001Y-174695646D01*
X383870471Y-175119197D01*
X383763832Y-175472403D01*
X383590617Y-175798173D01*
X383357426Y-176084094D01*
X383073139Y-176319277D01*
X382748591Y-176494759D01*
X382396132Y-176603863D01*
X381976202Y-176648000D01*
X300786618Y-176648000D01*
X300724022Y-176642488D01*
X300617200Y-176654127D01*
X300510169Y-176664668D01*
X300450027Y-176682912D01*
X211970050Y-195236391D01*
X211111937Y-195307549D01*
X210238212Y-195247069D01*
X210012440Y-195208892D01*
X142244241Y-181732263D01*
X209209000Y-181732263D01*
X209209000Y-182249737D01*
X209309954Y-182757268D01*
X209507983Y-183235351D01*
X209795476Y-183665615D01*
X210161385Y-184031524D01*
X210591649Y-184319017D01*
X211069732Y-184517046D01*
X211577263Y-184618000D01*
X212094737Y-184618000D01*
X212602268Y-184517046D01*
X213080351Y-184319017D01*
X213510615Y-184031524D01*
X213876524Y-183665615D01*
X214164017Y-183235351D01*
X214362046Y-182757268D01*
X214463000Y-182249737D01*
X214463000Y-181732263D01*
X214362046Y-181224732D01*
X214164017Y-180746649D01*
X213876524Y-180316385D01*
X213510615Y-179950476D01*
X213080351Y-179662983D01*
X212602268Y-179464954D01*
X212094737Y-179364000D01*
X211577263Y-179364000D01*
X211069732Y-179464954D01*
X210591649Y-179662983D01*
X210161385Y-179950476D01*
X209795476Y-180316385D01*
X209507983Y-180746649D01*
X209309954Y-181224732D01*
X209209000Y-181732263D01*
X142244241Y-181732263D01*
X120676233Y-177443171D01*
X120621831Y-177426668D01*
X120565200Y-177421090D01*
X120565183Y-177421087D01*
X120522718Y-177416906D01*
X120452595Y-177410000D01*
X120452566Y-177410000D01*
X120395947Y-177404426D01*
X120339383Y-177410000D01*
X43744343Y-177410000D01*
X43320803Y-177368471D01*
X42967597Y-177261832D01*
X42641827Y-177088617D01*
X42355906Y-176855426D01*
X42120723Y-176571139D01*
X41945241Y-176246591D01*
X41836137Y-175894132D01*
X41792000Y-175474202D01*
X41792000Y-171953263D01*
X44490000Y-171953263D01*
X44490000Y-172470737D01*
X44590954Y-172978268D01*
X44788983Y-173456351D01*
X45076476Y-173886615D01*
X45442385Y-174252524D01*
X45872649Y-174540017D01*
X46350732Y-174738046D01*
X46858263Y-174839000D01*
X47375737Y-174839000D01*
X47883268Y-174738046D01*
X48361351Y-174540017D01*
X48791615Y-174252524D01*
X49157524Y-173886615D01*
X49445017Y-173456351D01*
X49643046Y-172978268D01*
X49744000Y-172470737D01*
X49744000Y-171953263D01*
X376849000Y-171953263D01*
X376849000Y-172470737D01*
X376949954Y-172978268D01*
X377147983Y-173456351D01*
X377435476Y-173886615D01*
X377801385Y-174252524D01*
X378231649Y-174540017D01*
X378709732Y-174738046D01*
X379217263Y-174839000D01*
X379734737Y-174839000D01*
X380242268Y-174738046D01*
X380720351Y-174540017D01*
X381150615Y-174252524D01*
X381516524Y-173886615D01*
X381804017Y-173456351D01*
X382002046Y-172978268D01*
X382103000Y-172470737D01*
X382103000Y-171953263D01*
X382002046Y-171445732D01*
X381804017Y-170967649D01*
X381516524Y-170537385D01*
X381150615Y-170171476D01*
X380720351Y-169883983D01*
X380242268Y-169685954D01*
X379734737Y-169585000D01*
X379217263Y-169585000D01*
X378709732Y-169685954D01*
X378231649Y-169883983D01*
X377801385Y-170171476D01*
X377435476Y-170537385D01*
X377147983Y-170967649D01*
X376949954Y-171445732D01*
X376849000Y-171953263D01*
X49744000Y-171953263D01*
X49643046Y-171445732D01*
X49445017Y-170967649D01*
X49157524Y-170537385D01*
X48791615Y-170171476D01*
X48361351Y-169883983D01*
X47883268Y-169685954D01*
X47375737Y-169585000D01*
X46858263Y-169585000D01*
X46350732Y-169685954D01*
X45872649Y-169883983D01*
X45442385Y-170171476D01*
X45076476Y-170537385D01*
X44788983Y-170967649D01*
X44590954Y-171445732D01*
X44490000Y-171953263D01*
X41792000Y-171953263D01*
X41792000Y-124870387D01*
X73473917Y-126639429D01*
X73473916Y-126872948D01*
X73473916Y-126873015D01*
X73473941Y-128784680D01*
X73473941Y-128784744D01*
X73474041Y-130556754D01*
X73474042Y-130556760D01*
X73474041Y-130556840D01*
X73474258Y-132194651D01*
X73474259Y-132194659D01*
X73474258Y-132194782D01*
X73474633Y-133703867D01*
X73474634Y-133703879D01*
X73474633Y-133704053D01*
X73475205Y-135089885D01*
X73475207Y-135089901D01*
X73475205Y-135090143D01*
X73476017Y-136358193D01*
X73476020Y-136358222D01*
X73476018Y-136358537D01*
X73477109Y-137514278D01*
X73477111Y-137514302D01*
X73477109Y-137514733D01*
X73478521Y-138563637D01*
X73478525Y-138563675D01*
X73478522Y-138564231D01*
X73480295Y-139511770D01*
X73480300Y-139511821D01*
X73480297Y-139512542D01*
X73482471Y-140364190D01*
X73482477Y-140364252D01*
X73482474Y-140365192D01*
X73485091Y-141126418D01*
X73485099Y-141126495D01*
X73485096Y-141127718D01*
X73488197Y-141803997D01*
X73488207Y-141804098D01*
X73488206Y-141805681D01*
X73491830Y-142402485D01*
X73491843Y-142402609D01*
X73491845Y-142404681D01*
X73496034Y-142927482D01*
X73496051Y-142927644D01*
X73496061Y-142930360D01*
X73500856Y-143384630D01*
X73500877Y-143384825D01*
X73500902Y-143388424D01*
X73506343Y-143779637D01*
X73506370Y-143779881D01*
X73506425Y-143784683D01*
X73512553Y-144118309D01*
X73512585Y-144118583D01*
X73512698Y-144125081D01*
X73519554Y-144406591D01*
X73519587Y-144406861D01*
X73519814Y-144415757D01*
X73527438Y-144650627D01*
X73527463Y-144650818D01*
X73527913Y-144663137D01*
X73536346Y-144856838D01*
X73536443Y-144857524D01*
X73536407Y-144858211D01*
X73537224Y-144873995D01*
X73546507Y-145031997D01*
X73547109Y-145035814D01*
X73546984Y-145039689D01*
X73548129Y-145055453D01*
X73558303Y-145183231D01*
X73559701Y-145191040D01*
X73559667Y-145198972D01*
X73561251Y-145214698D01*
X73572356Y-145317724D01*
X73574888Y-145329895D01*
X73575280Y-145342325D01*
X73577427Y-145357984D01*
X73589504Y-145441730D01*
X73593278Y-145457086D01*
X73594436Y-145472856D01*
X73597235Y-145488411D01*
X73610325Y-145558349D01*
X73614554Y-145572905D01*
X73616278Y-145587963D01*
X73619707Y-145603392D01*
X73633850Y-145664996D01*
X73635514Y-145669959D01*
X73636230Y-145675150D01*
X73640016Y-145690495D01*
X73646978Y-145717892D01*
X73654564Y-145738897D01*
X73658792Y-145760827D01*
X73663390Y-145775949D01*
X73759874Y-146085495D01*
X73774464Y-146120013D01*
X73784478Y-146156128D01*
X73790271Y-146170833D01*
X73909342Y-146467056D01*
X73932914Y-146512340D01*
X73951595Y-146559859D01*
X73958884Y-146573884D01*
X74072442Y-146788707D01*
X74080597Y-146801046D01*
X74086552Y-146814578D01*
X74141438Y-146893101D01*
X74194256Y-146973018D01*
X74204647Y-146983532D01*
X74213121Y-146995656D01*
X74223481Y-147007593D01*
X74519723Y-147344170D01*
X74524492Y-147348625D01*
X74528369Y-147353881D01*
X74605207Y-147424017D01*
X74681175Y-147494975D01*
X74686719Y-147498419D01*
X74691543Y-147502822D01*
X74704267Y-147512199D01*
X75092497Y-147794151D01*
X75186730Y-147849413D01*
X75280956Y-147904932D01*
X75282957Y-147905844D01*
X75283071Y-147905911D01*
X75283209Y-147905959D01*
X75295338Y-147911488D01*
X75723648Y-148103143D01*
X75797863Y-148127985D01*
X75870557Y-148157032D01*
X75885767Y-148161330D01*
X75996259Y-148191723D01*
X76024870Y-148196655D01*
X76052487Y-148205654D01*
X76067945Y-148208953D01*
X76157241Y-148227361D01*
X76157490Y-148227387D01*
X76162516Y-148228435D01*
X76390826Y-148274369D01*
X76390907Y-148274377D01*
X76392098Y-148274624D01*
X76756054Y-148347415D01*
X76756083Y-148347418D01*
X76756625Y-148347530D01*
X77252864Y-148446511D01*
X77252883Y-148446513D01*
X77253189Y-148446576D01*
X77878344Y-148571082D01*
X77878353Y-148571083D01*
X77878557Y-148571125D01*
X78629262Y-148720486D01*
X78629276Y-148720487D01*
X78629410Y-148720515D01*
X79502302Y-148894065D01*
X79502308Y-148894066D01*
X79502412Y-148894087D01*
X80494124Y-149091158D01*
X80494132Y-149091159D01*
X80494211Y-149091175D01*
X81601376Y-149311099D01*
X81601378Y-149311099D01*
X81601445Y-149311113D01*
X82820699Y-149553223D01*
X82820706Y-149553224D01*
X82820756Y-149553234D01*
X84148717Y-149816860D01*
X84148782Y-149816873D01*
X85582118Y-150101353D01*
X85582122Y-150101353D01*
X85582159Y-150101361D01*
X87117487Y-150406025D01*
X87117491Y-150406025D01*
X87117523Y-150406032D01*
X88751479Y-150730212D01*
X88751482Y-150730212D01*
X88751510Y-150730218D01*
X90480721Y-151073246D01*
X90480755Y-151073253D01*
X92301868Y-151434463D01*
X92301869Y-151434463D01*
X92301893Y-151434468D01*
X94211527Y-151813190D01*
X94211560Y-151813197D01*
X96206368Y-152208768D01*
X96206371Y-152208768D01*
X96206389Y-152208772D01*
X98282997Y-152620522D01*
X98282998Y-152620522D01*
X98283017Y-152620526D01*
X100438046Y-153047784D01*
X100438078Y-153047791D01*
X102668188Y-153489897D01*
X102668195Y-153489898D01*
X102668206Y-153489900D01*
X104969921Y-153946162D01*
X104970035Y-153946186D01*
X107340186Y-154415978D01*
X107340189Y-154415978D01*
X107340202Y-154415981D01*
X109775325Y-154898614D01*
X109775340Y-154898617D01*
X112272069Y-155393425D01*
X112272072Y-155393425D01*
X112272085Y-155393428D01*
X114827055Y-155899742D01*
X114827061Y-155899743D01*
X114827068Y-155899744D01*
X117436914Y-156416899D01*
X117436929Y-156416902D01*
X120098240Y-156944219D01*
X120098298Y-156944231D01*
X122807782Y-157481059D01*
X122807813Y-157481065D01*
X125562093Y-158026733D01*
X125562101Y-158026734D01*
X125562107Y-158026735D01*
X128357754Y-158580563D01*
X128357813Y-158580575D01*
X131191536Y-159141912D01*
X131191567Y-159141918D01*
X134059990Y-159710093D01*
X134059998Y-159710094D01*
X134059999Y-159710094D01*
X134534484Y-159804076D01*
X134534486Y-159804076D01*
X192617199Y-171308570D01*
X192719521Y-171318609D01*
X192821718Y-171330038D01*
X192837038Y-171330140D01*
X192837071Y-171330143D01*
X192837100Y-171330140D01*
X192837523Y-171330143D01*
X210882238Y-171324064D01*
X228926953Y-171317984D01*
X229028993Y-171307944D01*
X229131222Y-171299332D01*
X229146747Y-171296366D01*
X287095032Y-159805947D01*
X287095038Y-159805945D01*
X289965687Y-159236713D01*
X289965688Y-159236713D01*
X289965702Y-159236710D01*
X292802305Y-158674191D01*
X292802308Y-158674190D01*
X292802319Y-158674188D01*
X295601436Y-158119065D01*
X295601516Y-158119050D01*
X298359909Y-157571967D01*
X298359910Y-157571967D01*
X298359924Y-157571964D01*
X301074153Y-157033604D01*
X301074156Y-157033603D01*
X301074167Y-157033601D01*
X303740861Y-156504633D01*
X303740862Y-156504633D01*
X303740876Y-156504630D01*
X306356663Y-155985723D01*
X306356662Y-155985723D01*
X306356679Y-155985720D01*
X308918186Y-155477544D01*
X308918187Y-155477544D01*
X308918201Y-155477541D01*
X311422023Y-154980773D01*
X311422075Y-154980763D01*
X313864906Y-154496058D01*
X313864911Y-154496056D01*
X313864924Y-154496054D01*
X316243299Y-154024100D01*
X316243378Y-154024085D01*
X318554047Y-153565529D01*
X318554050Y-153565528D01*
X318554066Y-153565525D01*
X320793596Y-153121047D01*
X320793598Y-153121047D01*
X320793616Y-153121043D01*
X322958633Y-152691314D01*
X322958654Y-152691310D01*
X325045788Y-152276998D01*
X325045795Y-152276996D01*
X325045810Y-152276993D01*
X327051578Y-151878791D01*
X327051712Y-151878765D01*
X328972961Y-151497298D01*
X328972968Y-151497296D01*
X328972988Y-151497292D01*
X330806237Y-151133251D01*
X330806239Y-151133250D01*
X330806267Y-151133245D01*
X332548100Y-150787309D01*
X332548177Y-150787294D01*
X334195310Y-150460113D01*
X334195311Y-150460113D01*
X334195346Y-150460106D01*
X335744303Y-150152374D01*
X335744406Y-150152354D01*
X337191933Y-149864714D01*
X337191937Y-149864713D01*
X337191983Y-149864704D01*
X338534649Y-149597838D01*
X338534655Y-149597836D01*
X338534708Y-149597826D01*
X339769141Y-149352404D01*
X339769143Y-149352403D01*
X339769213Y-149352390D01*
X340892040Y-149129082D01*
X340892045Y-149129080D01*
X340892131Y-149129064D01*
X341899983Y-148928537D01*
X341899995Y-148928533D01*
X341900096Y-148928514D01*
X342789599Y-148751440D01*
X342789606Y-148751438D01*
X342789751Y-148751410D01*
X343557533Y-148598458D01*
X343557544Y-148598455D01*
X343557745Y-148598416D01*
X344200433Y-148470256D01*
X344200460Y-148470248D01*
X344200760Y-148470190D01*
X344714983Y-148367490D01*
X344715018Y-148367479D01*
X344715543Y-148367378D01*
X345097928Y-148290808D01*
X345097998Y-148290787D01*
X345099109Y-148290571D01*
X345346286Y-148240802D01*
X345346496Y-148240738D01*
X345350548Y-148239935D01*
X345459142Y-148217635D01*
X345461531Y-148216895D01*
X345464024Y-148216622D01*
X345479469Y-148213266D01*
X345483116Y-148212447D01*
X345546690Y-148191475D01*
X345611706Y-148175466D01*
X345626574Y-148170103D01*
X346084582Y-148001288D01*
X346088587Y-147999349D01*
X346092884Y-147998191D01*
X346188017Y-147951212D01*
X346283431Y-147905018D01*
X346286980Y-147902340D01*
X346290974Y-147900368D01*
X346304336Y-147891927D01*
X346721013Y-147624614D01*
X346727042Y-147619856D01*
X346733827Y-147616270D01*
X346813701Y-147551461D01*
X346894435Y-147487743D01*
X346899421Y-147481909D01*
X346905385Y-147477070D01*
X346916550Y-147465883D01*
X347246462Y-147130683D01*
X347298706Y-147066039D01*
X347354031Y-147003999D01*
X347363259Y-146991167D01*
X347417788Y-146914226D01*
X347450818Y-146856377D01*
X347488250Y-146801262D01*
X347495714Y-146787330D01*
X347611592Y-146567385D01*
X347630904Y-146520021D01*
X347655085Y-146474942D01*
X347661059Y-146460309D01*
X347779943Y-146163225D01*
X347790286Y-146127648D01*
X347805163Y-146093702D01*
X347809959Y-146078641D01*
X347904310Y-145775078D01*
X347909627Y-145749325D01*
X347918713Y-145724645D01*
X347922593Y-145709323D01*
X347937241Y-145649736D01*
X347939052Y-145637183D01*
X347942999Y-145625131D01*
X347946320Y-145609678D01*
X347959896Y-145544305D01*
X347961627Y-145528194D01*
X347966014Y-145512583D01*
X347968675Y-145497004D01*
X347981219Y-145420374D01*
X347982141Y-145406107D01*
X347985469Y-145392195D01*
X347987519Y-145376524D01*
X347999072Y-145283163D01*
X347999327Y-145273125D01*
X348001353Y-145263291D01*
X348002907Y-145247562D01*
X348013509Y-145132000D01*
X348013474Y-145126341D01*
X348014483Y-145120771D01*
X348015660Y-145105009D01*
X348025353Y-144961771D01*
X348025291Y-144959718D01*
X348025622Y-144957689D01*
X348026522Y-144941909D01*
X348035347Y-144765525D01*
X348035343Y-144765439D01*
X348035979Y-144751029D01*
X348043975Y-144536026D01*
X348043960Y-144535774D01*
X348044319Y-144525436D01*
X348051527Y-144266341D01*
X348051507Y-144266062D01*
X348051717Y-144258555D01*
X348058179Y-143949897D01*
X348058159Y-143949639D01*
X348058285Y-143944116D01*
X348064041Y-143580421D01*
X348064023Y-143580204D01*
X348064101Y-143576093D01*
X348069192Y-143151889D01*
X348069177Y-143151717D01*
X348069227Y-143148618D01*
X348073693Y-142658434D01*
X348073680Y-142658293D01*
X348073713Y-142655947D01*
X348077596Y-142094312D01*
X348077586Y-142094203D01*
X348077608Y-142092404D01*
X348080947Y-141453842D01*
X348080938Y-141453746D01*
X348080953Y-141452379D01*
X348083791Y-140731420D01*
X348083785Y-140731351D01*
X348083795Y-140730288D01*
X348086170Y-139921459D01*
X348086165Y-139921402D01*
X348086172Y-139920588D01*
X348088127Y-139018417D01*
X348088124Y-139018381D01*
X348088129Y-139017745D01*
X348089704Y-138016760D01*
X348089700Y-138016720D01*
X348089704Y-138016245D01*
X348090940Y-136910973D01*
X348090938Y-136910953D01*
X348090941Y-136910580D01*
X348091878Y-135695549D01*
X348091876Y-135695528D01*
X348091878Y-135695254D01*
X348092557Y-134364992D01*
X348092556Y-134364977D01*
X348092557Y-134364774D01*
X348093018Y-132913808D01*
X348093017Y-132913797D01*
X348093018Y-132913653D01*
X348093304Y-131336511D01*
X348093303Y-131336504D01*
X348093304Y-131336405D01*
X348093454Y-129627616D01*
X348093454Y-129627550D01*
X348093508Y-127781640D01*
X348093508Y-127781612D01*
X348093512Y-126877896D01*
X348093512Y-126877891D01*
X348093513Y-126873231D01*
X348093511Y-126873215D01*
X348093513Y-126872985D01*
X348093488Y-124961305D01*
X348093488Y-124961256D01*
X348093388Y-123189247D01*
X348093387Y-123189241D01*
X348093388Y-123189161D01*
X348093171Y-121551350D01*
X348093170Y-121551342D01*
X348093171Y-121551219D01*
X348092796Y-120042133D01*
X348092795Y-120042121D01*
X348092796Y-120041947D01*
X348092224Y-118656116D01*
X348092222Y-118656100D01*
X348092224Y-118655858D01*
X348091412Y-117387808D01*
X348091409Y-117387779D01*
X348091411Y-117387465D01*
X348090320Y-116231723D01*
X348090318Y-116231699D01*
X348090320Y-116231268D01*
X348088908Y-115182364D01*
X348088904Y-115182326D01*
X348088907Y-115181770D01*
X348087134Y-114234230D01*
X348087129Y-114234179D01*
X348087132Y-114233459D01*
X348084958Y-113381811D01*
X348084952Y-113381749D01*
X348084955Y-113380809D01*
X348082338Y-112619581D01*
X348082330Y-112619504D01*
X348082333Y-112618282D01*
X348079232Y-111942003D01*
X348079222Y-111941902D01*
X348079223Y-111940320D01*
X348075599Y-111343515D01*
X348075586Y-111343391D01*
X348075584Y-111341319D01*
X348071395Y-110818518D01*
X348071378Y-110818356D01*
X348071368Y-110815640D01*
X348066573Y-110361370D01*
X348066552Y-110361175D01*
X348066527Y-110357576D01*
X348061086Y-109966364D01*
X348061059Y-109966121D01*
X348061004Y-109961317D01*
X348054876Y-109627692D01*
X348054844Y-109627418D01*
X348054731Y-109620920D01*
X348047875Y-109339408D01*
X348047842Y-109339138D01*
X348047615Y-109330243D01*
X348039991Y-109095373D01*
X348039966Y-109095183D01*
X348039516Y-109082862D01*
X348031083Y-108889162D01*
X348030986Y-108888476D01*
X348031022Y-108887789D01*
X348030205Y-108872005D01*
X348020922Y-108714002D01*
X348020320Y-108710185D01*
X348020445Y-108706311D01*
X348019300Y-108690547D01*
X348009126Y-108562768D01*
X348007728Y-108554959D01*
X348007762Y-108547028D01*
X348006178Y-108531303D01*
X347995073Y-108428276D01*
X347992541Y-108416105D01*
X347992149Y-108403674D01*
X347990002Y-108388016D01*
X347977925Y-108304270D01*
X347974151Y-108288913D01*
X347972993Y-108273144D01*
X347970194Y-108257588D01*
X347957104Y-108187651D01*
X347952874Y-108173092D01*
X347951150Y-108158033D01*
X347947721Y-108142604D01*
X347933578Y-108081002D01*
X347931915Y-108076041D01*
X347931199Y-108070852D01*
X347927413Y-108055506D01*
X347920451Y-108028109D01*
X347912865Y-108007104D01*
X347908637Y-107985174D01*
X347904039Y-107970052D01*
X347807555Y-107660506D01*
X347792965Y-107625986D01*
X347782951Y-107589874D01*
X347777158Y-107575168D01*
X347658087Y-107278946D01*
X347634517Y-107233666D01*
X347615834Y-107186141D01*
X347608545Y-107172117D01*
X347494987Y-106957293D01*
X347486832Y-106944954D01*
X347480876Y-106931420D01*
X347425993Y-106852902D01*
X347373173Y-106772983D01*
X347362779Y-106762466D01*
X347354305Y-106750342D01*
X347343945Y-106738405D01*
X347047679Y-106401802D01*
X347042895Y-106397334D01*
X347039009Y-106392065D01*
X346962211Y-106321971D01*
X346886227Y-106250998D01*
X346880666Y-106247543D01*
X346875830Y-106243130D01*
X346863106Y-106233754D01*
X346474866Y-105951815D01*
X346380502Y-105896481D01*
X346286341Y-105841013D01*
X346284401Y-105840129D01*
X346284287Y-105840062D01*
X346284149Y-105840014D01*
X346271959Y-105834458D01*
X345843665Y-105642859D01*
X345769407Y-105618010D01*
X345696689Y-105588967D01*
X345681479Y-105584671D01*
X345571004Y-105554300D01*
X345542238Y-105549346D01*
X345514471Y-105540311D01*
X345499012Y-105537019D01*
X345409703Y-105518648D01*
X345409452Y-105518621D01*
X345404386Y-105517568D01*
X345176051Y-105471739D01*
X345175973Y-105471731D01*
X345174773Y-105471483D01*
X344810780Y-105398862D01*
X344810750Y-105398859D01*
X344810202Y-105398746D01*
X344313919Y-105300001D01*
X344313903Y-105299999D01*
X344313590Y-105299935D01*
X343688382Y-105175729D01*
X343688367Y-105175728D01*
X343688170Y-105175687D01*
X342937405Y-105026687D01*
X342937393Y-105026686D01*
X342937253Y-105026657D01*
X342064299Y-104853531D01*
X342064291Y-104853530D01*
X342064188Y-104853509D01*
X341072410Y-104656920D01*
X341072400Y-104656919D01*
X341072322Y-104656903D01*
X339965088Y-104437519D01*
X339965077Y-104437518D01*
X339965019Y-104437506D01*
X338745738Y-104196001D01*
X338745639Y-104195981D01*
X337417593Y-103933005D01*
X337417585Y-103933004D01*
X337417545Y-103932996D01*
X335984145Y-103649223D01*
X335984141Y-103649223D01*
X335984104Y-103649215D01*
X334448772Y-103345321D01*
X334448679Y-103345302D01*
X332814670Y-103021933D01*
X332814665Y-103021932D01*
X332814638Y-103021927D01*
X331085376Y-102679758D01*
X331085375Y-102679758D01*
X331085346Y-102679752D01*
X329264195Y-102319451D01*
X329264194Y-102319451D01*
X329264170Y-102319446D01*
X327354500Y-101941677D01*
X327354491Y-101941676D01*
X327354476Y-101941673D01*
X325359720Y-101547117D01*
X325359631Y-101547099D01*
X323283023Y-101136395D01*
X323283020Y-101136395D01*
X323283002Y-101136391D01*
X321127973Y-100710218D01*
X321127955Y-100710215D01*
X318897918Y-100269247D01*
X318897857Y-100269235D01*
X316596092Y-99814123D01*
X316596087Y-99814123D01*
X316596075Y-99814120D01*
X314225991Y-99345537D01*
X314225988Y-99345537D01*
X314225975Y-99345534D01*
X311791041Y-98864166D01*
X311790925Y-98864142D01*
X309294325Y-98370621D01*
X309294293Y-98370614D01*
X306739474Y-97865619D01*
X306739442Y-97865612D01*
X304129757Y-97349807D01*
X304129756Y-97349807D01*
X304129742Y-97349804D01*
X301468620Y-96823868D01*
X301468560Y-96823856D01*
X298759294Y-96288440D01*
X298759262Y-96288433D01*
X296005229Y-95744205D01*
X296005221Y-95744204D01*
X296005215Y-95744203D01*
X293209846Y-95191842D01*
X293209787Y-95191830D01*
X290376402Y-94631992D01*
X290376343Y-94631980D01*
X287508314Y-94065334D01*
X287508256Y-94065322D01*
X287067138Y-93978172D01*
X287067136Y-93978172D01*
X272411742Y-91082772D01*
X364673000Y-91082772D01*
X364673000Y-91797228D01*
X364812383Y-92497957D01*
X365085794Y-93158029D01*
X365482725Y-93752078D01*
X365987922Y-94257275D01*
X366581971Y-94654206D01*
X367242043Y-94927617D01*
X367942772Y-95067000D01*
X368657228Y-95067000D01*
X369357957Y-94927617D01*
X370018029Y-94654206D01*
X370612078Y-94257275D01*
X371117275Y-93752078D01*
X371514206Y-93158029D01*
X371787617Y-92497957D01*
X371927000Y-91797228D01*
X371927000Y-91082772D01*
X371787617Y-90382043D01*
X371514206Y-89721971D01*
X371117275Y-89127922D01*
X370612078Y-88622725D01*
X370018029Y-88225794D01*
X369357957Y-87952383D01*
X368657228Y-87813000D01*
X367942772Y-87813000D01*
X367242043Y-87952383D01*
X366581971Y-88225794D01*
X365987922Y-88622725D01*
X365482725Y-89127922D01*
X365085794Y-89721971D01*
X364812383Y-90382043D01*
X364673000Y-91082772D01*
X272411742Y-91082772D01*
X229019157Y-82509895D01*
X228917295Y-82499951D01*
X228815559Y-82488539D01*
X228799754Y-82488429D01*
X192841593Y-82488429D01*
X192739810Y-82498409D01*
X192637850Y-82506915D01*
X192622323Y-82509869D01*
X134537430Y-93978208D01*
X134537377Y-93978218D01*
X131663413Y-94545674D01*
X131663335Y-94545689D01*
X128823441Y-95106453D01*
X128823436Y-95106454D01*
X128823428Y-95106456D01*
X126021033Y-95659851D01*
X126021030Y-95659852D01*
X126021019Y-95659854D01*
X123259582Y-96205196D01*
X123259476Y-96205216D01*
X120542180Y-96741875D01*
X120542179Y-96741875D01*
X120542165Y-96741878D01*
X117872466Y-97269172D01*
X117872461Y-97269173D01*
X117872453Y-97269175D01*
X115253718Y-97786436D01*
X115253717Y-97786436D01*
X115253703Y-97786439D01*
X112689297Y-98293004D01*
X112689296Y-98293004D01*
X112689282Y-98293007D01*
X110182573Y-98788210D01*
X110182572Y-98788210D01*
X110182558Y-98788213D01*
X107736917Y-99271387D01*
X107736895Y-99271391D01*
X105355709Y-99741867D01*
X105355659Y-99741876D01*
X103042234Y-100198999D01*
X103042227Y-100199001D01*
X103042217Y-100199003D01*
X100800011Y-100642090D01*
X100799934Y-100642105D01*
X98632194Y-101070514D01*
X98632192Y-101070515D01*
X98632174Y-101070518D01*
X96542328Y-101483573D01*
X96542307Y-101483577D01*
X94533719Y-101880611D01*
X94533715Y-101880612D01*
X94533695Y-101880616D01*
X92609731Y-102260965D01*
X92609727Y-102260966D01*
X92609707Y-102260970D01*
X90773732Y-102623967D01*
X90773726Y-102623969D01*
X90773704Y-102623973D01*
X89029087Y-102968954D01*
X89029056Y-102968960D01*
X87379161Y-103295258D01*
X87379158Y-103295259D01*
X87379126Y-103295265D01*
X85827319Y-103602216D01*
X85827316Y-103602217D01*
X85827279Y-103602224D01*
X84376926Y-103889162D01*
X84376879Y-103889171D01*
X83031348Y-104155430D01*
X83031347Y-104155430D01*
X83031291Y-104155441D01*
X81793946Y-104400357D01*
X81793935Y-104400360D01*
X81793879Y-104400371D01*
X80668087Y-104623276D01*
X80668078Y-104623279D01*
X80668003Y-104623293D01*
X79657129Y-104823525D01*
X79657122Y-104823527D01*
X79657023Y-104823546D01*
X78764433Y-105000437D01*
X78764420Y-105000441D01*
X78764289Y-105000466D01*
X77993351Y-105153352D01*
X77993346Y-105153354D01*
X77993150Y-105153391D01*
X77347228Y-105281606D01*
X77347201Y-105281614D01*
X77346925Y-105281667D01*
X76829385Y-105384545D01*
X76829355Y-105384554D01*
X76828866Y-105384648D01*
X76443076Y-105461524D01*
X76443008Y-105461545D01*
X76441981Y-105461743D01*
X76191305Y-105511952D01*
X76191114Y-105512010D01*
X76187469Y-105512727D01*
X76075273Y-105535603D01*
X76073625Y-105536111D01*
X76071910Y-105536294D01*
X76056455Y-105539606D01*
X76051524Y-105540700D01*
X75982109Y-105563386D01*
X75911326Y-105581418D01*
X75896502Y-105586900D01*
X75466324Y-105749386D01*
X75463584Y-105750740D01*
X75460635Y-105751552D01*
X75364502Y-105799693D01*
X75268253Y-105847246D01*
X75265829Y-105849105D01*
X75263092Y-105850476D01*
X75249777Y-105858992D01*
X74846254Y-106121049D01*
X74845571Y-106121594D01*
X74844789Y-106122001D01*
X74758804Y-106190861D01*
X74673596Y-106258883D01*
X74673032Y-106259550D01*
X74672343Y-106260102D01*
X74661107Y-106271217D01*
X74336168Y-106597167D01*
X74283559Y-106661417D01*
X74227886Y-106723032D01*
X74218574Y-106735803D01*
X74153941Y-106825750D01*
X74118686Y-106886569D01*
X74079180Y-106944738D01*
X74071716Y-106958670D01*
X73955838Y-107178613D01*
X73936525Y-107225979D01*
X73912344Y-107271058D01*
X73906370Y-107285691D01*
X73787486Y-107582775D01*
X73777143Y-107618354D01*
X73762266Y-107652299D01*
X73757470Y-107667359D01*
X73663119Y-107970924D01*
X73657802Y-107996675D01*
X73648716Y-108021356D01*
X73644836Y-108036678D01*
X73630188Y-108096265D01*
X73628377Y-108108818D01*
X73624431Y-108120867D01*
X73621109Y-108136319D01*
X73607533Y-108201691D01*
X73605801Y-108217811D01*
X73601415Y-108233419D01*
X73598753Y-108248999D01*
X73586209Y-108325630D01*
X73585287Y-108339896D01*
X73581960Y-108353804D01*
X73579910Y-108369476D01*
X73568357Y-108462836D01*
X73568102Y-108472872D01*
X73566075Y-108482711D01*
X73564522Y-108498439D01*
X73553920Y-108614002D01*
X73553955Y-108619659D01*
X73552946Y-108625229D01*
X73551769Y-108640991D01*
X73542076Y-108784228D01*
X73542138Y-108786281D01*
X73541807Y-108788310D01*
X73540907Y-108804090D01*
X73532082Y-108980475D01*
X73532086Y-108980560D01*
X73531450Y-108994970D01*
X73523454Y-109209974D01*
X73523469Y-109210226D01*
X73523110Y-109220564D01*
X73515902Y-109479659D01*
X73515922Y-109479938D01*
X73515712Y-109487445D01*
X73509250Y-109796104D01*
X73509270Y-109796362D01*
X73509144Y-109801884D01*
X73503388Y-110165579D01*
X73503406Y-110165796D01*
X73503328Y-110169907D01*
X73498237Y-110594110D01*
X73498252Y-110594282D01*
X73498202Y-110597382D01*
X73493736Y-111087566D01*
X73493749Y-111087707D01*
X73493716Y-111090053D01*
X73489833Y-111651689D01*
X73489843Y-111651798D01*
X73489821Y-111653596D01*
X73486482Y-112292158D01*
X73486491Y-112292254D01*
X73486476Y-112293621D01*
X73483638Y-113014580D01*
X73483645Y-113014649D01*
X73483634Y-113015713D01*
X73481259Y-113824541D01*
X73481264Y-113824598D01*
X73481257Y-113825412D01*
X73479302Y-114727583D01*
X73479305Y-114727619D01*
X73479300Y-114728255D01*
X73477725Y-115729241D01*
X73477729Y-115729281D01*
X73477725Y-115729756D01*
X73476489Y-116835028D01*
X73476491Y-116835048D01*
X73476488Y-116835421D01*
X73475551Y-118050452D01*
X73475553Y-118050473D01*
X73475551Y-118050747D01*
X73474872Y-119381009D01*
X73474873Y-119381024D01*
X73474872Y-119381227D01*
X73474411Y-120832193D01*
X73474412Y-120832204D01*
X73474411Y-120832348D01*
X73474125Y-122409489D01*
X73474126Y-122409496D01*
X73474125Y-122409595D01*
X73474113Y-122540691D01*
X41792000Y-121952003D01*
X41792000Y-91082772D01*
X54793000Y-91082772D01*
X54793000Y-91797228D01*
X54932383Y-92497957D01*
X55205794Y-93158029D01*
X55602725Y-93752078D01*
X56107922Y-94257275D01*
X56701971Y-94654206D01*
X57362043Y-94927617D01*
X58062772Y-95067000D01*
X58777228Y-95067000D01*
X59477957Y-94927617D01*
X60138029Y-94654206D01*
X60732078Y-94257275D01*
X61237275Y-93752078D01*
X61634206Y-93158029D01*
X61907617Y-92497957D01*
X62047000Y-91797228D01*
X62047000Y-91082772D01*
X61907617Y-90382043D01*
X61634206Y-89721971D01*
X61237275Y-89127922D01*
X60732078Y-88622725D01*
X60138029Y-88225794D01*
X59477957Y-87952383D01*
X58777228Y-87813000D01*
X58062772Y-87813000D01*
X57362043Y-87952383D01*
X56701971Y-88225794D01*
X56107922Y-88622725D01*
X55602725Y-89127922D01*
X55205794Y-89721971D01*
X54932383Y-90382043D01*
X54793000Y-91082772D01*
X41792000Y-91082772D01*
X41792000Y-80894263D01*
X44490000Y-80894263D01*
X44490000Y-81411737D01*
X44590954Y-81919268D01*
X44788983Y-82397351D01*
X45076476Y-82827615D01*
X45442385Y-83193524D01*
X45872649Y-83481017D01*
X46350732Y-83679046D01*
X46858263Y-83780000D01*
X47375737Y-83780000D01*
X47883268Y-83679046D01*
X48361351Y-83481017D01*
X48791615Y-83193524D01*
X49157524Y-82827615D01*
X49445017Y-82397351D01*
X49643046Y-81919268D01*
X49744000Y-81411737D01*
X49744000Y-80894263D01*
X376849000Y-80894263D01*
X376849000Y-81411737D01*
X376949954Y-81919268D01*
X377147983Y-82397351D01*
X377435476Y-82827615D01*
X377801385Y-83193524D01*
X378231649Y-83481017D01*
X378709732Y-83679046D01*
X379217263Y-83780000D01*
X379734737Y-83780000D01*
X380242268Y-83679046D01*
X380720351Y-83481017D01*
X381150615Y-83193524D01*
X381516524Y-82827615D01*
X381804017Y-82397351D01*
X382002046Y-81919268D01*
X382103000Y-81411737D01*
X382103000Y-80894263D01*
X382002046Y-80386732D01*
X381804017Y-79908649D01*
X381516524Y-79478385D01*
X381150615Y-79112476D01*
X380720351Y-78824983D01*
X380242268Y-78626954D01*
X379734737Y-78526000D01*
X379217263Y-78526000D01*
X378709732Y-78626954D01*
X378231649Y-78824983D01*
X377801385Y-79112476D01*
X377435476Y-79478385D01*
X377147983Y-79908649D01*
X376949954Y-80386732D01*
X376849000Y-80894263D01*
X49744000Y-80894263D01*
X49643046Y-80386732D01*
X49445017Y-79908649D01*
X49157524Y-79478385D01*
X48791615Y-79112476D01*
X48361351Y-78824983D01*
X47883268Y-78626954D01*
X47375737Y-78526000D01*
X46858263Y-78526000D01*
X46350732Y-78626954D01*
X45872649Y-78824983D01*
X45442385Y-79112476D01*
X45076476Y-79478385D01*
X44788983Y-79908649D01*
X44590954Y-80386732D01*
X44490000Y-80894263D01*
X41792000Y-80894263D01*
X41792000Y-78288343D01*
X41833529Y-77864803D01*
X41940168Y-77511597D01*
X42113382Y-77185828D01*
X42346572Y-76899908D01*
X42630861Y-76664723D01*
X42955409Y-76489241D01*
X43307868Y-76380137D01*
X43727798Y-76336000D01*
X129850595Y-76336000D01*
X129864812Y-76334600D01*
X129973332Y-76331913D01*
X130035399Y-76324272D01*
X130097902Y-76322050D01*
X130113829Y-76319801D01*
X130681883Y-76235551D01*
X130717628Y-76231550D01*
X132678915Y-75814263D01*
X209209000Y-75814263D01*
X209209000Y-76331737D01*
X209309954Y-76839268D01*
X209507983Y-77317351D01*
X209795476Y-77747615D01*
X210161385Y-78113524D01*
X210591649Y-78401017D01*
X211069732Y-78599046D01*
X211577263Y-78700000D01*
X212094737Y-78700000D01*
X212602268Y-78599046D01*
X213080351Y-78401017D01*
X213510615Y-78113524D01*
X213876524Y-77747615D01*
X214164017Y-77317351D01*
X214362046Y-76839268D01*
X214463000Y-76331737D01*
X214463000Y-75814263D01*
X214362046Y-75306732D01*
X214164017Y-74828649D01*
X213876524Y-74398385D01*
X213510615Y-74032476D01*
X213080351Y-73744983D01*
X212602268Y-73546954D01*
X212094737Y-73446000D01*
X211577263Y-73446000D01*
X211069732Y-73546954D01*
X210591649Y-73744983D01*
X210161385Y-74032476D01*
X209795476Y-74398385D01*
X209507983Y-74828649D01*
X209309954Y-75306732D01*
X209209000Y-75814263D01*
X132678915Y-75814263D01*
X175182598Y-66771106D01*
X175669959Y-66688193D01*
X175788394Y-66684000D01*
X246577657Y-66684000D01*
X247037181Y-66729057D01*
G36*
X73474352Y-121157372D02*
G01*
X73474125Y-122409489D01*
X73474126Y-122409496D01*
X73474125Y-122409595D01*
X73473975Y-124118385D01*
X73473975Y-124118451D01*
X73473921Y-125964361D01*
X73473921Y-125964388D01*
X73473916Y-126872972D01*
X73473916Y-126873015D01*
X73473931Y-128043273D01*
X41792000Y-126397458D01*
X41792000Y-119772934D01*
X73474352Y-121157372D01*
G37*
X73474352Y-121157372D02*
X73474125Y-122409489D01*
X73474126Y-122409496D01*
X73474125Y-122409595D01*
X73473975Y-124118385D01*
X73473975Y-124118451D01*
X73473921Y-125964361D01*
X73473921Y-125964388D01*
X73473916Y-126872972D01*
X73473916Y-126873015D01*
X73473931Y-128043273D01*
X41792000Y-126397458D01*
X41792000Y-119772934D01*
X73474352Y-121157372D01*
M02*
