M48
; DRILL file {KiCad (5.1.6)-1} date 08/30/20 21:36:20
; FORMAT={-:-/ absolute / inch / decimal}
; #@! TF.CreationDate,2020-08-30T21:36:20+02:00
; #@! TF.GenerationSoftware,Kicad,Pcbnew,(5.1.6)-1
; #@! TF.FileFunction,NonPlated,1,2,NPTH
FMAT,2
INCH
T1C0.0689
T2C0.1200
T3C0.1570
%
G90
G05
T1
X10.1294Y-6.0241
X10.5206Y-5.9409
X6.2719Y-6.7909
X6.6631Y-6.8741
X3.1Y-5.0175
X3.5Y-5.0175
X13.8225Y-5.7675
X14.2225Y-5.7675
X10.9469Y-3.5516
X11.3381Y-3.4684
X11.75Y-3.4325
X12.15Y-3.4325
X12.2725Y-4.2675
X12.6725Y-4.2675
X9.2694Y-4.6741
X9.6606Y-4.5909
X4.34Y-5.765
X4.74Y-5.765
X4.9419Y-4.9759
X5.3331Y-5.0591
X14.48Y-5.7675
X14.88Y-5.7675
X2.8425Y-6.515
X3.2425Y-6.515
X7.4644Y-7.0434
X7.8556Y-7.1266
X13.96Y-4.2675
X14.36Y-4.2675
X6.3819Y-4.5134
X6.7731Y-4.5966
X5.6469Y-4.3584
X6.0381Y-4.4416
X1.91Y-4.9325
X2.31Y-4.9325
X6.1719Y-3.7009
X6.5631Y-3.7841
X6.4094Y-5.2884
X6.8006Y-5.3716
X10.0019Y-4.5191
X10.3931Y-4.4359
X13.8475Y-5.0175
X14.2475Y-5.0175
X13.985Y-3.515
X14.385Y-3.515
X2.235Y-3.4325
X2.635Y-3.4325
X11.5375Y-4.225
X11.9375Y-4.225
X2.913Y-5.018
X3.313Y-5.018
X8.7469Y-4.0191
X9.1381Y-3.9359
X3.1437Y-3.515
X3.5437Y-3.515
X4.13Y-5.0175
X4.53Y-5.0175
X4.625Y-3.4325
X5.025Y-3.4325
X9.6069Y-5.3716
X9.9981Y-5.2884
X11.0544Y-6.6566
X11.4456Y-6.5734
X10.3419Y-5.2141
X10.7331Y-5.1309
X5.8844Y-5.9434
X6.2756Y-6.0266
X12.4175Y-5.7675
X12.8175Y-5.7675
X8.5344Y-4.8316
X8.9256Y-4.7484
X5.4369Y-3.5459
X5.8281Y-3.6291
X7.1144Y-4.6709
X7.5056Y-4.7541
X4.9144Y-4.2034
X5.3056Y-4.2866
X3.8937Y-3.515
X4.2938Y-3.515
X5.6744Y-5.1309
X6.0656Y-5.2141
X11.8775Y-5.0175
X12.2775Y-5.0175
X11.6675Y-5.7675
X12.0675Y-5.7675
X4.9619Y-6.5734
X5.3531Y-6.6566
X13.235Y-3.515
X13.635Y-3.515
X3.165Y-4.2675
X3.565Y-4.2675
X10.2119Y-3.7091
X10.6031Y-3.6259
X6.9044Y-3.8584
X7.2956Y-3.9416
X8.8744Y-5.5266
X9.2656Y-5.4434
X7.1419Y-5.4434
X7.5331Y-5.5266
X14.1475Y-6.5175
X14.5475Y-6.5175
X6.6194Y-6.0984
X7.0106Y-6.1816
X9.3969Y-6.1816
X9.7881Y-6.0984
X9.4619Y-6.9341
X9.8531Y-6.8509
X2.0725Y-4.1825
X2.4725Y-4.1825
X12.485Y-3.515
X12.885Y-3.515
X11.0744Y-5.0591
X11.4656Y-4.9759
X12.6275Y-5.0175
X13.0275Y-5.0175
X3.1225Y-5.7675
X3.5225Y-5.7675
X8.6644Y-6.3366
X9.0556Y-6.2534
X7.3519Y-6.2534
X7.7431Y-6.3366
X13.45Y-5.7675
X13.85Y-5.7675
X13.6125Y-3.515
X14.0125Y-3.515
X7.6394Y-4.0134
X8.0306Y-4.0966
X9.4794Y-3.8641
X9.8706Y-3.7809
X10.7344Y-4.3641
X11.1256Y-4.2809
X4.1025Y-4.2675
X4.5025Y-4.2675
X5.1519Y-5.7859
X5.5431Y-5.8691
X13.0225Y-4.2675
X13.4225Y-4.2675
X10.8644Y-5.8691
X11.2556Y-5.7859
T2
X9.2562Y-7.2589
X10.1732Y-7.064
X2.8537Y-5.4925
X3.7912Y-5.4925
X13.3438Y-3.24
X14.2812Y-3.24
X5.9518Y-7.004
X6.8688Y-7.1989
X13.5537Y-5.4925
X14.4912Y-5.4925
X13.5787Y-5.2925
X14.5162Y-5.2925
T3
X10.325Y-5.9825
X6.0766Y-6.4171
X6.4675Y-6.8325
X6.9936Y-6.6121
X3.3Y-5.0175
X13.5537Y-6.0925
X14.0225Y-5.7675
X14.4912Y-6.0925
X11.1425Y-3.51
X11.95Y-3.4325
X12.4725Y-4.2675
X9.465Y-4.6325
X4.54Y-5.765
X5.1375Y-5.0175
X14.68Y-5.7675
X3.0425Y-6.515
X7.66Y-7.085
X14.16Y-4.2675
X6.5775Y-4.555
X5.8425Y-4.4
X2.11Y-4.9325
X6.3675Y-3.7425
X6.605Y-5.33
X10.1975Y-4.4775
X13.5787Y-4.6925
X14.0475Y-5.0175
X14.5162Y-4.6925
X14.185Y-3.515
X2.435Y-3.4325
X11.7375Y-4.225
X3.113Y-5.018
X8.9425Y-3.9775
X3.3438Y-3.515
X4.33Y-5.0175
X4.825Y-3.4325
X9.8025Y-5.33
X11.25Y-6.615
X10.5375Y-5.1725
X6.08Y-5.985
X12.6175Y-5.7675
X8.73Y-4.79
X5.6325Y-3.5875
X7.31Y-4.7125
X5.11Y-4.245
X4.0938Y-3.515
X5.87Y-5.1725
X12.0775Y-5.0175
X11.8675Y-5.7675
X5.1575Y-6.615
X13.435Y-3.515
X3.365Y-4.2675
X10.4075Y-3.6675
X7.1Y-3.9
X9.07Y-5.485
X7.3375Y-5.485
X14.3475Y-6.5175
X6.815Y-6.14
X9.5925Y-6.14
X9.1314Y-6.6721
X9.6575Y-6.8925
X10.0484Y-6.4771
X2.2725Y-4.1825
X12.685Y-3.515
X11.27Y-5.0175
X12.8275Y-5.0175
X2.8537Y-6.0925
X3.3225Y-5.7675
X3.7912Y-6.0925
X8.86Y-6.295
X7.5475Y-6.295
X13.65Y-5.7675
X13.3438Y-3.84
X13.8125Y-3.515
X14.2812Y-3.84
X7.835Y-4.055
X9.675Y-3.8225
X10.93Y-4.3225
X4.3025Y-4.2675
X5.3475Y-5.8275
X13.2225Y-4.2675
X11.06Y-5.8275
T0
M30
