M48
; DRILL file {KiCad 5.1.6-c6e7f7d~87~ubuntu18.04.1} date Wed Aug  5 13:03:48 2020
; FORMAT={-:-/ absolute / metric / decimal}
; #@! TF.CreationDate,2020-08-05T13:03:48+02:00
; #@! TF.GenerationSoftware,Kicad,Pcbnew,5.1.6-c6e7f7d~87~ubuntu18.04.1
FMAT,2
METRIC
T1C0.400
T2C0.600
T3C0.800
T4C1.000
T5C1.100
T6C1.470
T7C2.000
T8C1.750
T9C3.048
T10C3.988
%
G90
G05
T1
X161.798Y-77.66
X162.814Y-78.295
X193.103Y-77.025
X158.606Y-74.823
X158.886Y-76.118
X159.437Y-74.646
X159.718Y-75.941
X160.269Y-74.469
X160.549Y-75.764
X161.1Y-74.293
X161.381Y-75.588
X161.932Y-74.116
X162.212Y-75.411
X162.763Y-73.939
X163.043Y-75.234
X163.594Y-73.762
X163.875Y-75.057
X164.431Y-73.585
X164.706Y-74.881
T3
X157.48Y-80.772
X165.1Y-80.772
X207.748Y-66.929
X210.248Y-66.929
X205.486Y-186.563
X207.07Y-179.11
X215.459Y-160.568
X217.043Y-168.021
X162.433Y-160.274
X164.017Y-152.821
X170.243Y-80.899
X180.403Y-80.899
X138.176Y-137.287
X139.76Y-129.834
X330.581Y-90.17
X330.581Y-97.79
X336.423Y-125.857
X336.423Y-133.477
X174.625Y-125.73
X176.209Y-118.277
X118.745Y-113.538
X119.542Y-105.96
X104.521Y-144.907
X104.521Y-152.527
X64.389Y-124.714
X64.389Y-132.334
X307.467Y-107.569
X307.467Y-115.189
X88.138Y-164.211
X88.138Y-171.831
X273.752Y-91.607
X275.336Y-99.06
X217.999Y-103.418
X219.583Y-110.871
X169.291Y-105.346
X170.875Y-97.893
X113.284Y-87.312
X113.284Y-94.932
X170.243Y-70.612
X180.403Y-70.612
X277.054Y-129.707
X278.638Y-137.16
X221.047Y-141.518
X222.631Y-148.971
X194.183Y-149.225
X195.767Y-141.772
X275.403Y-165.394
X276.987Y-172.847
X347.091Y-100.33
X354.711Y-100.33
X249.876Y-116.118
X251.46Y-123.571
X223.587Y-176.189
X225.171Y-183.642
X290.795Y-144.06
X291.592Y-151.638
X157.48Y-83.883
X165.1Y-83.883
X170.243Y-77.47
X180.403Y-77.47
X193.421Y-129.667
X195.005Y-122.214
X234.001Y-156.504
X235.585Y-163.957
X181.102Y-163.957
X182.686Y-156.504
X156.718Y-141.224
X158.302Y-133.771
X293.335Y-87.672
X294.132Y-95.25
X137.414Y-117.856
X138.998Y-110.403
X125.095Y-152.019
X125.892Y-144.441
X97.409Y-125.222
X97.409Y-132.842
X326.39Y-107.569
X326.39Y-115.189
X140.462Y-175.895
X142.046Y-168.442
X236.541Y-99.735
X238.125Y-107.188
X187.897Y-109.41
X189.481Y-101.957
X132.08Y-97.028
X132.877Y-89.45
X72.834Y-87.122
X72.834Y-94.742
X296.51Y-125.518
X297.307Y-133.096
X239.716Y-137.581
X241.3Y-145.034
X207.708Y-88.201
X210.208Y-88.201
X68.58Y-106.172
X68.58Y-113.792
X150.622Y-74.422
X153.122Y-74.422
X184.785Y-69.787
X184.785Y-85.026
X187.325Y-69.787
X187.325Y-85.026
X189.865Y-69.787
X189.865Y-85.026
X192.405Y-69.787
X192.405Y-85.026
X194.945Y-69.787
X194.945Y-85.026
X197.485Y-69.787
X197.485Y-85.026
X200.025Y-69.787
X200.025Y-85.026
X202.565Y-69.787
X202.565Y-85.026
X205.105Y-69.787
X205.105Y-85.026
X207.645Y-69.787
X207.645Y-85.026
X210.185Y-69.787
X210.185Y-85.026
X212.725Y-69.787
X212.725Y-85.026
X215.265Y-69.787
X215.265Y-85.026
X217.805Y-69.787
X217.805Y-85.026
X220.345Y-69.787
X220.345Y-85.026
X222.885Y-69.787
X222.885Y-85.026
X225.425Y-69.787
X225.425Y-85.026
X227.965Y-69.787
X227.965Y-85.026
X230.505Y-69.787
X230.505Y-85.026
X233.045Y-69.787
X233.045Y-85.026
X268.418Y-112.308
X270.002Y-119.761
X310.896Y-144.018
X310.896Y-151.638
X252.543Y-152.44
X254.127Y-159.893
X170.243Y-74.041
X180.403Y-74.041
X239.331Y-74.422
X239.331Y-79.302
X236.744Y-68.961
X241.744Y-68.961
X212.538Y-124.246
X214.122Y-131.699
X199.771Y-168.148
X201.355Y-160.695
X143.891Y-156.083
X145.475Y-148.63
X170.243Y-84.328
X180.403Y-84.328
X175.387Y-145.161
X176.971Y-137.708
X312.864Y-88.138
X312.864Y-95.758
X316.23Y-125.857
X316.23Y-133.477
X252.73Y-80.264
X262.668Y-82.376
X353.441Y-162.306
X353.441Y-169.926
X156.083Y-121.793
X157.667Y-114.34
X119.507Y-133.223
X120.304Y-125.645
X348.869Y-106.68
X348.869Y-114.3
X287.874Y-107.738
X288.671Y-115.316
X182.118Y-181.356
X183.702Y-173.903
X363.347Y-144.018
X363.347Y-151.638
X255.21Y-95.925
X256.794Y-103.378
X206.502Y-113.284
X208.086Y-105.831
X150.558Y-101.155
X152.143Y-93.702
X94.424Y-87.249
X94.424Y-94.869
X258.385Y-133.517
X259.969Y-140.97
X96.393Y-106.045
X96.393Y-113.665
X231.207Y-120.182
X232.791Y-127.635
X271.339Y-148.63
X272.923Y-156.083
X236.681Y-84.772
X241.681Y-84.772
X334.772Y-144.018
X334.772Y-151.638
T4
X145.067Y-74.467
X146.113Y-79.438
T5
X250.778Y-73.744
X251.714Y-69.342
X257.136Y-75.095
X258.072Y-70.693
X260.684Y-75.776
X261.62Y-71.374
X267.042Y-77.127
X267.978Y-72.725
T6
X75.26Y-124.917
X81.61Y-122.377
X222.885Y-99.336
X228.568Y-95.531
X163.87Y-112.42
X170.609Y-111.256
X53.911Y-103.695
X60.261Y-101.155
X100.171Y-86.741
X106.521Y-84.201
X254.762Y-112.036
X260.445Y-108.231
X151.233Y-148.742
X157.973Y-147.578
X332.041Y-105.855
X338.392Y-103.314
X241.046Y-173.377
X246.729Y-169.572
X263.398Y-129.689
X269.081Y-125.884
X106.172Y-124.904
X112.522Y-122.364
X278.765Y-87.462
X284.448Y-83.657
X360.616Y-163.004
X366.966Y-160.464
X276.669Y-146.326
X282.352Y-142.521
X322.008Y-124.904
X328.358Y-122.364
X164.568Y-132.105
X171.308Y-130.941
X158.536Y-91.783
X165.275Y-90.619
X220.789Y-158.201
X226.472Y-154.396
X369.062Y-143.954
X375.412Y-141.415
X182.475Y-116.421
X189.215Y-115.257
X241.49Y-95.399
X247.173Y-91.594
X294.322Y-104.775
X300.673Y-102.235
X127.802Y-164.744
X134.541Y-163.58
X347.027Y-86.741
X353.377Y-84.201
X337.439Y-86.741
X343.789Y-84.201
X105.474Y-105.855
X111.823Y-103.314
X80.01Y-124.904
X86.36Y-122.364
X273.367Y-108.099
X279.05Y-104.294
X195.81Y-99.72
X202.55Y-98.556
X169.902Y-152.679
X176.642Y-151.515
X355.854Y-105.855
X362.204Y-103.314
X145.201Y-108.483
X151.94Y-107.319
X81.121Y-86.741
X87.471Y-84.201
X282.003Y-125.752
X287.686Y-121.947
X127.294Y-124.168
X134.033Y-123.004
X299.72Y-84.645
X306.07Y-82.105
X297.625Y-143.954
X303.974Y-141.415
X111.506Y-143.891
X117.856Y-141.351
X183.174Y-136.042
X189.913Y-134.878
X226.123Y-137.627
X231.806Y-133.822
X239.395Y-154.264
X245.078Y-150.459
X80.581Y-143.954
X86.931Y-141.415
X73.469Y-162.941
X79.819Y-160.401
X161.076Y-170.269
X167.815Y-169.105
X352.996Y-124.904
X359.346Y-122.364
X118.745Y-84.645
X125.095Y-82.105
X352.361Y-143.954
X358.712Y-141.415
X81.661Y-105.855
X88.011Y-103.314
X356.489Y-86.741
X362.839Y-84.201
X236.156Y-115.973
X241.839Y-112.168
X132.628Y-144.742
X139.367Y-143.578
X126.595Y-104.546
X133.335Y-103.382
X342.9Y-143.954
X349.25Y-141.415
X312.991Y-105.855
X319.341Y-103.314
X49.784Y-122.745
X56.134Y-120.206
X260.096Y-91.462
X265.779Y-87.657
X244.729Y-133.69
X250.412Y-129.885
X281.495Y-166.329
X287.178Y-162.524
X258.0Y-150.263
X263.683Y-146.458
X177.141Y-95.783
X183.881Y-94.619
X302.958Y-124.904
X309.308Y-122.364
X145.899Y-128.105
X152.639Y-126.941
X318.389Y-86.741
X324.739Y-84.201
X316.674Y-143.954
X323.024Y-141.415
X58.039Y-84.645
X64.389Y-82.105
X139.867Y-87.846
X146.606Y-86.682
X188.508Y-156.616
X195.247Y-155.452
X191.365Y-176.682
X198.105Y-175.518
X217.487Y-119.974
X223.17Y-116.169
T7
X379.476Y-172.212
X379.476Y-81.153
X47.117Y-81.153
X47.117Y-172.212
X211.899Y-92.329
X211.836Y-77.089
X139.319Y-76.263
X282.067Y-76.263
X211.836Y-181.991
T8
X222.171Y-102.085
X232.108Y-99.972
X162.1Y-114.641
X172.037Y-116.753
X52.642Y-106.236
X62.801Y-106.236
X98.901Y-89.281
X109.061Y-89.281
X254.048Y-114.785
X263.985Y-112.672
X149.463Y-150.963
X159.401Y-153.075
X330.772Y-108.394
X340.931Y-108.394
X240.332Y-176.126
X250.269Y-174.013
X262.684Y-132.438
X272.621Y-130.325
X104.902Y-127.444
X115.062Y-127.444
X278.051Y-90.21
X287.988Y-88.098
X359.346Y-165.544
X369.506Y-165.544
X275.955Y-149.075
X285.893Y-146.962
X320.738Y-127.444
X330.899Y-127.444
X162.798Y-134.326
X172.736Y-136.438
X156.766Y-94.003
X166.703Y-96.116
X220.075Y-160.949
X230.013Y-158.837
X367.792Y-146.494
X377.952Y-146.494
X180.705Y-118.641
X190.643Y-120.754
X240.776Y-98.148
X250.714Y-96.035
X293.053Y-107.315
X303.212Y-107.315
X126.032Y-166.965
X135.969Y-169.077
X345.757Y-89.281
X355.917Y-89.281
X336.169Y-89.281
X346.329Y-89.281
X104.203Y-108.394
X114.363Y-108.394
X78.74Y-127.444
X88.9Y-127.444
X272.653Y-110.848
X282.591Y-108.735
X194.04Y-101.941
X203.978Y-104.053
X168.132Y-154.9
X178.07Y-157.012
X354.584Y-108.394
X364.744Y-108.394
X143.431Y-110.704
X153.368Y-112.816
X79.851Y-89.281
X90.011Y-89.281
X281.289Y-128.501
X291.227Y-126.388
X125.524Y-126.388
X135.461Y-128.501
X298.45Y-87.185
X308.61Y-87.185
X296.354Y-146.494
X306.514Y-146.494
X110.236Y-146.431
X120.396Y-146.431
X181.404Y-138.263
X191.341Y-140.375
X225.409Y-140.375
X235.347Y-138.263
X238.681Y-157.012
X248.618Y-154.9
X79.311Y-146.494
X89.471Y-146.494
X72.2Y-165.481
X82.359Y-165.481
X159.306Y-172.489
X169.243Y-174.602
X351.726Y-127.444
X361.886Y-127.444
X117.475Y-87.185
X127.635Y-87.185
X351.091Y-146.494
X361.251Y-146.494
X80.391Y-108.394
X90.551Y-108.394
X355.219Y-89.281
X365.379Y-89.281
X235.442Y-118.722
X245.38Y-116.609
X130.858Y-146.962
X140.795Y-149.075
X124.825Y-106.767
X134.763Y-108.879
X341.63Y-146.494
X351.79Y-146.494
X311.721Y-108.394
X321.881Y-108.394
X48.514Y-125.285
X58.674Y-125.285
X259.382Y-94.211
X269.319Y-92.098
X244.015Y-136.438
X253.952Y-134.326
X280.781Y-169.077
X290.719Y-166.965
X257.286Y-153.012
X267.224Y-150.899
X175.371Y-98.004
X185.309Y-100.116
X301.688Y-127.444
X311.849Y-127.444
X144.129Y-130.325
X154.067Y-132.438
X317.119Y-89.281
X327.279Y-89.281
X315.404Y-146.494
X325.565Y-146.494
X56.769Y-87.185
X66.929Y-87.185
X138.097Y-90.066
X148.034Y-92.179
X186.738Y-158.837
X196.675Y-160.949
X189.595Y-178.903
X199.533Y-181.015
X216.773Y-122.722
X226.711Y-120.61
X73.99Y-127.457
X84.15Y-127.457
T9
X338.931Y-82.296
X362.744Y-82.296
X72.485Y-139.51
X96.298Y-139.51
X151.176Y-177.902
X174.468Y-182.853
X344.9Y-134.429
X368.713Y-134.429
X344.265Y-139.51
X368.078Y-139.51
X235.107Y-184.377
X258.399Y-179.426
T10
X72.485Y-154.749
X84.391Y-146.494
X96.298Y-154.749
X77.279Y-165.481
X154.345Y-162.995
X164.274Y-173.546
X177.637Y-167.946
X344.9Y-119.189
X356.806Y-127.444
X368.713Y-119.189
X122.555Y-87.185
X344.265Y-154.749
X356.171Y-146.494
X368.078Y-154.749
X85.471Y-108.394
X360.299Y-89.281
X240.411Y-117.665
X135.826Y-148.018
X129.794Y-107.823
X346.71Y-146.494
X316.801Y-108.394
X53.594Y-125.285
X264.351Y-93.154
X248.983Y-135.382
X285.75Y-168.021
X262.255Y-151.956
X180.34Y-99.06
X306.768Y-127.444
X149.098Y-131.381
X322.199Y-89.281
X320.484Y-146.494
X61.849Y-87.185
X143.065Y-91.123
X191.707Y-159.893
X194.564Y-179.959
X221.742Y-121.666
X79.07Y-127.457
X227.139Y-101.028
X167.069Y-115.697
X57.721Y-106.236
X103.981Y-89.281
X259.017Y-113.728
X154.432Y-152.019
X335.851Y-108.394
X231.938Y-169.47
X245.3Y-175.07
X255.23Y-164.519
X267.652Y-131.381
X109.982Y-127.444
X283.019Y-89.154
X364.426Y-165.544
X280.924Y-148.018
X325.818Y-127.444
X167.767Y-135.382
X161.734Y-95.059
X225.044Y-159.893
X372.872Y-146.494
X185.674Y-119.697
X245.745Y-97.091
X298.132Y-107.315
X131.0Y-168.021
X338.931Y-97.536
X350.837Y-89.281
X362.744Y-97.536
X341.249Y-89.281
X109.283Y-108.394
X83.82Y-127.444
X277.622Y-109.791
X199.009Y-102.997
X173.101Y-155.956
X359.664Y-108.394
X148.399Y-111.76
X84.931Y-89.281
X286.258Y-127.444
X130.493Y-127.444
X303.53Y-87.185
X301.435Y-146.494
X115.316Y-146.431
X186.373Y-139.319
X230.378Y-139.319
X243.649Y-155.956
T2
G00X156.742Y-72.525
M15
G01X156.576Y-71.742
M16
G05
G00X157.518Y-76.173
M15
G01X157.206Y-74.706
M16
G05
G00X165.203Y-70.727
M15
G01X165.037Y-69.944
M16
G05
G00X165.979Y-74.375
M15
G01X165.667Y-72.908
M16
G05
T0
M30
