%TF.GenerationSoftware,KiCad,Pcbnew,(5.1.6)-1*%
%TF.CreationDate,2020-09-20T18:38:33+02:00*%
%TF.ProjectId,sesame,73657361-6d65-42e6-9b69-6361645f7063,rev?*%
%TF.SameCoordinates,Original*%
%TF.FileFunction,Soldermask,Bot*%
%TF.FilePolarity,Negative*%
%FSLAX46Y46*%
G04 Gerber Fmt 4.6, Leading zero omitted, Abs format (unit mm)*
G04 Created by KiCad (PCBNEW (5.1.6)-1) date 2020-09-20 18:38:33*
%MOMM*%
%LPD*%
G01*
G04 APERTURE LIST*
%ADD10C,3.100000*%
%ADD11C,1.300000*%
%ADD12C,0.100000*%
%ADD13C,2.350000*%
%ADD14C,4.087800*%
%ADD15C,1.850000*%
%ADD16O,1.800000X1.800000*%
%ADD17R,1.800000X1.800000*%
%ADD18C,3.148000*%
%ADD19O,1.700000X1.700000*%
%ADD20R,1.700000X1.700000*%
%ADD21C,1.600000*%
%ADD22C,2.100000*%
%ADD23C,1.700000*%
G04 APERTURE END LIST*
D10*
%TO.C,REF\u002A\u002A*%
X278955500Y-75565000D03*
%TD*%
D11*
%TO.C,C1*%
X151771721Y-73665632D03*
D12*
G36*
X149803847Y-74748439D02*
G01*
X149533561Y-73476847D01*
X150805153Y-73206561D01*
X151075439Y-74478153D01*
X149803847Y-74748439D01*
G37*
%TD*%
D13*
%TO.C,MX23*%
X189214686Y-115256606D03*
D14*
X185674000Y-119697500D03*
D13*
X182475353Y-116420862D03*
D15*
X180705010Y-118641309D03*
X190642990Y-120753691D03*
%TD*%
D16*
%TO.C,AVR1*%
X215011000Y-66865500D03*
X217551000Y-66865500D03*
X220091000Y-66865500D03*
X222631000Y-66865500D03*
X225171000Y-66865500D03*
D17*
X227711000Y-66865500D03*
%TD*%
D10*
%TO.C,REF\u002A\u002A*%
X142430500Y-75565000D03*
%TD*%
D13*
%TO.C,MX61*%
X358711500Y-141414500D03*
D14*
X356171500Y-146494500D03*
D13*
X352361500Y-143954500D03*
D15*
X351091500Y-146494500D03*
X361251500Y-146494500D03*
D18*
X344265250Y-139509500D03*
X368077750Y-139509500D03*
D14*
X344265250Y-154749500D03*
X368077750Y-154749500D03*
%TD*%
D13*
%TO.C,MX59*%
X349250000Y-141414500D03*
D14*
X346710000Y-146494500D03*
D13*
X342900000Y-143954500D03*
D15*
X341630000Y-146494500D03*
X351790000Y-146494500D03*
%TD*%
D13*
%TO.C,MX31*%
X362204000Y-103314500D03*
D14*
X359664000Y-108394500D03*
D13*
X355854000Y-105854500D03*
D15*
X354584000Y-108394500D03*
X364744000Y-108394500D03*
%TD*%
D13*
%TO.C,MX15*%
X353377500Y-84201000D03*
D14*
X350837500Y-89281000D03*
D13*
X347027500Y-86741000D03*
D15*
X345757500Y-89281000D03*
X355917500Y-89281000D03*
D18*
X338931250Y-82296000D03*
X362743750Y-82296000D03*
D14*
X338931250Y-97536000D03*
X362743750Y-97536000D03*
%TD*%
D13*
%TO.C,MX33*%
X86360000Y-122364500D03*
D14*
X83820000Y-127444500D03*
D13*
X80010000Y-124904500D03*
D15*
X78740000Y-127444500D03*
X88900000Y-127444500D03*
%TD*%
D13*
%TO.C,MX18*%
X88011000Y-103314500D03*
D14*
X85471000Y-108394500D03*
D13*
X81661000Y-105854500D03*
D15*
X80391000Y-108394500D03*
X90551000Y-108394500D03*
%TD*%
D13*
%TO.C,MX69*%
X81610200Y-122377200D03*
D14*
X79070200Y-127457200D03*
D13*
X75260200Y-124917200D03*
D15*
X73990200Y-127457200D03*
X84150200Y-127457200D03*
%TD*%
D19*
%TO.C,D60*%
X334772000Y-144018000D03*
D20*
X334772000Y-151638000D03*
%TD*%
D19*
%TO.C,U1*%
X233045000Y-85026500D03*
X184785000Y-69786500D03*
X230505000Y-85026500D03*
X187325000Y-69786500D03*
X227965000Y-85026500D03*
X189865000Y-69786500D03*
X225425000Y-85026500D03*
X192405000Y-69786500D03*
X222885000Y-85026500D03*
X194945000Y-69786500D03*
X220345000Y-85026500D03*
X197485000Y-69786500D03*
X217805000Y-85026500D03*
X200025000Y-69786500D03*
X215265000Y-85026500D03*
X202565000Y-69786500D03*
X212725000Y-85026500D03*
X205105000Y-69786500D03*
X210185000Y-85026500D03*
X207645000Y-69786500D03*
X207645000Y-85026500D03*
X210185000Y-69786500D03*
X205105000Y-85026500D03*
X212725000Y-69786500D03*
X202565000Y-85026500D03*
X215265000Y-69786500D03*
X200025000Y-85026500D03*
X217805000Y-69786500D03*
X197485000Y-85026500D03*
X220345000Y-69786500D03*
X194945000Y-85026500D03*
X222885000Y-69786500D03*
X192405000Y-85026500D03*
X225425000Y-69786500D03*
X189865000Y-85026500D03*
X227965000Y-69786500D03*
X187325000Y-85026500D03*
X230505000Y-69786500D03*
X184785000Y-85026500D03*
D20*
X233045000Y-69786500D03*
%TD*%
D13*
%TO.C,MX5*%
X146606186Y-86681606D03*
D14*
X143065500Y-91122500D03*
D13*
X139866853Y-87845862D03*
D15*
X138096510Y-90066309D03*
X148034490Y-92178691D03*
%TD*%
D10*
%TO.C,REF\u002A\u002A*%
X211836000Y-181991000D03*
%TD*%
%TO.C,REF\u002A\u002A*%
X379476000Y-172212000D03*
%TD*%
%TO.C,REF\u002A\u002A*%
X379476000Y-81153000D03*
%TD*%
%TO.C,REF\u002A\u002A*%
X47117000Y-81153000D03*
%TD*%
%TO.C,REF\u002A\u002A*%
X47117000Y-172212000D03*
%TD*%
%TO.C,REF\u002A\u002A*%
X211836000Y-77089000D03*
%TD*%
D21*
%TO.C,XTAL1*%
X239331500Y-79302000D03*
X239331500Y-74422000D03*
%TD*%
D13*
%TO.C,MX24*%
X223170304Y-116168914D03*
D14*
X221742000Y-121666000D03*
D13*
X217487162Y-119973649D03*
D15*
X216773010Y-122722191D03*
X226710990Y-120609809D03*
%TD*%
D13*
%TO.C,MX28*%
X300672500Y-102235000D03*
D14*
X298132500Y-107315000D03*
D13*
X294322500Y-104775000D03*
D15*
X293052500Y-107315000D03*
X303212500Y-107315000D03*
%TD*%
D13*
%TO.C,MX66*%
X246728804Y-169572414D03*
D14*
X245300500Y-175069500D03*
D13*
X241045662Y-173377149D03*
D15*
X240331510Y-176125691D03*
X250269490Y-174013309D03*
D18*
X235106693Y-184377310D03*
X258398833Y-179426412D03*
D14*
X231938119Y-169470340D03*
X255230259Y-164519443D03*
%TD*%
D13*
%TO.C,MX65*%
X198104686Y-175518106D03*
D14*
X194564000Y-179959000D03*
D13*
X191365353Y-176682362D03*
D15*
X189595010Y-178902809D03*
X199532990Y-181015191D03*
%TD*%
D13*
%TO.C,MX64*%
X167815186Y-169104606D03*
D14*
X164274500Y-173545500D03*
D13*
X161075853Y-170268862D03*
D15*
X159305510Y-172489309D03*
X169243490Y-174601691D03*
D18*
X151176167Y-177902412D03*
X174468307Y-182853310D03*
D14*
X154344741Y-162995443D03*
X177636881Y-167946340D03*
%TD*%
D13*
%TO.C,MX46*%
X359346500Y-122364500D03*
D14*
X356806500Y-127444500D03*
D13*
X352996500Y-124904500D03*
D15*
X351726500Y-127444500D03*
X361886500Y-127444500D03*
D18*
X344900250Y-134429500D03*
X368712750Y-134429500D03*
D14*
X344900250Y-119189500D03*
X368712750Y-119189500D03*
%TD*%
D13*
%TO.C,MX47*%
X86931500Y-141414500D03*
D14*
X84391500Y-146494500D03*
D13*
X80581500Y-143954500D03*
D15*
X79311500Y-146494500D03*
X89471500Y-146494500D03*
D18*
X72485250Y-139509500D03*
X96297750Y-139509500D03*
D14*
X72485250Y-154749500D03*
X96297750Y-154749500D03*
%TD*%
D13*
%TO.C,MX16*%
X362839000Y-84201000D03*
D14*
X360299000Y-89281000D03*
D13*
X356489000Y-86741000D03*
D15*
X355219000Y-89281000D03*
X365379000Y-89281000D03*
%TD*%
D13*
%TO.C,MX45*%
X343789000Y-84201000D03*
D14*
X341249000Y-89281000D03*
D13*
X337439000Y-86741000D03*
D15*
X336169000Y-89281000D03*
X346329000Y-89281000D03*
%TD*%
D13*
%TO.C,MX68*%
X366966500Y-160464500D03*
D14*
X364426500Y-165544500D03*
D13*
X360616500Y-163004500D03*
D15*
X359346500Y-165544500D03*
X369506500Y-165544500D03*
%TD*%
D13*
%TO.C,MX67*%
X287178304Y-162523914D03*
D14*
X285750000Y-168021000D03*
D13*
X281495162Y-166328649D03*
D15*
X280781010Y-169077191D03*
X290718990Y-166964809D03*
%TD*%
D13*
%TO.C,MX63*%
X134541186Y-163580106D03*
D14*
X131000500Y-168021000D03*
D13*
X127801853Y-164744362D03*
D15*
X126031510Y-166964809D03*
X135969490Y-169077191D03*
%TD*%
D13*
%TO.C,MX62*%
X79819500Y-160401000D03*
D14*
X77279500Y-165481000D03*
D13*
X73469500Y-162941000D03*
D15*
X72199500Y-165481000D03*
X82359500Y-165481000D03*
%TD*%
D13*
%TO.C,MX60*%
X375412000Y-141414500D03*
D14*
X372872000Y-146494500D03*
D13*
X369062000Y-143954500D03*
D15*
X367792000Y-146494500D03*
X377952000Y-146494500D03*
%TD*%
D13*
%TO.C,MX58*%
X323024500Y-141414500D03*
D14*
X320484500Y-146494500D03*
D13*
X316674500Y-143954500D03*
D15*
X315404500Y-146494500D03*
X325564500Y-146494500D03*
%TD*%
D13*
%TO.C,MX57*%
X303974500Y-141414500D03*
D14*
X301434500Y-146494500D03*
D13*
X297624500Y-143954500D03*
D15*
X296354500Y-146494500D03*
X306514500Y-146494500D03*
%TD*%
D13*
%TO.C,MX56*%
X282352304Y-142521414D03*
D14*
X280924000Y-148018500D03*
D13*
X276669162Y-146326149D03*
D15*
X275955010Y-149074691D03*
X285892990Y-146962309D03*
%TD*%
D13*
%TO.C,MX55*%
X263683304Y-146458414D03*
D14*
X262255000Y-151955500D03*
D13*
X258000162Y-150263149D03*
D15*
X257286010Y-153011691D03*
X267223990Y-150899309D03*
%TD*%
D13*
%TO.C,MX54*%
X245077804Y-150458914D03*
D14*
X243649500Y-155956000D03*
D13*
X239394662Y-154263649D03*
D15*
X238680510Y-157012191D03*
X248618490Y-154899809D03*
%TD*%
D13*
%TO.C,MX53*%
X226472304Y-154395914D03*
D14*
X225044000Y-159893000D03*
D13*
X220789162Y-158200649D03*
D15*
X220075010Y-160949191D03*
X230012990Y-158836809D03*
%TD*%
D13*
%TO.C,MX52*%
X195247186Y-155452106D03*
D14*
X191706500Y-159893000D03*
D13*
X188507853Y-156616362D03*
D15*
X186737510Y-158836809D03*
X196675490Y-160949191D03*
%TD*%
D13*
%TO.C,MX51*%
X176641686Y-151515106D03*
D14*
X173101000Y-155956000D03*
D13*
X169902353Y-152679362D03*
D15*
X168132010Y-154899809D03*
X178069990Y-157012191D03*
%TD*%
D13*
%TO.C,MX50*%
X157972686Y-147578106D03*
D14*
X154432000Y-152019000D03*
D13*
X151233353Y-148742362D03*
D15*
X149463010Y-150962809D03*
X159400990Y-153075191D03*
%TD*%
D13*
%TO.C,MX49*%
X139367186Y-143577606D03*
D14*
X135826500Y-148018500D03*
D13*
X132627853Y-144741862D03*
D15*
X130857510Y-146962309D03*
X140795490Y-149074691D03*
%TD*%
D13*
%TO.C,MX48*%
X117856000Y-141351000D03*
D14*
X115316000Y-146431000D03*
D13*
X111506000Y-143891000D03*
D15*
X110236000Y-146431000D03*
X120396000Y-146431000D03*
%TD*%
D13*
%TO.C,MX44*%
X328358500Y-122364500D03*
D14*
X325818500Y-127444500D03*
D13*
X322008500Y-124904500D03*
D15*
X320738500Y-127444500D03*
X330898500Y-127444500D03*
%TD*%
D13*
%TO.C,MX43*%
X309308500Y-122364500D03*
D14*
X306768500Y-127444500D03*
D13*
X302958500Y-124904500D03*
D15*
X301688500Y-127444500D03*
X311848500Y-127444500D03*
%TD*%
D13*
%TO.C,MX42*%
X287686304Y-121947414D03*
D14*
X286258000Y-127444500D03*
D13*
X282003162Y-125752149D03*
D15*
X281289010Y-128500691D03*
X291226990Y-126388309D03*
%TD*%
D13*
%TO.C,MX41*%
X269080804Y-125884414D03*
D14*
X267652500Y-131381500D03*
D13*
X263397662Y-129689149D03*
D15*
X262683510Y-132437691D03*
X272621490Y-130325309D03*
%TD*%
D13*
%TO.C,MX40*%
X250411804Y-129884914D03*
D14*
X248983500Y-135382000D03*
D13*
X244728662Y-133689649D03*
D15*
X244014510Y-136438191D03*
X253952490Y-134325809D03*
%TD*%
D13*
%TO.C,MX39*%
X231806304Y-133821914D03*
D14*
X230378000Y-139319000D03*
D13*
X226123162Y-137626649D03*
D15*
X225409010Y-140375191D03*
X235346990Y-138262809D03*
%TD*%
D13*
%TO.C,MX38*%
X189913186Y-134878106D03*
D14*
X186372500Y-139319000D03*
D13*
X183173853Y-136042362D03*
D15*
X181403510Y-138262809D03*
X191341490Y-140375191D03*
%TD*%
D13*
%TO.C,MX37*%
X171307686Y-130941106D03*
D14*
X167767000Y-135382000D03*
D13*
X164568353Y-132105362D03*
D15*
X162798010Y-134325809D03*
X172735990Y-136438191D03*
%TD*%
D13*
%TO.C,MX36*%
X152638686Y-126940606D03*
D14*
X149098000Y-131381500D03*
D13*
X145899353Y-128104862D03*
D15*
X144129010Y-130325309D03*
X154066990Y-132437691D03*
%TD*%
D13*
%TO.C,MX35*%
X134033186Y-123003606D03*
D14*
X130492500Y-127444500D03*
D13*
X127293853Y-124167862D03*
D15*
X125523510Y-126388309D03*
X135461490Y-128500691D03*
%TD*%
D13*
%TO.C,MX34*%
X112522000Y-122364500D03*
D14*
X109982000Y-127444500D03*
D13*
X106172000Y-124904500D03*
D15*
X104902000Y-127444500D03*
X115062000Y-127444500D03*
%TD*%
D13*
%TO.C,MX32*%
X56134000Y-120205500D03*
D14*
X53594000Y-125285500D03*
D13*
X49784000Y-122745500D03*
D15*
X48514000Y-125285500D03*
X58674000Y-125285500D03*
%TD*%
D13*
%TO.C,MX30*%
X338391500Y-103314500D03*
D14*
X335851500Y-108394500D03*
D13*
X332041500Y-105854500D03*
D15*
X330771500Y-108394500D03*
X340931500Y-108394500D03*
%TD*%
D13*
%TO.C,MX29*%
X319341500Y-103314500D03*
D14*
X316801500Y-108394500D03*
D13*
X312991500Y-105854500D03*
D15*
X311721500Y-108394500D03*
X321881500Y-108394500D03*
%TD*%
D13*
%TO.C,MX27*%
X279050304Y-104294414D03*
D14*
X277622000Y-109791500D03*
D13*
X273367162Y-108099149D03*
D15*
X272653010Y-110847691D03*
X282590990Y-108735309D03*
%TD*%
D13*
%TO.C,MX26*%
X260444804Y-108231414D03*
D14*
X259016500Y-113728500D03*
D13*
X254761662Y-112036149D03*
D15*
X254047510Y-114784691D03*
X263985490Y-112672309D03*
%TD*%
D13*
%TO.C,MX25*%
X241839304Y-112168414D03*
D14*
X240411000Y-117665500D03*
D13*
X236156162Y-115973149D03*
D15*
X235442010Y-118721691D03*
X245379990Y-116609309D03*
%TD*%
D13*
%TO.C,MX22*%
X170609186Y-111256106D03*
D14*
X167068500Y-115697000D03*
D13*
X163869853Y-112420362D03*
D15*
X162099510Y-114640809D03*
X172037490Y-116753191D03*
%TD*%
D13*
%TO.C,MX21*%
X151940186Y-107319106D03*
D14*
X148399500Y-111760000D03*
D13*
X145200853Y-108483362D03*
D15*
X143430510Y-110703809D03*
X153368490Y-112816191D03*
%TD*%
D13*
%TO.C,MX20*%
X133334686Y-103382106D03*
D14*
X129794000Y-107823000D03*
D13*
X126595353Y-104546362D03*
D15*
X124825010Y-106766809D03*
X134762990Y-108879191D03*
%TD*%
D13*
%TO.C,MX19*%
X111823500Y-103314500D03*
D14*
X109283500Y-108394500D03*
D13*
X105473500Y-105854500D03*
D15*
X104203500Y-108394500D03*
X114363500Y-108394500D03*
%TD*%
D13*
%TO.C,MX17*%
X60261500Y-101155500D03*
D14*
X57721500Y-106235500D03*
D13*
X53911500Y-103695500D03*
D15*
X52641500Y-106235500D03*
X62801500Y-106235500D03*
%TD*%
D13*
%TO.C,MX14*%
X324739000Y-84201000D03*
D14*
X322199000Y-89281000D03*
D13*
X318389000Y-86741000D03*
D15*
X317119000Y-89281000D03*
X327279000Y-89281000D03*
%TD*%
D13*
%TO.C,MX13*%
X306070000Y-82105500D03*
D14*
X303530000Y-87185500D03*
D13*
X299720000Y-84645500D03*
D15*
X298450000Y-87185500D03*
X308610000Y-87185500D03*
%TD*%
D13*
%TO.C,MX12*%
X284447804Y-83656914D03*
D14*
X283019500Y-89154000D03*
D13*
X278764662Y-87461649D03*
D15*
X278050510Y-90210191D03*
X287988490Y-88097809D03*
%TD*%
D13*
%TO.C,MX11*%
X265778804Y-87657414D03*
D14*
X264350500Y-93154500D03*
D13*
X260095662Y-91462149D03*
D15*
X259381510Y-94210691D03*
X269319490Y-92098309D03*
%TD*%
D13*
%TO.C,MX10*%
X247173304Y-91594414D03*
D14*
X245745000Y-97091500D03*
D13*
X241490162Y-95399149D03*
D15*
X240776010Y-98147691D03*
X250713990Y-96035309D03*
%TD*%
D13*
%TO.C,MX9*%
X228567804Y-95531414D03*
D14*
X227139500Y-101028500D03*
D13*
X222884662Y-99336149D03*
D15*
X222170510Y-102084691D03*
X232108490Y-99972309D03*
%TD*%
D13*
%TO.C,MX8*%
X202549686Y-98556106D03*
D14*
X199009000Y-102997000D03*
D13*
X195810353Y-99720362D03*
D15*
X194040010Y-101940809D03*
X203977990Y-104053191D03*
%TD*%
D13*
%TO.C,MX7*%
X183880686Y-94619106D03*
D14*
X180340000Y-99060000D03*
D13*
X177141353Y-95783362D03*
D15*
X175371010Y-98003809D03*
X185308990Y-100116191D03*
%TD*%
D13*
%TO.C,MX6*%
X165275186Y-90618606D03*
D14*
X161734500Y-95059500D03*
D13*
X158535853Y-91782862D03*
D15*
X156765510Y-94003309D03*
X166703490Y-96115691D03*
%TD*%
D13*
%TO.C,MX4*%
X125095000Y-82105500D03*
D14*
X122555000Y-87185500D03*
D13*
X118745000Y-84645500D03*
D15*
X117475000Y-87185500D03*
X127635000Y-87185500D03*
%TD*%
D13*
%TO.C,MX3*%
X106521250Y-84201000D03*
D14*
X103981250Y-89281000D03*
D13*
X100171250Y-86741000D03*
D15*
X98901250Y-89281000D03*
X109061250Y-89281000D03*
%TD*%
D13*
%TO.C,MX2*%
X87471250Y-84201000D03*
D14*
X84931250Y-89281000D03*
D13*
X81121250Y-86741000D03*
D15*
X79851250Y-89281000D03*
X90011250Y-89281000D03*
%TD*%
D13*
%TO.C,MX1*%
X64389000Y-82105500D03*
D14*
X61849000Y-87185500D03*
D13*
X58039000Y-84645500D03*
D15*
X56769000Y-87185500D03*
X66929000Y-87185500D03*
%TD*%
%TO.C,USB1*%
G36*
G01*
X163373821Y-74984970D02*
X163446590Y-75327322D01*
G75*
G02*
X163157752Y-75772094I-366805J-77967D01*
G01*
X163157752Y-75772094D01*
G75*
G02*
X162712980Y-75483256I-77967J366805D01*
G01*
X162640210Y-75140904D01*
G75*
G02*
X162929048Y-74696132I366805J77967D01*
G01*
X162929048Y-74696132D01*
G75*
G02*
X163373820Y-74984970I77967J-366805D01*
G01*
G37*
G36*
G01*
X165036671Y-74631520D02*
X165109440Y-74973872D01*
G75*
G02*
X164820602Y-75418644I-366805J-77967D01*
G01*
X164820602Y-75418644D01*
G75*
G02*
X164375830Y-75129806I-77967J366805D01*
G01*
X164303060Y-74787454D01*
G75*
G02*
X164591898Y-74342682I366805J77967D01*
G01*
X164591898Y-74342682D01*
G75*
G02*
X165036670Y-74631520I77967J-366805D01*
G01*
G37*
G36*
G01*
X164205246Y-74808245D02*
X164278015Y-75150597D01*
G75*
G02*
X163989177Y-75595369I-366805J-77967D01*
G01*
X163989177Y-75595369D01*
G75*
G02*
X163544405Y-75306531I-77967J366805D01*
G01*
X163471635Y-74964179D01*
G75*
G02*
X163760473Y-74519407I366805J77967D01*
G01*
X163760473Y-74519407D01*
G75*
G02*
X164205245Y-74808245I77967J-366805D01*
G01*
G37*
G36*
G01*
X162542395Y-75161695D02*
X162615164Y-75504047D01*
G75*
G02*
X162326326Y-75948819I-366805J-77967D01*
G01*
X162326326Y-75948819D01*
G75*
G02*
X161881554Y-75659981I-77967J366805D01*
G01*
X161808784Y-75317629D01*
G75*
G02*
X162097622Y-74872857I366805J77967D01*
G01*
X162097622Y-74872857D01*
G75*
G02*
X162542394Y-75161695I77967J-366805D01*
G01*
G37*
G36*
G01*
X161710970Y-75338420D02*
X161783739Y-75680772D01*
G75*
G02*
X161494901Y-76125544I-366805J-77967D01*
G01*
X161494901Y-76125544D01*
G75*
G02*
X161050129Y-75836706I-77967J366805D01*
G01*
X160977359Y-75494354D01*
G75*
G02*
X161266197Y-75049582I366805J77967D01*
G01*
X161266197Y-75049582D01*
G75*
G02*
X161710969Y-75338420I77967J-366805D01*
G01*
G37*
G36*
G01*
X160879544Y-75515145D02*
X160952313Y-75857497D01*
G75*
G02*
X160663475Y-76302269I-366805J-77967D01*
G01*
X160663475Y-76302269D01*
G75*
G02*
X160218703Y-76013431I-77967J366805D01*
G01*
X160145933Y-75671079D01*
G75*
G02*
X160434771Y-75226307I366805J77967D01*
G01*
X160434771Y-75226307D01*
G75*
G02*
X160879543Y-75515145I77967J-366805D01*
G01*
G37*
G36*
G01*
X160048119Y-75691870D02*
X160120888Y-76034222D01*
G75*
G02*
X159832050Y-76478994I-366805J-77967D01*
G01*
X159832050Y-76478994D01*
G75*
G02*
X159387278Y-76190156I-77967J366805D01*
G01*
X159314508Y-75847804D01*
G75*
G02*
X159603346Y-75403032I366805J77967D01*
G01*
X159603346Y-75403032D01*
G75*
G02*
X160048118Y-75691870I77967J-366805D01*
G01*
G37*
G36*
G01*
X159216693Y-75868595D02*
X159289462Y-76210947D01*
G75*
G02*
X159000624Y-76655719I-366805J-77967D01*
G01*
X159000624Y-76655719D01*
G75*
G02*
X158555852Y-76366881I-77967J366805D01*
G01*
X158483082Y-76024529D01*
G75*
G02*
X158771920Y-75579757I366805J77967D01*
G01*
X158771920Y-75579757D01*
G75*
G02*
X159216692Y-75868595I77967J-366805D01*
G01*
G37*
G36*
G01*
X164761188Y-73335475D02*
X164833957Y-73677827D01*
G75*
G02*
X164545119Y-74122599I-366805J-77967D01*
G01*
X164545119Y-74122599D01*
G75*
G02*
X164100347Y-73833761I-77967J366805D01*
G01*
X164027577Y-73491409D01*
G75*
G02*
X164316415Y-73046637I366805J77967D01*
G01*
X164316415Y-73046637D01*
G75*
G02*
X164761187Y-73335475I77967J-366805D01*
G01*
G37*
G36*
G01*
X163924872Y-73513239D02*
X163997641Y-73855591D01*
G75*
G02*
X163708803Y-74300363I-366805J-77967D01*
G01*
X163708803Y-74300363D01*
G75*
G02*
X163264031Y-74011525I-77967J366805D01*
G01*
X163191261Y-73669173D01*
G75*
G02*
X163480099Y-73224401I366805J77967D01*
G01*
X163480099Y-73224401D01*
G75*
G02*
X163924871Y-73513239I77967J-366805D01*
G01*
G37*
G36*
G01*
X163093447Y-73689964D02*
X163166216Y-74032316D01*
G75*
G02*
X162877378Y-74477088I-366805J-77967D01*
G01*
X162877378Y-74477088D01*
G75*
G02*
X162432606Y-74188250I-77967J366805D01*
G01*
X162359836Y-73845898D01*
G75*
G02*
X162648674Y-73401126I366805J77967D01*
G01*
X162648674Y-73401126D01*
G75*
G02*
X163093446Y-73689964I77967J-366805D01*
G01*
G37*
G36*
G01*
X162262021Y-73866689D02*
X162334790Y-74209041D01*
G75*
G02*
X162045952Y-74653813I-366805J-77967D01*
G01*
X162045952Y-74653813D01*
G75*
G02*
X161601180Y-74364975I-77967J366805D01*
G01*
X161528410Y-74022623D01*
G75*
G02*
X161817248Y-73577851I366805J77967D01*
G01*
X161817248Y-73577851D01*
G75*
G02*
X162262020Y-73866689I77967J-366805D01*
G01*
G37*
G36*
G01*
X161430596Y-74043414D02*
X161503365Y-74385766D01*
G75*
G02*
X161214527Y-74830538I-366805J-77967D01*
G01*
X161214527Y-74830538D01*
G75*
G02*
X160769755Y-74541700I-77967J366805D01*
G01*
X160696985Y-74199348D01*
G75*
G02*
X160985823Y-73754576I366805J77967D01*
G01*
X160985823Y-73754576D01*
G75*
G02*
X161430595Y-74043414I77967J-366805D01*
G01*
G37*
G36*
G01*
X160599170Y-74220139D02*
X160671939Y-74562491D01*
G75*
G02*
X160383101Y-75007263I-366805J-77967D01*
G01*
X160383101Y-75007263D01*
G75*
G02*
X159938329Y-74718425I-77967J366805D01*
G01*
X159865559Y-74376073D01*
G75*
G02*
X160154397Y-73931301I366805J77967D01*
G01*
X160154397Y-73931301D01*
G75*
G02*
X160599169Y-74220139I77967J-366805D01*
G01*
G37*
G36*
G01*
X159767745Y-74396864D02*
X159840514Y-74739216D01*
G75*
G02*
X159551676Y-75183988I-366805J-77967D01*
G01*
X159551676Y-75183988D01*
G75*
G02*
X159106904Y-74895150I-77967J366805D01*
G01*
X159034134Y-74552798D01*
G75*
G02*
X159322972Y-74108026I366805J77967D01*
G01*
X159322972Y-74108026D01*
G75*
G02*
X159767744Y-74396864I77967J-366805D01*
G01*
G37*
G36*
G01*
X158936319Y-74573589D02*
X159009088Y-74915941D01*
G75*
G02*
X158720250Y-75360713I-366805J-77967D01*
G01*
X158720250Y-75360713D01*
G75*
G02*
X158275478Y-75071875I-77967J366805D01*
G01*
X158202708Y-74729523D01*
G75*
G02*
X158491546Y-74284751I366805J77967D01*
G01*
X158491546Y-74284751D01*
G75*
G02*
X158936318Y-74573589I77967J-366805D01*
G01*
G37*
G36*
G01*
X166156136Y-72803831D02*
X166468004Y-74271053D01*
G75*
G02*
X166082886Y-74864083I-489074J-103956D01*
G01*
X166082886Y-74864083D01*
G75*
G02*
X165489856Y-74478965I-103956J489074D01*
G01*
X165177988Y-73011743D01*
G75*
G02*
X165563106Y-72418713I489074J103956D01*
G01*
X165563106Y-72418713D01*
G75*
G02*
X166156136Y-72803831I103956J-489074D01*
G01*
G37*
G36*
G01*
X157695159Y-74602267D02*
X158007027Y-76069489D01*
G75*
G02*
X157621909Y-76662519I-489074J-103956D01*
G01*
X157621909Y-76662519D01*
G75*
G02*
X157028879Y-76277401I-103956J489074D01*
G01*
X156717011Y-74810179D01*
G75*
G02*
X157102129Y-74217149I489074J103956D01*
G01*
X157102129Y-74217149D01*
G75*
G02*
X157695159Y-74602267I103956J-489074D01*
G01*
G37*
G36*
G01*
X165526164Y-69840044D02*
X165692494Y-70622562D01*
G75*
G02*
X165307376Y-71215592I-489074J-103956D01*
G01*
X165307376Y-71215592D01*
G75*
G02*
X164714346Y-70830474I-103956J489074D01*
G01*
X164548016Y-70047956D01*
G75*
G02*
X164933134Y-69454926I489074J103956D01*
G01*
X164933134Y-69454926D01*
G75*
G02*
X165526164Y-69840044I103956J-489074D01*
G01*
G37*
G36*
G01*
X157065187Y-71638480D02*
X157231517Y-72420998D01*
G75*
G02*
X156846399Y-73014028I-489074J-103956D01*
G01*
X156846399Y-73014028D01*
G75*
G02*
X156253369Y-72628910I-103956J489074D01*
G01*
X156087039Y-71846392D01*
G75*
G02*
X156472157Y-71253362I489074J103956D01*
G01*
X156472157Y-71253362D01*
G75*
G02*
X157065187Y-71638480I103956J-489074D01*
G01*
G37*
%TD*%
D22*
%TO.C,Reset1*%
X267977959Y-72725426D03*
X267042357Y-77127090D03*
X261620000Y-71374000D03*
X260684397Y-75775664D03*
%TD*%
%TO.C,R6*%
G36*
G01*
X261836555Y-82199658D02*
X261836555Y-82199658D01*
G75*
G02*
X262844705Y-81544958I831425J-176725D01*
G01*
X262844705Y-81544958D01*
G75*
G02*
X263499405Y-82553108I-176725J-831425D01*
G01*
X263499405Y-82553108D01*
G75*
G02*
X262491255Y-83207808I-831425J176725D01*
G01*
X262491255Y-83207808D01*
G75*
G02*
X261836555Y-82199658I176725J831425D01*
G01*
G37*
D23*
X252730000Y-80264000D03*
%TD*%
D19*
%TO.C,R5*%
X180403500Y-70612000D03*
D23*
X170243500Y-70612000D03*
%TD*%
D19*
%TO.C,R4*%
X180403500Y-74041000D03*
D23*
X170243500Y-74041000D03*
%TD*%
D19*
%TO.C,R3*%
X180403500Y-80899000D03*
D23*
X170243500Y-80899000D03*
%TD*%
D19*
%TO.C,R2*%
X180403500Y-77470000D03*
D23*
X170243500Y-77470000D03*
%TD*%
D19*
%TO.C,R1*%
X180403500Y-84328000D03*
D23*
X170243500Y-84328000D03*
%TD*%
D22*
%TO.C,F1*%
X152794911Y-79043973D03*
X147828000Y-77978000D03*
%TD*%
D19*
%TO.C,D68*%
X353441000Y-162306000D03*
D20*
X353441000Y-169926000D03*
%TD*%
%TO.C,D67*%
G36*
G01*
X275579438Y-166224940D02*
X275579438Y-166224940D01*
G75*
G02*
X274571288Y-165570240I-176725J831425D01*
G01*
X274571288Y-165570240D01*
G75*
G02*
X275225988Y-164562090I831425J176725D01*
G01*
X275225988Y-164562090D01*
G75*
G02*
X276234138Y-165216790I176725J-831425D01*
G01*
X276234138Y-165216790D01*
G75*
G02*
X275579438Y-166224940I-831425J-176725D01*
G01*
G37*
D12*
G36*
X277995150Y-173501701D02*
G01*
X276332299Y-173855150D01*
X275978850Y-172192299D01*
X277641701Y-171838850D01*
X277995150Y-173501701D01*
G37*
%TD*%
%TO.C,D66*%
G36*
G01*
X223763438Y-177019940D02*
X223763438Y-177019940D01*
G75*
G02*
X222755288Y-176365240I-176725J831425D01*
G01*
X222755288Y-176365240D01*
G75*
G02*
X223409988Y-175357090I831425J176725D01*
G01*
X223409988Y-175357090D01*
G75*
G02*
X224418138Y-176011790I176725J-831425D01*
G01*
X224418138Y-176011790D01*
G75*
G02*
X223763438Y-177019940I-831425J-176725D01*
G01*
G37*
G36*
X226179150Y-184296701D02*
G01*
X224516299Y-184650150D01*
X224162850Y-182987299D01*
X225825701Y-182633850D01*
X226179150Y-184296701D01*
G37*
%TD*%
%TO.C,D65*%
G36*
G01*
X206893562Y-179940940D02*
X206893562Y-179940940D01*
G75*
G02*
X206238862Y-178932790I176725J831425D01*
G01*
X206238862Y-178932790D01*
G75*
G02*
X207247012Y-178278090I831425J-176725D01*
G01*
X207247012Y-178278090D01*
G75*
G02*
X207901712Y-179286240I-176725J-831425D01*
G01*
X207901712Y-179286240D01*
G75*
G02*
X206893562Y-179940940I-831425J176725D01*
G01*
G37*
G36*
X206140701Y-187571150D02*
G01*
X204477850Y-187217701D01*
X204831299Y-185554850D01*
X206494150Y-185908299D01*
X206140701Y-187571150D01*
G37*
%TD*%
%TO.C,D64*%
G36*
G01*
X183525562Y-174733940D02*
X183525562Y-174733940D01*
G75*
G02*
X182870862Y-173725790I176725J831425D01*
G01*
X182870862Y-173725790D01*
G75*
G02*
X183879012Y-173071090I831425J-176725D01*
G01*
X183879012Y-173071090D01*
G75*
G02*
X184533712Y-174079240I-176725J-831425D01*
G01*
X184533712Y-174079240D01*
G75*
G02*
X183525562Y-174733940I-831425J176725D01*
G01*
G37*
G36*
X182772701Y-182364150D02*
G01*
X181109850Y-182010701D01*
X181463299Y-180347850D01*
X183126150Y-180701299D01*
X182772701Y-182364150D01*
G37*
%TD*%
%TO.C,D63*%
G36*
G01*
X141869562Y-169272940D02*
X141869562Y-169272940D01*
G75*
G02*
X141214862Y-168264790I176725J831425D01*
G01*
X141214862Y-168264790D01*
G75*
G02*
X142223012Y-167610090I831425J-176725D01*
G01*
X142223012Y-167610090D01*
G75*
G02*
X142877712Y-168618240I-176725J-831425D01*
G01*
X142877712Y-168618240D01*
G75*
G02*
X141869562Y-169272940I-831425J176725D01*
G01*
G37*
G36*
X141116701Y-176903150D02*
G01*
X139453850Y-176549701D01*
X139807299Y-174886850D01*
X141470150Y-175240299D01*
X141116701Y-176903150D01*
G37*
%TD*%
D19*
%TO.C,D62*%
X88138000Y-164211000D03*
D20*
X88138000Y-171831000D03*
%TD*%
D19*
%TO.C,D61*%
X363347000Y-144018000D03*
D20*
X363347000Y-151638000D03*
%TD*%
D19*
%TO.C,D59*%
X310896000Y-144018000D03*
D20*
X310896000Y-151638000D03*
%TD*%
%TO.C,D58*%
G36*
G01*
X290884342Y-144905087D02*
X290884342Y-144905087D01*
G75*
G02*
X289950149Y-144148592I-88849J845344D01*
G01*
X289950149Y-144148592D01*
G75*
G02*
X290706644Y-143214399I845344J88849D01*
G01*
X290706644Y-143214399D01*
G75*
G02*
X291640837Y-143970894I88849J-845344D01*
G01*
X291640837Y-143970894D01*
G75*
G02*
X290884342Y-144905087I-845344J-88849D01*
G01*
G37*
D12*
G36*
X292526193Y-152394494D02*
G01*
X290835506Y-152572193D01*
X290657807Y-150881506D01*
X292348494Y-150703807D01*
X292526193Y-152394494D01*
G37*
%TD*%
%TO.C,D57*%
G36*
G01*
X271515438Y-149460940D02*
X271515438Y-149460940D01*
G75*
G02*
X270507288Y-148806240I-176725J831425D01*
G01*
X270507288Y-148806240D01*
G75*
G02*
X271161988Y-147798090I831425J176725D01*
G01*
X271161988Y-147798090D01*
G75*
G02*
X272170138Y-148452790I176725J-831425D01*
G01*
X272170138Y-148452790D01*
G75*
G02*
X271515438Y-149460940I-831425J-176725D01*
G01*
G37*
G36*
X273931150Y-156737701D02*
G01*
X272268299Y-157091150D01*
X271914850Y-155428299D01*
X273577701Y-155074850D01*
X273931150Y-156737701D01*
G37*
%TD*%
%TO.C,D56*%
G36*
G01*
X252719438Y-153270940D02*
X252719438Y-153270940D01*
G75*
G02*
X251711288Y-152616240I-176725J831425D01*
G01*
X251711288Y-152616240D01*
G75*
G02*
X252365988Y-151608090I831425J176725D01*
G01*
X252365988Y-151608090D01*
G75*
G02*
X253374138Y-152262790I176725J-831425D01*
G01*
X253374138Y-152262790D01*
G75*
G02*
X252719438Y-153270940I-831425J-176725D01*
G01*
G37*
G36*
X255135150Y-160547701D02*
G01*
X253472299Y-160901150D01*
X253118850Y-159238299D01*
X254781701Y-158884850D01*
X255135150Y-160547701D01*
G37*
%TD*%
%TO.C,D55*%
G36*
G01*
X234177438Y-157334940D02*
X234177438Y-157334940D01*
G75*
G02*
X233169288Y-156680240I-176725J831425D01*
G01*
X233169288Y-156680240D01*
G75*
G02*
X233823988Y-155672090I831425J176725D01*
G01*
X233823988Y-155672090D01*
G75*
G02*
X234832138Y-156326790I176725J-831425D01*
G01*
X234832138Y-156326790D01*
G75*
G02*
X234177438Y-157334940I-831425J-176725D01*
G01*
G37*
G36*
X236593150Y-164611701D02*
G01*
X234930299Y-164965150D01*
X234576850Y-163302299D01*
X236239701Y-162948850D01*
X236593150Y-164611701D01*
G37*
%TD*%
%TO.C,D54*%
G36*
G01*
X215635438Y-161398940D02*
X215635438Y-161398940D01*
G75*
G02*
X214627288Y-160744240I-176725J831425D01*
G01*
X214627288Y-160744240D01*
G75*
G02*
X215281988Y-159736090I831425J176725D01*
G01*
X215281988Y-159736090D01*
G75*
G02*
X216290138Y-160390790I176725J-831425D01*
G01*
X216290138Y-160390790D01*
G75*
G02*
X215635438Y-161398940I-831425J-176725D01*
G01*
G37*
G36*
X218051150Y-168675701D02*
G01*
X216388299Y-169029150D01*
X216034850Y-167366299D01*
X217697701Y-167012850D01*
X218051150Y-168675701D01*
G37*
%TD*%
%TO.C,D53*%
G36*
G01*
X201178562Y-161525940D02*
X201178562Y-161525940D01*
G75*
G02*
X200523862Y-160517790I176725J831425D01*
G01*
X200523862Y-160517790D01*
G75*
G02*
X201532012Y-159863090I831425J-176725D01*
G01*
X201532012Y-159863090D01*
G75*
G02*
X202186712Y-160871240I-176725J-831425D01*
G01*
X202186712Y-160871240D01*
G75*
G02*
X201178562Y-161525940I-831425J176725D01*
G01*
G37*
G36*
X200425701Y-169156150D02*
G01*
X198762850Y-168802701D01*
X199116299Y-167139850D01*
X200779150Y-167493299D01*
X200425701Y-169156150D01*
G37*
%TD*%
%TO.C,D52*%
G36*
G01*
X182509562Y-157334940D02*
X182509562Y-157334940D01*
G75*
G02*
X181854862Y-156326790I176725J831425D01*
G01*
X181854862Y-156326790D01*
G75*
G02*
X182863012Y-155672090I831425J-176725D01*
G01*
X182863012Y-155672090D01*
G75*
G02*
X183517712Y-156680240I-176725J-831425D01*
G01*
X183517712Y-156680240D01*
G75*
G02*
X182509562Y-157334940I-831425J176725D01*
G01*
G37*
G36*
X181756701Y-164965150D02*
G01*
X180093850Y-164611701D01*
X180447299Y-162948850D01*
X182110150Y-163302299D01*
X181756701Y-164965150D01*
G37*
%TD*%
%TO.C,D51*%
G36*
G01*
X163840562Y-153651940D02*
X163840562Y-153651940D01*
G75*
G02*
X163185862Y-152643790I176725J831425D01*
G01*
X163185862Y-152643790D01*
G75*
G02*
X164194012Y-151989090I831425J-176725D01*
G01*
X164194012Y-151989090D01*
G75*
G02*
X164848712Y-152997240I-176725J-831425D01*
G01*
X164848712Y-152997240D01*
G75*
G02*
X163840562Y-153651940I-831425J176725D01*
G01*
G37*
G36*
X163087701Y-161282150D02*
G01*
X161424850Y-160928701D01*
X161778299Y-159265850D01*
X163441150Y-159619299D01*
X163087701Y-161282150D01*
G37*
%TD*%
%TO.C,D50*%
G36*
G01*
X145298562Y-149460940D02*
X145298562Y-149460940D01*
G75*
G02*
X144643862Y-148452790I176725J831425D01*
G01*
X144643862Y-148452790D01*
G75*
G02*
X145652012Y-147798090I831425J-176725D01*
G01*
X145652012Y-147798090D01*
G75*
G02*
X146306712Y-148806240I-176725J-831425D01*
G01*
X146306712Y-148806240D01*
G75*
G02*
X145298562Y-149460940I-831425J176725D01*
G01*
G37*
G36*
X144545701Y-157091150D02*
G01*
X142882850Y-156737701D01*
X143236299Y-155074850D01*
X144899150Y-155428299D01*
X144545701Y-157091150D01*
G37*
%TD*%
%TO.C,D49*%
G36*
G01*
X125802658Y-145286087D02*
X125802658Y-145286087D01*
G75*
G02*
X125046163Y-144351894I88849J845344D01*
G01*
X125046163Y-144351894D01*
G75*
G02*
X125980356Y-143595399I845344J-88849D01*
G01*
X125980356Y-143595399D01*
G75*
G02*
X126736851Y-144529592I-88849J-845344D01*
G01*
X126736851Y-144529592D01*
G75*
G02*
X125802658Y-145286087I-845344J88849D01*
G01*
G37*
G36*
X125851494Y-152953193D02*
G01*
X124160807Y-152775494D01*
X124338506Y-151084807D01*
X126029193Y-151262506D01*
X125851494Y-152953193D01*
G37*
%TD*%
D19*
%TO.C,D48*%
X104521000Y-144907000D03*
D20*
X104521000Y-152527000D03*
%TD*%
D19*
%TO.C,D47*%
X336423000Y-125857000D03*
D20*
X336423000Y-133477000D03*
%TD*%
D19*
%TO.C,D45*%
X316230000Y-125857000D03*
D20*
X316230000Y-133477000D03*
%TD*%
%TO.C,D44*%
G36*
G01*
X296599342Y-126363087D02*
X296599342Y-126363087D01*
G75*
G02*
X295665149Y-125606592I-88849J845344D01*
G01*
X295665149Y-125606592D01*
G75*
G02*
X296421644Y-124672399I845344J88849D01*
G01*
X296421644Y-124672399D01*
G75*
G02*
X297355837Y-125428894I88849J-845344D01*
G01*
X297355837Y-125428894D01*
G75*
G02*
X296599342Y-126363087I-845344J-88849D01*
G01*
G37*
D12*
G36*
X298241193Y-133852494D02*
G01*
X296550506Y-134030193D01*
X296372807Y-132339506D01*
X298063494Y-132161807D01*
X298241193Y-133852494D01*
G37*
%TD*%
%TO.C,D43*%
G36*
G01*
X277230438Y-130537940D02*
X277230438Y-130537940D01*
G75*
G02*
X276222288Y-129883240I-176725J831425D01*
G01*
X276222288Y-129883240D01*
G75*
G02*
X276876988Y-128875090I831425J176725D01*
G01*
X276876988Y-128875090D01*
G75*
G02*
X277885138Y-129529790I176725J-831425D01*
G01*
X277885138Y-129529790D01*
G75*
G02*
X277230438Y-130537940I-831425J-176725D01*
G01*
G37*
G36*
X279646150Y-137814701D02*
G01*
X277983299Y-138168150D01*
X277629850Y-136505299D01*
X279292701Y-136151850D01*
X279646150Y-137814701D01*
G37*
%TD*%
%TO.C,D42*%
G36*
G01*
X258561438Y-134347940D02*
X258561438Y-134347940D01*
G75*
G02*
X257553288Y-133693240I-176725J831425D01*
G01*
X257553288Y-133693240D01*
G75*
G02*
X258207988Y-132685090I831425J176725D01*
G01*
X258207988Y-132685090D01*
G75*
G02*
X259216138Y-133339790I176725J-831425D01*
G01*
X259216138Y-133339790D01*
G75*
G02*
X258561438Y-134347940I-831425J-176725D01*
G01*
G37*
G36*
X260977150Y-141624701D02*
G01*
X259314299Y-141978150D01*
X258960850Y-140315299D01*
X260623701Y-139961850D01*
X260977150Y-141624701D01*
G37*
%TD*%
%TO.C,D41*%
G36*
G01*
X239892438Y-138411940D02*
X239892438Y-138411940D01*
G75*
G02*
X238884288Y-137757240I-176725J831425D01*
G01*
X238884288Y-137757240D01*
G75*
G02*
X239538988Y-136749090I831425J176725D01*
G01*
X239538988Y-136749090D01*
G75*
G02*
X240547138Y-137403790I176725J-831425D01*
G01*
X240547138Y-137403790D01*
G75*
G02*
X239892438Y-138411940I-831425J-176725D01*
G01*
G37*
G36*
X242308150Y-145688701D02*
G01*
X240645299Y-146042150D01*
X240291850Y-144379299D01*
X241954701Y-144025850D01*
X242308150Y-145688701D01*
G37*
%TD*%
%TO.C,D40*%
G36*
G01*
X221223438Y-142348940D02*
X221223438Y-142348940D01*
G75*
G02*
X220215288Y-141694240I-176725J831425D01*
G01*
X220215288Y-141694240D01*
G75*
G02*
X220869988Y-140686090I831425J176725D01*
G01*
X220869988Y-140686090D01*
G75*
G02*
X221878138Y-141340790I176725J-831425D01*
G01*
X221878138Y-141340790D01*
G75*
G02*
X221223438Y-142348940I-831425J-176725D01*
G01*
G37*
G36*
X223639150Y-149625701D02*
G01*
X221976299Y-149979150D01*
X221622850Y-148316299D01*
X223285701Y-147962850D01*
X223639150Y-149625701D01*
G37*
%TD*%
%TO.C,D39*%
G36*
G01*
X195590562Y-142602940D02*
X195590562Y-142602940D01*
G75*
G02*
X194935862Y-141594790I176725J831425D01*
G01*
X194935862Y-141594790D01*
G75*
G02*
X195944012Y-140940090I831425J-176725D01*
G01*
X195944012Y-140940090D01*
G75*
G02*
X196598712Y-141948240I-176725J-831425D01*
G01*
X196598712Y-141948240D01*
G75*
G02*
X195590562Y-142602940I-831425J176725D01*
G01*
G37*
G36*
X194837701Y-150233150D02*
G01*
X193174850Y-149879701D01*
X193528299Y-148216850D01*
X195191150Y-148570299D01*
X194837701Y-150233150D01*
G37*
%TD*%
%TO.C,D38*%
G36*
G01*
X176794562Y-138538940D02*
X176794562Y-138538940D01*
G75*
G02*
X176139862Y-137530790I176725J831425D01*
G01*
X176139862Y-137530790D01*
G75*
G02*
X177148012Y-136876090I831425J-176725D01*
G01*
X177148012Y-136876090D01*
G75*
G02*
X177802712Y-137884240I-176725J-831425D01*
G01*
X177802712Y-137884240D01*
G75*
G02*
X176794562Y-138538940I-831425J176725D01*
G01*
G37*
G36*
X176041701Y-146169150D02*
G01*
X174378850Y-145815701D01*
X174732299Y-144152850D01*
X176395150Y-144506299D01*
X176041701Y-146169150D01*
G37*
%TD*%
%TO.C,D37*%
G36*
G01*
X158125562Y-134601940D02*
X158125562Y-134601940D01*
G75*
G02*
X157470862Y-133593790I176725J831425D01*
G01*
X157470862Y-133593790D01*
G75*
G02*
X158479012Y-132939090I831425J-176725D01*
G01*
X158479012Y-132939090D01*
G75*
G02*
X159133712Y-133947240I-176725J-831425D01*
G01*
X159133712Y-133947240D01*
G75*
G02*
X158125562Y-134601940I-831425J176725D01*
G01*
G37*
G36*
X157372701Y-142232150D02*
G01*
X155709850Y-141878701D01*
X156063299Y-140215850D01*
X157726150Y-140569299D01*
X157372701Y-142232150D01*
G37*
%TD*%
%TO.C,D36*%
G36*
G01*
X139583562Y-130664940D02*
X139583562Y-130664940D01*
G75*
G02*
X138928862Y-129656790I176725J831425D01*
G01*
X138928862Y-129656790D01*
G75*
G02*
X139937012Y-129002090I831425J-176725D01*
G01*
X139937012Y-129002090D01*
G75*
G02*
X140591712Y-130010240I-176725J-831425D01*
G01*
X140591712Y-130010240D01*
G75*
G02*
X139583562Y-130664940I-831425J176725D01*
G01*
G37*
G36*
X138830701Y-138295150D02*
G01*
X137167850Y-137941701D01*
X137521299Y-136278850D01*
X139184150Y-136632299D01*
X138830701Y-138295150D01*
G37*
%TD*%
%TO.C,D35*%
G36*
G01*
X120214658Y-126490087D02*
X120214658Y-126490087D01*
G75*
G02*
X119458163Y-125555894I88849J845344D01*
G01*
X119458163Y-125555894D01*
G75*
G02*
X120392356Y-124799399I845344J-88849D01*
G01*
X120392356Y-124799399D01*
G75*
G02*
X121148851Y-125733592I-88849J-845344D01*
G01*
X121148851Y-125733592D01*
G75*
G02*
X120214658Y-126490087I-845344J88849D01*
G01*
G37*
G36*
X120263494Y-134157193D02*
G01*
X118572807Y-133979494D01*
X118750506Y-132288807D01*
X120441193Y-132466506D01*
X120263494Y-134157193D01*
G37*
%TD*%
D19*
%TO.C,D34*%
X97409000Y-125222000D03*
D20*
X97409000Y-132842000D03*
%TD*%
D19*
%TO.C,D33*%
X64389000Y-124714000D03*
D20*
X64389000Y-132334000D03*
%TD*%
D19*
%TO.C,D32*%
X348869000Y-106680000D03*
D20*
X348869000Y-114300000D03*
%TD*%
D19*
%TO.C,D31*%
X326390000Y-107569000D03*
D20*
X326390000Y-115189000D03*
%TD*%
D19*
%TO.C,D30*%
X307467000Y-107569000D03*
D20*
X307467000Y-115189000D03*
%TD*%
%TO.C,D29*%
G36*
G01*
X287963342Y-108583087D02*
X287963342Y-108583087D01*
G75*
G02*
X287029149Y-107826592I-88849J845344D01*
G01*
X287029149Y-107826592D01*
G75*
G02*
X287785644Y-106892399I845344J88849D01*
G01*
X287785644Y-106892399D01*
G75*
G02*
X288719837Y-107648894I88849J-845344D01*
G01*
X288719837Y-107648894D01*
G75*
G02*
X287963342Y-108583087I-845344J-88849D01*
G01*
G37*
D12*
G36*
X289605193Y-116072494D02*
G01*
X287914506Y-116250193D01*
X287736807Y-114559506D01*
X289427494Y-114381807D01*
X289605193Y-116072494D01*
G37*
%TD*%
%TO.C,D28*%
G36*
G01*
X268594438Y-113138940D02*
X268594438Y-113138940D01*
G75*
G02*
X267586288Y-112484240I-176725J831425D01*
G01*
X267586288Y-112484240D01*
G75*
G02*
X268240988Y-111476090I831425J176725D01*
G01*
X268240988Y-111476090D01*
G75*
G02*
X269249138Y-112130790I176725J-831425D01*
G01*
X269249138Y-112130790D01*
G75*
G02*
X268594438Y-113138940I-831425J-176725D01*
G01*
G37*
G36*
X271010150Y-120415701D02*
G01*
X269347299Y-120769150D01*
X268993850Y-119106299D01*
X270656701Y-118752850D01*
X271010150Y-120415701D01*
G37*
%TD*%
%TO.C,D27*%
G36*
G01*
X250052438Y-116948940D02*
X250052438Y-116948940D01*
G75*
G02*
X249044288Y-116294240I-176725J831425D01*
G01*
X249044288Y-116294240D01*
G75*
G02*
X249698988Y-115286090I831425J176725D01*
G01*
X249698988Y-115286090D01*
G75*
G02*
X250707138Y-115940790I176725J-831425D01*
G01*
X250707138Y-115940790D01*
G75*
G02*
X250052438Y-116948940I-831425J-176725D01*
G01*
G37*
G36*
X252468150Y-124225701D02*
G01*
X250805299Y-124579150D01*
X250451850Y-122916299D01*
X252114701Y-122562850D01*
X252468150Y-124225701D01*
G37*
%TD*%
%TO.C,D26*%
G36*
G01*
X231383438Y-121012940D02*
X231383438Y-121012940D01*
G75*
G02*
X230375288Y-120358240I-176725J831425D01*
G01*
X230375288Y-120358240D01*
G75*
G02*
X231029988Y-119350090I831425J176725D01*
G01*
X231029988Y-119350090D01*
G75*
G02*
X232038138Y-120004790I176725J-831425D01*
G01*
X232038138Y-120004790D01*
G75*
G02*
X231383438Y-121012940I-831425J-176725D01*
G01*
G37*
G36*
X233799150Y-128289701D02*
G01*
X232136299Y-128643150D01*
X231782850Y-126980299D01*
X233445701Y-126626850D01*
X233799150Y-128289701D01*
G37*
%TD*%
%TO.C,D25*%
G36*
G01*
X212714438Y-125076940D02*
X212714438Y-125076940D01*
G75*
G02*
X211706288Y-124422240I-176725J831425D01*
G01*
X211706288Y-124422240D01*
G75*
G02*
X212360988Y-123414090I831425J176725D01*
G01*
X212360988Y-123414090D01*
G75*
G02*
X213369138Y-124068790I176725J-831425D01*
G01*
X213369138Y-124068790D01*
G75*
G02*
X212714438Y-125076940I-831425J-176725D01*
G01*
G37*
G36*
X215130150Y-132353701D02*
G01*
X213467299Y-132707150D01*
X213113850Y-131044299D01*
X214776701Y-130690850D01*
X215130150Y-132353701D01*
G37*
%TD*%
%TO.C,D24*%
G36*
G01*
X194828562Y-123044940D02*
X194828562Y-123044940D01*
G75*
G02*
X194173862Y-122036790I176725J831425D01*
G01*
X194173862Y-122036790D01*
G75*
G02*
X195182012Y-121382090I831425J-176725D01*
G01*
X195182012Y-121382090D01*
G75*
G02*
X195836712Y-122390240I-176725J-831425D01*
G01*
X195836712Y-122390240D01*
G75*
G02*
X194828562Y-123044940I-831425J176725D01*
G01*
G37*
G36*
X194075701Y-130675150D02*
G01*
X192412850Y-130321701D01*
X192766299Y-128658850D01*
X194429150Y-129012299D01*
X194075701Y-130675150D01*
G37*
%TD*%
%TO.C,D23*%
G36*
G01*
X176032562Y-119107940D02*
X176032562Y-119107940D01*
G75*
G02*
X175377862Y-118099790I176725J831425D01*
G01*
X175377862Y-118099790D01*
G75*
G02*
X176386012Y-117445090I831425J-176725D01*
G01*
X176386012Y-117445090D01*
G75*
G02*
X177040712Y-118453240I-176725J-831425D01*
G01*
X177040712Y-118453240D01*
G75*
G02*
X176032562Y-119107940I-831425J176725D01*
G01*
G37*
G36*
X175279701Y-126738150D02*
G01*
X173616850Y-126384701D01*
X173970299Y-124721850D01*
X175633150Y-125075299D01*
X175279701Y-126738150D01*
G37*
%TD*%
%TO.C,D22*%
G36*
G01*
X157490562Y-115170940D02*
X157490562Y-115170940D01*
G75*
G02*
X156835862Y-114162790I176725J831425D01*
G01*
X156835862Y-114162790D01*
G75*
G02*
X157844012Y-113508090I831425J-176725D01*
G01*
X157844012Y-113508090D01*
G75*
G02*
X158498712Y-114516240I-176725J-831425D01*
G01*
X158498712Y-114516240D01*
G75*
G02*
X157490562Y-115170940I-831425J176725D01*
G01*
G37*
G36*
X156737701Y-122801150D02*
G01*
X155074850Y-122447701D01*
X155428299Y-120784850D01*
X157091150Y-121138299D01*
X156737701Y-122801150D01*
G37*
%TD*%
%TO.C,D21*%
G36*
G01*
X138821562Y-111233940D02*
X138821562Y-111233940D01*
G75*
G02*
X138166862Y-110225790I176725J831425D01*
G01*
X138166862Y-110225790D01*
G75*
G02*
X139175012Y-109571090I831425J-176725D01*
G01*
X139175012Y-109571090D01*
G75*
G02*
X139829712Y-110579240I-176725J-831425D01*
G01*
X139829712Y-110579240D01*
G75*
G02*
X138821562Y-111233940I-831425J176725D01*
G01*
G37*
G36*
X138068701Y-118864150D02*
G01*
X136405850Y-118510701D01*
X136759299Y-116847850D01*
X138422150Y-117201299D01*
X138068701Y-118864150D01*
G37*
%TD*%
%TO.C,D20*%
G36*
G01*
X119452658Y-106805087D02*
X119452658Y-106805087D01*
G75*
G02*
X118696163Y-105870894I88849J845344D01*
G01*
X118696163Y-105870894D01*
G75*
G02*
X119630356Y-105114399I845344J-88849D01*
G01*
X119630356Y-105114399D01*
G75*
G02*
X120386851Y-106048592I-88849J-845344D01*
G01*
X120386851Y-106048592D01*
G75*
G02*
X119452658Y-106805087I-845344J88849D01*
G01*
G37*
G36*
X119501494Y-114472193D02*
G01*
X117810807Y-114294494D01*
X117988506Y-112603807D01*
X119679193Y-112781506D01*
X119501494Y-114472193D01*
G37*
%TD*%
D19*
%TO.C,D19*%
X96393000Y-106045000D03*
D20*
X96393000Y-113665000D03*
%TD*%
D19*
%TO.C,D18*%
X68580000Y-106172000D03*
D20*
X68580000Y-113792000D03*
%TD*%
D19*
%TO.C,D17*%
X372237000Y-85788500D03*
D20*
X372237000Y-93408500D03*
%TD*%
D19*
%TO.C,D46*%
X330581000Y-90170000D03*
D20*
X330581000Y-97790000D03*
%TD*%
D19*
%TO.C,D16*%
X312864500Y-88138000D03*
D20*
X312864500Y-95758000D03*
%TD*%
%TO.C,D15*%
G36*
G01*
X293424342Y-88517087D02*
X293424342Y-88517087D01*
G75*
G02*
X292490149Y-87760592I-88849J845344D01*
G01*
X292490149Y-87760592D01*
G75*
G02*
X293246644Y-86826399I845344J88849D01*
G01*
X293246644Y-86826399D01*
G75*
G02*
X294180837Y-87582894I88849J-845344D01*
G01*
X294180837Y-87582894D01*
G75*
G02*
X293424342Y-88517087I-845344J-88849D01*
G01*
G37*
D12*
G36*
X295066193Y-96006494D02*
G01*
X293375506Y-96184193D01*
X293197807Y-94493506D01*
X294888494Y-94315807D01*
X295066193Y-96006494D01*
G37*
%TD*%
%TO.C,D14*%
G36*
G01*
X273928438Y-92437940D02*
X273928438Y-92437940D01*
G75*
G02*
X272920288Y-91783240I-176725J831425D01*
G01*
X272920288Y-91783240D01*
G75*
G02*
X273574988Y-90775090I831425J176725D01*
G01*
X273574988Y-90775090D01*
G75*
G02*
X274583138Y-91429790I176725J-831425D01*
G01*
X274583138Y-91429790D01*
G75*
G02*
X273928438Y-92437940I-831425J-176725D01*
G01*
G37*
G36*
X276344150Y-99714701D02*
G01*
X274681299Y-100068150D01*
X274327850Y-98405299D01*
X275990701Y-98051850D01*
X276344150Y-99714701D01*
G37*
%TD*%
%TO.C,D13*%
G36*
G01*
X255386438Y-96755940D02*
X255386438Y-96755940D01*
G75*
G02*
X254378288Y-96101240I-176725J831425D01*
G01*
X254378288Y-96101240D01*
G75*
G02*
X255032988Y-95093090I831425J176725D01*
G01*
X255032988Y-95093090D01*
G75*
G02*
X256041138Y-95747790I176725J-831425D01*
G01*
X256041138Y-95747790D01*
G75*
G02*
X255386438Y-96755940I-831425J-176725D01*
G01*
G37*
G36*
X257802150Y-104032701D02*
G01*
X256139299Y-104386150D01*
X255785850Y-102723299D01*
X257448701Y-102369850D01*
X257802150Y-104032701D01*
G37*
%TD*%
%TO.C,D12*%
G36*
G01*
X236717438Y-100565940D02*
X236717438Y-100565940D01*
G75*
G02*
X235709288Y-99911240I-176725J831425D01*
G01*
X235709288Y-99911240D01*
G75*
G02*
X236363988Y-98903090I831425J176725D01*
G01*
X236363988Y-98903090D01*
G75*
G02*
X237372138Y-99557790I176725J-831425D01*
G01*
X237372138Y-99557790D01*
G75*
G02*
X236717438Y-100565940I-831425J-176725D01*
G01*
G37*
G36*
X239133150Y-107842701D02*
G01*
X237470299Y-108196150D01*
X237116850Y-106533299D01*
X238779701Y-106179850D01*
X239133150Y-107842701D01*
G37*
%TD*%
%TO.C,D11*%
G36*
G01*
X218175438Y-104248940D02*
X218175438Y-104248940D01*
G75*
G02*
X217167288Y-103594240I-176725J831425D01*
G01*
X217167288Y-103594240D01*
G75*
G02*
X217821988Y-102586090I831425J176725D01*
G01*
X217821988Y-102586090D01*
G75*
G02*
X218830138Y-103240790I176725J-831425D01*
G01*
X218830138Y-103240790D01*
G75*
G02*
X218175438Y-104248940I-831425J-176725D01*
G01*
G37*
G36*
X220591150Y-111525701D02*
G01*
X218928299Y-111879150D01*
X218574850Y-110216299D01*
X220237701Y-109862850D01*
X220591150Y-111525701D01*
G37*
%TD*%
%TO.C,D10*%
G36*
G01*
X207909562Y-106661940D02*
X207909562Y-106661940D01*
G75*
G02*
X207254862Y-105653790I176725J831425D01*
G01*
X207254862Y-105653790D01*
G75*
G02*
X208263012Y-104999090I831425J-176725D01*
G01*
X208263012Y-104999090D01*
G75*
G02*
X208917712Y-106007240I-176725J-831425D01*
G01*
X208917712Y-106007240D01*
G75*
G02*
X207909562Y-106661940I-831425J176725D01*
G01*
G37*
G36*
X207156701Y-114292150D02*
G01*
X205493850Y-113938701D01*
X205847299Y-112275850D01*
X207510150Y-112629299D01*
X207156701Y-114292150D01*
G37*
%TD*%
%TO.C,D9*%
G36*
G01*
X189304062Y-102788440D02*
X189304062Y-102788440D01*
G75*
G02*
X188649362Y-101780290I176725J831425D01*
G01*
X188649362Y-101780290D01*
G75*
G02*
X189657512Y-101125590I831425J-176725D01*
G01*
X189657512Y-101125590D01*
G75*
G02*
X190312212Y-102133740I-176725J-831425D01*
G01*
X190312212Y-102133740D01*
G75*
G02*
X189304062Y-102788440I-831425J176725D01*
G01*
G37*
G36*
X188551201Y-110418650D02*
G01*
X186888350Y-110065201D01*
X187241799Y-108402350D01*
X188904650Y-108755799D01*
X188551201Y-110418650D01*
G37*
%TD*%
%TO.C,D8*%
G36*
G01*
X170698562Y-98724440D02*
X170698562Y-98724440D01*
G75*
G02*
X170043862Y-97716290I176725J831425D01*
G01*
X170043862Y-97716290D01*
G75*
G02*
X171052012Y-97061590I831425J-176725D01*
G01*
X171052012Y-97061590D01*
G75*
G02*
X171706712Y-98069740I-176725J-831425D01*
G01*
X171706712Y-98069740D01*
G75*
G02*
X170698562Y-98724440I-831425J176725D01*
G01*
G37*
G36*
X169945701Y-106354650D02*
G01*
X168282850Y-106001201D01*
X168636299Y-104338350D01*
X170299150Y-104691799D01*
X169945701Y-106354650D01*
G37*
%TD*%
%TO.C,D7*%
G36*
G01*
X151966062Y-94533440D02*
X151966062Y-94533440D01*
G75*
G02*
X151311362Y-93525290I176725J831425D01*
G01*
X151311362Y-93525290D01*
G75*
G02*
X152319512Y-92870590I831425J-176725D01*
G01*
X152319512Y-92870590D01*
G75*
G02*
X152974212Y-93878740I-176725J-831425D01*
G01*
X152974212Y-93878740D01*
G75*
G02*
X151966062Y-94533440I-831425J176725D01*
G01*
G37*
G36*
X151213201Y-102163650D02*
G01*
X149550350Y-101810201D01*
X149903799Y-100147350D01*
X151566650Y-100500799D01*
X151213201Y-102163650D01*
G37*
%TD*%
%TO.C,D6*%
G36*
G01*
X132787658Y-90295087D02*
X132787658Y-90295087D01*
G75*
G02*
X132031163Y-89360894I88849J845344D01*
G01*
X132031163Y-89360894D01*
G75*
G02*
X132965356Y-88604399I845344J-88849D01*
G01*
X132965356Y-88604399D01*
G75*
G02*
X133721851Y-89538592I-88849J-845344D01*
G01*
X133721851Y-89538592D01*
G75*
G02*
X132787658Y-90295087I-845344J88849D01*
G01*
G37*
G36*
X132836494Y-97962193D02*
G01*
X131145807Y-97784494D01*
X131323506Y-96093807D01*
X133014193Y-96271506D01*
X132836494Y-97962193D01*
G37*
%TD*%
D19*
%TO.C,D5*%
X113284000Y-87312500D03*
D20*
X113284000Y-94932500D03*
%TD*%
D19*
%TO.C,D4*%
X94424500Y-87249000D03*
D20*
X94424500Y-94869000D03*
%TD*%
D19*
%TO.C,D3*%
X72834500Y-87122000D03*
D20*
X72834500Y-94742000D03*
%TD*%
D19*
%TO.C,D2*%
X157480000Y-83883500D03*
D20*
X165100000Y-83883500D03*
%TD*%
D19*
%TO.C,D1*%
X157480000Y-80772000D03*
D20*
X165100000Y-80772000D03*
%TD*%
D23*
%TO.C,C5*%
X236744500Y-68961000D03*
X241744500Y-68961000D03*
%TD*%
%TO.C,C4*%
X236681000Y-84772500D03*
X241681000Y-84772500D03*
%TD*%
%TO.C,C3*%
X210208500Y-88201500D03*
X207708500Y-88201500D03*
%TD*%
%TO.C,C2*%
X207748500Y-66929000D03*
X210248500Y-66929000D03*
%TD*%
D22*
%TO.C,Boot1*%
X258071959Y-70693426D03*
X257136357Y-75095090D03*
X251714000Y-69342000D03*
X250778397Y-73743664D03*
%TD*%
M02*
