M48
; DRILL file {KiCad (5.1.6)-1} date 08/30/20 21:36:20
; FORMAT={-:-/ absolute / inch / decimal}
; #@! TF.CreationDate,2020-08-30T21:36:20+02:00
; #@! TF.GenerationSoftware,Kicad,Pcbnew,(5.1.6)-1
; #@! TF.FileFunction,Plated,1,2,PTH
FMAT,2
INCH
T1C0.0157
T2C0.0236
T3C0.0315
T4C0.0394
T5C0.0433
T6C0.0579
T7C0.0787
%
G90
G05
T1
X6.37Y-3.0575
X6.41Y-3.0825
X7.6025Y-3.0325
X6.2443Y-2.9458
X6.2554Y-2.9968
X6.2771Y-2.9388
X6.2881Y-2.9898
X6.3098Y-2.9319
X6.3208Y-2.9828
X6.3425Y-2.9249
X6.3536Y-2.9759
X6.3753Y-2.9179
X6.3863Y-2.9689
X6.408Y-2.911
X6.419Y-2.962
X6.4407Y-2.904
X6.4518Y-2.955
X6.4737Y-2.897
X6.4845Y-2.9481
T2
X5.9175Y-2.9125
X5.9753Y-2.9002
T3
X8.09Y-7.345
X8.1524Y-7.0516
X9.3181Y-3.3375
X9.515Y-3.3375
X6.7025Y-3.05
X7.1025Y-3.05
X5.665Y-6.145
X5.7274Y-5.8516
X3.47Y-6.465
X3.47Y-6.765
X10.9076Y-5.1066
X10.97Y-5.4
X4.925Y-5.985
X4.9564Y-5.6866
X2.535Y-4.91
X2.535Y-5.21
X9.8376Y-4.5716
X9.9Y-4.865
X4.705Y-5.245
X4.7364Y-4.9466
X6.2Y-3.18
X6.5Y-3.18
X8.5826Y-4.0716
X8.645Y-4.365
X9.3126Y-3.9266
X9.375Y-4.22
X2.7Y-4.18
X2.7Y-4.48
X13.915Y-6.39
X13.915Y-6.69
X5.2Y-3.82
X5.2314Y-3.5216
X6.395Y-6.31
X6.4574Y-6.0166
X5.53Y-6.925
X5.5924Y-6.6316
X9.4376Y-5.4166
X9.5Y-5.71
X13.245Y-4.955
X13.245Y-5.255
X9.4225Y-2.93
X9.4225Y-3.1221
X12.85Y-4.235
X12.85Y-4.535
X7.645Y-5.875
X7.7074Y-5.5816
X8.13Y-4.46
X8.1924Y-4.1666
X14.655Y-3.3775
X14.655Y-3.6775
X10.0476Y-3.7766
X10.11Y-4.07
X8.8026Y-6.9366
X8.865Y-7.23
X7.3975Y-4.3075
X7.4599Y-4.0141
X6.7025Y-2.78
X7.1025Y-2.78
X7.13Y-6.455
X7.1924Y-6.1616
X7.17Y-7.14
X7.2324Y-6.8466
X10.1726Y-5.2566
X10.235Y-5.55
X9.9426Y-6.0016
X10.005Y-6.295
X6.875Y-4.95
X6.9374Y-4.6566
X6.17Y-5.56
X6.2324Y-5.2666
X11.5486Y-3.4516
X11.58Y-3.75
X6.665Y-4.1475
X6.7274Y-3.8541
X10.7776Y-3.6066
X10.84Y-3.9
X3.795Y-4.175
X3.795Y-4.475
X10.8426Y-6.5116
X10.905Y-6.805
X9.2126Y-6.1616
X9.275Y-6.455
X11.6736Y-4.9416
X11.705Y-5.24
X7.615Y-5.105
X7.6774Y-4.8116
X9.1026Y-4.7316
X9.165Y-5.025
X8.1791Y-2.635
X8.2775Y-2.635
X8.1775Y-3.4725
X8.2759Y-3.4725
X6.145Y-4.795
X6.2074Y-4.5016
X6.7025Y-3.32
X7.1025Y-3.32
X12.24Y-5.67
X12.24Y-5.97
X12.45Y-4.955
X12.45Y-5.255
X10.5676Y-4.4216
X10.63Y-4.715
X8.3676Y-4.8916
X8.43Y-5.185
X11.3336Y-4.2416
X11.365Y-4.54
X9.3206Y-2.715
X9.5175Y-2.715
X4.675Y-4.47
X4.7064Y-4.1716
X6.7025Y-2.915
X7.1025Y-2.915
X6.7025Y-3.185
X7.1025Y-3.185
X4.115Y-5.705
X4.115Y-6.005
X7.865Y-6.62
X7.9274Y-6.3266
X7.275Y-2.7475
X7.275Y-3.3475
X7.375Y-2.7475
X7.375Y-3.3475
X7.475Y-2.7475
X7.475Y-3.3475
X7.575Y-2.7475
X7.575Y-3.3475
X7.675Y-2.7475
X7.675Y-3.3475
X7.775Y-2.7475
X7.775Y-3.3475
X7.875Y-2.7475
X7.875Y-3.3475
X7.975Y-2.7475
X7.975Y-3.3475
X8.075Y-2.7475
X8.075Y-3.3475
X8.175Y-2.7475
X8.175Y-3.3475
X8.275Y-2.7475
X8.275Y-3.3475
X8.375Y-2.7475
X8.375Y-3.3475
X8.475Y-2.7475
X8.475Y-3.3475
X8.575Y-2.7475
X8.575Y-3.3475
X8.675Y-2.7475
X8.675Y-3.3475
X8.775Y-2.7475
X8.775Y-3.3475
X8.875Y-2.7475
X8.875Y-3.3475
X8.975Y-2.7475
X8.975Y-3.3475
X9.075Y-2.7475
X9.075Y-3.3475
X9.175Y-2.7475
X9.175Y-3.3475
X12.105Y-4.235
X12.105Y-4.535
X6.905Y-5.715
X6.9674Y-5.4216
X8.7026Y-5.5716
X8.765Y-5.865
X13.015Y-3.55
X13.015Y-3.85
X3.7175Y-3.435
X3.7175Y-3.735
X2.8675Y-3.43
X2.8675Y-3.73
X9.95Y-3.16
X10.3413Y-3.2432
X12.3175Y-3.47
X12.3175Y-3.77
X10.6826Y-5.8516
X10.745Y-6.145
X14.305Y-5.67
X14.305Y-5.97
X8.4826Y-6.3216
X8.545Y-6.615
X11.4486Y-5.6716
X11.48Y-5.97
X13.18Y-5.67
X13.18Y-5.97
X5.44Y-5.405
X5.5024Y-5.1116
X3.835Y-4.93
X3.835Y-5.23
X13.735Y-4.2
X13.735Y-4.5
X5.41Y-4.64
X5.4724Y-4.3466
X4.46Y-3.4375
X4.46Y-3.7375
X6.2Y-3.3025
X6.5Y-3.3025
X5.9275Y-3.9825
X5.9899Y-3.6891
T4
X5.82Y-3.07
X6.0155Y-3.112
X8.465Y-2.6325
X8.565Y-2.6325
X8.665Y-2.6325
X8.765Y-2.6325
X8.865Y-2.6325
X8.965Y-2.6325
T5
X9.8732Y-2.9033
X9.91Y-2.73
X10.1235Y-2.9565
X10.1603Y-2.7832
X10.2632Y-2.9833
X10.3Y-2.81
X10.5135Y-3.0365
X10.5503Y-2.8632
T6
X5.5066Y-3.4585
X5.7719Y-3.4127
X7.1841Y-4.5835
X7.4494Y-4.5377
X4.9841Y-4.116
X5.2494Y-4.0702
X3.9438Y-3.415
X4.1937Y-3.315
X5.7441Y-5.0435
X6.0094Y-4.9977
X11.9275Y-4.9175
X12.1775Y-4.8175
X11.7175Y-5.6675
X11.9675Y-5.5675
X5.0316Y-6.486
X5.2969Y-6.4402
X13.285Y-3.415
X13.535Y-3.315
X3.215Y-4.1675
X3.465Y-4.0675
X10.24Y-3.6009
X10.4637Y-3.4511
X6.9741Y-3.771
X7.2394Y-3.7252
X8.9025Y-5.4184
X9.1262Y-5.2686
X7.2116Y-5.356
X7.4769Y-5.3102
X14.1975Y-6.4175
X14.4475Y-6.3175
X6.6891Y-6.011
X6.9544Y-5.9652
X9.425Y-6.0734
X9.6487Y-5.9236
X9.49Y-6.8259
X9.7137Y-6.6761
X2.1225Y-4.0825
X2.3725Y-3.9825
X12.535Y-3.415
X12.785Y-3.315
X11.1025Y-4.9509
X11.3262Y-4.8011
X12.6775Y-4.9175
X12.9275Y-4.8175
X3.1725Y-5.6675
X3.4225Y-5.5675
X8.6925Y-6.2284
X8.9162Y-6.0786
X7.4216Y-6.166
X7.6869Y-6.1202
X13.5Y-5.6675
X13.75Y-5.5675
X13.6625Y-3.415
X13.9125Y-3.315
X7.7091Y-3.926
X7.9744Y-3.8802
X9.5075Y-3.7559
X9.7312Y-3.6061
X10.7625Y-4.2559
X10.9862Y-4.1061
X4.1525Y-4.1675
X4.4025Y-4.0675
X5.2216Y-5.6985
X5.4869Y-5.6527
X13.0725Y-4.1675
X13.3225Y-4.0675
X10.8925Y-5.7609
X11.1162Y-5.6111
X10.1575Y-5.9159
X10.3812Y-5.7661
X6.3416Y-6.7035
X6.6069Y-6.6577
X3.15Y-4.9175
X3.4Y-4.8175
X13.8725Y-5.6675
X14.1225Y-5.5675
X10.975Y-3.4434
X11.1987Y-3.2936
X11.8Y-3.3325
X12.05Y-3.2325
X12.3225Y-4.1675
X12.5725Y-4.0675
X9.2975Y-4.5659
X9.5212Y-4.4161
X4.39Y-5.665
X4.64Y-5.565
X5.0116Y-4.8885
X5.2769Y-4.8427
X14.53Y-5.6675
X14.78Y-5.5675
X2.8925Y-6.415
X3.1425Y-6.315
X7.5341Y-6.956
X7.7994Y-6.9102
X14.01Y-4.1675
X14.26Y-4.0675
X6.4516Y-4.426
X6.7169Y-4.3802
X5.7166Y-4.271
X5.9819Y-4.2252
X1.96Y-4.8325
X2.21Y-4.7325
X6.2416Y-3.6135
X6.5069Y-3.5677
X6.4791Y-5.201
X6.7444Y-5.1552
X10.03Y-4.4109
X10.2537Y-4.2611
X13.8975Y-4.9175
X14.1475Y-4.8175
X14.035Y-3.415
X14.285Y-3.315
X2.285Y-3.3325
X2.535Y-3.2325
X11.5875Y-4.125
X11.8375Y-4.025
X2.963Y-4.918
X3.213Y-4.818
X8.775Y-3.9109
X8.9987Y-3.7611
X3.1938Y-3.415
X3.4438Y-3.315
X4.18Y-4.9175
X4.43Y-4.8175
X4.675Y-3.3325
X4.925Y-3.2325
X9.635Y-5.2634
X9.8587Y-5.1136
X11.0825Y-6.5484
X11.3062Y-6.3986
X10.37Y-5.1059
X10.5937Y-4.9561
X5.9541Y-5.856
X6.2194Y-5.8102
X12.4675Y-5.6675
X12.7175Y-5.5675
X8.5625Y-4.7234
X8.7862Y-4.5736
T7
X8.34Y-7.165
X14.94Y-6.78
X1.855Y-3.195
X14.94Y-3.195
X1.855Y-6.78
X8.34Y-3.035
X5.6075Y-2.975
X10.9825Y-2.975
T2
G00X6.171Y-2.8553
M15
G01X6.1644Y-2.8245
M16
G05
G00X6.2015Y-2.999
M15
G01X6.1892Y-2.9412
M16
G05
G00X6.5041Y-2.7845
M15
G01X6.4975Y-2.7537
M16
G05
G00X6.5346Y-2.9281
M15
G01X6.5223Y-2.8704
M16
G05
T0
M30
