%TF.GenerationSoftware,KiCad,Pcbnew,(5.1.6)-1*%
%TF.CreationDate,2020-08-30T21:40:15+02:00*%
%TF.ProjectId,switchplate,73776974-6368-4706-9c61-74652e6b6963,rev?*%
%TF.SameCoordinates,Original*%
%TF.FileFunction,Profile,NP*%
%FSLAX46Y46*%
G04 Gerber Fmt 4.6, Leading zero omitted, Abs format (unit mm)*
G04 Created by KiCad (PCBNEW (5.1.6)-1) date 2020-08-30 21:40:15*
%MOMM*%
%LPD*%
G01*
G04 APERTURE LIST*
%TA.AperFunction,Profile*%
%ADD10C,0.200000*%
%TD*%
%TA.AperFunction,Profile*%
%ADD11C,0.050000*%
%TD*%
G04 APERTURE END LIST*
D10*
X188949400Y-172634632D02*
X186454460Y-184372403D01*
X202643467Y-175545396D02*
X200148527Y-187283167D01*
X187224696Y-185558463D02*
X198962467Y-188053403D01*
X190135460Y-171864396D02*
X201873231Y-174359336D01*
X188949400Y-172634632D02*
G75*
G02*
X190135460Y-171864396I978148J-207912D01*
G01*
X200148527Y-187283167D02*
G75*
G02*
X198962467Y-188053403I-978148J207912D01*
G01*
X201873231Y-174359336D02*
G75*
G02*
X202643467Y-175545396I-207912J-978148D01*
G01*
X187224696Y-185558463D02*
G75*
G02*
X186454460Y-184372403I207912J978148D01*
G01*
X168715740Y-181626003D02*
X156963256Y-179123286D01*
X157711921Y-163951960D02*
G75*
G03*
X156941685Y-162765900I-978148J207912D01*
G01*
X174015400Y-168452800D02*
X157530800Y-164947600D01*
X157711921Y-163951960D02*
X157530800Y-164947600D01*
X152050946Y-161726341D02*
G75*
G03*
X150864887Y-162496578I-207911J-978148D01*
G01*
X177177261Y-182402214D02*
X169901800Y-180855767D01*
X181066172Y-168916059D02*
X178363321Y-181631978D01*
X175405199Y-166690442D02*
X180295937Y-167730000D01*
X152050946Y-161726341D02*
X156941685Y-162765900D01*
X181066172Y-168916059D02*
G75*
G03*
X180295937Y-167730000I-978147J207912D01*
G01*
X175405199Y-166690442D02*
G75*
G03*
X174219140Y-167460677I-207912J-978147D01*
G01*
X177177261Y-182402214D02*
G75*
G03*
X178363321Y-181631978I207912J978148D01*
G01*
X168715740Y-181626003D02*
G75*
G03*
X169901800Y-180855767I207912J978148D01*
G01*
X75970964Y-154445500D02*
X75971400Y-153441400D01*
X251939279Y-165475960D02*
X252120400Y-166471600D01*
X291143467Y-93549003D02*
G75*
G02*
X290373231Y-94735063I-978148J-207912D01*
G01*
X192009662Y-146601919D02*
G75*
G02*
X190823603Y-147372156I-978148J207911D01*
G01*
X272854460Y-143591996D02*
G75*
G02*
X273624696Y-142405936I978148J207912D01*
G01*
X180450655Y-150327372D02*
G75*
G02*
X181220890Y-151513431I-207912J-978147D01*
G01*
X204589662Y-110321919D02*
G75*
G02*
X203403603Y-111092156I-978148J207911D01*
G01*
X173375950Y-142641203D02*
G75*
G02*
X172189891Y-143411438I-978147J207912D01*
G01*
X178385831Y-125247215D02*
G75*
G02*
X177615596Y-124061156I207912J978147D01*
G01*
X276535460Y-156100003D02*
G75*
G02*
X275349400Y-155329767I-207912J978148D01*
G01*
X289043467Y-152419003D02*
G75*
G02*
X288273231Y-153605063I-978148J-207912D01*
G01*
X281345460Y-176090003D02*
G75*
G02*
X280159400Y-175319767I-207912J978148D01*
G01*
X269594460Y-105331996D02*
G75*
G02*
X270364696Y-104145936I978148J207912D01*
G01*
X277664460Y-163581996D02*
G75*
G02*
X278434696Y-162395936I978148J207912D01*
G01*
X180110535Y-112323385D02*
G75*
G02*
X181296595Y-111553149I978148J-207912D01*
G01*
X273275460Y-117840003D02*
G75*
G02*
X272089400Y-117069767I-207912J978148D01*
G01*
X287462467Y-81040997D02*
G75*
G02*
X288648527Y-81811233I207912J-978148D01*
G01*
X294403467Y-131809003D02*
G75*
G02*
X293633231Y-132995063I-978148J-207912D01*
G01*
X240935460Y-183150003D02*
G75*
G02*
X239749400Y-182379767I-207912J978148D01*
G01*
X179085831Y-144877215D02*
G75*
G02*
X178315596Y-143691156I207912J978147D01*
G01*
X197359662Y-167211919D02*
G75*
G02*
X196173603Y-167982156I-978148J207911D01*
G01*
X274954460Y-84721997D02*
G75*
G02*
X275724696Y-83535937I978148J207912D01*
G01*
X278635460Y-97230003D02*
G75*
G02*
X277449400Y-96459767I-207912J978148D01*
G01*
X174756825Y-91712668D02*
G75*
G02*
X175942883Y-90942432I978147J-207911D01*
G01*
X187680655Y-93437372D02*
G75*
G02*
X188450890Y-94623431I-207912J-978147D01*
G01*
X185955950Y-106361203D02*
G75*
G02*
X184769891Y-107131438I-978147J207912D01*
G01*
X173032120Y-104636497D02*
G75*
G02*
X172261884Y-103450439I207911J978147D01*
G01*
X278214460Y-122981996D02*
G75*
G02*
X278984696Y-121795936I978148J207912D01*
G01*
X161476825Y-108362668D02*
G75*
G02*
X162662883Y-107592432I978147J-207911D01*
G01*
X174400655Y-110087372D02*
G75*
G02*
X175170890Y-111273431I-207912J-978147D01*
G01*
X180810535Y-131953385D02*
G75*
G02*
X181996595Y-131183149I978148J-207912D01*
G01*
X290172467Y-159900996D02*
G75*
G02*
X291358527Y-160671232I207912J-978148D01*
G01*
X191309662Y-126971919D02*
G75*
G02*
X190123603Y-127742156I-978148J207911D01*
G01*
X191665831Y-108597215D02*
G75*
G02*
X190895596Y-107411156I207912J978147D01*
G01*
X172675950Y-123011203D02*
G75*
G02*
X171489891Y-123781438I-978147J207912D01*
G01*
X159752120Y-121286497D02*
G75*
G02*
X158981884Y-120100439I207911J978147D01*
G01*
X175100655Y-129717372D02*
G75*
G02*
X175870890Y-130903431I-207912J-978147D01*
G01*
X167526825Y-148602668D02*
G75*
G02*
X168712883Y-147832432I978147J-207911D01*
G01*
X193390535Y-95673385D02*
G75*
G02*
X194576595Y-94903149I978148J-207912D01*
G01*
X290722467Y-119300996D02*
G75*
G02*
X291908527Y-120071232I207912J-978148D01*
G01*
X193034367Y-114048090D02*
G75*
G02*
X193804602Y-115234149I-207912J-978147D01*
G01*
X199084367Y-154288090D02*
G75*
G02*
X199854602Y-155474149I-207912J-978147D01*
G01*
X285783467Y-114159003D02*
G75*
G02*
X285013231Y-115345063I-978148J-207912D01*
G01*
X206314367Y-97398090D02*
G75*
G02*
X207084602Y-98584149I-207912J-978147D01*
G01*
X193734367Y-133678090D02*
G75*
G02*
X194504602Y-134864149I-207912J-978147D01*
G01*
X293853467Y-172409003D02*
G75*
G02*
X293083231Y-173595063I-978148J-207912D01*
G01*
X184435831Y-165487215D02*
G75*
G02*
X183665596Y-164301156I207912J978147D01*
G01*
X253443467Y-179469003D02*
G75*
G02*
X252673231Y-180655063I-978148J-207912D01*
G01*
X178725950Y-163251203D02*
G75*
G02*
X177539891Y-164021438I-978147J207912D01*
G01*
X281895460Y-135490003D02*
G75*
G02*
X280709400Y-134719767I-207912J978148D01*
G01*
X160452120Y-140916497D02*
G75*
G02*
X159681884Y-139730439I207911J978147D01*
G01*
X186160535Y-152563385D02*
G75*
G02*
X187346595Y-151793149I978148J-207912D01*
G01*
X256320748Y-88682714D02*
G75*
G02*
X257090984Y-87496654I978148J207912D01*
G01*
X282102467Y-101650996D02*
G75*
G02*
X283288527Y-102421232I207912J-978148D01*
G01*
X162176825Y-127992668D02*
G75*
G02*
X163362883Y-127222432I978147J-207911D01*
G01*
X285362467Y-139910996D02*
G75*
G02*
X286548527Y-140681232I207912J-978148D01*
G01*
X165802120Y-161526497D02*
G75*
G02*
X165031884Y-160340439I207911J978147D01*
G01*
X248516044Y-122080439D02*
G75*
G02*
X247745807Y-123266498I-978148J-207911D01*
G01*
X235242332Y-105431156D02*
G75*
G02*
X234472096Y-106617216I-978148J-207912D01*
G01*
X216953325Y-155474148D02*
G75*
G02*
X217723561Y-154288090I978147J207911D01*
G01*
X236008035Y-125761438D02*
G75*
G02*
X234821977Y-124991202I-207911J978147D01*
G01*
X229882332Y-126041156D02*
G75*
G02*
X229112096Y-127227216I-978148J-207912D01*
G01*
X253876044Y-101470439D02*
G75*
G02*
X253105807Y-102656498I-978148J-207911D01*
G01*
X232327037Y-113253431D02*
G75*
G02*
X233097272Y-112067372I978147J207912D01*
G01*
X222734325Y-109112156D02*
G75*
G02*
X221548265Y-108341920I-207912J978148D01*
G01*
X229461332Y-151793150D02*
G75*
G02*
X230647391Y-152563385I207912J-978147D01*
G01*
X235587037Y-151513431D02*
G75*
G02*
X236357272Y-150327372I978147J207912D01*
G01*
X219053325Y-96604148D02*
G75*
G02*
X219823561Y-95418090I978147J207911D01*
G01*
X217374325Y-129722156D02*
G75*
G02*
X216188265Y-128951920I-207912J978148D01*
G01*
X263261748Y-139450720D02*
G75*
G02*
X262075689Y-138680485I-207912J978147D01*
G01*
X237687037Y-92643431D02*
G75*
G02*
X238457272Y-91457372I978147J207912D01*
G01*
X244835043Y-109572431D02*
G75*
G02*
X246021103Y-110342667I207912J-978148D01*
G01*
X240947037Y-130903431D02*
G75*
G02*
X241717272Y-129717372I978147J207912D01*
G01*
X244628035Y-143411438D02*
G75*
G02*
X243441977Y-142641202I-207911J978147D01*
G01*
X238502332Y-143691156D02*
G75*
G02*
X237732096Y-144877216I-978148J-207912D01*
G01*
X253455043Y-127222431D02*
G75*
G02*
X254641103Y-127992667I207912J-978148D01*
G01*
X248095043Y-147832431D02*
G75*
G02*
X249281103Y-148602667I207912J-978148D01*
G01*
X222313325Y-134864148D02*
G75*
G02*
X223083561Y-133678090I978147J207911D01*
G01*
X220634325Y-167982156D02*
G75*
G02*
X219448265Y-167211920I-207912J978148D01*
G01*
X234821332Y-131183150D02*
G75*
G02*
X236007391Y-131953385I207912J-978147D01*
G01*
X270409754Y-156379721D02*
G75*
G02*
X269639519Y-157565780I-978147J-207912D01*
G01*
X257136044Y-139730439D02*
G75*
G02*
X256365807Y-140916498I-978148J-207911D01*
G01*
X257901748Y-160060720D02*
G75*
G02*
X256715689Y-159290485I-207912J978147D01*
G01*
X268828756Y-85001714D02*
G75*
G02*
X270014815Y-85771951I207911J-978148D01*
G01*
X272509754Y-97509721D02*
G75*
G02*
X271739519Y-98695780I-978147J-207912D01*
G01*
X260001748Y-101190720D02*
G75*
G02*
X258815689Y-100420485I-207912J978147D01*
G01*
X250960748Y-109292714D02*
G75*
G02*
X251730984Y-108106654I978148J207912D01*
G01*
X263468756Y-105611713D02*
G75*
G02*
X264654815Y-106381950I207911J-978148D01*
G01*
X267149754Y-118119721D02*
G75*
G02*
X266379519Y-119305780I-978147J-207912D01*
G01*
X231561332Y-92923150D02*
G75*
G02*
X232747391Y-93693385I207912J-978147D01*
G01*
X251776044Y-160340439D02*
G75*
G02*
X251005807Y-161526498I-978148J-207911D01*
G01*
X213693325Y-117214148D02*
G75*
G02*
X214463561Y-116028090I978147J207911D01*
G01*
X254641748Y-121800720D02*
G75*
G02*
X253455689Y-121030485I-207912J978147D01*
G01*
X272088756Y-123261713D02*
G75*
G02*
X273274815Y-124031950I207911J-978148D01*
G01*
X241368035Y-105151438D02*
G75*
G02*
X240181977Y-104381202I-207911J978147D01*
G01*
X225994325Y-147372156D02*
G75*
G02*
X224808265Y-146601920I-207912J978148D01*
G01*
X259580748Y-126942714D02*
G75*
G02*
X260350984Y-125756654I978148J207912D01*
G01*
X254220748Y-147552714D02*
G75*
G02*
X254990984Y-146366654I978148J207912D01*
G01*
X275769754Y-135769721D02*
G75*
G02*
X274999519Y-136955780I-978147J-207912D01*
G01*
X266728756Y-143871713D02*
G75*
G02*
X267914815Y-144641950I207911J-978148D01*
G01*
X226201332Y-113533150D02*
G75*
G02*
X227387391Y-114303385I207912J-978147D01*
G01*
X239268035Y-164021438D02*
G75*
G02*
X238081977Y-163251202I-207911J978147D01*
G01*
X233142332Y-164301156D02*
G75*
G02*
X232372096Y-165487216I-978148J-207912D01*
G01*
X250195043Y-88962431D02*
G75*
G02*
X251381103Y-89732667I207912J-978148D01*
G01*
X91498963Y-101345500D02*
G75*
G02*
X92498963Y-102345500I0J-1000000D01*
G01*
X137133231Y-102165936D02*
G75*
G02*
X137903467Y-103351996I-207912J-978148D01*
G01*
X128534696Y-153605063D02*
G75*
G02*
X127764460Y-152419003I207912J978148D01*
G01*
X92498963Y-114345499D02*
G75*
G02*
X91498964Y-115345500I-1000000J-1D01*
G01*
X138373231Y-162395936D02*
G75*
G02*
X139143467Y-163581996I-207912J-978148D01*
G01*
X89811464Y-120395500D02*
G75*
G02*
X90811464Y-121395500I0J-1000000D01*
G01*
X73112465Y-134395500D02*
G75*
G02*
X72112463Y-133395500I-1J1000001D01*
G01*
X135408527Y-115089767D02*
G75*
G02*
X134222467Y-115860003I-978148J207912D01*
G01*
X124909400Y-120071232D02*
G75*
G02*
X126095460Y-119300996I978148J-207912D01*
G01*
X104008963Y-134395500D02*
G75*
G02*
X103008963Y-133395500I0J1000000D01*
G01*
X135764696Y-96715063D02*
G75*
G02*
X134994460Y-95529003I207912J978148D01*
G01*
X136648527Y-175319767D02*
G75*
G02*
X135462467Y-176090003I-978148J207912D01*
G01*
X115308962Y-101345499D02*
G75*
G02*
X116308964Y-102345499I1J-1000001D01*
G01*
X169046942Y-89476654D02*
G75*
G02*
X169817179Y-90662713I-207911J-978148D01*
G01*
X103308963Y-115345500D02*
G75*
G02*
X102308963Y-114345500I0J1000000D01*
G01*
X78498963Y-102345499D02*
G75*
G02*
X79498963Y-101345499I1000000J0D01*
G01*
X79498963Y-115345500D02*
G75*
G02*
X78498963Y-114345500I0J1000000D01*
G01*
X154398408Y-100675781D02*
G75*
G02*
X153628172Y-99489721I207912J978148D01*
G01*
X141818408Y-136955781D02*
G75*
G02*
X141048172Y-135769721I207912J978148D01*
G01*
X156123114Y-87751949D02*
G75*
G02*
X157309172Y-86981715I978146J-207912D01*
G01*
X167322239Y-102400485D02*
G75*
G02*
X166136179Y-103170721I-978148J207912D01*
G01*
X147168408Y-157565781D02*
G75*
G02*
X146398172Y-156379721I207912J978148D01*
G01*
X117008963Y-133395499D02*
G75*
G02*
X116008964Y-134395500I-1000000J-1D01*
G01*
X143183231Y-142405936D02*
G75*
G02*
X143953467Y-143591996I-207912J-978148D01*
G01*
X123184696Y-132995063D02*
G75*
G02*
X122414460Y-131809003I207912J978148D01*
G01*
X156466942Y-125756654D02*
G75*
G02*
X157237179Y-126942713I-207911J-978148D01*
G01*
X154042239Y-119050485D02*
G75*
G02*
X152856179Y-119820721I-978148J207912D01*
G01*
X103008963Y-121395500D02*
G75*
G02*
X104008963Y-120395500I1000000J0D01*
G01*
X137489400Y-83791233D02*
G75*
G02*
X138675460Y-83020997I978148J-207912D01*
G01*
X123724696Y-173595063D02*
G75*
G02*
X122954460Y-172409003I207912J978148D01*
G01*
X136108527Y-134719767D02*
G75*
G02*
X134922467Y-135490003I-978148J207912D01*
G01*
X130259400Y-140681232D02*
G75*
G02*
X131445460Y-139910996I978148J-207912D01*
G01*
X148893113Y-144641949D02*
G75*
G02*
X150079172Y-143871714I978147J-207912D01*
G01*
X160092239Y-159290485D02*
G75*
G02*
X158906179Y-160060721I-978148J207912D01*
G01*
X116588964Y-94155500D02*
G75*
G02*
X115588964Y-93155500I0J1000000D01*
G01*
X116008963Y-120395500D02*
G75*
G02*
X117008964Y-121395499I1J-1000000D01*
G01*
X116308963Y-114345499D02*
G75*
G02*
X115308964Y-115345500I-1000000J-1D01*
G01*
X143543113Y-124031949D02*
G75*
G02*
X144729172Y-123261714I978147J-207912D01*
G01*
X77898963Y-83295500D02*
G75*
G02*
X78898963Y-82295500I1000000J0D01*
G01*
X97948963Y-96295500D02*
G75*
G02*
X96948963Y-95295500I0J1000000D01*
G01*
X90898964Y-82295500D02*
G75*
G02*
X91898964Y-83295500I0J-1000000D01*
G01*
X91898964Y-95295500D02*
G75*
G02*
X90898964Y-96295500I-1000000J0D01*
G01*
X102308962Y-102345500D02*
G75*
G02*
X103308963Y-101345499I1000001J0D01*
G01*
X110948964Y-95295500D02*
G75*
G02*
X109948964Y-96295500I-1000000J0D01*
G01*
X154742239Y-138680485D02*
G75*
G02*
X153556179Y-139450721I-978148J207912D01*
G01*
X124209400Y-100441232D02*
G75*
G02*
X125395460Y-99670996I978148J-207912D01*
G01*
X150413231Y-85515937D02*
G75*
G02*
X151183467Y-86701997I-207912J-978148D01*
G01*
X141118408Y-117325781D02*
G75*
G02*
X140348172Y-116139721I207912J978148D01*
G01*
X122484696Y-113365063D02*
G75*
G02*
X121714460Y-112179003I207912J978148D01*
G01*
X78898963Y-96295500D02*
G75*
G02*
X77898963Y-95295500I0J1000000D01*
G01*
X96948963Y-83295500D02*
G75*
G02*
X97948963Y-82295500I1000000J0D01*
G01*
X90811465Y-133395499D02*
G75*
G02*
X89811464Y-134395500I-1000001J0D01*
G01*
X141458527Y-155329767D02*
G75*
G02*
X140272467Y-156100003I-978148J207912D01*
G01*
X142843113Y-104401949D02*
G75*
G02*
X144029172Y-103631714I978147J-207912D01*
G01*
X161816942Y-146366654D02*
G75*
G02*
X162587179Y-147552713I-207911J-978148D01*
G01*
X115588964Y-81155500D02*
G75*
G02*
X116588964Y-80155500I1000000J0D01*
G01*
X109948964Y-82295500D02*
G75*
G02*
X110948964Y-83295500I0J-1000000D01*
G01*
X128588963Y-80155501D02*
G75*
G02*
X129588964Y-81155500I1J-1000000D01*
G01*
X155766942Y-106126654D02*
G75*
G02*
X156537179Y-107312713I-207911J-978148D01*
G01*
X129588964Y-93155500D02*
G75*
G02*
X128588964Y-94155500I-1000000J0D01*
G01*
X125449400Y-160671232D02*
G75*
G02*
X126635460Y-159900996I978148J-207912D01*
G01*
X148688527Y-98439767D02*
G75*
G02*
X147502467Y-99210003I-978148J207912D01*
G01*
X137833231Y-121795936D02*
G75*
G02*
X138603467Y-122981996I-207912J-978148D01*
G01*
X72112464Y-121395500D02*
G75*
G02*
X73112464Y-120395500I1000000J0D01*
G01*
X257600254Y-163250341D02*
G75*
G02*
X258786313Y-164020578I207911J-978148D01*
G01*
X336315964Y-98295500D02*
G75*
G02*
X335315964Y-97295500I0J1000000D01*
G01*
X232473939Y-183926214D02*
G75*
G02*
X231287879Y-183155978I-207912J978148D01*
G01*
X156963256Y-179123287D02*
G75*
G02*
X156192989Y-177937372I207911J978148D01*
G01*
X372246963Y-132395499D02*
G75*
G02*
X371246963Y-133395499I-1000000J0D01*
G01*
X360191964Y-98295500D02*
G75*
G02*
X359191964Y-97295500I0J1000000D01*
G01*
X251939279Y-165475960D02*
G75*
G02*
X252709515Y-164289900I978148J207912D01*
G01*
X335228965Y-96295500D02*
G75*
G02*
X334228963Y-95295500I-1J1000001D01*
G01*
X367278964Y-95295500D02*
G75*
G02*
X366278964Y-96295500I-1000000J0D01*
G01*
X342370963Y-133395499D02*
G75*
G02*
X341370963Y-132395499I0J1000000D01*
G01*
X261489165Y-176736496D02*
G75*
G02*
X260718929Y-177922556I-978148J-207912D01*
G01*
X371246963Y-118395499D02*
G75*
G02*
X372246963Y-119395499I0J-1000000D01*
G01*
X234246001Y-168214442D02*
G75*
G02*
X235432060Y-168984677I207912J-978147D01*
G01*
X365246963Y-119395499D02*
G75*
G02*
X366246963Y-118395499I1000000J0D01*
G01*
X228585028Y-170440059D02*
G75*
G02*
X229355263Y-169254000I978147J207912D01*
G01*
X366278964Y-82295500D02*
G75*
G02*
X367278964Y-83295500I0J-1000000D01*
G01*
X347370963Y-118395499D02*
G75*
G02*
X348370963Y-119395499I0J-1000000D01*
G01*
X342315964Y-97295500D02*
G75*
G02*
X341315964Y-98295500I-1000000J0D01*
G01*
X366191964Y-97295500D02*
G75*
G02*
X365191964Y-98295500I-1000000J0D01*
G01*
X334228963Y-83295501D02*
G75*
G02*
X335228964Y-82295500I1000001J0D01*
G01*
X341370963Y-119395499D02*
G75*
G02*
X342370963Y-118395499I1000000J0D01*
G01*
X148922968Y-176389375D02*
G75*
G02*
X148152732Y-175203315I207912J978148D01*
G01*
X379887715Y-152445499D02*
G75*
G02*
X378887714Y-153445500I-1000001J0D01*
G01*
X365656964Y-155445500D02*
G75*
G02*
X364656964Y-154445500I0J1000000D01*
G01*
X59648963Y-118255499D02*
G75*
G02*
X60648964Y-119255500I0J-1000001D01*
G01*
X99846964Y-154445500D02*
G75*
G02*
X98846964Y-155445500I-1000000J0D01*
G01*
X339693964Y-140445499D02*
G75*
G02*
X340693964Y-139445499I1000000J0D01*
G01*
X93846964Y-155445500D02*
G75*
G02*
X92846964Y-154445500I0J1000000D01*
G01*
X60648964Y-131255498D02*
G75*
G02*
X59648964Y-132255500I-1000001J-1D01*
G01*
X75970964Y-154445500D02*
G75*
G02*
X74970964Y-155445500I-1000000J0D01*
G01*
X378887714Y-139445500D02*
G75*
G02*
X379887714Y-140445500I0J-1000000D01*
G01*
X69970964Y-155445500D02*
G75*
G02*
X68970964Y-154445500I0J1000000D01*
G01*
X341780964Y-155445500D02*
G75*
G02*
X340780964Y-154445500I0J1000000D01*
G01*
X347780964Y-154445500D02*
G75*
G02*
X346780964Y-155445500I-1000000J0D01*
G01*
X90408964Y-139445499D02*
G75*
G02*
X91408964Y-140445499I0J-1000000D01*
G01*
X68970964Y-141445500D02*
G75*
G02*
X69970964Y-140445500I1000000J0D01*
G01*
X98846964Y-140445500D02*
G75*
G02*
X99846964Y-141445500I0J-1000000D01*
G01*
X46648964Y-119255499D02*
G75*
G02*
X47648964Y-118255499I1000000J0D01*
G01*
X340693964Y-153445500D02*
G75*
G02*
X339693964Y-152445500I0J1000000D01*
G01*
X47648966Y-132255500D02*
G75*
G02*
X46648964Y-131255500I-1J1000001D01*
G01*
X371656964Y-154445500D02*
G75*
G02*
X370656964Y-155445500I-1000000J0D01*
G01*
X77408964Y-140445498D02*
G75*
G02*
X78408964Y-139445500I999999J-1D01*
G01*
X50718965Y-100205500D02*
G75*
G02*
X51718965Y-99205500I1000000J0D01*
G01*
X67878964Y-80155501D02*
G75*
G02*
X68878964Y-81155501I0J-1000000D01*
G01*
X305188964Y-113285500D02*
G75*
G02*
X304188964Y-114285500I-1000000J0D01*
G01*
X63718963Y-99205500D02*
G75*
G02*
X64718963Y-100205500I0J-1000000D01*
G01*
X64718964Y-112205500D02*
G75*
G02*
X63718964Y-113205500I-1000000J0D01*
G01*
X84268964Y-171495498D02*
G75*
G02*
X83268964Y-172495500I-1000001J-1D01*
G01*
X327498964Y-152445500D02*
G75*
G02*
X326498964Y-153445500I-1000000J0D01*
G01*
X342868965Y-114345499D02*
G75*
G02*
X341868964Y-115345500I-1000001J0D01*
G01*
X350808965Y-134395499D02*
G75*
G02*
X349808964Y-133395500I-1J1000000D01*
G01*
X366688964Y-114345500D02*
G75*
G02*
X365688964Y-115345500I-1000000J0D01*
G01*
X308448965Y-152445499D02*
G75*
G02*
X307448964Y-153445500I-1000001J0D01*
G01*
X371444565Y-171543499D02*
G75*
G02*
X370444564Y-172543500I-1000001J0D01*
G01*
X299808964Y-121395500D02*
G75*
G02*
X300808964Y-120395500I1000000J0D01*
G01*
X304188964Y-100285500D02*
G75*
G02*
X305188964Y-101285500I0J-1000000D01*
G01*
X313498963Y-140445500D02*
G75*
G02*
X314498964Y-139445499I1000001J0D01*
G01*
X294448963Y-140445501D02*
G75*
G02*
X295448963Y-139445499I1000001J1D01*
G01*
X109358964Y-153445501D02*
G75*
G02*
X108358963Y-152445500I0J1000001D01*
G01*
X314498965Y-153445499D02*
G75*
G02*
X313498964Y-152445500I-1J1000000D01*
G01*
X51718964Y-113205499D02*
G75*
G02*
X50718965Y-112205500I0J999999D01*
G01*
X331858963Y-120395500D02*
G75*
G02*
X332858964Y-121395499I1J-1000000D01*
G01*
X309818964Y-102345499D02*
G75*
G02*
X310818964Y-101345499I1000000J0D01*
G01*
X365688964Y-101345499D02*
G75*
G02*
X366688964Y-102345499I0J-1000000D01*
G01*
X326498964Y-139445499D02*
G75*
G02*
X327498964Y-140445499I0J-1000000D01*
G01*
X68878964Y-93155500D02*
G75*
G02*
X67878964Y-94155500I-1000000J0D01*
G01*
X370444564Y-158543500D02*
G75*
G02*
X371444564Y-159543500I0J-1000000D01*
G01*
X318858962Y-121395500D02*
G75*
G02*
X319858963Y-120395499I1000001J0D01*
G01*
X108358963Y-140445500D02*
G75*
G02*
X109358963Y-139445500I1000000J0D01*
G01*
X316178964Y-96295499D02*
G75*
G02*
X315178963Y-95295500I-1J1000000D01*
G01*
X310548965Y-93155499D02*
G75*
G02*
X309548964Y-94155500I-1000001J0D01*
G01*
X332858965Y-133395499D02*
G75*
G02*
X331858964Y-134395500I-1000001J0D01*
G01*
X121358964Y-139445499D02*
G75*
G02*
X122358964Y-140445499I0J-1000000D01*
G01*
X312808963Y-120395500D02*
G75*
G02*
X313808964Y-121395499I1J-1000000D01*
G01*
X341868963Y-101345500D02*
G75*
G02*
X342868964Y-102345499I1J-1000000D01*
G01*
X313808965Y-133395499D02*
G75*
G02*
X312808964Y-134395500I-1000001J0D01*
G01*
X292188965Y-114285500D02*
G75*
G02*
X291188963Y-113285500I-1J1000001D01*
G01*
X315178962Y-83295501D02*
G75*
G02*
X316178963Y-82295500I1000001J0D01*
G01*
X329868964Y-115345500D02*
G75*
G02*
X328868964Y-114345500I0J1000000D01*
G01*
X353688965Y-115345500D02*
G75*
G02*
X352688963Y-114345500I-1J1000001D01*
G01*
X54878964Y-81155501D02*
G75*
G02*
X55878964Y-80155501I1000000J0D01*
G01*
X55878964Y-94155500D02*
G75*
G02*
X54878964Y-93155500I0J1000000D01*
G01*
X357444563Y-159543500D02*
G75*
G02*
X358444564Y-158543499I1000001J0D01*
G01*
X71268965Y-172495500D02*
G75*
G02*
X70268963Y-171495500I-1J1000001D01*
G01*
X307448964Y-139445500D02*
G75*
G02*
X308448964Y-140445500I0J-1000000D01*
G01*
X328178964Y-82295500D02*
G75*
G02*
X329178964Y-83295500I0J-1000000D01*
G01*
X358444565Y-172543500D02*
G75*
G02*
X357444563Y-171543500I-1J1000001D01*
G01*
X363808964Y-133395500D02*
G75*
G02*
X362808964Y-134395500I-1000000J0D01*
G01*
X295448965Y-153445500D02*
G75*
G02*
X294448963Y-152445500I-1J1000001D01*
G01*
X322818963Y-101345500D02*
G75*
G02*
X323818964Y-102345499I1J-1000000D01*
G01*
X310818964Y-115345500D02*
G75*
G02*
X309818964Y-114345500I0J1000000D01*
G01*
X300808964Y-134395500D02*
G75*
G02*
X299808964Y-133395500I0J1000000D01*
G01*
X297548965Y-94155499D02*
G75*
G02*
X296548964Y-93155500I-1J1000000D01*
G01*
X328868964Y-102345499D02*
G75*
G02*
X329868964Y-101345499I1000000J0D01*
G01*
X352688963Y-102345500D02*
G75*
G02*
X353688964Y-101345499I1000001J0D01*
G01*
X122358963Y-152445499D02*
G75*
G02*
X121358964Y-153445500I-1000000J-1D01*
G01*
X291188963Y-101285501D02*
G75*
G02*
X292188963Y-100285499I1000001J1D01*
G01*
X296548963Y-81155501D02*
G75*
G02*
X297548964Y-80155500I1000001J0D01*
G01*
X309548963Y-80155501D02*
G75*
G02*
X310548964Y-81155500I1J-1000000D01*
G01*
X323818965Y-114345499D02*
G75*
G02*
X322818964Y-115345500I-1000001J0D01*
G01*
X329178964Y-95295501D02*
G75*
G02*
X328178963Y-96295500I-1000000J1D01*
G01*
X70268964Y-159495499D02*
G75*
G02*
X71268963Y-158495500I999999J0D01*
G01*
X319858964Y-134395499D02*
G75*
G02*
X318858963Y-133395500I-1J1000000D01*
G01*
X83268964Y-158495500D02*
G75*
G02*
X84268964Y-159495500I0J-1000000D01*
G01*
X336315964Y-98295500D02*
X341315964Y-98295500D01*
X257600253Y-163250342D02*
X252709515Y-164289900D01*
X360191964Y-98295500D02*
X365191964Y-98295500D01*
X335315964Y-96295500D02*
X335315964Y-97295500D01*
X366191964Y-97295500D02*
X366191964Y-96295500D01*
X234246001Y-168214441D02*
X229355263Y-169254000D01*
X92837000Y-153441400D02*
X92846964Y-154445500D01*
X77408964Y-140445498D02*
X69970964Y-140445500D01*
X69970964Y-155445500D02*
X74970964Y-155445500D01*
X342315964Y-97295500D02*
X342315964Y-96295500D01*
X335228964Y-96295500D02*
X335315964Y-96295500D01*
X334228964Y-83295500D02*
X334228964Y-95295500D01*
X335228964Y-82295500D02*
X366278964Y-82295500D01*
X367278964Y-83295500D02*
X367278964Y-95295500D01*
X228585027Y-170440059D02*
X231287879Y-183155978D01*
X366191964Y-96295500D02*
X366278964Y-96295500D01*
X348386400Y-120395500D02*
X348370963Y-119395499D01*
X253443467Y-179469003D02*
X260718929Y-177922556D01*
X93846964Y-155445500D02*
X98846964Y-155445500D01*
X342370963Y-133395499D02*
X349808964Y-133395500D01*
X235635800Y-169976800D02*
X235432060Y-168984677D01*
X341370963Y-119395499D02*
X341370963Y-132395499D01*
X261489165Y-176736497D02*
X258786313Y-164020578D01*
X347370963Y-118395499D02*
X342370963Y-118395499D01*
X68970964Y-141445500D02*
X68970964Y-154445500D01*
X232473939Y-183926214D02*
X239749400Y-182379767D01*
X340693964Y-139445500D02*
X362218964Y-139445500D01*
X364655100Y-153445500D02*
X364656964Y-154445500D01*
X64718964Y-100205500D02*
X64718964Y-112205500D01*
X46648964Y-119255500D02*
X46648964Y-131255500D01*
X340780964Y-153445500D02*
X340780964Y-154445500D01*
X340693964Y-153445500D02*
X340780964Y-153445500D01*
X47648964Y-118255500D02*
X59648964Y-118255500D01*
X51718965Y-113205500D02*
X63718963Y-113205500D01*
X371656964Y-154445500D02*
X371656964Y-153445500D01*
X78408964Y-139445500D02*
X90408963Y-139445500D01*
X54878964Y-81155501D02*
X54878964Y-93155500D01*
X347780964Y-153445500D02*
X364655100Y-153445500D01*
X84268964Y-159495500D02*
X84268964Y-171495500D01*
X371444564Y-159543500D02*
X371444564Y-171543500D01*
X341780964Y-155445500D02*
X346780964Y-155445500D01*
X55878964Y-94155500D02*
X67878964Y-94155500D01*
X71268964Y-158495500D02*
X83268964Y-158495500D01*
X68878964Y-81155501D02*
X68878964Y-93155500D01*
X313498964Y-140445500D02*
X313498964Y-152445500D01*
X314498964Y-139445500D02*
X326498964Y-139445500D01*
X347780964Y-154445500D02*
X347780964Y-153445500D01*
X362218964Y-139445500D02*
X378887714Y-139445500D01*
X55878964Y-80155501D02*
X67878964Y-80155501D01*
X75971400Y-153441400D02*
X92837000Y-153441400D01*
X379887714Y-140445500D02*
X379887714Y-152445500D01*
X314498964Y-153445500D02*
X326498964Y-153445500D01*
X365656964Y-155445500D02*
X370656964Y-155445500D01*
X60648964Y-119255500D02*
X60648964Y-131255500D01*
X51718965Y-99205500D02*
X63718963Y-99205500D01*
X358444564Y-158543500D02*
X370444564Y-158543500D01*
X327498964Y-140445500D02*
X327498964Y-152445500D01*
X71268964Y-172495500D02*
X83268964Y-172495500D01*
X98846964Y-140445500D02*
X91408964Y-140445499D01*
X99846964Y-154445500D02*
X99846964Y-141445500D01*
X70268964Y-159495500D02*
X70268964Y-171495500D01*
X371656964Y-153445500D02*
X378887714Y-153445500D01*
X47648964Y-132255500D02*
X59648964Y-132255500D01*
X50718964Y-100205500D02*
X50718965Y-112205500D01*
X339693964Y-140445500D02*
X339693964Y-152445500D01*
X109358963Y-139445500D02*
X121358964Y-139445500D01*
X78898963Y-96295500D02*
X90898964Y-96295500D01*
X295448964Y-139445500D02*
X307448964Y-139445500D01*
X305188964Y-101285500D02*
X305188964Y-113285500D01*
X319858963Y-134395500D02*
X331858964Y-134395500D01*
X308448964Y-140445500D02*
X308448964Y-152445500D01*
X310818964Y-101345499D02*
X322818964Y-101345499D01*
X316178963Y-96295500D02*
X328178964Y-96295500D01*
X295448964Y-153445500D02*
X307448964Y-153445500D01*
X329868964Y-115345500D02*
X341868964Y-115345500D01*
X310548963Y-81155500D02*
X310548963Y-93155500D01*
X296548964Y-81155500D02*
X296548964Y-93155500D01*
X78898963Y-82295500D02*
X90898964Y-82295500D01*
X366688964Y-102345500D02*
X366688964Y-114345500D01*
X316178963Y-82295501D02*
X328178964Y-82295501D01*
X297548964Y-94155500D02*
X309548964Y-94155500D01*
X122358964Y-140445500D02*
X122358964Y-152445500D01*
X319858963Y-120395500D02*
X331858964Y-120395500D01*
X109358963Y-153445500D02*
X121358964Y-153445500D01*
X358444564Y-172543500D02*
X370444564Y-172543500D01*
X292188964Y-114285500D02*
X304188964Y-114285500D01*
X348386400Y-120395500D02*
X365252000Y-120395500D01*
X292188964Y-100285500D02*
X304188964Y-100285500D01*
X342868964Y-102345500D02*
X342868964Y-114345500D01*
X357444564Y-159543500D02*
X357444564Y-171543500D01*
X332858964Y-121395500D02*
X332858964Y-133395500D01*
X318858963Y-121395500D02*
X318858963Y-133395500D01*
X294448964Y-140445500D02*
X294448964Y-152445500D01*
X328868964Y-102345500D02*
X328868964Y-114345500D01*
X108358963Y-140445500D02*
X108358963Y-152445500D01*
X310818964Y-115345500D02*
X322818964Y-115345500D01*
X352688964Y-102345500D02*
X352688964Y-114345500D01*
X300808964Y-134395500D02*
X312808964Y-134395500D01*
X297548964Y-80155500D02*
X309548964Y-80155500D01*
X291188964Y-101285500D02*
X291188964Y-113285500D01*
X299808964Y-121395500D02*
X299808964Y-133395500D01*
X300808964Y-120395500D02*
X312808964Y-120395500D01*
X329178964Y-83295501D02*
X329178964Y-95295500D01*
X350808964Y-134395500D02*
X362808964Y-134395500D01*
X323818964Y-102345500D02*
X323818964Y-114345500D01*
X91898964Y-83295500D02*
X91898964Y-95295500D01*
X309818964Y-102345500D02*
X309818964Y-114345500D01*
X353688964Y-115345500D02*
X365688964Y-115345500D01*
X315178963Y-83295501D02*
X315178963Y-95295500D01*
X313808964Y-121395500D02*
X313808964Y-133395500D01*
X329868964Y-101345499D02*
X341868964Y-101345499D01*
X353688964Y-101345499D02*
X365688964Y-101345499D01*
X97948963Y-96295500D02*
X109948964Y-96295500D01*
X129588964Y-81155500D02*
X129588964Y-93155500D01*
X115588964Y-81155500D02*
X115588964Y-93155500D01*
X124909400Y-120071232D02*
X122414460Y-131809003D01*
X128534696Y-153605063D02*
X140272467Y-156100003D01*
X78498963Y-102345500D02*
X78498963Y-114345500D01*
X123724696Y-173595063D02*
X135462467Y-176090003D01*
X116308964Y-102345500D02*
X116308964Y-114345500D01*
X90811464Y-121395500D02*
X90811464Y-133395500D01*
X73112465Y-134395500D02*
X89811464Y-134395500D01*
X125449400Y-160671232D02*
X122954460Y-172409003D01*
X104008963Y-120395500D02*
X116008964Y-120395500D01*
X104008963Y-134395500D02*
X116008964Y-134395500D01*
X139143467Y-163581996D02*
X136648527Y-175319767D01*
X77898963Y-83295500D02*
X77898963Y-95295500D01*
X97948963Y-82295500D02*
X109948964Y-82295500D01*
X102308963Y-102345500D02*
X102308963Y-114345500D01*
X125395460Y-99670996D02*
X137133231Y-102165936D01*
X92498963Y-102345500D02*
X92498963Y-114345500D01*
X124209400Y-100441232D02*
X121714460Y-112179003D01*
X110948964Y-83295500D02*
X110948964Y-95295500D01*
X96948963Y-83295500D02*
X96948963Y-95295500D01*
X79498963Y-101345499D02*
X91498963Y-101345499D01*
X137489400Y-83791233D02*
X134994460Y-95529003D01*
X137903467Y-103351996D02*
X135408527Y-115089767D01*
X157309172Y-86981715D02*
X169046943Y-89476654D01*
X126635460Y-159900996D02*
X138373231Y-162395936D01*
X116588964Y-80155500D02*
X128588964Y-80155500D01*
X103008963Y-121395500D02*
X103008963Y-133395500D01*
X151183467Y-86701997D02*
X148688527Y-98439767D01*
X138675460Y-83020997D02*
X150413231Y-85515937D01*
X122484696Y-113365063D02*
X134222467Y-115860003D01*
X72112464Y-121395500D02*
X72112464Y-133395500D01*
X116588964Y-94155500D02*
X128588964Y-94155500D01*
X138603467Y-122981996D02*
X136108527Y-134719767D01*
X103308963Y-101345499D02*
X115308963Y-101345499D01*
X143953467Y-143591996D02*
X141458527Y-155329767D01*
X123184696Y-132995063D02*
X134922467Y-135490003D01*
X103308963Y-115345500D02*
X115308963Y-115345500D01*
X73112464Y-120395500D02*
X89811464Y-120395500D01*
X79498963Y-115345500D02*
X91498963Y-115345500D01*
X135764696Y-96715063D02*
X147502467Y-99210003D01*
X130259400Y-140681232D02*
X127764460Y-152419003D01*
X117008964Y-121395500D02*
X117008964Y-133395500D01*
X131445460Y-139910996D02*
X143183231Y-142405936D01*
X126095460Y-119300996D02*
X137833231Y-121795936D01*
X281345460Y-176090003D02*
X293083231Y-173595063D01*
X277664460Y-163581996D02*
X280159400Y-175319767D01*
X286548527Y-140681232D02*
X289043467Y-152419003D01*
X278434696Y-162395936D02*
X290172467Y-159900996D01*
X276535460Y-156100003D02*
X288273231Y-153605063D01*
X186160536Y-152563385D02*
X183665596Y-164301156D01*
X291358527Y-160671232D02*
X293853467Y-172409003D01*
X235635800Y-169976800D02*
X252120400Y-166471600D01*
X273624696Y-142405936D02*
X285362467Y-139910996D01*
X283288527Y-102421232D02*
X285783467Y-114159003D01*
X180810536Y-131953385D02*
X178315596Y-143691156D01*
X187346595Y-151793149D02*
X199084366Y-154288090D01*
X273275460Y-117840003D02*
X285013231Y-115345063D01*
X274954460Y-84721997D02*
X277449400Y-96459767D01*
X281895460Y-135490003D02*
X293633231Y-132995063D01*
X278635460Y-97230003D02*
X290373231Y-94735063D01*
X278984696Y-121795936D02*
X290722467Y-119300996D01*
X278214460Y-122981996D02*
X280709400Y-134719767D01*
X275724696Y-83535937D02*
X287462467Y-81040997D01*
X269594460Y-105331996D02*
X272089400Y-117069767D01*
X291908527Y-120071232D02*
X294403467Y-131809003D01*
X194576595Y-94903149D02*
X206314366Y-97398090D01*
X207084602Y-98584149D02*
X204589662Y-110321920D01*
X191665831Y-108597216D02*
X203403603Y-111092156D01*
X193804602Y-115234149D02*
X191309662Y-126971920D01*
X180110536Y-112323385D02*
X177615596Y-124061156D01*
X193390536Y-95673385D02*
X190895596Y-107411156D01*
X181296595Y-111553149D02*
X193034366Y-114048090D01*
X199854602Y-155474149D02*
X197359662Y-167211920D01*
X272854460Y-143591996D02*
X275349400Y-155329767D01*
X288648527Y-81811233D02*
X291143467Y-93549003D01*
X178385831Y-125247216D02*
X190123603Y-127742156D01*
X181996595Y-131183149D02*
X193734366Y-133678090D01*
X194504602Y-134864149D02*
X192009662Y-146601920D01*
X179085831Y-144877216D02*
X190823603Y-147372156D01*
X270364696Y-104145936D02*
X282102467Y-101650996D01*
X184435831Y-165487216D02*
X196173603Y-167982156D01*
X217374324Y-129722156D02*
X229112096Y-127227216D01*
X251381103Y-89732667D02*
X253876043Y-101470439D01*
X225994324Y-147372156D02*
X237732096Y-144877216D01*
X236007391Y-131953385D02*
X238502331Y-143691156D01*
X251730984Y-108106654D02*
X263468755Y-105611714D01*
X259580748Y-126942713D02*
X262075689Y-138680485D01*
X222313325Y-134864149D02*
X224808265Y-146601920D01*
X236008036Y-125761438D02*
X247745807Y-123266498D01*
X257901748Y-160060721D02*
X269639519Y-157565780D01*
X241717272Y-129717372D02*
X253455044Y-127222432D01*
X219823561Y-95418090D02*
X231561332Y-92923149D01*
X223083561Y-133678090D02*
X234821332Y-131183149D01*
X233097272Y-112067372D02*
X244835044Y-109572432D01*
X246021103Y-110342667D02*
X248516043Y-122080439D01*
X232327037Y-113253431D02*
X234821977Y-124991202D01*
X217723561Y-154288090D02*
X229461332Y-151793149D01*
X230647391Y-152563385D02*
X233142331Y-164301156D01*
X239268036Y-164021438D02*
X251005807Y-161526498D01*
X240947037Y-130903431D02*
X243441977Y-142641202D01*
X270014815Y-85771951D02*
X272509755Y-97509721D01*
X214463561Y-116028090D02*
X226201332Y-113533149D01*
X254990984Y-146366654D02*
X266728755Y-143871714D01*
X237687037Y-92643431D02*
X240181977Y-104381202D01*
X267914815Y-144641950D02*
X270409755Y-156379721D01*
X232747391Y-93693385D02*
X235242331Y-105431156D01*
X240935460Y-183150003D02*
X252673231Y-180655063D01*
X249281103Y-148602667D02*
X251776043Y-160340439D01*
X257090984Y-87496654D02*
X268828755Y-85001715D01*
X260001748Y-101190721D02*
X271739519Y-98695780D01*
X264654815Y-106381950D02*
X267149755Y-118119721D01*
X235587037Y-151513431D02*
X238081977Y-163251202D01*
X227387391Y-114303385D02*
X229882331Y-126041156D01*
X216953325Y-155474149D02*
X219448265Y-167211920D01*
X220634324Y-167982156D02*
X232372096Y-165487216D01*
X236357272Y-150327372D02*
X248095044Y-147832432D01*
X260350984Y-125756654D02*
X272088755Y-123261714D01*
X256320748Y-88682713D02*
X258815689Y-100420485D01*
X254641748Y-121800721D02*
X266379519Y-119305780D01*
X254220748Y-147552713D02*
X256715689Y-159290485D01*
X254641103Y-127992667D02*
X257136043Y-139730439D01*
X222734324Y-109112156D02*
X234472096Y-106617216D01*
X250960748Y-109292713D02*
X253455689Y-121030485D01*
X219053325Y-96604149D02*
X221548265Y-108341920D01*
X244628036Y-143411438D02*
X256365807Y-140916498D01*
X213693325Y-117214149D02*
X216188265Y-128951920D01*
X273274815Y-124031950D02*
X275769755Y-135769721D01*
X263261748Y-139450721D02*
X274999519Y-136955780D01*
X241368036Y-105151438D02*
X253105807Y-102656498D01*
X238457272Y-91457372D02*
X250195044Y-88962432D01*
X142843112Y-104401950D02*
X140348172Y-116139721D01*
X175870890Y-130903431D02*
X173375950Y-142641202D01*
X144729172Y-123261714D02*
X156466943Y-125756654D01*
X162587179Y-147552713D02*
X160092238Y-159290485D01*
X168712883Y-147832432D02*
X180450655Y-150327372D01*
X175942883Y-90942432D02*
X187680655Y-93437372D01*
X162176824Y-127992667D02*
X159681884Y-139730439D01*
X181220890Y-151513431D02*
X178725950Y-163251202D01*
X173032120Y-104636498D02*
X184769891Y-107131438D01*
X161476824Y-108362667D02*
X158981884Y-120100439D01*
X143543112Y-124031950D02*
X141048172Y-135769721D01*
X188450890Y-94623431D02*
X185955950Y-106361202D01*
X162662883Y-107592432D02*
X174400655Y-110087372D01*
X169817179Y-90662713D02*
X167322238Y-102400485D01*
X154398408Y-100675780D02*
X166136179Y-103170721D01*
X175170890Y-111273431D02*
X172675950Y-123011202D01*
X156123112Y-87751950D02*
X153628172Y-99489721D01*
X156537179Y-107312713D02*
X154042238Y-119050485D01*
X165802120Y-161526498D02*
X177539891Y-164021438D01*
X141118408Y-117325780D02*
X152856179Y-119820721D01*
X159752120Y-121286498D02*
X171489891Y-123781438D01*
X141818408Y-136955780D02*
X153556179Y-139450721D01*
X148893112Y-144641950D02*
X146398172Y-156379721D01*
X167526824Y-148602667D02*
X165031884Y-160340439D01*
X150079172Y-143871714D02*
X161816943Y-146366654D01*
X144029172Y-103631714D02*
X155766943Y-106126654D01*
X163362883Y-127222432D02*
X175100655Y-129717372D01*
X157237179Y-126942713D02*
X154742238Y-138680485D01*
X147168408Y-157565780D02*
X158906179Y-160060721D01*
X160452120Y-140916498D02*
X172189891Y-143411438D01*
X174756824Y-91712667D02*
X172261884Y-103450439D01*
X150864887Y-162496578D02*
X148152732Y-175203315D01*
X148922968Y-176389375D02*
X156192989Y-177937372D01*
X371246963Y-118395499D02*
X366246963Y-118395499D01*
X174219140Y-167460677D02*
X174015400Y-168452800D01*
X365246963Y-119395499D02*
X365252000Y-120395500D01*
X363808964Y-133395500D02*
X371246963Y-133395499D01*
X359191964Y-96295500D02*
X359191964Y-97295500D01*
X342315964Y-96295500D02*
X359191964Y-96295500D01*
X372246963Y-132395499D02*
X372246963Y-119395499D01*
D11*
X212136487Y-93508545D02*
G75*
G02*
X209804000Y-93472000I-1062488J6640544D01*
G01*
X43688000Y-178562000D02*
G75*
G02*
X40640000Y-175514000I0J3048000D01*
G01*
X212136488Y-196378544D02*
G75*
G02*
X209804001Y-196341999I-1062488J6640544D01*
G01*
X385064000Y-174752000D02*
G75*
G02*
X382016000Y-177800000I-3048000J0D01*
G01*
X382016000Y-75438000D02*
G75*
G02*
X385064000Y-78486000I0J-3048000D01*
G01*
X40640000Y-78232000D02*
G75*
G02*
X43688000Y-75184000I3048000J0D01*
G01*
X122936000Y-75184000D02*
X209804000Y-93472000D01*
X43688000Y-75184000D02*
X122936000Y-75184000D01*
X40640000Y-175514000D02*
X40640000Y-78232000D01*
X120396000Y-178562000D02*
X43688000Y-178562000D01*
X209804001Y-196341999D02*
X120396000Y-178562000D01*
X300736000Y-177800000D02*
X212136488Y-196378544D01*
X382016000Y-177800000D02*
X300736000Y-177800000D01*
X385064000Y-78486000D02*
X385064000Y-174752000D01*
X293624000Y-75438000D02*
X382016000Y-75438000D01*
X212136487Y-93508545D02*
X293624000Y-75438000D01*
M02*
