  0
SECTION
  2
HEADER
  9
$ANGBASE
  50
0.0
  9
$ANGDIR
  70
1
  9
$MEASUREMENT
  70
1
  0
ENDSEC
  0
SECTION
  2
TABLES
  0
TABLE
  2
LTYPE
  70
4
  0
LTYPE
  5
40F
  2
CONTINUOUS
  70
0
  3
Solid line
  72
65
  73
0
  40
0.0
  0
LTYPE
  5
410
  2
DASHDOT
 70
0
  3
Dash Dot ____ _ ____ _
 72
65
 73
4
 40
2.0
 49
1.25
 49
-0.25
 49
0.25
 49
-0.25
  0
LTYPE
  5
411
  2
DASHED
 70
0
  3
Dashed __ __ __ __ __
 72
65
 73
2
 40
0.75
 49
0.5
 49
-0.25
  0
LTYPE
  5
43B
  2
DOTTED
 70
0
  3
Dotted .  .  .  .
 72
65
 73
2
 40
0.2
 49
0.0
 49
-0.2
  0
ENDTAB
  0
TABLE
  2
STYLE
  70
4
  0
STYLE
  2
KICAD
  70
0
  40
0
  41
1
  42
1
  50
0
  71
0
  3
isocp.shx
  0
STYLE
  2
KICADB
  70
0
  40
0
  41
1
  42
1
  50
0
  71
0
  3
isocp.shx
  0
STYLE
  2
KICADI
  70
0
  40
0
  41
1
  42
1
  50
15
  71
0
  3
isocp.shx
  0
STYLE
  2
KICADBI
  70
0
  40
0
  41
1
  42
1
  50
15
  71
0
  3
isocp.shx
  0
ENDTAB
  0
TABLE
  2
LAYER
  70
1
  0
LAYER
  2
BLACK
  70
0
  62
7
  6
CONTINUOUS
  0
ENDTAB
  0
ENDSEC
  0
SECTION
  2
ENTITIES
0
ARC
8
BLACK
10
373.736
20
-138.428
40
1.01452
50
-162.061
51
-90
0
ARC
8
BLACK
10
373.736
20
-154.441
40
1
50
90
51
180
0
LINE
8
BLACK
6
CONTINUOUS
10
339.684
20
-139.1
11
339.69
21
-156.023
0
ARC
8
BLACK
10
340.684
20
-139.1
40
1
50
90
51
180
0
LINE
8
BLACK
6
CONTINUOUS
10
372.745
20
-156.032
11
372.736
21
-154.441
0
LINE
8
BLACK
6
CONTINUOUS
10
371.745
20
-138.109
11
340.684
21
-138.1
0
ARC
8
BLACK
10
371.745
20
-156.032
40
1
50
-90
51
-0
0
ARC
8
BLACK
10
340.69
20
-156.023
40
1
50
180
51
270
0
ARC
8
BLACK
10
371.745
20
-139.257
40
1.14824
50
26.7452
51
90
0
LINE
8
BLACK
6
CONTINUOUS
10
340.69
20
-157.023
11
371.745
21
-157.032
0
LINE
8
BLACK
6
CONTINUOUS
10
334.223
20
-81.9244
11
334.229
21
-98.8474
0
ARC
8
BLACK
10
366.284
20
-98.8568
40
1
50
-90
51
-0
0
LINE
8
BLACK
6
CONTINUOUS
10
335.229
20
-99.8474
11
366.284
21
-99.8568
0
ARC
8
BLACK
10
335.223
20
-81.9244
40
1
50
90
51
180
0
ARC
8
BLACK
10
335.229
20
-98.8474
40
1
50
180
51
270
0
ARC
8
BLACK
10
366.284
20
-81.9338
40
1
50
-0
51
90
0
LINE
8
BLACK
6
CONTINUOUS
10
367.284
20
-98.8568
11
367.284
21
-81.9338
0
LINE
8
BLACK
6
CONTINUOUS
10
366.284
20
-80.9338
11
335.223
21
-80.9244
0
ARC
8
BLACK
10
342.386
20
-117.637
40
1
50
90
51
180
0
ARC
8
BLACK
10
371.262
20
-117.637
40
1
50
-0
51
90
0
ARC
8
BLACK
10
342.392
20
-134.56
40
1
50
180
51
270
0
ARC
8
BLACK
10
371.262
20
-134.56
40
1
50
-90
51
-0
0
LINE
8
BLACK
6
CONTINUOUS
10
372.262
20
-134.56
11
372.262
21
-117.637
0
LINE
8
BLACK
6
CONTINUOUS
10
341.386
20
-117.637
11
341.392
21
-134.56
0
LINE
8
BLACK
6
CONTINUOUS
10
342.392
20
-135.56
11
371.262
21
-135.56
0
LINE
8
BLACK
6
CONTINUOUS
10
371.262
20
-116.637
11
342.386
21
-116.637
0
ARC
8
BLACK
10
229.189
20
-168.567
40
1
50
-258
51
-168
0
LINE
8
BLACK
6
CONTINUOUS
10
228.981
20
-167.589
11
257.226
21
-161.544
0
LINE
8
BLACK
6
CONTINUOUS
10
231.732
20
-185.31
11
228.211
21
-168.775
0
ARC
8
BLACK
10
257.434
20
-162.522
40
1
50
12
51
102
0
ARC
8
BLACK
10
260.947
20
-179.049
40
0.999999
50
-78
51
12
0
LINE
8
BLACK
6
CONTINUOUS
10
232.918
20
-186.08
11
261.155
21
-180.027
0
LINE
8
BLACK
6
CONTINUOUS
10
261.925
20
-178.841
11
258.412
21
-162.314
0
ARC
8
BLACK
10
232.71
20
-185.102
40
1
50
-168
51
-78
0
LINE
8
BLACK
6
CONTINUOUS
10
188.949
20
-172.635
11
186.454
21
-184.372
0
LINE
8
BLACK
6
CONTINUOUS
10
202.643
20
-175.545
11
200.149
21
-187.283
0
LINE
8
BLACK
6
CONTINUOUS
10
187.225
20
-185.558
11
198.962
21
-188.053
0
LINE
8
BLACK
6
CONTINUOUS
10
190.135
20
-171.864
11
201.873
21
-174.359
0
ARC
8
BLACK
10
189.928
20
-172.843
40
1
50
78
51
168
0
ARC
8
BLACK
10
199.17
20
-187.075
40
1
50
-102
51
-12
0
ARC
8
BLACK
10
201.665
20
-175.337
40
1
50
-12
51
78
0
ARC
8
BLACK
10
187.433
20
-184.58
40
1
50
168
51
258
0
ARC
8
BLACK
10
152.217
20
-160.922
40
1
50
78
51
168
0
LINE
8
BLACK
6
CONTINUOUS
10
181.432
20
-167.183
11
177.919
21
-183.71
0
LINE
8
BLACK
6
CONTINUOUS
10
152.425
20
-159.944
11
180.662
21
-165.997
0
ARC
8
BLACK
10
180.454
20
-166.975
40
0.999999
50
-12
51
78
0
ARC
8
BLACK
10
176.941
20
-183.502
40
1
50
-102
51
-12
0
ARC
8
BLACK
10
290.165
20
-93.7569
40
1
50
-78
51
12
0
ARC
8
BLACK
10
191.032
20
-146.394
40
1
50
-102
51
-12
0
ARC
8
BLACK
10
273.833
20
-143.384
40
1
50
102
51
192
0
ARC
8
BLACK
10
180.243
20
-151.306
40
0.999999
50
-12
51
78
0
ARC
8
BLACK
10
203.612
20
-110.114
40
1
50
-102
51
-12
0
ARC
8
BLACK
10
172.398
20
-142.433
40
0.999999
50
-102
51
-12
0
ARC
8
BLACK
10
178.594
20
-124.269
40
0.999999
50
168
51
258
0
ARC
8
BLACK
10
276.328
20
-155.122
40
1
50
-168
51
-78
0
ARC
8
BLACK
10
288.065
20
-152.627
40
1
50
-78
51
12
0
ARC
8
BLACK
10
281.138
20
-175.112
40
1
50
-168
51
-78
0
ARC
8
BLACK
10
270.573
20
-105.124
40
1
50
102
51
192
0
ARC
8
BLACK
10
278.643
20
-163.374
40
1
50
102
51
192
0
ARC
8
BLACK
10
181.089
20
-112.531
40
1
50
78
51
168
0
ARC
8
BLACK
10
273.068
20
-116.862
40
1
50
-168
51
-78
0
ARC
8
BLACK
10
287.67
20
-82.0191
40
1
50
12
51
102
0
ARC
8
BLACK
10
293.425
20
-132.017
40
1
50
-78
51
12
0
ARC
8
BLACK
10
179.294
20
-143.899
40
0.999999
50
168
51
258
0
ARC
8
BLACK
10
196.382
20
-167.004
40
1
50
-102
51
-12
0
ARC
8
BLACK
10
275.933
20
-84.5141
40
1
50
102
51
192
0
ARC
8
BLACK
10
278.428
20
-96.2519
40
1
50
-168
51
-78
0
ARC
8
BLACK
10
175.735
20
-91.9206
40
0.999999
50
78
51
168
0
ARC
8
BLACK
10
187.473
20
-94.4155
40
0.999999
50
-12
51
78
0
ARC
8
BLACK
10
184.978
20
-106.153
40
0.999999
50
-102
51
-12
0
ARC
8
BLACK
10
173.24
20
-103.658
40
0.999999
50
168
51
258
0
ARC
8
BLACK
10
279.193
20
-122.774
40
1
50
102
51
192
0
ARC
8
BLACK
10
162.455
20
-108.571
40
0.999999
50
78
51
168
0
ARC
8
BLACK
10
174.193
20
-111.066
40
0.999999
50
-12
51
78
0
ARC
8
BLACK
10
181.789
20
-132.161
40
1
50
78
51
168
0
ARC
8
BLACK
10
290.38
20
-160.879
40
1
50
12
51
102
0
ARC
8
BLACK
10
190.332
20
-126.764
40
1
50
-102
51
-12
0
ARC
8
BLACK
10
191.874
20
-107.619
40
0.999999
50
168
51
258
0
ARC
8
BLACK
10
171.698
20
-122.803
40
0.999999
50
-102
51
-12
0
ARC
8
BLACK
10
159.96
20
-120.308
40
0.999999
50
168
51
258
0
ARC
8
BLACK
10
174.893
20
-130.696
40
0.999999
50
-12
51
78
0
ARC
8
BLACK
10
168.505
20
-148.811
40
0.999999
50
78
51
168
0
ARC
8
BLACK
10
194.369
20
-95.8813
40
1
50
78
51
168
0
ARC
8
BLACK
10
290.93
20
-120.279
40
1
50
12
51
102
0
ARC
8
BLACK
10
192.826
20
-115.026
40
0.999999
50
-12
51
78
0
ARC
8
BLACK
10
198.876
20
-155.266
40
0.999999
50
-12
51
78
0
ARC
8
BLACK
10
284.805
20
-114.367
40
1
50
-78
51
12
0
ARC
8
BLACK
10
206.106
20
-98.3762
40
0.999999
50
-12
51
78
0
ARC
8
BLACK
10
193.526
20
-134.656
40
0.999999
50
-12
51
78
0
ARC
8
BLACK
10
292.875
20
-172.617
40
1
50
-78
51
12
0
ARC
8
BLACK
10
184.644
20
-164.509
40
0.999999
50
168
51
258
0
ARC
8
BLACK
10
177.748
20
-163.043
40
0.999999
50
-102
51
-12
0
ARC
8
BLACK
10
281.688
20
-134.512
40
1
50
-168
51
-78
0
ARC
8
BLACK
10
160.66
20
-139.938
40
0.999999
50
168
51
258
0
ARC
8
BLACK
10
187.139
20
-152.771
40
1
50
78
51
168
0
ARC
8
BLACK
10
257.299
20
-88.4748
40
1
50
102
51
192
0
ARC
8
BLACK
10
282.31
20
-102.629
40
1
50
12
51
102
0
ARC
8
BLACK
10
163.155
20
-128.201
40
0.999999
50
78
51
168
0
ARC
8
BLACK
10
285.57
20
-140.889
40
1
50
12
51
102
0
ARC
8
BLACK
10
166.01
20
-160.548
40
0.999999
50
168
51
258
0
ARC
8
BLACK
10
247.538
20
-122.288
40
1
50
-78
51
12
0
ARC
8
BLACK
10
234.264
20
-105.639
40
1
50
-78
51
12
0
ARC
8
BLACK
10
217.931
20
-155.266
40
0.999999
50
102
51
192
0
ARC
8
BLACK
10
235.8
20
-124.783
40
0.999999
50
-168
51
-78
0
ARC
8
BLACK
10
228.904
20
-126.249
40
1
50
-78
51
12
0
ARC
8
BLACK
10
252.898
20
-101.678
40
1
50
-78
51
12
0
ARC
8
BLACK
10
233.305
20
-113.046
40
0.999999
50
102
51
192
0
ARC
8
BLACK
10
222.526
20
-108.134
40
1
50
-168
51
-78
0
ARC
8
BLACK
10
229.669
20
-152.771
40
0.999999
50
12
51
102
0
ARC
8
BLACK
10
236.565
20
-151.306
40
0.999999
50
102
51
192
0
ARC
8
BLACK
10
220.031
20
-96.3962
40
0.999999
50
102
51
192
0
ARC
8
BLACK
10
217.166
20
-128.744
40
1
50
-168
51
-78
0
ARC
8
BLACK
10
263.054
20
-138.473
40
0.999999
50
-168
51
-78
0
ARC
8
BLACK
10
238.665
20
-92.4355
40
0.999999
50
102
51
192
0
ARC
8
BLACK
10
245.043
20
-110.551
40
1
50
12
51
102
0
ARC
8
BLACK
10
241.925
20
-130.696
40
0.999999
50
102
51
192
0
ARC
8
BLACK
10
244.42
20
-142.433
40
0.999999
50
-168
51
-78
0
ARC
8
BLACK
10
237.524
20
-143.899
40
1
50
-78
51
12
0
ARC
8
BLACK
10
253.663
20
-128.201
40
1
50
12
51
102
0
ARC
8
BLACK
10
248.303
20
-148.811
40
1
50
12
51
102
0
ARC
8
BLACK
10
223.291
20
-134.656
40
0.999999
50
102
51
192
0
ARC
8
BLACK
10
220.426
20
-167.004
40
1
50
-168
51
-78
0
ARC
8
BLACK
10
235.029
20
-132.161
40
0.999999
50
12
51
102
0
ARC
8
BLACK
10
269.432
20
-156.588
40
0.999999
50
-78
51
12
0
ARC
8
BLACK
10
256.158
20
-139.938
40
1
50
-78
51
12
0
ARC
8
BLACK
10
257.694
20
-159.083
40
0.999999
50
-168
51
-78
0
ARC
8
BLACK
10
269.037
20
-85.9799
40
1
50
12
51
102
0
ARC
8
BLACK
10
271.532
20
-97.7176
40
0.999999
50
-78
51
12
0
ARC
8
BLACK
10
259.794
20
-100.213
40
0.999999
50
-168
51
-78
0
ARC
8
BLACK
10
251.939
20
-109.085
40
1
50
102
51
192
0
ARC
8
BLACK
10
263.677
20
-106.59
40
1
50
12
51
102
0
ARC
8
BLACK
10
266.172
20
-118.328
40
0.999999
50
-78
51
12
0
ARC
8
BLACK
10
231.769
20
-93.9013
40
0.999999
50
12
51
102
0
ARC
8
BLACK
10
250.798
20
-160.548
40
1
50
-78
51
12
0
ARC
8
BLACK
10
214.671
20
-117.006
40
0.999999
50
102
51
192
0
ARC
8
BLACK
10
254.434
20
-120.823
40
0.999999
50
-168
51
-78
0
ARC
8
BLACK
10
272.297
20
-124.24
40
1
50
12
51
102
0
ARC
8
BLACK
10
241.16
20
-104.173
40
0.999999
50
-168
51
-78
0
ARC
8
BLACK
10
225.786
20
-146.394
40
1
50
-168
51
-78
0
ARC
8
BLACK
10
260.559
20
-126.735
40
1
50
102
51
192
0
ARC
8
BLACK
10
255.199
20
-147.345
40
1
50
102
51
192
0
ARC
8
BLACK
10
274.792
20
-135.978
40
0.999999
50
-78
51
12
0
ARC
8
BLACK
10
266.937
20
-144.85
40
1
50
12
51
102
0
ARC
8
BLACK
10
226.409
20
-114.511
40
0.999999
50
12
51
102
0
ARC
8
BLACK
10
239.06
20
-163.043
40
0.999999
50
-168
51
-78
0
ARC
8
BLACK
10
232.164
20
-164.509
40
1
50
-78
51
12
0
ARC
8
BLACK
10
250.403
20
-89.9406
40
1
50
12
51
102
0
ARC
8
BLACK
10
91.499
20
-102.346
40
1
50
-0
51
90
0
ARC
8
BLACK
10
136.925
20
-103.144
40
1
50
-12
51
78
0
ARC
8
BLACK
10
128.743
20
-152.627
40
1
50
168
51
258
0
ARC
8
BLACK
10
91.499
20
-114.346
40
1
50
-89.9999
51
5.72958e-05
0
ARC
8
BLACK
10
138.165
20
-163.374
40
1
50
-12
51
78
0
ARC
8
BLACK
10
89.8115
20
-121.395
40
1
50
-0
51
90
0
ARC
8
BLACK
10
73.1125
20
-133.395
40
1
50
-180
51
-89.9999
0
ARC
8
BLACK
10
134.43
20
-114.882
40
1
50
-102
51
-12
0
ARC
8
BLACK
10
125.888
20
-120.279
40
1
50
78
51
168
0
ARC
8
BLACK
10
104.009
20
-133.395
40
1
50
180
51
270
0
ARC
8
BLACK
10
135.973
20
-95.7369
40
1
50
168
51
258
0
ARC
8
BLACK
10
135.67
20
-175.112
40
1
50
-102
51
-12
0
ARC
8
BLACK
10
115.309
20
-102.346
40
1
50
5.72957e-05
51
90.0001
0
ARC
8
BLACK
10
168.839
20
-90.4548
40
1
50
-12
51
78
0
ARC
8
BLACK
10
103.309
20
-114.346
40
1
50
180
51
270
0
ARC
8
BLACK
10
79.499
20
-102.345
40
1
50
90
51
180
0
ARC
8
BLACK
10
79.499
20
-114.346
40
1
50
180
51
270
0
ARC
8
BLACK
10
154.606
20
-99.6976
40
1
50
168
51
258
0
ARC
8
BLACK
10
142.026
20
-135.978
40
1
50
168
51
258
0
ARC
8
BLACK
10
157.101
20
-87.9599
40
0.999998
50
78
51
168
0
ARC
8
BLACK
10
166.344
20
-102.193
40
1
50
-102
51
-12
0
ARC
8
BLACK
10
147.376
20
-156.588
40
1
50
168
51
258
0
ARC
8
BLACK
10
116.009
20
-133.395
40
1
50
-89.9999
51
5.72958e-05
0
ARC
8
BLACK
10
142.975
20
-143.384
40
1
50
-12
51
78
0
ARC
8
BLACK
10
123.393
20
-132.017
40
1
50
168
51
258
0
ARC
8
BLACK
10
156.259
20
-126.735
40
1
50
-12
51
78
0
ARC
8
BLACK
10
153.064
20
-118.843
40
1
50
-102
51
-12
0
ARC
8
BLACK
10
104.009
20
-121.395
40
1
50
90
51
180
0
ARC
8
BLACK
10
138.468
20
-83.9991
40
1
50
78
51
168
0
ARC
8
BLACK
10
123.933
20
-172.617
40
1
50
168
51
258
0
ARC
8
BLACK
10
135.13
20
-134.512
40
1
50
-102
51
-12
0
ARC
8
BLACK
10
131.238
20
-140.889
40
1
50
78
51
168
0
ARC
8
BLACK
10
149.871
20
-144.85
40
0.999999
50
78
51
168
0
ARC
8
BLACK
10
159.114
20
-159.083
40
1
50
-102
51
-12
0
ARC
8
BLACK
10
116.589
20
-93.1555
40
1
50
180
51
270
0
ARC
8
BLACK
10
116.009
20
-121.395
40
1
50
5.72958e-05
51
90.0001
0
ARC
8
BLACK
10
115.309
20
-114.346
40
1
50
-89.9999
51
5.72958e-05
0
ARC
8
BLACK
10
144.521
20
-124.24
40
0.999999
50
78
51
168
0
ARC
8
BLACK
10
78.899
20
-83.2955
40
1
50
90
51
180
0
ARC
8
BLACK
10
97.949
20
-95.2955
40
1
50
180
51
270
0
ARC
8
BLACK
10
90.899
20
-83.2955
40
1
50
-0
51
90
0
ARC
8
BLACK
10
90.899
20
-95.2955
40
1
50
-90
51
-0
0
ARC
8
BLACK
10
103.309
20
-102.346
40
1
50
90
51
180
0
ARC
8
BLACK
10
109.949
20
-95.2955
40
1
50
-90
51
-0
0
ARC
8
BLACK
10
153.764
20
-138.473
40
1
50
-102
51
-12
0
ARC
8
BLACK
10
125.188
20
-100.649
40
1
50
78
51
168
0
ARC
8
BLACK
10
150.205
20
-86.4941
40
1
50
-12
51
78
0
ARC
8
BLACK
10
141.326
20
-116.348
40
1
50
168
51
258
0
ARC
8
BLACK
10
122.693
20
-112.387
40
1
50
168
51
258
0
ARC
8
BLACK
10
78.899
20
-95.2955
40
1
50
180
51
270
0
ARC
8
BLACK
10
97.949
20
-83.2955
40
1
50
90
51
180
0
ARC
8
BLACK
10
89.8115
20
-133.395
40
1
50
-90
51
-0
0
ARC
8
BLACK
10
140.48
20
-155.122
40
1
50
-102
51
-12
0
ARC
8
BLACK
10
143.821
20
-104.61
40
0.999999
50
78
51
168
0
ARC
8
BLACK
10
161.609
20
-147.345
40
1
50
-12
51
78
0
ARC
8
BLACK
10
116.589
20
-81.1555
40
1
50
90
51
180
0
ARC
8
BLACK
10
109.949
20
-83.2955
40
1
50
-0
51
90
0
ARC
8
BLACK
10
128.589
20
-81.1555
40
1
50
5.72958e-05
51
90.0001
0
ARC
8
BLACK
10
155.559
20
-107.105
40
1
50
-12
51
78
0
ARC
8
BLACK
10
128.589
20
-93.1555
40
1
50
-90
51
-0
0
ARC
8
BLACK
10
126.428
20
-160.879
40
1
50
78
51
168
0
ARC
8
BLACK
10
147.71
20
-98.2319
40
1
50
-102
51
-12
0
ARC
8
BLACK
10
137.625
20
-122.774
40
1
50
-12
51
78
0
ARC
8
BLACK
10
73.1125
20
-121.395
40
1
50
90
51
180
0
ARC
8
BLACK
10
148.696
20
-177.457
40
1
50
168
51
258
0
ARC
8
BLACK
10
378.888
20
-152.445
40
1
50
-90
51
-0
0
ARC
8
BLACK
10
59.649
20
-119.255
40
1
50
-0
51
90
0
ARC
8
BLACK
10
98.847
20
-156.124
40
1
50
-90
51
-0
0
ARC
8
BLACK
10
59.649
20
-131.255
40
1
50
-89.9999
51
5.72957e-05
0
ARC
8
BLACK
10
378.888
20
-140.445
40
1
50
-0
51
90
0
ARC
8
BLACK
10
69.977
20
-156.124
40
1
50
180
51
270
0
ARC
8
BLACK
10
69.971
20
-139.201
40
1
50
90
51
180
0
ARC
8
BLACK
10
98.847
20
-139.201
40
1
50
-0
51
90
0
ARC
8
BLACK
10
47.649
20
-119.255
40
1
50
90
51
180
0
ARC
8
BLACK
10
47.649
20
-131.255
40
1
50
-180
51
-89.9999
0
ARC
8
BLACK
10
51.719
20
-100.206
40
1
50
90
51
180
0
ARC
8
BLACK
10
67.879
20
-81.1555
40
1
50
-0
51
90
0
ARC
8
BLACK
10
304.189
20
-113.285
40
1
50
-90
51
-0
0
ARC
8
BLACK
10
63.719
20
-100.206
40
1
50
-0
51
90
0
ARC
8
BLACK
10
63.719
20
-112.206
40
1
50
-90
51
-0
0
ARC
8
BLACK
10
83.269
20
-171.495
40
1
50
-89.9999
51
5.72957e-05
0
ARC
8
BLACK
10
326.499
20
-152.445
40
1
50
-90
51
-0
0
ARC
8
BLACK
10
341.869
20
-114.345
40
1
50
-90
51
-0
0
ARC
8
BLACK
10
365.689
20
-114.346
40
1
50
-90
51
-0
0
ARC
8
BLACK
10
307.449
20
-152.445
40
1
50
-90
51
-0
0
ARC
8
BLACK
10
370.445
20
-171.543
40
1
50
-90
51
-0
0
ARC
8
BLACK
10
300.809
20
-121.395
40
1
50
90
51
180
0
ARC
8
BLACK
10
304.189
20
-101.285
40
1
50
-0
51
90
0
ARC
8
BLACK
10
314.499
20
-140.445
40
1
50
90
51
180
0
ARC
8
BLACK
10
295.449
20
-140.445
40
1
50
90.0001
51
180
0
ARC
8
BLACK
10
109.359
20
-152.445
40
1
50
180
51
270
0
ARC
8
BLACK
10
314.499
20
-152.445
40
1
50
-180
51
-89.9999
0
ARC
8
BLACK
10
51.719
20
-112.206
40
0.999999
50
180
51
270
0
ARC
8
BLACK
10
331.859
20
-121.395
40
1
50
5.72958e-05
51
90.0001
0
ARC
8
BLACK
10
310.819
20
-102.345
40
1
50
90
51
180
0
ARC
8
BLACK
10
365.689
20
-102.345
40
1
50
-0
51
90
0
ARC
8
BLACK
10
326.499
20
-140.445
40
1
50
-0
51
90
0
ARC
8
BLACK
10
67.879
20
-93.1555
40
1
50
-90
51
-0
0
ARC
8
BLACK
10
370.445
20
-159.543
40
1
50
-0
51
90
0
ARC
8
BLACK
10
319.859
20
-121.395
40
1
50
90
51
180
0
ARC
8
BLACK
10
109.359
20
-140.445
40
1
50
90
51
180
0
ARC
8
BLACK
10
316.179
20
-95.2955
40
1
50
-180
51
-89.9999
0
ARC
8
BLACK
10
309.549
20
-93.1555
40
1
50
-90
51
-0
0
ARC
8
BLACK
10
331.859
20
-133.395
40
1
50
-90
51
-0
0
ARC
8
BLACK
10
121.359
20
-140.445
40
1
50
-0
51
90
0
ARC
8
BLACK
10
312.809
20
-121.395
40
1
50
5.72958e-05
51
90.0001
0
ARC
8
BLACK
10
341.869
20
-102.346
40
1
50
5.72958e-05
51
90.0001
0
ARC
8
BLACK
10
312.809
20
-133.395
40
1
50
-90
51
-0
0
ARC
8
BLACK
10
292.189
20
-113.285
40
1
50
-180
51
-89.9999
0
ARC
8
BLACK
10
316.179
20
-83.2955
40
1
50
90
51
180
0
ARC
8
BLACK
10
329.869
20
-114.346
40
1
50
180
51
270
0
ARC
8
BLACK
10
353.689
20
-114.345
40
1
50
-180
51
-89.9999
0
ARC
8
BLACK
10
55.879
20
-81.1555
40
1
50
90
51
180
0
ARC
8
BLACK
10
55.879
20
-93.1555
40
1
50
180
51
270
0
ARC
8
BLACK
10
358.445
20
-159.543
40
1
50
90
51
180
0
ARC
8
BLACK
10
71.269
20
-171.495
40
1
50
-180
51
-89.9999
0
ARC
8
BLACK
10
307.449
20
-140.445
40
1
50
-0
51
90
0
ARC
8
BLACK
10
328.179
20
-83.2955
40
1
50
-0
51
90
0
ARC
8
BLACK
10
358.445
20
-171.543
40
1
50
-180
51
-89.9999
0
ARC
8
BLACK
10
295.449
20
-152.445
40
1
50
-180
51
-89.9999
0
ARC
8
BLACK
10
322.819
20
-102.346
40
1
50
5.72958e-05
51
90.0001
0
ARC
8
BLACK
10
310.819
20
-114.346
40
1
50
180
51
270
0
ARC
8
BLACK
10
300.809
20
-133.395
40
1
50
180
51
270
0
ARC
8
BLACK
10
297.549
20
-93.1555
40
1
50
-180
51
-89.9999
0
ARC
8
BLACK
10
329.869
20
-102.345
40
1
50
90
51
180
0
ARC
8
BLACK
10
353.689
20
-102.346
40
1
50
90
51
180
0
ARC
8
BLACK
10
121.359
20
-152.445
40
1
50
-89.9999
51
5.72958e-05
0
ARC
8
BLACK
10
292.189
20
-101.285
40
1
50
90.0001
51
180
0
ARC
8
BLACK
10
297.549
20
-81.1555
40
1
50
90
51
180
0
ARC
8
BLACK
10
309.549
20
-81.1555
40
1
50
5.72958e-05
51
90.0001
0
ARC
8
BLACK
10
322.819
20
-114.345
40
1
50
-90
51
-0
0
ARC
8
BLACK
10
328.179
20
-95.2955
40
1
50
-90.0001
51
-5.72958e-05
0
ARC
8
BLACK
10
71.269
20
-159.495
40
0.999999
50
90
51
180
0
ARC
8
BLACK
10
319.859
20
-133.395
40
1
50
-180
51
-89.9999
0
ARC
8
BLACK
10
83.269
20
-159.495
40
1
50
-0
51
90
0
LINE
8
BLACK
6
CONTINUOUS
10
98.847
20
-138.201
11
69.971
21
-138.201
0
LINE
8
BLACK
6
CONTINUOUS
10
69.977
20
-157.124
11
98.847
21
-157.124
0
LINE
8
BLACK
6
CONTINUOUS
10
68.971
20
-139.201
11
68.977
21
-156.124
0
LINE
8
BLACK
6
CONTINUOUS
10
64.719
20
-100.206
11
64.719
21
-112.206
0
LINE
8
BLACK
6
CONTINUOUS
10
46.649
20
-119.255
11
46.649
21
-131.255
0
LINE
8
BLACK
6
CONTINUOUS
10
47.649
20
-118.255
11
59.649
21
-118.255
0
LINE
8
BLACK
6
CONTINUOUS
10
51.719
20
-113.206
11
63.719
21
-113.206
0
LINE
8
BLACK
6
CONTINUOUS
10
54.879
20
-81.1555
11
54.879
21
-93.1555
0
LINE
8
BLACK
6
CONTINUOUS
10
84.269
20
-159.495
11
84.269
21
-171.495
0
LINE
8
BLACK
6
CONTINUOUS
10
371.445
20
-159.543
11
371.445
21
-171.543
0
LINE
8
BLACK
6
CONTINUOUS
10
55.879
20
-94.1555
11
67.879
21
-94.1555
0
LINE
8
BLACK
6
CONTINUOUS
10
71.269
20
-158.495
11
83.269
21
-158.495
0
LINE
8
BLACK
6
CONTINUOUS
10
68.879
20
-81.1555
11
68.879
21
-93.1555
0
LINE
8
BLACK
6
CONTINUOUS
10
313.499
20
-140.445
11
313.499
21
-152.445
0
LINE
8
BLACK
6
CONTINUOUS
10
314.499
20
-139.445
11
326.499
21
-139.445
0
LINE
8
BLACK
6
CONTINUOUS
10
373.736
20
-139.443
11
378.888
21
-139.445
0
LINE
8
BLACK
6
CONTINUOUS
10
55.879
20
-80.1555
11
67.879
21
-80.1555
0
LINE
8
BLACK
6
CONTINUOUS
10
379.888
20
-140.445
11
379.888
21
-152.445
0
LINE
8
BLACK
6
CONTINUOUS
10
314.499
20
-153.445
11
326.499
21
-153.445
0
LINE
8
BLACK
6
CONTINUOUS
10
60.649
20
-119.255
11
60.649
21
-131.255
0
LINE
8
BLACK
6
CONTINUOUS
10
51.719
20
-99.2055
11
63.719
21
-99.2055
0
LINE
8
BLACK
6
CONTINUOUS
10
358.445
20
-158.543
11
370.445
21
-158.543
0
LINE
8
BLACK
6
CONTINUOUS
10
327.499
20
-140.445
11
327.499
21
-152.445
0
LINE
8
BLACK
6
CONTINUOUS
10
71.269
20
-172.495
11
83.269
21
-172.495
0
LINE
8
BLACK
6
CONTINUOUS
10
99.847
20
-156.124
11
99.847
21
-139.201
0
LINE
8
BLACK
6
CONTINUOUS
10
70.269
20
-159.495
11
70.269
21
-171.495
0
LINE
8
BLACK
6
CONTINUOUS
10
373.736
20
-153.441
11
378.888
21
-153.445
0
LINE
8
BLACK
6
CONTINUOUS
10
47.649
20
-132.255
11
59.649
21
-132.255
0
LINE
8
BLACK
6
CONTINUOUS
10
50.719
20
-100.206
11
50.719
21
-112.206
0
LINE
8
BLACK
6
CONTINUOUS
10
109.359
20
-139.445
11
121.359
21
-139.445
0
LINE
8
BLACK
6
CONTINUOUS
10
78.899
20
-96.2955
11
90.899
21
-96.2955
0
LINE
8
BLACK
6
CONTINUOUS
10
295.449
20
-139.445
11
307.449
21
-139.445
0
LINE
8
BLACK
6
CONTINUOUS
10
305.189
20
-101.285
11
305.189
21
-113.285
0
LINE
8
BLACK
6
CONTINUOUS
10
319.859
20
-134.395
11
331.859
21
-134.395
0
LINE
8
BLACK
6
CONTINUOUS
10
308.449
20
-140.445
11
308.449
21
-152.445
0
LINE
8
BLACK
6
CONTINUOUS
10
310.819
20
-101.345
11
322.819
21
-101.345
0
LINE
8
BLACK
6
CONTINUOUS
10
316.179
20
-96.2955
11
328.179
21
-96.2955
0
LINE
8
BLACK
6
CONTINUOUS
10
295.449
20
-153.445
11
307.449
21
-153.445
0
LINE
8
BLACK
6
CONTINUOUS
10
329.869
20
-115.346
11
341.869
21
-115.346
0
LINE
8
BLACK
6
CONTINUOUS
10
310.549
20
-81.1555
11
310.549
21
-93.1555
0
LINE
8
BLACK
6
CONTINUOUS
10
296.549
20
-81.1555
11
296.549
21
-93.1555
0
LINE
8
BLACK
6
CONTINUOUS
10
78.899
20
-82.2955
11
90.899
21
-82.2955
0
LINE
8
BLACK
6
CONTINUOUS
10
366.689
20
-102.346
11
366.689
21
-114.346
0
LINE
8
BLACK
6
CONTINUOUS
10
316.179
20
-82.2955
11
328.179
21
-82.2955
0
LINE
8
BLACK
6
CONTINUOUS
10
297.549
20
-94.1555
11
309.549
21
-94.1555
0
LINE
8
BLACK
6
CONTINUOUS
10
122.359
20
-140.445
11
122.359
21
-152.445
0
LINE
8
BLACK
6
CONTINUOUS
10
319.859
20
-120.395
11
331.859
21
-120.395
0
LINE
8
BLACK
6
CONTINUOUS
10
109.359
20
-153.445
11
121.359
21
-153.445
0
LINE
8
BLACK
6
CONTINUOUS
10
358.445
20
-172.543
11
370.445
21
-172.543
0
LINE
8
BLACK
6
CONTINUOUS
10
292.189
20
-114.285
11
304.189
21
-114.285
0
LINE
8
BLACK
6
CONTINUOUS
10
292.189
20
-100.285
11
304.189
21
-100.285
0
LINE
8
BLACK
6
CONTINUOUS
10
342.869
20
-102.346
11
342.869
21
-114.346
0
LINE
8
BLACK
6
CONTINUOUS
10
357.445
20
-159.543
11
357.445
21
-171.543
0
LINE
8
BLACK
6
CONTINUOUS
10
332.859
20
-121.395
11
332.859
21
-133.395
0
LINE
8
BLACK
6
CONTINUOUS
10
318.859
20
-121.395
11
318.859
21
-133.395
0
LINE
8
BLACK
6
CONTINUOUS
10
294.449
20
-140.445
11
294.449
21
-152.445
0
LINE
8
BLACK
6
CONTINUOUS
10
328.869
20
-102.346
11
328.869
21
-114.346
0
LINE
8
BLACK
6
CONTINUOUS
10
108.359
20
-140.445
11
108.359
21
-152.445
0
LINE
8
BLACK
6
CONTINUOUS
10
310.819
20
-115.346
11
322.819
21
-115.346
0
LINE
8
BLACK
6
CONTINUOUS
10
352.689
20
-102.346
11
352.689
21
-114.346
0
LINE
8
BLACK
6
CONTINUOUS
10
300.809
20
-134.395
11
312.809
21
-134.395
0
LINE
8
BLACK
6
CONTINUOUS
10
297.549
20
-80.1555
11
309.549
21
-80.1555
0
LINE
8
BLACK
6
CONTINUOUS
10
291.189
20
-101.285
11
291.189
21
-113.285
0
LINE
8
BLACK
6
CONTINUOUS
10
299.809
20
-121.395
11
299.809
21
-133.395
0
LINE
8
BLACK
6
CONTINUOUS
10
300.809
20
-120.395
11
312.809
21
-120.395
0
LINE
8
BLACK
6
CONTINUOUS
10
329.179
20
-83.2955
11
329.179
21
-95.2955
0
LINE
8
BLACK
6
CONTINUOUS
10
323.819
20
-102.346
11
323.819
21
-114.346
0
LINE
8
BLACK
6
CONTINUOUS
10
91.899
20
-83.2955
11
91.899
21
-95.2955
0
LINE
8
BLACK
6
CONTINUOUS
10
309.819
20
-102.346
11
309.819
21
-114.346
0
LINE
8
BLACK
6
CONTINUOUS
10
353.689
20
-115.346
11
365.689
21
-115.346
0
LINE
8
BLACK
6
CONTINUOUS
10
315.179
20
-83.2955
11
315.179
21
-95.2955
0
LINE
8
BLACK
6
CONTINUOUS
10
313.809
20
-121.395
11
313.809
21
-133.395
0
LINE
8
BLACK
6
CONTINUOUS
10
329.869
20
-101.345
11
341.869
21
-101.345
0
LINE
8
BLACK
6
CONTINUOUS
10
353.689
20
-101.345
11
365.689
21
-101.345
0
LINE
8
BLACK
6
CONTINUOUS
10
97.949
20
-96.2955
11
109.949
21
-96.2955
0
LINE
8
BLACK
6
CONTINUOUS
10
129.589
20
-81.1555
11
129.589
21
-93.1555
0
LINE
8
BLACK
6
CONTINUOUS
10
115.589
20
-81.1555
11
115.589
21
-93.1555
0
LINE
8
BLACK
6
CONTINUOUS
10
124.909
20
-120.071
11
122.414
21
-131.809
0
LINE
8
BLACK
6
CONTINUOUS
10
128.535
20
-153.605
11
140.272
21
-156.1
0
LINE
8
BLACK
6
CONTINUOUS
10
78.499
20
-102.346
11
78.499
21
-114.346
0
LINE
8
BLACK
6
CONTINUOUS
10
123.725
20
-173.595
11
135.462
21
-176.09
0
LINE
8
BLACK
6
CONTINUOUS
10
116.309
20
-102.346
11
116.309
21
-114.346
0
LINE
8
BLACK
6
CONTINUOUS
10
90.8115
20
-121.395
11
90.8115
21
-133.395
0
LINE
8
BLACK
6
CONTINUOUS
10
73.1125
20
-134.395
11
89.8115
21
-134.395
0
LINE
8
BLACK
6
CONTINUOUS
10
125.449
20
-160.671
11
122.954
21
-172.409
0
LINE
8
BLACK
6
CONTINUOUS
10
104.009
20
-120.395
11
116.009
21
-120.395
0
LINE
8
BLACK
6
CONTINUOUS
10
104.009
20
-134.395
11
116.009
21
-134.395
0
LINE
8
BLACK
6
CONTINUOUS
10
139.143
20
-163.582
11
136.649
21
-175.32
0
LINE
8
BLACK
6
CONTINUOUS
10
77.899
20
-83.2955
11
77.899
21
-95.2955
0
LINE
8
BLACK
6
CONTINUOUS
10
97.949
20
-82.2955
11
109.949
21
-82.2955
0
LINE
8
BLACK
6
CONTINUOUS
10
102.309
20
-102.346
11
102.309
21
-114.346
0
LINE
8
BLACK
6
CONTINUOUS
10
125.395
20
-99.671
11
137.133
21
-102.166
0
LINE
8
BLACK
6
CONTINUOUS
10
92.499
20
-102.346
11
92.499
21
-114.346
0
LINE
8
BLACK
6
CONTINUOUS
10
124.209
20
-100.441
11
121.714
21
-112.179
0
LINE
8
BLACK
6
CONTINUOUS
10
110.949
20
-83.2955
11
110.949
21
-95.2955
0
LINE
8
BLACK
6
CONTINUOUS
10
96.949
20
-83.2955
11
96.949
21
-95.2955
0
LINE
8
BLACK
6
CONTINUOUS
10
79.499
20
-101.345
11
91.499
21
-101.345
0
LINE
8
BLACK
6
CONTINUOUS
10
137.489
20
-83.7912
11
134.994
21
-95.529
0
LINE
8
BLACK
6
CONTINUOUS
10
137.903
20
-103.352
11
135.409
21
-115.09
0
LINE
8
BLACK
6
CONTINUOUS
10
157.309
20
-86.9817
11
169.047
21
-89.4767
0
LINE
8
BLACK
6
CONTINUOUS
10
126.635
20
-159.901
11
138.373
21
-162.396
0
LINE
8
BLACK
6
CONTINUOUS
10
116.589
20
-80.1555
11
128.589
21
-80.1555
0
LINE
8
BLACK
6
CONTINUOUS
10
103.009
20
-121.395
11
103.009
21
-133.395
0
LINE
8
BLACK
6
CONTINUOUS
10
151.183
20
-86.702
11
148.689
21
-98.4398
0
LINE
8
BLACK
6
CONTINUOUS
10
138.675
20
-83.021
11
150.413
21
-85.5159
0
LINE
8
BLACK
6
CONTINUOUS
10
122.485
20
-113.365
11
134.222
21
-115.86
0
LINE
8
BLACK
6
CONTINUOUS
10
72.1125
20
-121.395
11
72.1125
21
-133.395
0
LINE
8
BLACK
6
CONTINUOUS
10
116.589
20
-94.1555
11
128.589
21
-94.1555
0
LINE
8
BLACK
6
CONTINUOUS
10
138.603
20
-122.982
11
136.109
21
-134.72
0
LINE
8
BLACK
6
CONTINUOUS
10
103.309
20
-101.345
11
115.309
21
-101.345
0
LINE
8
BLACK
6
CONTINUOUS
10
143.953
20
-143.592
11
141.459
21
-155.33
0
LINE
8
BLACK
6
CONTINUOUS
10
123.185
20
-132.995
11
134.922
21
-135.49
0
LINE
8
BLACK
6
CONTINUOUS
10
103.309
20
-115.346
11
115.309
21
-115.346
0
LINE
8
BLACK
6
CONTINUOUS
10
73.1125
20
-120.395
11
89.8115
21
-120.395
0
LINE
8
BLACK
6
CONTINUOUS
10
79.499
20
-115.346
11
91.499
21
-115.346
0
LINE
8
BLACK
6
CONTINUOUS
10
135.765
20
-96.7151
11
147.502
21
-99.21
0
LINE
8
BLACK
6
CONTINUOUS
10
130.259
20
-140.681
11
127.764
21
-152.419
0
LINE
8
BLACK
6
CONTINUOUS
10
117.009
20
-121.395
11
117.009
21
-133.395
0
LINE
8
BLACK
6
CONTINUOUS
10
131.445
20
-139.911
11
143.183
21
-142.406
0
LINE
8
BLACK
6
CONTINUOUS
10
126.095
20
-119.301
11
137.833
21
-121.796
0
LINE
8
BLACK
6
CONTINUOUS
10
281.345
20
-176.09
11
293.083
21
-173.595
0
LINE
8
BLACK
6
CONTINUOUS
10
277.664
20
-163.582
11
280.159
21
-175.32
0
LINE
8
BLACK
6
CONTINUOUS
10
286.549
20
-140.681
11
289.043
21
-152.419
0
LINE
8
BLACK
6
CONTINUOUS
10
278.435
20
-162.396
11
290.172
21
-159.901
0
LINE
8
BLACK
6
CONTINUOUS
10
276.535
20
-156.1
11
288.273
21
-153.605
0
LINE
8
BLACK
6
CONTINUOUS
10
186.161
20
-152.563
11
183.666
21
-164.301
0
LINE
8
BLACK
6
CONTINUOUS
10
291.359
20
-160.671
11
293.853
21
-172.409
0
LINE
8
BLACK
6
CONTINUOUS
10
273.625
20
-142.406
11
285.362
21
-139.911
0
LINE
8
BLACK
6
CONTINUOUS
10
283.289
20
-102.421
11
285.783
21
-114.159
0
LINE
8
BLACK
6
CONTINUOUS
10
180.811
20
-131.953
11
178.316
21
-143.691
0
LINE
8
BLACK
6
CONTINUOUS
10
187.347
20
-151.793
11
199.084
21
-154.288
0
LINE
8
BLACK
6
CONTINUOUS
10
273.275
20
-117.84
11
285.013
21
-115.345
0
LINE
8
BLACK
6
CONTINUOUS
10
274.954
20
-84.722
11
277.449
21
-96.4598
0
LINE
8
BLACK
6
CONTINUOUS
10
281.895
20
-135.49
11
293.633
21
-132.995
0
LINE
8
BLACK
6
CONTINUOUS
10
278.635
20
-97.23
11
290.373
21
-94.7351
0
LINE
8
BLACK
6
CONTINUOUS
10
278.985
20
-121.796
11
290.722
21
-119.301
0
LINE
8
BLACK
6
CONTINUOUS
10
278.214
20
-122.982
11
280.709
21
-134.72
0
LINE
8
BLACK
6
CONTINUOUS
10
275.725
20
-83.5359
11
287.462
21
-81.041
0
LINE
8
BLACK
6
CONTINUOUS
10
269.594
20
-105.332
11
272.089
21
-117.07
0
LINE
8
BLACK
6
CONTINUOUS
10
291.909
20
-120.071
11
294.403
21
-131.809
0
LINE
8
BLACK
6
CONTINUOUS
10
194.577
20
-94.9031
11
206.314
21
-97.3981
0
LINE
8
BLACK
6
CONTINUOUS
10
207.085
20
-98.5841
11
204.59
21
-110.322
0
LINE
8
BLACK
6
CONTINUOUS
10
191.666
20
-108.597
11
203.404
21
-111.092
0
LINE
8
BLACK
6
CONTINUOUS
10
193.805
20
-115.234
11
191.31
21
-126.972
0
LINE
8
BLACK
6
CONTINUOUS
10
180.111
20
-112.323
11
177.616
21
-124.061
0
LINE
8
BLACK
6
CONTINUOUS
10
193.391
20
-95.6734
11
190.896
21
-107.411
0
LINE
8
BLACK
6
CONTINUOUS
10
181.297
20
-111.553
11
193.034
21
-114.048
0
LINE
8
BLACK
6
CONTINUOUS
10
199.855
20
-155.474
11
197.36
21
-167.212
0
LINE
8
BLACK
6
CONTINUOUS
10
272.854
20
-143.592
11
275.349
21
-155.33
0
LINE
8
BLACK
6
CONTINUOUS
10
288.649
20
-81.8112
11
291.143
21
-93.549
0
LINE
8
BLACK
6
CONTINUOUS
10
178.386
20
-125.247
11
190.124
21
-127.742
0
LINE
8
BLACK
6
CONTINUOUS
10
181.997
20
-131.183
11
193.734
21
-133.678
0
LINE
8
BLACK
6
CONTINUOUS
10
194.505
20
-134.864
11
192.01
21
-146.602
0
LINE
8
BLACK
6
CONTINUOUS
10
179.086
20
-144.877
11
190.824
21
-147.372
0
LINE
8
BLACK
6
CONTINUOUS
10
270.365
20
-104.146
11
282.102
21
-101.651
0
LINE
8
BLACK
6
CONTINUOUS
10
184.436
20
-165.487
11
196.174
21
-167.982
0
LINE
8
BLACK
6
CONTINUOUS
10
217.374
20
-129.722
11
229.112
21
-127.227
0
LINE
8
BLACK
6
CONTINUOUS
10
251.381
20
-89.7327
11
253.876
21
-101.47
0
LINE
8
BLACK
6
CONTINUOUS
10
225.994
20
-147.372
11
237.732
21
-144.877
0
LINE
8
BLACK
6
CONTINUOUS
10
236.007
20
-131.953
11
238.502
21
-143.691
0
LINE
8
BLACK
6
CONTINUOUS
10
251.731
20
-108.107
11
263.469
21
-105.612
0
LINE
8
BLACK
6
CONTINUOUS
10
259.581
20
-126.943
11
262.076
21
-138.68
0
LINE
8
BLACK
6
CONTINUOUS
10
222.313
20
-134.864
11
224.808
21
-146.602
0
LINE
8
BLACK
6
CONTINUOUS
10
236.008
20
-125.761
11
247.746
21
-123.266
0
LINE
8
BLACK
6
CONTINUOUS
10
257.902
20
-160.061
11
269.64
21
-157.566
0
LINE
8
BLACK
6
CONTINUOUS
10
241.717
20
-129.717
11
253.455
21
-127.222
0
LINE
8
BLACK
6
CONTINUOUS
10
219.824
20
-95.4181
11
231.561
21
-92.9231
0
LINE
8
BLACK
6
CONTINUOUS
10
223.084
20
-133.678
11
234.821
21
-131.183
0
LINE
8
BLACK
6
CONTINUOUS
10
233.097
20
-112.067
11
244.835
21
-109.572
0
LINE
8
BLACK
6
CONTINUOUS
10
246.021
20
-110.343
11
248.516
21
-122.08
0
LINE
8
BLACK
6
CONTINUOUS
10
232.327
20
-113.253
11
234.822
21
-124.991
0
LINE
8
BLACK
6
CONTINUOUS
10
217.724
20
-154.288
11
229.461
21
-151.793
0
LINE
8
BLACK
6
CONTINUOUS
10
230.647
20
-152.563
11
233.142
21
-164.301
0
LINE
8
BLACK
6
CONTINUOUS
10
239.268
20
-164.021
11
251.006
21
-161.526
0
LINE
8
BLACK
6
CONTINUOUS
10
240.947
20
-130.903
11
243.442
21
-142.641
0
LINE
8
BLACK
6
CONTINUOUS
10
270.015
20
-85.772
11
272.51
21
-97.5097
0
LINE
8
BLACK
6
CONTINUOUS
10
214.464
20
-116.028
11
226.201
21
-113.533
0
LINE
8
BLACK
6
CONTINUOUS
10
254.991
20
-146.367
11
266.729
21
-143.872
0
LINE
8
BLACK
6
CONTINUOUS
10
237.687
20
-92.6434
11
240.182
21
-104.381
0
LINE
8
BLACK
6
CONTINUOUS
10
267.915
20
-144.642
11
270.41
21
-156.38
0
LINE
8
BLACK
6
CONTINUOUS
10
232.747
20
-93.6934
11
235.242
21
-105.431
0
LINE
8
BLACK
6
CONTINUOUS
10
249.281
20
-148.603
11
251.776
21
-160.34
0
LINE
8
BLACK
6
CONTINUOUS
10
257.091
20
-87.4967
11
268.829
21
-85.0017
0
LINE
8
BLACK
6
CONTINUOUS
10
260.002
20
-101.191
11
271.74
21
-98.6958
0
LINE
8
BLACK
6
CONTINUOUS
10
264.655
20
-106.382
11
267.15
21
-118.12
0
LINE
8
BLACK
6
CONTINUOUS
10
235.587
20
-151.513
11
238.082
21
-163.251
0
LINE
8
BLACK
6
CONTINUOUS
10
227.387
20
-114.303
11
229.882
21
-126.041
0
LINE
8
BLACK
6
CONTINUOUS
10
216.953
20
-155.474
11
219.448
21
-167.212
0
LINE
8
BLACK
6
CONTINUOUS
10
220.634
20
-167.982
11
232.372
21
-165.487
0
LINE
8
BLACK
6
CONTINUOUS
10
236.357
20
-150.327
11
248.095
21
-147.832
0
LINE
8
BLACK
6
CONTINUOUS
10
260.351
20
-125.757
11
272.089
21
-123.262
0
LINE
8
BLACK
6
CONTINUOUS
10
256.321
20
-88.6827
11
258.816
21
-100.42
0
LINE
8
BLACK
6
CONTINUOUS
10
254.642
20
-121.801
11
266.38
21
-119.306
0
LINE
8
BLACK
6
CONTINUOUS
10
254.221
20
-147.553
11
256.716
21
-159.29
0
LINE
8
BLACK
6
CONTINUOUS
10
254.641
20
-127.993
11
257.136
21
-139.73
0
LINE
8
BLACK
6
CONTINUOUS
10
222.734
20
-109.112
11
234.472
21
-106.617
0
LINE
8
BLACK
6
CONTINUOUS
10
250.961
20
-109.293
11
253.456
21
-121.03
0
LINE
8
BLACK
6
CONTINUOUS
10
219.053
20
-96.6041
11
221.548
21
-108.342
0
LINE
8
BLACK
6
CONTINUOUS
10
244.628
20
-143.411
11
256.366
21
-140.916
0
LINE
8
BLACK
6
CONTINUOUS
10
213.693
20
-117.214
11
216.188
21
-128.952
0
LINE
8
BLACK
6
CONTINUOUS
10
273.275
20
-124.032
11
275.77
21
-135.77
0
LINE
8
BLACK
6
CONTINUOUS
10
263.262
20
-139.451
11
275
21
-136.956
0
LINE
8
BLACK
6
CONTINUOUS
10
241.368
20
-105.151
11
253.106
21
-102.656
0
LINE
8
BLACK
6
CONTINUOUS
10
238.457
20
-91.4574
11
250.195
21
-88.9624
0
LINE
8
BLACK
6
CONTINUOUS
10
142.843
20
-104.402
11
140.348
21
-116.14
0
LINE
8
BLACK
6
CONTINUOUS
10
175.871
20
-130.903
11
173.376
21
-142.641
0
LINE
8
BLACK
6
CONTINUOUS
10
144.729
20
-123.262
11
156.467
21
-125.757
0
LINE
8
BLACK
6
CONTINUOUS
10
162.587
20
-147.553
11
160.092
21
-159.29
0
LINE
8
BLACK
6
CONTINUOUS
10
168.713
20
-147.832
11
180.451
21
-150.327
0
LINE
8
BLACK
6
CONTINUOUS
10
175.943
20
-90.9424
11
187.681
21
-93.4374
0
LINE
8
BLACK
6
CONTINUOUS
10
162.177
20
-127.993
11
159.682
21
-139.73
0
LINE
8
BLACK
6
CONTINUOUS
10
181.221
20
-151.513
11
178.726
21
-163.251
0
LINE
8
BLACK
6
CONTINUOUS
10
173.032
20
-104.636
11
184.77
21
-107.131
0
LINE
8
BLACK
6
CONTINUOUS
10
161.477
20
-108.363
11
158.982
21
-120.1
0
LINE
8
BLACK
6
CONTINUOUS
10
143.543
20
-124.032
11
141.048
21
-135.77
0
LINE
8
BLACK
6
CONTINUOUS
10
188.451
20
-94.6234
11
185.956
21
-106.361
0
LINE
8
BLACK
6
CONTINUOUS
10
162.663
20
-107.592
11
174.401
21
-110.087
0
LINE
8
BLACK
6
CONTINUOUS
10
169.817
20
-90.6627
11
167.322
21
-102.4
0
LINE
8
BLACK
6
CONTINUOUS
10
154.398
20
-100.676
11
166.136
21
-103.171
0
LINE
8
BLACK
6
CONTINUOUS
10
175.171
20
-111.273
11
172.676
21
-123.011
0
LINE
8
BLACK
6
CONTINUOUS
10
156.123
20
-87.7519
11
153.628
21
-99.4897
0
LINE
8
BLACK
6
CONTINUOUS
10
156.537
20
-107.313
11
154.042
21
-119.05
0
LINE
8
BLACK
6
CONTINUOUS
10
165.802
20
-161.526
11
177.54
21
-164.021
0
LINE
8
BLACK
6
CONTINUOUS
10
141.118
20
-117.326
11
152.856
21
-119.821
0
LINE
8
BLACK
6
CONTINUOUS
10
159.752
20
-121.286
11
171.49
21
-123.781
0
LINE
8
BLACK
6
CONTINUOUS
10
141.818
20
-136.956
11
153.556
21
-139.451
0
LINE
8
BLACK
6
CONTINUOUS
10
148.893
20
-144.642
11
146.398
21
-156.38
0
LINE
8
BLACK
6
CONTINUOUS
10
167.527
20
-148.603
11
165.032
21
-160.34
0
LINE
8
BLACK
6
CONTINUOUS
10
150.079
20
-143.872
11
161.817
21
-146.367
0
LINE
8
BLACK
6
CONTINUOUS
10
144.029
20
-103.632
11
155.767
21
-106.127
0
LINE
8
BLACK
6
CONTINUOUS
10
163.363
20
-127.222
11
175.101
21
-129.717
0
LINE
8
BLACK
6
CONTINUOUS
10
157.237
20
-126.943
11
154.742
21
-138.68
0
LINE
8
BLACK
6
CONTINUOUS
10
147.168
20
-157.566
11
158.906
21
-160.061
0
LINE
8
BLACK
6
CONTINUOUS
10
160.452
20
-140.916
11
172.19
21
-143.411
0
LINE
8
BLACK
6
CONTINUOUS
10
174.757
20
-91.7127
11
172.262
21
-103.45
0
LINE
8
BLACK
6
CONTINUOUS
10
151.239
20
-160.714
11
147.718
21
-177.249
0
LINE
8
BLACK
6
CONTINUOUS
10
148.488
20
-178.435
11
176.733
21
-184.48
0
ARC
8
BLACK
10
211.074
20
-86.868
40
6.72501
50
-100.886
51
-80.9097
0
ARC
8
BLACK
10
43.688
20
-175.514
40
3.048
50
180
51
270
0
ARC
8
BLACK
10
211.074
20
-189.738
40
6.72501
50
-100.886
51
-80.9097
0
ARC
8
BLACK
10
382.016
20
-174.752
40
3.048
50
-90
51
-0
0
ARC
8
BLACK
10
382.016
20
-78.486
40
3.048
50
-0
51
90
0
ARC
8
BLACK
10
43.688
20
-78.232
40
3.048
50
90
51
180
0
LINE
8
BLACK
6
CONTINUOUS
10
122.936
20
-75.184
11
209.804
21
-93.472
0
LINE
8
BLACK
6
CONTINUOUS
10
43.688
20
-75.184
11
122.936
21
-75.184
0
LINE
8
BLACK
6
CONTINUOUS
10
40.64
20
-175.514
11
40.64
21
-78.232
0
LINE
8
BLACK
6
CONTINUOUS
10
120.396
20
-178.562
11
43.688
21
-178.562
0
LINE
8
BLACK
6
CONTINUOUS
10
209.804
20
-196.342
11
120.396
21
-178.562
0
LINE
8
BLACK
6
CONTINUOUS
10
300.736
20
-177.8
11
212.136
21
-196.379
0
LINE
8
BLACK
6
CONTINUOUS
10
382.016
20
-177.8
11
300.736
21
-177.8
0
LINE
8
BLACK
6
CONTINUOUS
10
385.064
20
-78.486
11
385.064
21
-174.752
0
LINE
8
BLACK
6
CONTINUOUS
10
293.624
20
-75.438
11
382.016
21
-75.438
0
LINE
8
BLACK
6
CONTINUOUS
10
212.136
20
-93.5085
11
293.624
21
-75.438
  0
ENDSEC
  0
EOF
